<svg width="318" height="320" viewBox="0 0 318 320" fill="none" xmlns="http://www.w3.org/2000/svg">
<path fill-rule="evenodd" clip-rule="evenodd" d="M229.398 1.52568C224.037 3.13322 224.029 3.14664 223.36 11.1253C222.764 18.217 222.301 19.2502 219.245 20.3197C216.493 21.2818 214.636 20.788 210.004 17.8641L204.207 14.2049L199.067 19.3683L193.927 24.5331L197.925 30.9297C201.742 37.0365 201.824 37.4753 199.739 40.6581C197.866 43.5176 196.54 43.99 190.393 43.99C183.258 43.99 183.225 44.0101 181.833 49.0219C179.524 57.336 179.972 58.5678 186.459 61.7185C191.527 64.1808 192.497 65.2704 192.497 68.4962V72.3406L186.88 69.2356C183.791 67.5274 178.954 63.7152 176.132 60.7631C173.308 57.811 169.138 53.4326 166.863 51.0347C164.588 48.6355 162.179 46.6737 161.509 46.6737C159.791 46.6737 159.992 51.6962 161.755 52.7871C162.631 53.3279 162.88 55.491 162.375 58.1814C161.722 61.6595 162.15 63.2912 164.267 65.4086C165.771 66.9128 167.78 68.1433 168.73 68.1433C170.756 68.1433 180.42 79.3183 180.42 81.6611C180.42 82.5427 181.119 85.5981 181.974 88.4509C183.3 92.8737 184.085 93.6385 187.3 93.6385C191.072 93.6385 201.89 98.4826 201.89 100.172C201.89 100.664 200.38 103.288 198.535 106.004C196.69 108.718 195.181 111.453 195.181 112.081C195.181 112.709 197.456 115.444 200.238 118.16L205.296 123.098L211.202 119.187C216.754 115.512 217.339 115.395 220.912 117.243C224.567 119.134 224.683 119.492 223.864 126.454L223.013 133.697L228.889 135.204C232.12 136.033 235.519 136.963 236.441 137.273C237.397 137.592 239.57 134.966 241.496 131.167C244.38 125.477 245.445 124.501 248.777 124.501C251.976 124.501 253.251 125.529 255.848 130.204C259.21 136.253 261.244 136.921 269.632 134.731L273.635 133.686L269.655 136.809C266.343 139.408 264.282 139.887 257.385 139.659C246.888 139.313 245.185 141.807 252.942 146.167C256.99 148.442 258.241 149.964 258.218 152.591C258.173 157.912 253.652 166.663 247.505 173.333C233.389 188.647 214.105 189.048 199.393 174.336C194.188 169.131 176.395 143.963 176.395 141.807C176.395 139.959 167.76 140.449 152.241 143.174C136.988 145.853 132.645 145.198 130.735 139.93C129.894 137.608 130.33 137.243 133.938 137.246C137.441 137.249 138.821 136.195 142.494 130.723C146.765 124.359 148.373 116.192 145.681 114.528C145.025 114.123 144.104 112.266 143.636 110.401C142.941 107.629 143.77 106.072 148.185 101.873C152.969 97.3232 153.583 96.031 153.583 90.5388C153.583 85.5686 152.787 83.4324 149.572 79.7705C146.279 76.02 144.296 75.0485 138.502 74.3427C134.619 73.8703 126.204 72.7767 119.802 71.9126C104.326 69.8247 99.7856 71.239 88.1692 81.7658C69.4839 98.7 60.2184 101.059 41.5384 93.6385C35.8329 91.3721 28.8955 89.613 25.6643 89.613C17.3368 89.613 9.03478 95.2984 3.97197 104.471C0.283217 111.154 -0.0442369 112.804 0.00406976 124.501C0.0671369 139.498 4.06582 152.626 12.1451 164.357C21.6629 178.177 39.9684 187.54 58.1277 187.876L67.2027 188.045L62.7572 198.327C60.0694 204.543 57.736 212.893 56.8544 219.44C55.542 229.187 55.6588 230.86 58.0151 236.188C62.0352 245.275 72.3715 249.138 80.8547 244.724C85.2641 242.43 89.5017 237.894 92.227 232.552L94.2625 228.559L95.1656 237.92C96.631 253.124 99.2462 257.345 107.201 257.345C109.094 257.345 110.644 257.613 110.644 257.942C110.644 258.269 108.61 263 106.125 268.455C103.638 273.91 100.874 280.585 99.9815 283.291C99.0892 285.994 97.7661 288.207 97.0415 288.207C96.3182 288.207 96.0808 288.783 96.5155 289.485C96.9489 290.188 95.748 296.902 93.8466 304.405C91.9438 311.908 90.5685 318.223 90.7872 318.439C91.9465 319.576 303.566 320.649 304.263 319.522C304.98 318.36 282.041 229.158 280.301 226.341C279.893 225.681 276.901 225.14 273.652 225.14C267.811 225.14 267.728 225.076 266.374 219.437C265.62 216.3 264.067 210.88 262.923 207.393C260.969 201.434 261.003 200.741 263.469 195.906C266.903 189.176 269.88 177.122 270.999 165.428C271.87 156.322 272.058 155.934 277.134 152.755C283.516 148.759 290.947 139.805 289.978 137.28C289.589 136.264 290.148 134.705 291.22 133.814C292.468 132.778 292.721 131.657 291.924 130.696C291.24 129.873 290.478 128.594 290.231 127.856C289.403 125.387 281.96 126.388 278.308 129.459L274.707 132.491L273.84 126.166C273.079 120.62 273.346 119.555 276.01 117.505C279.954 114.469 280.31 114.503 286.138 118.463C288.854 120.308 291.723 121.817 292.513 121.817C293.304 121.817 296.015 119.687 298.54 117.083C302.762 112.726 302.978 112.112 301.249 109.368C295.196 99.7668 295.142 99.5695 297.559 95.8808C299.636 92.7113 300.386 92.4872 306.509 93.2118C313.823 94.0786 314.298 93.6117 316.523 83.3814C317.378 79.4511 317.045 78.9452 311.662 75.9838C306.757 73.2853 305.823 72.0937 305.485 68.0883C305.112 63.6843 305.49 63.1758 311.188 60.4075C314.544 58.7772 317.28 56.9831 317.269 56.4195C317.257 55.856 316.422 52.6785 315.415 49.3574L313.58 43.319L306.169 43.57C299.154 43.8088 298.674 43.6142 297.141 39.9161C295.716 36.4742 295.932 35.3109 298.961 30.1447L302.397 24.2795L297.153 19.1576L291.909 14.0371L286.35 17.7151C281.4 20.9919 280.367 21.2174 276.9 19.7816C273.25 18.2693 273.008 17.6937 273.008 10.5349V2.89974L266.398 1.20498C260.201 -0.382432 259.603 -0.304605 256.854 2.44485C254.528 4.77028 252.925 5.21712 249.124 4.59987C246.474 4.17047 243.554 4.46434 242.599 5.25603C241.293 6.34025 240.482 5.83571 239.279 3.20031C237.509 -0.684349 237.033 -0.764862 229.398 1.52568ZM238.073 4.98766C238.837 6.41539 239.462 9.21718 239.462 11.2139C239.462 13.2105 240.338 15.5145 241.409 16.3344C244.423 18.641 240.231 22.7645 230.375 27.1873C221.108 31.3457 212.016 40.0785 207.142 49.5023C204.871 53.8888 203.94 58.4041 203.497 67.1638L202.9 78.9318L198.706 76.2763C196.398 74.815 194.435 72.9914 194.342 72.2225C194.249 71.455 194.099 69.1001 194.007 66.988C193.871 63.8802 192.691 62.5397 187.814 59.9526C183.855 57.8526 181.992 56.0626 182.382 54.7342C182.709 53.6218 183.382 51.0172 183.876 48.9454C184.752 45.2755 184.949 45.2017 191.656 46.0323C198.249 46.8495 198.633 46.7179 200.883 42.8816C203.994 37.5786 203.865 36.1522 199.723 30.0562L196.214 24.8927L200.234 20.8725L204.254 16.8523L210.45 20.4834L216.644 24.1131L221.007 21.5314C225.08 19.1227 225.36 18.4867 225.193 12.0726C225.027 5.79412 225.319 5.08428 228.547 3.90076C234.047 1.88396 236.565 2.17111 238.073 4.98766ZM270.649 4.60658C271.209 4.95143 271.666 6.5214 271.666 8.09539C271.666 10.8194 271.58 10.8381 269.863 8.49124C268.631 6.80587 266.964 6.23424 264.599 6.68645C261.971 7.1883 260.972 6.71865 260.454 4.73808C259.84 2.38984 260.266 2.22076 264.702 3.05271C267.414 3.56127 270.091 4.26038 270.649 4.60658ZM137.435 8.09539C121.588 16.0942 121.614 37.8684 137.481 46.3422C148.793 52.3846 161.795 47.35 167.359 34.7741C169.762 29.341 169.891 27.9132 168.462 22.5525C165.813 12.6174 156.639 5.07622 147.201 5.07622C145.12 5.07622 140.726 6.43552 137.435 8.09539ZM159.73 11.87C164.636 16.4525 167.003 21.5381 166.996 27.4852C166.987 37.5531 157.85 46.6589 147.747 46.6683C136.119 46.6804 128.088 38.7795 128.088 27.3268C128.088 14.3283 135.59 7.27552 148.532 8.10613C154.402 8.48184 157.061 9.37686 159.73 11.87ZM179.078 10.2356C179.078 11.5346 183.533 15.811 184.887 15.811C185.382 15.811 185.788 15.2072 185.788 14.4692C185.788 13.7312 184.882 13.1273 183.775 13.1273C182.668 13.1273 181.762 12.2216 181.762 11.1146C181.762 10.0075 181.158 9.10178 180.42 9.10178C179.682 9.10178 179.078 9.61169 179.078 10.2356ZM140.836 15.811C137.953 18.7631 134.847 21.1785 133.933 21.1785C131.027 21.1785 130.929 23.049 133.364 31.9468L135.742 40.6353H147.651H159.558L161.112 33.9261C161.966 30.236 163.098 26.1688 163.628 24.8873C164.331 23.1859 163.74 22.2264 161.436 21.3274C159.699 20.6498 156.198 17.9245 153.656 15.2703C151.112 12.6161 148.366 10.4436 147.554 10.4436C146.741 10.4436 143.718 12.859 140.836 15.811ZM152.271 17.1932L155.108 21.1785H146.702H138.297L142.797 16.5343C147.761 11.4125 148.174 11.442 152.271 17.1932ZM37.1774 14.0156C36.2556 14.3887 35.5001 16.117 35.5001 17.856C35.5001 21.9286 33.6148 23.0423 30.2628 20.9477C28.0367 19.5575 27.1444 19.6971 24.8284 21.7917C22.3473 24.0379 22.2574 24.6015 23.9655 27.2101C26.3393 30.8318 24.8981 33.4242 20.7759 32.9465C18.3499 32.6661 17.4146 33.4282 16.6068 36.3468C15.7225 39.5444 16.0553 40.3334 18.8236 41.5947C22.9042 43.4532 22.9081 44.4784 18.8504 47.5687C14.6598 50.7596 16.1814 56.0666 21.2885 56.0666C25.5073 56.0666 26.6519 57.9144 24.5345 61.3039C22.2346 64.9873 26.4976 70.089 30.2132 68.1004C34.1032 66.0192 35.5001 66.5693 35.5001 70.1843C35.5001 72.5406 36.5776 74.0595 39.0479 75.1854C42.1919 76.6171 42.8213 76.4601 44.5791 73.814C47.0709 70.0608 49.8123 69.983 50.9703 73.6328C51.6319 75.7167 52.6047 76.2401 54.7503 75.6644C56.3404 75.2377 58.0929 74.8808 58.6471 74.8714C59.2013 74.8606 59.6535 73.0411 59.6535 70.827C59.6535 66.4928 62.9504 65.2677 66.1091 68.4264C67.3812 69.6985 68.3755 69.4114 70.6862 67.0993C72.9982 64.7887 73.2853 63.7944 72.0133 62.5223C69.0934 59.6024 70.0635 56.0666 73.7858 56.0666C76.0616 56.0666 77.5793 55.0683 78.3791 53.0475C79.3479 50.6013 78.8943 49.4459 75.9878 46.9622C72.5258 44.002 72.4897 43.8289 74.9399 41.9785C76.3354 40.9238 78.0341 39.8758 78.7131 39.6491C79.4431 39.4062 79.3787 37.7396 78.5561 35.5752C77.5833 33.0163 76.2106 31.9133 73.9992 31.9133C69.5617 31.9133 68.7258 30.5889 70.9881 27.1363C72.7446 24.4553 72.6789 23.9212 70.3172 21.785C68.1447 19.8192 67.1101 19.6769 64.2989 20.9571C60.6987 22.5981 60.3002 22.2345 59.3824 16.482C58.7396 12.443 53.0408 12.1652 49.972 16.0217L47.4708 19.1657L45.348 16.1465C43.3057 13.2441 40.7454 12.5772 37.1774 14.0156ZM175.053 14.4692C175.053 15.2072 175.959 15.811 177.066 15.811C178.173 15.811 179.078 16.7168 179.078 17.8238C179.078 18.9309 179.682 19.8366 180.42 19.8366C182.371 19.8366 182.063 17.2616 179.845 15.0448C177.628 12.8268 175.053 12.5181 175.053 14.4692ZM47.0642 19.8366C48.7737 19.8366 50.7985 18.6544 51.5755 17.2026C53.4179 13.762 56.9698 15.1321 56.9698 19.2838C56.9698 21.5864 57.9265 22.7095 60.4223 23.3362C62.3466 23.8192 64.5311 23.5468 65.355 22.7229C67.7892 20.2888 70.6701 23.5119 68.9445 26.7378C66.8861 30.5822 68.6573 34.597 72.4118 34.597C76.9231 34.597 78.1389 37.3787 74.6433 39.7001C70.9385 42.1597 70.9156 45.9504 74.5896 48.5254C78.0019 50.9139 77.1244 54.8321 73.3954 53.8566C69.4101 52.814 66.9612 56.7215 68.9136 61.0073C70.9385 65.4529 69.1189 67.6522 65.1645 65.5361C61.2543 63.4441 56.9698 65.8836 56.9698 70.2031C56.9698 74.242 53.6379 74.6298 51.6023 70.827C50.812 69.351 49.0005 68.1433 47.5768 68.1433C46.1531 68.1433 44.3416 69.351 43.5512 70.827C41.5492 74.5694 38.1838 74.2514 38.1838 70.3198C38.1838 65.673 34.6977 63.1355 31.2599 65.2825C27.547 67.6012 24.191 65.0007 26.3795 61.4971C28.4916 58.1143 26.77 54.7248 22.9377 54.7248C17.6843 54.7248 17.1717 48.143 22.417 48.0356C24.7036 47.99 23.2194 41.4981 20.5102 39.7001C17.0147 37.3787 18.2305 34.597 22.7418 34.597C26.4963 34.597 28.4984 30.0978 26.0535 27.1524C24.7908 25.6307 24.7975 24.7693 26.087 23.2154C27.5147 21.4951 28.1012 21.4831 30.4427 23.1228C33.8939 25.5408 38.1838 23.2302 38.1838 18.955C38.1838 15.1737 41.1869 14.1109 42.7502 17.3367C43.4157 18.7121 45.3573 19.8366 47.0642 19.8366ZM248.184 18.4948C248.64 19.2328 248.036 19.8366 246.842 19.8366C245.648 19.8366 245.044 19.2328 245.5 18.4948C245.956 17.7567 246.56 17.1529 246.842 17.1529C247.124 17.1529 247.728 17.7567 248.184 18.4948ZM265.292 19.7601C267.323 20.7772 268.983 22.4183 268.983 23.4073C268.983 25.9796 267.49 25.5771 263.28 21.8709C259.838 18.8423 258.308 16.3048 260.596 17.4199C261.15 17.6896 263.262 18.7417 265.292 19.7601ZM285.057 20.686C287.993 18.743 290.899 17.1529 291.514 17.1529C292.13 17.1529 294.307 18.9 296.354 21.0349L300.073 24.9182L296.356 30.5339L292.639 36.1495L295.111 40.7413C297.446 45.0769 297.979 45.3318 304.673 45.3318C312.54 45.3318 312.654 45.415 313.904 52.0746C314.757 56.6248 314.579 56.8865 308.658 59.7634C302.888 62.5666 302.529 63.0577 302.529 68.1433C302.529 73.2169 302.897 73.7241 308.567 76.4789C314.869 79.541 315.643 81.3445 313.297 87.513C312.118 90.614 311.279 90.9548 304.823 90.9548C297.938 90.9548 297.569 91.1413 295.39 95.7117C293.171 100.367 293.194 100.576 296.484 105.416C300.664 111.568 300.656 112.102 296.332 116.615L292.818 120.282L286.619 116.425L280.419 112.565L276.379 115.118C272.804 117.373 272.292 118.511 271.939 124.963C271.543 132.226 271.519 132.264 266.275 133.595L261.008 134.931L257.558 129.045C254.427 123.703 253.63 123.159 248.926 123.159C244.189 123.159 243.432 123.688 240.145 129.297C237.673 133.516 235.915 135.192 234.525 134.659C233.413 134.232 231.05 133.518 229.273 133.072C226.36 132.34 226.043 131.551 226.043 125.004C226.043 118.088 225.831 117.647 221.528 115.595C217.174 113.519 216.797 113.568 211.032 116.946L205.051 120.45L201.458 116.7C199.481 114.636 197.864 112.517 197.864 111.988C197.864 111.461 199.395 108.603 201.267 105.639C203.139 102.673 204.366 99.7547 203.993 99.1522C203.621 98.5497 204.876 97.3461 206.781 96.4779C209.967 95.026 210.761 95.3802 216.613 100.854C231.994 115.241 250.202 117.992 270.314 108.967C278.508 105.288 284.12 99.2931 289.846 88.0953C291.118 85.6089 292.982 83.0916 293.988 82.5011C296.339 81.1244 296.299 76.6896 293.822 63.7461C290.864 48.2839 285.36 39.0264 274.809 31.7684C269.68 28.2393 269.208 27.4919 270.646 25.1866C271.919 23.1496 271.914 22.2318 270.626 20.9436C267.121 17.4387 269.235 17.2817 274.35 20.6672L279.717 24.2191L285.057 20.686ZM251.538 24.7196C251.538 26.299 250.464 28.9183 249.15 30.5406C246.782 33.4645 246.732 33.4685 243.58 30.9163C241.214 29.0001 240.608 27.508 241.214 25.0953C241.884 22.4264 242.873 21.8494 246.783 21.8494C250.747 21.8494 251.538 22.3271 251.538 24.7196ZM264.597 25.5395C271.972 33.2122 288.509 59.3488 291.001 67.2698C293.228 74.3548 293.246 75.1558 291.226 78.2381C288.778 81.9751 283.646 82.6662 281.101 79.5987C280.206 78.5199 279.309 74.4447 279.111 70.5412C278.636 61.2355 270.844 40.2046 266.387 36.2005C264.493 34.499 260.851 31.3967 258.293 29.3061C254.265 26.0145 253.883 25.2161 255.439 23.3429C258.046 20.2002 259.89 20.6431 264.597 25.5395ZM241.872 31.5778C248.828 38.4468 248.011 40.4461 237.509 42.2442C231.895 43.2063 226.868 45.1399 222.922 47.8545C216.014 52.6073 205.43 67.4818 206.377 71.1034C206.722 72.4265 206.362 73.9052 205.576 74.391C202.864 76.0683 205.628 57.85 209.246 50.2014C213.175 41.8967 222.266 32.8888 230.485 29.1571C233.576 27.7535 236.257 26.5915 236.441 26.5754C236.625 26.5593 239.069 28.8109 241.872 31.5778ZM36.5145 33.2672C31.3819 38.3985 31.1646 38.9553 31.7832 45.3868C32.8526 56.5215 41.7075 62.839 52.1874 59.9446C70.2433 54.9596 65.7589 27.8877 46.8764 27.8877C42.8508 27.8877 40.8608 28.921 36.5145 33.2672ZM141.507 33.2551C141.507 36.2072 140.976 38.6225 140.328 38.6225C139.68 38.6225 138.536 36.2072 137.787 33.2551C136.555 28.403 136.668 27.8877 138.965 27.8877C141.036 27.8877 141.507 28.8834 141.507 33.2551ZM149.558 33.2551C149.558 37.1317 148.998 38.6225 147.545 38.6225C146.092 38.6225 145.532 37.1317 145.532 33.2551C145.532 29.3785 146.092 27.8877 147.545 27.8877C148.998 27.8877 149.558 29.3785 149.558 33.2551ZM157.303 33.2551C156.554 36.2072 155.409 38.6225 154.761 38.6225C154.113 38.6225 153.583 36.2072 153.583 33.2551C153.583 28.8834 154.054 27.8877 156.125 27.8877C158.422 27.8877 158.535 28.403 157.303 33.2551ZM260.047 38.0898L258.068 41.109L253.461 38.3918C248.126 35.2438 248.209 35.4866 250.994 31.2383L253.133 27.9749L257.578 31.5228C261.75 34.8506 261.903 35.2572 260.047 38.0898ZM57.4246 34.0763C62.2902 38.9419 63.302 45.4445 60.0587 50.9985C56.7336 56.6919 52.1834 59.004 45.7948 58.2458C39.6156 57.5118 36.1107 54.6013 34.1113 48.5455C32.3025 43.0641 33.3478 39.1392 37.9141 34.2615C42.7703 29.0753 52.3336 28.984 57.4246 34.0763ZM84.7729 32.2997C83.7088 35.072 85.786 37.6135 88.6643 37.0593C92.2296 36.3723 91.9667 31.3537 88.3383 30.8358C86.7723 30.613 85.1674 31.2705 84.7729 32.2997ZM88.6429 35.5752C87.2795 36.9399 86.1537 34.8855 87.2728 33.0753C88.1182 31.7066 88.4349 31.7066 88.8884 33.07C89.1997 34.0025 89.0884 35.1297 88.6429 35.5752ZM283.063 42.3784C287.089 47.8787 291.161 56.0666 289.868 56.0666C289.624 56.0666 285.76 50.9287 281.279 44.6475C276.439 37.8617 274.212 33.8053 275.79 34.6493C277.25 35.4303 280.522 38.9084 283.063 42.3784ZM267.681 40.0395C268.822 42.1717 268.639 42.6441 266.681 42.628C265.364 42.6159 263.419 42.059 262.359 41.3881C260.769 40.3817 260.737 39.802 262.177 38.0684C264.144 35.6986 265.645 36.2354 267.681 40.0395ZM253.472 40.6783C254.905 41.7611 257.169 42.6481 258.504 42.6481C259.839 42.6481 260.931 43.2251 260.931 43.9296C260.931 45.6404 252.479 47.1527 249.032 46.0591C246.665 45.3077 246.496 44.7441 247.789 41.9061C249.519 38.11 249.954 38.016 253.472 40.6783ZM170.792 58.0834C174.177 62.5397 179.724 67.0309 188.471 72.397C195.483 76.6976 201.93 80.2173 202.798 80.2187C203.668 80.2187 205.622 78.6393 207.141 76.7084C209.72 73.4302 210.395 73.2585 217.302 74.1213C221.372 74.6298 224.701 75.655 224.701 76.3984C224.701 78.6433 209.105 93.5124 205.187 95.0018C203.178 95.7654 200.386 96.0257 198.981 95.5802C197.574 95.1333 191.003 88.6589 184.377 81.1928C177.751 73.7254 170.449 66.8256 168.15 65.8581C164.28 64.2318 164.03 63.7326 164.774 59.1395C165.366 55.4963 164.966 53.4795 163.271 51.5553C161.077 49.0622 161.084 48.9977 163.412 50.2604C164.758 50.9917 168.079 54.5114 170.792 58.0834ZM223.184 91.7532C222.648 97.3581 221.975 102.179 221.688 102.468C221.399 102.755 219.121 100.883 216.622 98.3068L212.083 93.6224L218 87.5921C221.255 84.2751 223.973 81.5618 224.038 81.5618C224.104 81.5618 223.719 86.1483 223.184 91.7532ZM189.813 91.4835C189.813 91.9303 188.606 92.2967 187.13 92.2967C185.653 92.2967 184.438 91.5425 184.427 90.6193C184.418 89.6975 184.014 87.4324 183.531 85.5874C182.697 82.4032 182.836 82.4475 186.233 86.4515C188.202 88.773 189.813 91.0367 189.813 91.4835ZM289.105 85.2519C289.101 85.8048 287.292 88.9756 285.085 92.2967L281.071 98.335L281.065 91.2903C281.059 84.3556 281.122 84.2455 285.085 84.2455C287.299 84.2455 289.108 84.6991 289.105 85.2519ZM138.283 93.3232C139.094 93.8653 140.127 98.3847 140.581 103.367C141.527 113.748 142.544 113.161 127.472 110.919C117.601 109.451 117.353 109.321 117.353 105.601C117.353 101.971 117.638 101.793 123.249 101.906C130.518 102.052 131.675 101.373 132.788 96.3075C133.657 92.349 135.408 91.399 138.283 93.3232ZM108.967 106.778C113.022 111.937 109.048 120.476 102.593 120.476C98.4411 120.476 94.5416 116.402 94.5416 112.065C94.5416 110.719 96.0607 108.1 97.9191 106.241C101.581 102.579 105.828 102.785 108.967 106.778ZM144.503 116.91C146.355 119.821 145.535 122.851 141.132 129.381C137.336 135.012 136.197 135.848 132.822 135.48C130.671 135.245 127.724 134.417 126.272 133.641C123.786 132.309 123.771 132.151 126.012 130.898C127.319 130.165 130.397 129.893 132.852 130.29C137.764 131.088 141.018 128.66 139.686 125.19C138.588 122.329 134.473 122.668 131.754 125.843C130.49 127.319 128.594 128.527 127.54 128.527C126.486 128.527 124.517 128.941 123.166 129.449C121.026 130.252 120.94 130.086 122.5 128.166C124.658 125.512 123.502 123.159 120.037 123.159C116.586 123.159 115.731 121.324 116.721 116.042L117.562 111.562L130.54 113.46C137.677 114.504 143.961 116.057 144.503 116.91ZM121.379 125.681C121.379 126.329 119.567 127.61 117.353 128.527C112.831 130.4 112.026 132.552 115.848 132.552C117.232 132.552 119.196 133.553 120.209 134.776C121.885 136.799 121.597 136.915 117.018 136.057C111.414 135.008 110.64 136.285 114.669 139.932C118.451 143.354 118.036 145.313 112.665 149.41C107.006 153.727 106.173 156.457 102.504 182.7C96.4337 226.138 88.2604 243.926 74.3736 243.926C63.9608 243.926 58.3116 237.931 58.3116 226.878C58.3116 219.622 62.7236 211.39 82.8299 181.133C98.9456 156.881 100.241 154.457 101.382 146.385C102.059 141.612 103.159 136.699 103.829 135.465C105.99 131.483 112.565 126.087 116.011 125.469C117.856 125.137 119.818 124.784 120.372 124.684C120.927 124.583 121.379 125.031 121.379 125.681ZM279.98 132.952C273.373 139.769 274.904 140.594 281.73 133.894C288.961 126.797 289.741 127.677 282.916 135.232C276.789 142.014 278.549 142.236 285.593 135.571L290.912 130.539L285.985 136.716C280.472 143.629 279.536 146.363 284.011 142.489L286.963 139.932L284.09 143.702C280.56 148.335 275.94 152.023 272.199 153.194C269.699 153.976 269.287 155.419 268.593 165.791C267.803 177.625 263.921 192.854 260.501 197.53C258.751 199.924 258.456 199.943 255.462 197.847C250.944 194.681 237.313 194.842 232.343 198.119C227.083 201.588 224.954 205.046 223.283 212.837L221.838 219.574L216.896 218.883C209.351 217.828 198.809 214.726 196.18 212.787C191.821 209.572 183.156 184.098 180.35 166.248C178.912 157.104 177.737 149.282 177.737 148.865C177.737 148.449 180.885 152.911 184.733 158.78C198.317 179.504 208.481 186.901 223.36 186.892C230.402 186.887 233.266 186.19 238.233 183.276C246.345 178.513 253.742 170.158 257.92 161.029C261.981 152.158 261.123 147.963 254.589 144.747C247.753 141.383 249.036 139.208 256.24 141.948C261.427 143.919 265.604 142.361 274.704 135.056C284.18 127.452 286.024 126.715 279.98 132.952ZM128.088 138.596C128.088 139.537 129.233 141.72 130.631 143.447C132.594 145.87 134.965 146.757 141.03 147.335L148.887 148.084L137.889 151.679C126.023 155.558 109.302 157.954 109.302 155.773C109.302 155.058 111.717 152.53 114.669 150.157C120.517 145.458 121.195 143.294 117.862 139.962C115.857 137.957 115.95 137.853 119.057 138.634C123.146 139.659 124.995 137.317 122.5 134.273C121.008 132.45 121.325 132.485 124.398 134.485C126.428 135.806 128.088 137.655 128.088 138.596ZM175.053 144.719C175.053 145.507 176.287 154.11 177.796 163.84C179.752 176.46 182.252 186.163 186.518 197.698C195.403 221.722 194.696 228.825 182.34 239.702C173.639 247.361 164.062 250.582 145.564 252.066C137.06 252.749 125.651 253.917 120.213 254.664C108.704 256.243 100.53 254.708 99.269 250.732C98.8275 249.342 97.9808 242.863 97.3864 236.337C96.4551 226.095 96.7329 222.722 99.4179 211.722C101.129 204.71 103.763 190.256 105.271 179.602C106.779 168.947 108.153 160.129 108.323 160.005C108.493 159.882 113.462 159.035 119.366 158.125C130.377 156.429 148.864 150.901 151.868 148.406C152.796 147.637 153.246 146.513 152.872 145.905C152.11 144.673 157.458 143.824 168.008 143.502C172.238 143.373 175.053 143.859 175.053 144.719ZM264.286 147.313C262.951 148.789 262.481 149.996 263.243 149.996C264.004 149.996 265.353 149.123 266.238 148.056C267.125 146.988 270.369 145.886 273.448 145.606L279.046 145.097L272.881 144.864C268.218 144.687 266.123 145.284 264.286 147.313ZM303.49 149.868C300.097 155.609 300.59 156.706 306.554 156.706C309.507 156.706 311.922 156.424 311.922 156.08C311.922 154.669 307.338 145.971 306.595 145.971C306.153 145.971 304.755 147.725 303.49 149.868ZM308.746 154.963C307.424 156.283 304.138 153.544 304.842 151.71C305.541 149.889 305.873 149.933 307.427 152.059C308.408 153.399 309.001 154.706 308.746 154.963ZM90.9978 165.448C88.2953 169.518 85.9082 172.672 85.6935 172.458C85.4788 172.243 83.8122 169.871 81.9899 167.185L78.6769 162.304L86.2745 160.308C90.4517 159.212 94.3297 158.254 94.8905 158.18C95.4514 158.108 93.7003 161.378 90.9978 165.448ZM303.943 171.529C301.83 185.977 297.831 200.89 292.878 212.798C290.636 218.187 289.086 222.879 289.434 223.227C290.687 224.481 298.612 204.629 301.882 192.041C305.082 179.724 307.72 160.731 306.231 160.731C305.841 160.731 304.811 165.59 303.943 171.529ZM77.5659 170.94L75.0848 174.748L74.6487 170.982C74.4098 168.908 74.5829 166.252 75.0338 165.076C75.7771 163.138 76.0496 163.134 77.9496 165.034C79.8511 166.935 79.8148 167.486 77.5659 170.94ZM83.1279 172.782C83.6861 174.542 82.6407 177.377 80.0335 181.169C77.8691 184.32 72.3407 192.936 67.7489 200.316C59.31 213.878 58.6819 213.614 64.5432 198.974C68.0588 190.196 79.7169 170.124 81.3003 170.124C81.841 170.124 82.6636 171.32 83.1279 172.782ZM7.3212 184.885C7.3212 185.623 7.92503 186.226 8.66305 186.226C9.40107 186.226 10.0049 185.623 10.0049 184.885C10.0049 184.146 9.40107 183.543 8.66305 183.543C7.92503 183.543 7.3212 184.146 7.3212 184.885ZM307.364 188.91C305.575 198.612 299.849 215.783 295.574 224.269C291.26 232.832 291.209 236.024 295.499 228.901C301.761 218.502 309.792 193.103 308.932 186.414C308.573 183.615 308.244 184.138 307.364 188.91ZM1.95379 186.226C1.95379 186.964 2.55762 187.568 3.29564 187.568C4.03366 187.568 4.63749 186.964 4.63749 186.226C4.63749 185.488 4.03366 184.885 3.29564 184.885C2.55762 184.885 1.95379 185.488 1.95379 186.226ZM9.33398 190.252C9.79021 190.99 10.429 191.594 10.755 191.594C11.0811 191.594 11.3468 190.99 11.3468 190.252C11.3468 189.514 10.7067 188.91 9.92571 188.91C9.14475 188.91 8.87775 189.514 9.33398 190.252ZM3.96657 191.594C3.51034 192.332 3.77734 192.936 4.55829 192.936C5.33925 192.936 5.97935 192.332 5.97935 191.594C5.97935 190.856 5.71369 190.252 5.38762 190.252C5.06155 190.252 4.4228 190.856 3.96657 191.594ZM252.613 202.7L255.7 206.001L251.271 209.736C246.728 213.565 241.405 216.214 235.027 217.815C231.637 218.664 231.411 218.44 231.416 214.215C231.423 208.17 235.858 201.244 241.147 199.021C245.904 197.02 247.901 197.66 252.613 202.7ZM233.543 202.432C230.952 205.511 230.069 208.068 230.069 212.496C230.069 215.761 229.816 218.431 229.508 218.431C229.199 218.431 227.992 218.797 226.824 219.245C222.342 220.964 225.604 207.158 230.94 201.823C235.823 196.94 237.779 197.397 233.543 202.432ZM255.591 200.348C256.525 201.472 257.019 202.663 256.69 202.991C256.361 203.32 255.073 202.401 253.828 200.946C252.584 199.493 252.089 198.303 252.729 198.303C253.37 198.303 254.657 199.224 255.591 200.348ZM263.037 214.612C265.398 225.626 265.453 225.14 261.849 225.14C258.86 225.14 258.741 224.735 258.741 214.384C258.741 201.929 260.334 202.013 263.037 214.612ZM4.58114 207.092C3.1561 208.811 3.2433 209.561 5.08835 211.405C7.17091 213.489 7.47149 213.489 9.55404 211.405C11.3991 209.561 11.4863 208.811 10.0613 207.092C9.11122 205.949 7.87807 205.012 7.3212 205.012C6.76433 205.012 5.53118 205.949 4.58114 207.092ZM8.66305 209.038C8.66305 209.776 8.05922 210.38 7.3212 210.38C6.58318 210.38 5.97935 209.776 5.97935 209.038C5.97935 208.3 6.58318 207.696 7.3212 207.696C8.05922 207.696 8.66305 208.3 8.66305 209.038ZM255.755 224.144C253.891 226.008 232.753 223.969 232.753 221.924C232.753 221.047 235.393 219.624 238.62 218.76C241.846 217.897 247.13 215.17 250.362 212.701L256.235 208.213L256.643 215.53C256.868 219.555 256.468 223.431 255.755 224.144ZM213.631 220.528C222.09 221.647 222.965 223.792 214.973 223.817C203.98 223.852 204.123 223.681 200.631 240.99C198.891 249.615 197.181 257.188 196.831 257.817C196.481 258.445 194.154 254.266 191.661 248.531C187.645 239.295 187.351 237.854 189.09 235.934C192.195 232.502 195.181 224.309 195.181 219.22V214.556L200.883 217.076C204.019 218.462 209.756 220.016 213.631 220.528ZM15.3723 221.194C15.3723 221.975 15.9761 222.242 16.7142 221.785C17.4522 221.329 18.056 220.691 18.056 220.364C18.056 220.038 17.4522 219.773 16.7142 219.773C15.9761 219.773 15.3723 220.413 15.3723 221.194ZM10.0049 222.456C10.0049 223.194 10.645 223.798 11.426 223.798C12.2069 223.798 12.4739 223.194 12.0177 222.456C11.5615 221.718 10.9227 221.115 10.5966 221.115C10.2706 221.115 10.0049 221.718 10.0049 222.456ZM230.069 222.456C230.069 223.194 228.559 223.798 226.714 223.798C224.869 223.798 223.36 223.194 223.36 222.456C223.36 221.718 224.869 221.115 226.714 221.115C228.559 221.115 230.069 221.718 230.069 222.456ZM16.7142 226.482C16.7142 227.22 17.318 227.824 18.056 227.824C18.794 227.824 19.3979 227.22 19.3979 226.482C19.3979 225.744 18.794 225.14 18.056 225.14C17.318 225.14 16.7142 225.744 16.7142 226.482ZM11.3468 227.903C11.3468 228.684 11.9506 228.951 12.6886 228.495C13.4266 228.038 14.0305 227.4 14.0305 227.074C14.0305 226.748 13.4266 226.482 12.6886 226.482C11.9506 226.482 11.3468 227.122 11.3468 227.903ZM211.287 244.932C211.288 255.081 211.685 275.611 212.17 290.555L213.05 317.728H200.09C190.59 317.728 187.143 317.28 187.178 316.051C187.317 311.133 191.342 298.099 193.121 296.798C195.713 294.903 195.802 293.42 193.266 294.393C191.939 294.903 191.527 294.376 191.924 292.674C192.239 291.324 195.244 276.936 198.601 260.699C206.035 224.752 205.525 226.482 208.689 226.482C211.127 226.482 211.283 227.592 211.287 244.932ZM230.069 227.555C230.069 228.146 229.34 229.358 228.449 230.249C226.31 232.387 230.27 236.6 233.319 235.429C235.823 234.469 236.106 230.372 233.826 228.092C232.574 226.84 236.002 226.482 249.257 226.482C265.652 226.482 267.932 226.996 264.913 230.015C262.713 232.214 264.931 236.069 268.133 235.611C271.821 235.082 272.585 230.838 269.436 228.379C267.202 226.635 267.528 226.487 272.92 226.804L278.869 227.153L289.811 268.75C295.829 291.629 301.164 312.009 301.666 314.038L302.58 317.728H258.273H213.967V300.725C213.967 286.448 214.344 283.292 216.315 281.04C218.494 278.553 218.498 278.42 216.368 279.195C214.26 279.963 214.042 277.856 213.685 253.255L213.296 226.479L221.682 226.481C226.296 226.482 230.069 226.965 230.069 227.555ZM233.017 231.666C234.029 230.222 234.199 230.211 233.827 231.615C233.258 233.764 230.913 233.979 230.538 231.916C230.365 230.962 230.529 230.98 231.003 231.967C231.519 233.045 232.114 232.955 233.017 231.666ZM205.379 248.958C203.552 285.298 202.988 290.891 201.138 290.891C200.163 290.891 198.932 291.59 198.405 292.445C197.746 293.509 198.355 293.76 200.339 293.24C202.789 292.599 203.232 293.054 203.232 296.217C203.232 304.505 201.715 307.809 196.403 311.092C193.517 312.876 191.155 314.832 191.155 315.44C191.155 316.601 191.492 316.44 199.542 311.432C204.454 308.375 204.574 308.11 204.574 300.203C204.574 293.11 205.031 291.671 208.264 288.612C211.896 285.175 211.904 285.132 208.767 285.91L205.58 286.702L206.464 266.32C206.95 255.11 207.699 242.768 208.128 238.894C208.605 234.593 208.389 231.849 207.574 231.849C206.802 231.849 205.875 239.081 205.379 248.958ZM270.324 232.441C270.324 233.857 267.749 234.453 266.983 233.213C266.52 232.463 267.082 231.849 268.232 231.849C269.382 231.849 270.324 232.115 270.324 232.441ZM226.996 238.559C227.382 240.035 227.93 241.242 228.213 241.242C228.495 241.242 228.727 240.035 228.727 238.559C228.727 237.083 228.179 235.875 227.511 235.875C226.842 235.875 226.611 237.083 226.996 238.559ZM12.1062 241.179C10.6798 241.697 10.076 242.451 10.7644 242.855C11.4541 243.259 13.1851 243.167 14.6129 242.647C16.0392 242.129 16.6431 241.375 15.9547 240.971C15.265 240.567 13.5339 240.66 12.1062 241.179ZM20.4043 240.789C21.3275 241.162 22.837 241.162 23.7589 240.789C24.6821 240.417 23.9266 240.112 22.0816 240.112C20.2365 240.112 19.4824 240.417 20.4043 240.789ZM28.7908 241.211C28.7908 241.794 29.9985 242.587 31.4746 242.973C32.9506 243.358 34.1583 243.197 34.1583 242.615C34.1583 242.033 32.9506 241.24 31.4746 240.853C29.9985 240.468 28.7908 240.629 28.7908 241.211ZM38.1838 243.735C38.1838 245.115 42.2483 247.018 43.1876 246.08C43.5137 245.752 42.522 244.812 40.9829 243.988C39.4425 243.164 38.1838 243.05 38.1838 243.735ZM3.33454 245.216C2.24898 245.903 1.68943 246.792 2.09064 247.193C2.49186 247.596 3.98401 247.043 5.40637 245.967C8.235 243.827 6.51608 243.203 3.33454 245.216ZM227.385 247.952C227.385 249.428 227.989 250.635 228.727 250.635C229.465 250.635 230.069 249.428 230.069 247.952C230.069 246.476 229.465 245.268 228.727 245.268C227.989 245.268 227.385 246.476 227.385 247.952ZM46.2349 247.808C46.2349 248.467 47.1903 249.373 48.3577 249.821C51.6399 251.081 52.0733 250.807 50.2605 248.623C48.4087 246.392 46.2349 245.952 46.2349 247.808ZM54.2861 252.008C54.2861 252.776 55.2173 253.76 56.3566 254.198C59.5046 255.406 59.8736 254.101 56.9094 252.251C55.2482 251.214 54.2861 251.125 54.2861 252.008ZM227.385 257.345C227.385 258.821 227.617 260.028 227.899 260.028C228.182 260.028 228.73 258.821 229.116 257.345C229.501 255.869 229.27 254.661 228.601 254.661C227.933 254.661 227.385 255.869 227.385 257.345ZM63.0161 258.694C64.3553 260.176 65.7428 261.095 66.0984 260.739C67.0001 259.838 63.6536 256.003 61.9655 256.003C61.2033 256.003 61.6756 257.214 63.0161 258.694ZM70.3883 264.725C71.3075 265.832 72.6627 266.738 73.4007 266.738C74.1495 266.738 74.0032 265.848 73.072 264.725C72.1528 263.618 70.7976 262.712 70.0595 262.712C69.3108 262.712 69.457 263.602 70.3883 264.725ZM224.763 265.28C223.725 267.222 223.704 268.079 224.696 268.079C226.324 268.079 228.095 264.315 226.989 263.21C226.588 262.81 225.587 263.741 224.763 265.28ZM75.7557 269.092C75.7557 269.831 76.6615 271.186 77.7685 272.105C78.8916 273.036 79.7813 273.182 79.7813 272.434C79.7813 271.696 78.8755 270.34 77.7685 269.421C76.6453 268.49 75.7557 268.344 75.7557 269.092ZM220.738 273.331C219.914 274.872 219.8 276.13 220.485 276.13C221.865 276.13 223.767 272.066 222.829 271.127C222.502 270.801 221.561 271.792 220.738 273.331ZM82.465 275.802C82.465 276.54 83.3707 277.895 84.4777 278.814C85.6009 279.745 86.4905 279.892 86.4905 279.143C86.4905 278.405 85.5848 277.05 84.4777 276.13C83.3546 275.199 82.465 275.053 82.465 275.802ZM89.1742 282.597C89.1742 284.218 91.7197 286.109 92.651 285.179C92.9878 284.84 92.3437 283.801 91.2192 282.867C89.9444 281.808 89.1742 281.706 89.1742 282.597Z" fill="black"/>
</svg>
