<svg version="1.1" id="Layer_1" xmlns="http://www.w3.org/2000/svg" xmlns:xlink="http://www.w3.org/1999/xlink" x="0px" y="0px"
	 width="100%" viewBox="0 0 500 500" enable-background="new 0 0 500 500" xml:space="preserve">
<path fill="#000000" opacity="1.000000" stroke="none" 
	d="
M221.000000,501.000000 
	C147.333344,501.000000 74.166702,501.000000 1.000039,501.000000 
	C1.000026,334.333405 1.000026,167.666779 1.000013,1.000129 
	C167.666565,1.000086 334.333130,1.000086 500.999756,1.000043 
	C500.999847,167.666534 500.999847,334.333069 500.999939,500.999817 
	C407.833344,501.000000 314.666656,501.000000 221.000000,501.000000 
M262.048187,164.551422 
	C267.342560,163.215759 264.339752,156.984314 268.375092,154.905762 
	C268.157959,154.382599 267.940826,153.859421 267.723663,153.336258 
	C265.530518,153.648666 263.337372,153.961090 261.938782,154.160324 
	C259.878967,153.640961 258.143921,153.203491 256.007812,152.664871 
	C256.445831,154.871063 256.713013,156.216705 256.735809,156.331604 
	C254.622955,157.720627 253.155945,158.685074 250.585297,160.375061 
	C255.120224,162.329758 258.432434,163.757416 261.542114,165.847504 
	C255.755157,167.626114 254.253876,171.250687 256.718903,178.164932 
	C259.031189,177.642105 261.382477,177.110458 263.733765,176.578812 
	C263.804657,176.870804 263.875519,177.162811 263.946381,177.454803 
	C261.942902,178.171448 259.939453,178.888077 258.004150,179.580322 
	C260.612000,189.695007 268.034607,188.145248 274.000000,184.617264 
	C274.000000,181.515335 273.787842,178.926270 274.039734,176.383163 
	C274.800262,168.704147 271.646454,163.115921 262.048187,164.551422 
M147.937820,298.291931 
	C147.937820,293.337372 147.937820,288.382812 147.937820,283.256470 
	C144.149704,283.256470 140.758743,283.256470 136.996002,283.256470 
	C136.996002,286.144226 137.101227,288.779724 136.974670,291.404022 
	C136.688339,297.341217 136.444016,303.290283 135.789597,309.190918 
	C135.671570,310.255188 133.704193,311.818268 132.539032,311.864990 
	C131.368271,311.911987 129.600616,310.604034 129.052124,309.438995 
	C128.247940,307.730865 128.056503,305.625458 128.024353,303.682373 
	C127.912300,296.907471 127.981010,290.129578 127.981010,283.293335 
	C124.077057,283.293335 120.684998,283.293335 117.025993,283.293335 
	C117.025993,290.226624 116.754868,296.877747 117.096504,303.497223 
	C117.498489,311.285980 122.725349,317.324249 128.993149,317.991852 
	C138.510986,319.005646 144.267212,315.827423 146.510056,307.994476 
	C147.319214,305.168518 147.480255,302.157013 147.937820,298.291931 
M253.046082,287.452240 
	C252.502533,288.149689 251.959000,288.847168 250.900116,290.205902 
	C250.900116,287.349518 250.900116,285.392731 250.900116,283.217529 
	C247.270477,283.217529 243.861282,283.217529 240.235016,283.217529 
	C240.235016,294.816315 240.235016,306.195129 240.235016,317.723877 
	C243.865585,317.723877 247.255569,317.723877 251.136200,317.723877 
	C251.136200,314.867584 251.136200,312.267487 251.136200,308.523041 
	C255.447037,319.069672 255.447037,319.069672 265.541504,317.448334 
	C263.866333,312.973724 262.582947,308.356018 260.463531,304.160583 
	C257.213806,297.727661 256.976654,291.963501 262.259338,286.526764 
	C263.051819,285.711212 263.462830,284.525024 264.309021,283.063385 
	C259.743591,283.175323 255.373688,281.569641 253.046082,287.452240 
M171.695557,293.726044 
	C175.692627,296.237823 175.508682,291.163055 177.957840,290.687714 
	C171.818192,283.929626 168.271317,282.447662 159.949142,282.992584 
	C152.442947,283.484070 147.064514,291.022400 150.515488,297.215668 
	C152.304718,300.426666 156.106812,302.596558 159.201126,304.974457 
	C161.692734,306.889160 164.487122,308.409851 167.619705,310.406525 
	C161.816803,313.172272 160.224014,312.561005 153.720398,305.673218 
	C152.197067,307.117035 150.685333,308.549835 149.186554,309.970398 
	C153.764984,316.745026 159.687378,318.686005 166.851776,318.035980 
	C171.993286,317.569519 175.509720,315.193024 177.195633,310.240417 
	C178.768585,305.619598 176.623032,302.336212 173.199554,299.711456 
	C170.879425,297.932587 168.255112,296.554230 165.797821,294.949310 
	C163.801514,293.645508 161.851273,292.271149 159.280579,290.519135 
	C164.971527,287.255035 168.155090,290.003540 171.695557,293.726044 
M219.144257,317.932587 
	C221.474716,317.956390 223.807297,318.054779 226.135193,317.988556 
	C231.066116,317.848297 235.906250,314.297424 236.759506,309.747498 
	C237.628189,305.115326 235.744537,301.441559 231.701385,298.954987 
	C228.505554,296.989532 225.220154,295.157867 222.127518,293.043030 
	C221.067993,292.318481 220.472443,290.915466 219.664917,289.822418 
	C219.958115,289.415222 220.251297,289.008057 220.544479,288.600891 
	C222.686432,289.108246 225.033920,289.228119 226.915527,290.226257 
	C229.019028,291.342102 230.700027,293.254425 232.925400,295.122833 
	C234.230743,293.692474 235.559601,292.236328 236.870987,290.799347 
	C231.455490,282.471924 222.416718,281.591522 215.627960,284.030212 
	C208.437454,286.613190 206.495453,295.093872 212.029556,300.370117 
	C214.487885,302.713959 217.727097,304.233093 220.586990,306.163391 
	C222.521851,307.469330 224.413315,308.839539 226.725479,310.462708 
	C221.496277,312.809967 221.496277,312.809967 213.012009,306.095123 
	C207.697327,310.290314 207.678665,311.277893 213.105225,314.909882 
	C214.743713,316.006500 216.576767,316.812378 219.144257,317.932587 
M226.060760,183.230423 
	C227.430542,184.477066 228.748871,186.727859 230.178741,186.801102 
	C237.377060,187.169815 244.604507,186.970352 252.134827,186.970352 
	C251.124481,183.491669 250.326630,180.744614 249.532028,178.008759 
	C244.961121,178.137024 240.561340,180.597214 236.340881,177.867508 
	C240.394836,176.956390 244.145233,176.113495 247.895630,175.270615 
	C247.013870,172.435715 246.132095,169.600815 245.615814,167.940918 
	C240.248016,167.940918 236.206863,167.940918 232.165695,167.940918 
	C232.137665,167.386490 232.109619,166.832077 232.081589,166.277649 
	C235.673264,166.106644 239.264954,165.935638 244.725601,165.675659 
	C241.302246,161.621750 239.137283,158.273071 236.207397,155.848831 
	C234.050644,154.064301 230.528976,152.095688 228.264938,152.688644 
	C224.529922,153.666855 222.726456,157.718552 223.097214,161.634354 
	C223.755508,168.586853 224.998749,175.483963 226.060760,183.230423 
M294.987915,307.696167 
	C294.698792,305.311859 294.978851,303.438721 298.114838,303.525909 
	C299.415894,303.562164 300.726807,303.166260 302.036377,302.990082 
	C307.095337,302.309631 310.574097,299.046631 310.989014,294.579651 
	C311.558563,288.447815 309.975311,285.219971 303.971405,284.115692 
	C297.492828,282.924133 290.764771,283.088776 284.238831,282.667816 
	C284.238831,295.029877 284.238831,306.278412 284.238831,317.746094 
	C287.842590,317.746094 291.221405,317.746094 294.989197,317.746094 
	C294.989197,314.540588 294.989197,311.587860 294.987915,307.696167 
M206.159882,290.904694 
	C207.210510,287.797455 208.707428,283.665192 204.014435,283.210693 
	C196.141907,282.448242 188.141861,283.002167 180.261963,283.002167 
	C179.965225,285.911926 179.723679,288.280579 179.463913,290.827881 
	C182.233704,290.954559 184.985962,291.080444 188.172729,291.226196 
	C188.172729,300.312988 188.172729,309.045868 188.172729,317.620605 
	C192.042480,317.620605 195.425369,317.620605 199.098175,317.620605 
	C199.098175,308.635406 199.098175,300.030792 199.098175,290.985077 
	C201.345276,290.985077 203.296143,290.985077 206.159882,290.904694 
M95.653694,317.294678 
	C105.942169,319.727478 113.286392,316.158600 113.843292,307.796753 
	C114.381599,299.714020 113.959908,291.567413 113.959908,283.224365 
	C107.480049,283.224365 101.398331,283.224365 95.394485,283.224365 
	C94.539078,285.074036 93.759277,286.760193 92.641716,289.176697 
	C96.692337,289.176697 99.766808,289.176697 103.009430,289.176697 
	C103.009430,294.785156 103.300583,299.959656 102.879372,305.075470 
	C102.685844,307.425873 101.662094,310.513336 99.943581,311.657349 
	C98.743202,312.456421 95.724632,310.524261 92.909897,309.615723 
	C92.301003,310.259644 91.079514,311.551392 89.393135,313.334778 
	C91.445351,314.716583 93.166985,315.875793 95.653694,317.294678 
M269.090881,305.485352 
	C269.090881,309.578888 269.090881,313.672424 269.090881,317.775543 
	C273.043762,317.775543 276.309998,317.775543 279.750183,317.775543 
	C279.750183,306.154816 279.750183,294.766052 279.750183,283.295258 
	C276.100891,283.295258 272.713165,283.295258 269.090881,283.295258 
	C269.090881,290.558929 269.090881,297.524048 269.090881,305.485352 
M231.000763,257.348938 
	C232.178131,262.242798 234.489578,263.796326 239.966446,262.960999 
	C244.252106,262.307343 245.527405,259.246124 244.950089,255.397293 
	C244.387115,251.644043 242.112823,249.253845 238.176453,249.032013 
	C234.285538,248.812744 231.418457,251.921707 231.000763,257.348938 
M271.102814,249.048676 
	C269.945892,249.083344 268.720520,248.882263 267.644226,249.194687 
	C263.620483,250.362717 261.080627,254.753525 262.166687,258.398499 
	C263.200043,261.866486 267.044617,263.779755 271.382294,262.984680 
	C274.705414,262.375580 277.052429,258.494690 275.841034,254.459854 
	C275.262390,252.532669 273.224915,251.043472 271.102814,249.048676 
z"/>
<path fill="#FC8F4C" opacity="1.000000" stroke="none" 
	d="
M147.937439,298.761047 
	C147.480255,302.157013 147.319214,305.168518 146.510056,307.994476 
	C144.267212,315.827423 138.510986,319.005646 128.993149,317.991852 
	C122.725349,317.324249 117.498489,311.285980 117.096504,303.497223 
	C116.754868,296.877747 117.025993,290.226624 117.025993,283.293335 
	C120.684998,283.293335 124.077057,283.293335 127.981010,283.293335 
	C127.981010,290.129578 127.912300,296.907471 128.024353,303.682373 
	C128.056503,305.625458 128.247940,307.730865 129.052124,309.438995 
	C129.600616,310.604034 131.368271,311.911987 132.539032,311.864990 
	C133.704193,311.818268 135.671570,310.255188 135.789597,309.190918 
	C136.444016,303.290283 136.688339,297.341217 136.974670,291.404022 
	C137.101227,288.779724 136.996002,286.144226 136.996002,283.256470 
	C140.758743,283.256470 144.149704,283.256470 147.937820,283.256470 
	C147.937820,288.382812 147.937820,293.337372 147.937439,298.761047 
z"/>
<path fill="#FD904C" opacity="1.000000" stroke="none" 
	d="
M253.315155,287.182831 
	C255.373688,281.569641 259.743591,283.175323 264.309021,283.063385 
	C263.462830,284.525024 263.051819,285.711212 262.259338,286.526764 
	C256.976654,291.963501 257.213806,297.727661 260.463531,304.160583 
	C262.582947,308.356018 263.866333,312.973724 265.541504,317.448334 
	C255.447037,319.069672 255.447037,319.069672 251.136200,308.523041 
	C251.136200,312.267487 251.136200,314.867584 251.136200,317.723877 
	C247.255569,317.723877 243.865585,317.723877 240.235016,317.723877 
	C240.235016,306.195129 240.235016,294.816315 240.235016,283.217529 
	C243.861282,283.217529 247.270477,283.217529 250.900116,283.217529 
	C250.900116,285.392731 250.900116,287.349518 250.900116,290.205902 
	C251.959000,288.847168 252.502533,288.149689 253.315155,287.182831 
z"/>
<path fill="#FA8E4B" opacity="1.000000" stroke="none" 
	d="
M171.462738,293.450073 
	C168.155090,290.003540 164.971527,287.255035 159.280579,290.519135 
	C161.851273,292.271149 163.801514,293.645508 165.797821,294.949310 
	C168.255112,296.554230 170.879425,297.932587 173.199554,299.711456 
	C176.623032,302.336212 178.768585,305.619598 177.195633,310.240417 
	C175.509720,315.193024 171.993286,317.569519 166.851776,318.035980 
	C159.687378,318.686005 153.764984,316.745026 149.186554,309.970398 
	C150.685333,308.549835 152.197067,307.117035 153.720398,305.673218 
	C160.224014,312.561005 161.816803,313.172272 167.619705,310.406525 
	C164.487122,308.409851 161.692734,306.889160 159.201126,304.974457 
	C156.106812,302.596558 152.304718,300.426666 150.515488,297.215668 
	C147.064514,291.022400 152.442947,283.484070 159.949142,282.992584 
	C168.271317,282.447662 171.818192,283.929626 177.957840,290.687714 
	C175.508682,291.163055 175.692627,296.237823 171.462738,293.450073 
z"/>
<path fill="#FC8F4C" opacity="1.000000" stroke="none" 
	d="
M218.732468,317.842041 
	C216.576767,316.812378 214.743713,316.006500 213.105225,314.909882 
	C207.678665,311.277893 207.697327,310.290314 213.012009,306.095123 
	C221.496277,312.809967 221.496277,312.809967 226.725479,310.462708 
	C224.413315,308.839539 222.521851,307.469330 220.586990,306.163391 
	C217.727097,304.233093 214.487885,302.713959 212.029556,300.370117 
	C206.495453,295.093872 208.437454,286.613190 215.627960,284.030212 
	C222.416718,281.591522 231.455490,282.471924 236.870987,290.799347 
	C235.559601,292.236328 234.230743,293.692474 232.925400,295.122833 
	C230.700027,293.254425 229.019028,291.342102 226.915527,290.226257 
	C225.033920,289.228119 222.686432,289.108246 220.544479,288.600891 
	C220.251297,289.008057 219.958115,289.415222 219.664917,289.822418 
	C220.472443,290.915466 221.067993,292.318481 222.127518,293.043030 
	C225.220154,295.157867 228.505554,296.989532 231.701385,298.954987 
	C235.744537,301.441559 237.628189,305.115326 236.759506,309.747498 
	C235.906250,314.297424 231.066116,317.848297 226.135193,317.988556 
	C223.807297,318.054779 221.474716,317.956390 218.732468,317.842041 
z"/>
<path fill="#FF914D" opacity="1.000000" stroke="none" 
	d="
M226.029022,182.817337 
	C224.998749,175.483963 223.755508,168.586853 223.097214,161.634354 
	C222.726456,157.718552 224.529922,153.666855 228.264938,152.688644 
	C230.528976,152.095688 234.050644,154.064301 236.207397,155.848831 
	C239.137283,158.273071 241.302246,161.621750 244.725601,165.675659 
	C239.264954,165.935638 235.673264,166.106644 232.081589,166.277649 
	C232.109619,166.832077 232.137665,167.386490 232.165695,167.940918 
	C236.206863,167.940918 240.248016,167.940918 245.615814,167.940918 
	C246.132095,169.600815 247.013870,172.435715 247.895630,175.270615 
	C244.145233,176.113495 240.394836,176.956390 236.340881,177.867508 
	C240.561340,180.597214 244.961121,178.137024 249.532028,178.008759 
	C250.326630,180.744614 251.124481,183.491669 252.134827,186.970352 
	C244.604507,186.970352 237.377060,187.169815 230.178741,186.801102 
	C228.748871,186.727859 227.430542,184.477066 226.029022,182.817337 
z"/>
<path fill="#FD904C" opacity="1.000000" stroke="none" 
	d="
M294.988556,308.165649 
	C294.989197,311.587860 294.989197,314.540588 294.989197,317.746094 
	C291.221405,317.746094 287.842590,317.746094 284.238831,317.746094 
	C284.238831,306.278412 284.238831,295.029877 284.238831,282.667816 
	C290.764771,283.088776 297.492828,282.924133 303.971405,284.115692 
	C309.975311,285.219971 311.558563,288.447815 310.989014,294.579651 
	C310.574097,299.046631 307.095337,302.309631 302.036377,302.990082 
	C300.726807,303.166260 299.415894,303.562164 298.114838,303.525909 
	C294.978851,303.438721 294.698792,305.311859 294.988556,308.165649 
M295.035156,290.002441 
	C295.035156,292.276733 295.035156,294.551025 295.035156,296.825317 
	C295.500519,297.117218 295.965881,297.409119 296.431244,297.701019 
	C297.639465,296.070892 299.811432,294.403381 299.750122,292.822510 
	C299.701294,291.563965 296.925507,290.411163 295.035156,290.002441 
z"/>
<path fill="#FD904C" opacity="1.000000" stroke="none" 
	d="
M205.703430,290.944885 
	C203.296143,290.985077 201.345276,290.985077 199.098175,290.985077 
	C199.098175,300.030792 199.098175,308.635406 199.098175,317.620605 
	C195.425369,317.620605 192.042480,317.620605 188.172729,317.620605 
	C188.172729,309.045868 188.172729,300.312988 188.172729,291.226196 
	C184.985962,291.080444 182.233704,290.954559 179.463913,290.827881 
	C179.723679,288.280579 179.965225,285.911926 180.261963,283.002167 
	C188.141861,283.002167 196.141907,282.448242 204.014435,283.210693 
	C208.707428,283.665192 207.210510,287.797455 205.703430,290.944885 
z"/>
<path fill="#FC8F4C" opacity="1.000000" stroke="none" 
	d="
M95.271149,317.164856 
	C93.166985,315.875793 91.445351,314.716583 89.393135,313.334778 
	C91.079514,311.551392 92.301003,310.259644 92.909897,309.615723 
	C95.724632,310.524261 98.743202,312.456421 99.943581,311.657349 
	C101.662094,310.513336 102.685844,307.425873 102.879372,305.075470 
	C103.300583,299.959656 103.009430,294.785156 103.009430,289.176697 
	C99.766808,289.176697 96.692337,289.176697 92.641716,289.176697 
	C93.759277,286.760193 94.539078,285.074036 95.394485,283.224365 
	C101.398331,283.224365 107.480049,283.224365 113.959908,283.224365 
	C113.959908,291.567413 114.381599,299.714020 113.843292,307.796753 
	C113.286392,316.158600 105.942169,319.727478 95.271149,317.164856 
z"/>
<path fill="#FC8F4C" opacity="1.000000" stroke="none" 
	d="
M269.090881,304.987244 
	C269.090881,297.524048 269.090881,290.558929 269.090881,283.295258 
	C272.713165,283.295258 276.100891,283.295258 279.750183,283.295258 
	C279.750183,294.766052 279.750183,306.154816 279.750183,317.775543 
	C276.309998,317.775543 273.043762,317.775543 269.090881,317.775543 
	C269.090881,313.672424 269.090881,309.578888 269.090881,304.987244 
z"/>
<path fill="#FF914D" opacity="1.000000" stroke="none" 
	d="
M261.595825,165.329926 
	C271.646454,163.115921 274.800262,168.704147 274.039734,176.383163 
	C273.787842,178.926270 274.000000,181.515335 274.000000,184.617264 
	C268.034607,188.145248 260.612000,189.695007 258.004150,179.580322 
	C259.939453,178.888077 261.942902,178.171448 263.946381,177.454803 
	C263.875519,177.162811 263.804657,176.870804 263.733765,176.578812 
	C261.382477,177.110458 259.031189,177.642105 256.718903,178.164932 
	C254.253876,171.250687 255.755157,167.626114 261.609436,165.555862 
	C261.676758,165.264221 261.595825,165.329926 261.595825,165.329926 
z"/>
<path fill="#FF914D" opacity="1.000000" stroke="none" 
	d="
M231.000473,256.935577 
	C231.418457,251.921707 234.285538,248.812744 238.176453,249.032013 
	C242.112823,249.253845 244.387115,251.644043 244.950089,255.397293 
	C245.527405,259.246124 244.252106,262.307343 239.966446,262.960999 
	C234.489578,263.796326 232.178131,262.242798 231.000473,256.935577 
z"/>
<path fill="#FF914D" opacity="1.000000" stroke="none" 
	d="
M271.475525,249.202286 
	C273.224915,251.043472 275.262390,252.532669 275.841034,254.459854 
	C277.052429,258.494690 274.705414,262.375580 271.382294,262.984680 
	C267.044617,263.779755 263.200043,261.866486 262.166687,258.398499 
	C261.080627,254.753525 263.620483,250.362717 267.644226,249.194687 
	C268.720520,248.882263 269.945892,249.083344 271.475525,249.202286 
z"/>
<path fill="#FF914D" opacity="1.000000" stroke="none" 
	d="
M261.710693,165.224640 
	C258.432434,163.757416 255.120224,162.329758 250.585297,160.375061 
	C253.155945,158.685074 254.622955,157.720627 256.735809,156.331604 
	C256.713013,156.216705 256.445831,154.871063 256.007812,152.664871 
	C258.143921,153.203491 259.878967,153.640961 261.938782,154.160324 
	C263.337372,153.961090 265.530518,153.648666 267.723663,153.336258 
	C267.940826,153.859421 268.157959,154.382599 268.375092,154.905762 
	C264.339752,156.984314 267.342560,163.215759 261.822021,164.940674 
	C261.595825,165.329926 261.676758,165.264221 261.710693,165.224640 
z"/>
<path fill="#000000" opacity="1.000000" stroke="none" 
	d="
M295.197723,289.606934 
	C296.925507,290.411163 299.701294,291.563965 299.750122,292.822510 
	C299.811432,294.403381 297.639465,296.070892 296.431244,297.701019 
	C295.965881,297.409119 295.500519,297.117218 295.035156,296.825317 
	C295.035156,294.551025 295.035156,292.276733 295.197723,289.606934 
z"/>
</svg>