<?xml version="1.0" encoding="UTF-8"?>
<svg version="1.1" xmlns="http://www.w3.org/2000/svg" width="500" height="500">
<path d="M0 0 C0.76642822 0.01047363 1.53285645 0.02094727 2.32250977 0.03173828 C3.57837891 0.04140625 3.57837891 0.04140625 4.85961914 0.05126953 C5.73553711 0.06802734 6.61145508 0.08478516 7.51391602 0.10205078 C8.3859668 0.11107422 9.25801758 0.12009766 10.15649414 0.12939453 C11.77886346 0.14685277 13.40119733 0.16840855 15.0234375 0.1953125 C17.58708131 0.23494548 20.14221509 0.22529092 22.70532227 0.15673828 C23.6734082 0.13869141 24.64149414 0.12064453 25.63891602 0.10205078 C27.09491211 0.06724609 27.09491211 0.06724609 28.58032227 0.03173828 C31.07641602 0.22705078 31.07641602 0.22705078 33.07641602 2.22705078 C33.39526367 4.93261719 33.39526367 4.93261719 33.49047852 8.32861328 C33.54848633 10.14619141 33.54848633 10.14619141 33.60766602 12.00048828 C33.63860352 13.27150391 33.66954102 14.54251953 33.70141602 15.85205078 C33.75942383 17.77017578 33.75942383 17.77017578 33.81860352 19.72705078 C33.91312651 22.89357095 33.99867958 26.06008118 34.07641602 29.22705078 C36.22542954 28.4422201 36.22542954 28.4422201 36.68383789 26.5012207 C37.12805036 23.92793766 37.27320475 21.45076907 37.35766602 18.84033203 C37.39504883 17.82003906 37.43243164 16.79974609 37.47094727 15.74853516 C37.54164451 13.5975061 37.61195285 11.44646423 37.68188477 9.29541016 C37.71926758 8.27898437 37.75665039 7.26255859 37.79516602 6.21533203 C37.82545898 5.28245361 37.85575195 4.3495752 37.88696289 3.38842773 C38.07641602 1.22705078 38.07641602 1.22705078 39.07641602 0.22705078 C41.02944003 0.04923815 42.99082297 -0.04078343 44.95141602 -0.08544922 C46.02133789 -0.12283203 47.09125977 -0.16021484 48.19360352 -0.19873047 C51.07641602 0.22705078 51.07641602 0.22705078 52.95922852 2.24658203 C53.32790039 2.90013672 53.69657227 3.55369141 54.07641602 4.22705078 C55.22110352 3.23705078 55.22110352 3.23705078 56.38891602 2.22705078 C60.93466923 -0.78195844 65.83235404 -0.53585654 71.07641602 0.22705078 C74.33198702 1.38308953 77.59168229 2.74231706 80.07641602 5.22705078 C80.44573242 4.41502197 80.81504883 3.60299316 81.19555664 2.76635742 C83.07641602 0.22705078 83.07641602 0.22705078 85.84790039 -0.40405273 C86.94424805 -0.40332764 88.0405957 -0.40260254 89.17016602 -0.40185547 C90.36512695 -0.40378906 91.56008789 -0.40572266 92.79125977 -0.40771484 C94.66491211 -0.37194336 94.66491211 -0.37194336 96.57641602 -0.33544922 C97.82551758 -0.34640625 99.07461914 -0.35736328 100.36157227 -0.36865234 C107.27195844 -0.31274307 107.27195844 -0.31274307 110.07641602 0.22705078 C111.95727539 2.26245117 111.95727539 2.26245117 113.07641602 4.22705078 C114.22110352 3.23705078 114.22110352 3.23705078 115.38891602 2.22705078 C119.93742798 -0.78378456 124.8293662 -0.52994933 130.07641602 0.22705078 C134.01877628 1.58999924 137.12525946 3.27589422 140.07641602 6.22705078 C140.38579102 5.42267578 140.69516602 4.61830078 141.01391602 3.78955078 C142.07641602 1.22705078 142.07641602 1.22705078 143.07641602 0.22705078 C144.84586184 0.15393319 146.61808595 0.14344155 148.38891602 0.16455078 C149.35442383 0.17357422 150.31993164 0.18259766 151.31469727 0.19189453 C152.22606445 0.20349609 153.13743164 0.21509766 154.07641602 0.22705078 C155.39641602 0.22705078 156.71641602 0.22705078 158.07641602 0.22705078 C161.07641602 0.22705078 164.07641602 0.22705078 167.07641602 0.22705078 C168.22875977 1.98876953 168.22875977 1.98876953 169.07641602 4.22705078 C168.14282227 6.12158203 168.14282227 6.12158203 166.63891602 8.03955078 C164.67017695 10.96576404 164.08252323 11.90336856 164.01391602 15.53955078 C164.93805648 18.74686182 165.99387454 21.82634684 167.14282227 24.95751953 C167.68531616 26.43901489 167.68531616 26.43901489 168.23876953 27.95043945 C168.65340454 29.07736206 168.65340454 29.07736206 169.07641602 30.22705078 C169.09623535 29.42485107 169.11605469 28.62265137 169.13647461 27.79614258 C169.23161097 24.16860901 169.34133682 20.54166034 169.45141602 16.91455078 C169.48235352 15.65191406 169.51329102 14.38927734 169.54516602 13.08837891 C169.60317383 11.27563477 169.60317383 11.27563477 169.66235352 9.42626953 C169.69377441 8.31082764 169.72519531 7.19538574 169.75756836 6.04614258 C170.07641602 3.22705078 170.07641602 3.22705078 172.07641602 0.22705078 C174.79125977 -0.06591797 174.79125977 -0.06591797 178.01391602 0.03955078 C179.07481445 0.06662109 180.13571289 0.09369141 181.22875977 0.12158203 C182.16848633 0.15638672 183.10821289 0.19119141 184.07641602 0.22705078 C186.56842922 0.22705078 189.04338269 0.16728699 191.53344727 0.08642578 C193.31858784 0.04920766 195.10374502 0.01277972 196.88891602 -0.02294922 C197.77901367 -0.05646484 198.66911133 -0.08998047 199.58618164 -0.12451172 C205.44911917 -0.21143444 208.56252432 0.41822751 213.07641602 4.22705078 C213.40641602 4.55705078 213.73641602 4.88705078 214.07641602 5.22705078 C214.34454102 4.40205078 214.61266602 3.57705078 214.88891602 2.72705078 C217.07641602 0.22705078 217.07641602 0.22705078 219.65454102 -0.17529297 C222.52552533 -0.20911346 225.2350639 -0.19537246 228.07641602 0.22705078 C230.07641602 2.22705078 230.07641602 2.22705078 230.3034668 4.74902344 C230.28775635 6.30435791 230.28775635 6.30435791 230.27172852 7.89111328 C230.26206055 9.57333984 230.26206055 9.57333984 230.25219727 11.28955078 C230.22706055 13.05298828 230.22706055 13.05298828 230.20141602 14.85205078 C230.19239258 16.03541016 230.18336914 17.21876953 230.17407227 18.43798828 C230.15044414 21.36787601 230.11750116 24.29736418 230.07641602 27.22705078 C232.71641602 27.22705078 235.35641602 27.22705078 238.07641602 27.22705078 C238.09623535 26.51572998 238.11605469 25.80440918 238.13647461 25.0715332 C238.23166469 21.85216262 238.34136831 18.63344628 238.45141602 15.41455078 C238.48235352 14.295 238.51329102 13.17544922 238.54516602 12.02197266 C238.60317383 10.41225586 238.60317383 10.41225586 238.66235352 8.77001953 C238.69377441 7.78026123 238.72519531 6.79050293 238.75756836 5.77075195 C239.07641602 3.22705078 239.07641602 3.22705078 241.07641602 0.22705078 C243.79125977 -0.06591797 243.79125977 -0.06591797 247.01391602 0.03955078 C248.07481445 0.06662109 249.13571289 0.09369141 250.22875977 0.12158203 C251.16848633 0.15638672 252.10821289 0.19119141 253.07641602 0.22705078 C256.07436733 0.27433137 256.07436733 0.27433137 259.03735352 -0.05419922 C262.53001328 -0.2779852 265.6203504 -0.35329106 269.07641602 0.22705078 C271.67856856 2.53422247 272.86087833 5.00716905 274.07641602 8.22705078 C274.40641602 8.88705078 274.73641602 9.54705078 275.07641602 10.22705078 C275.20016602 8.94830078 275.32391602 7.66955078 275.45141602 6.35205078 C275.82641602 2.47705078 275.82641602 2.47705078 278.07641602 0.22705078 C280.13500977 0.03173828 280.13500977 0.03173828 282.51391602 0.10205078 C283.68760742 0.12912109 283.68760742 0.12912109 284.88500977 0.15673828 C285.60817383 0.17994141 286.33133789 0.20314453 287.07641602 0.22705078 C288.06641602 0.22705078 289.05641602 0.22705078 290.07641602 0.22705078 C297.40974935 0.22705078 304.74308268 0.22705078 312.07641602 0.22705078 C314.18561906 4.0421033 314.48213446 6.84529159 314.07641602 11.22705078 C312.59141602 12.21705078 312.59141602 12.21705078 311.07641602 13.22705078 C311.73641602 13.88705078 312.39641602 14.54705078 313.07641602 15.22705078 C313.34204102 17.32080078 313.34204102 17.32080078 313.32641602 19.72705078 C313.33157227 20.52111328 313.33672852 21.31517578 313.34204102 22.13330078 C313.07641602 24.22705078 313.07641602 24.22705078 311.07641602 26.22705078 C313.05641602 27.21705078 313.05641602 27.21705078 315.07641602 28.22705078 C315.21178376 29.66194887 315.30858745 31.10052185 315.38891602 32.53955078 C315.44692383 33.34005859 315.50493164 34.14056641 315.56469727 34.96533203 C315.07641602 37.22705078 315.07641602 37.22705078 313.08813477 39.00048828 C309.13510347 40.61041283 305.79975082 40.63072813 301.57641602 40.53955078 C300.83004883 40.54277344 300.08368164 40.54599609 299.31469727 40.54931641 C295.0692642 40.50798918 292.00447871 39.97040445 288.07641602 38.22705078 C286.72555795 38.85745121 285.39388925 39.52956495 284.07641602 40.22705078 C280.40962182 40.56039571 277.82446451 40.52279088 274.38891602 39.16455078 C271.23300848 36.52041203 269.89176159 33.92497694 268.07641602 30.22705078 C268.07641602 29.56705078 268.07641602 28.90705078 268.07641602 28.22705078 C267.41641602 28.22705078 266.75641602 28.22705078 266.07641602 28.22705078 C266.07641602 31.52705078 266.07641602 34.82705078 266.07641602 38.22705078 C261.62957887 40.45046935 261.62957887 40.45046935 257.88891602 39.78955078 C253.7610182 39.1979081 250.19897344 39.4656117 246.08813477 40.03955078 C243.60727979 40.2707761 241.48430553 39.81078157 239.07641602 39.22705078 C238.08641602 39.72205078 238.08641602 39.72205078 237.07641602 40.22705078 C234.10690252 40.35199117 231.17109206 40.41222709 228.20141602 40.41455078 C227.38543945 40.42679687 226.56946289 40.43904297 225.72875977 40.45166016 C224.93856445 40.45359375 224.14836914 40.45552734 223.33422852 40.45751953 C222.61380371 40.46162842 221.89337891 40.4657373 221.15112305 40.4699707 C219.07641602 40.22705078 219.07641602 40.22705078 215.07641602 38.22705078 C214.74641602 32.28705078 214.41641602 26.34705078 214.07641602 20.22705078 C212.09641602 21.54705078 210.11641602 22.86705078 208.07641602 24.22705078 C205.74047852 24.83642578 205.74047852 24.83642578 203.70141602 24.97705078 C201.90704102 25.10080078 201.90704102 25.10080078 200.07641602 25.22705078 C200.08801758 26.07009766 200.09961914 26.91314453 200.11157227 27.78173828 C200.1205957 28.87744141 200.12961914 29.97314453 200.13891602 31.10205078 C200.15051758 32.19259766 200.16211914 33.28314453 200.17407227 34.40673828 C200.07641602 37.22705078 200.07641602 37.22705078 199.07641602 39.22705078 C195.53670884 40.40695317 192.79457702 40.42274347 189.07641602 40.22705078 C188.35454102 39.85580078 187.63266602 39.48455078 186.88891602 39.10205078 C186.29079102 38.81330078 185.69266602 38.52455078 185.07641602 38.22705078 C184.47313477 38.54673828 183.86985352 38.86642578 183.24829102 39.19580078 C180.65285323 40.42816692 179.32327722 40.27987229 176.51391602 39.85205078 C172.43826556 39.26097837 168.8449282 39.23272874 164.76391602 39.78955078 C160.98022836 40.2394029 157.83022147 39.95950063 154.07641602 39.22705078 C153.08641602 39.72205078 153.08641602 39.72205078 152.07641602 40.22705078 C144.24221912 40.66228394 144.24221912 40.66228394 141.07641602 38.22705078 C140.32641602 36.10205078 140.32641602 36.10205078 140.07641602 34.22705078 C139.29266602 34.86642578 138.50891602 35.50580078 137.70141602 36.16455078 C133.04402216 39.82393167 129.32631107 39.67994964 123.49438477 39.64111328 C118.43298372 39.0279607 114.49069781 37.04740007 111.07641602 33.22705078 C110.22094727 30.66455078 110.22094727 30.66455078 110.07641602 28.22705078 C112.01391602 25.91455078 112.01391602 25.91455078 114.07641602 24.22705078 C112.87260154 21.73343507 111.6221288 19.54561995 110.07641602 17.22705078 C109.95141602 14.53955078 109.95141602 14.53955078 110.07641602 12.22705078 C108.42641602 12.55705078 106.77641602 12.88705078 105.07641602 13.22705078 C105.06707031 13.93837158 105.05772461 14.64969238 105.0480957 15.38256836 C104.99444714 18.60227138 104.91078967 21.82051261 104.82641602 25.03955078 C104.81223633 26.15910156 104.79805664 27.27865234 104.78344727 28.43212891 C104.7512207 29.50527344 104.71899414 30.57841797 104.68579102 31.68408203 C104.66484375 32.67384033 104.64389648 33.66359863 104.62231445 34.68334961 C104.07641602 37.22705078 104.07641602 37.22705078 102.25708008 39.05395508 C99.08813487 40.75870001 96.61703741 40.54317769 93.07641602 40.22705078 C91.75641602 39.56705078 90.43641602 38.90705078 89.07641602 38.22705078 C88.58141602 25.85205078 88.58141602 25.85205078 88.07641602 13.22705078 C81.84875682 12.93766286 81.84875682 12.93766286 77.07641602 15.22705078 C77.88079102 16.23767578 78.68516602 17.24830078 79.51391602 18.28955078 C82.08345439 21.93829528 83.15792762 24.66240106 83.07641602 29.22705078 C81.31622589 34.20910937 78.86552278 36.91083983 74.07641602 39.22705078 C66.80460546 40.34435842 60.620838 39.93217395 54.56469727 35.61376953 C53.07641602 34.22705078 53.07641602 34.22705078 51.07641602 31.22705078 C50.51954102 31.99017578 49.96266602 32.75330078 49.38891602 33.53955078 C46.26693741 37.16779619 43.75384008 38.9940169 38.95532227 39.66064453 C27.77022688 39.67381897 27.77022688 39.67381897 23.07641602 35.22705078 C20.07641602 31.82705078 20.07641602 31.82705078 20.07641602 29.22705078 C19.41641602 29.22705078 18.75641602 29.22705078 18.07641602 29.22705078 C17.98360352 30.34080078 17.98360352 30.34080078 17.88891602 31.47705078 C16.82560663 35.0759441 15.12419134 36.14564324 12.07641602 38.22705078 C7.8920856 40.31921599 2.63305377 39.65479253 -1.92358398 39.22705078 C-4.75848948 38.25205525 -5.73500634 37.41562843 -7.92358398 35.22705078 C-8.79858398 32.47705078 -8.79858398 32.47705078 -8.92358398 30.22705078 C-7.27358398 28.90705078 -5.62358398 27.58705078 -3.92358398 26.22705078 C-3.32545898 26.53642578 -2.72733398 26.84580078 -2.11108398 27.16455078 C0.16598373 28.32914782 0.16598373 28.32914782 3.07641602 29.22705078 C3.40641602 22.95705078 3.73641602 16.68705078 4.07641602 10.22705078 C1.76641602 10.22705078 -0.54358398 10.22705078 -2.92358398 10.22705078 C-3.58358398 9.56705078 -4.24358398 8.90705078 -4.92358398 8.22705078 C-4.28009662 0.50520242 -4.28009662 0.50520242 0 0 Z M140.07641602 12.22705078 C138.71813631 13.87345043 137.38387351 15.54000886 136.07641602 17.22705078 C138.55141602 19.20705078 138.55141602 19.20705078 141.07641602 21.22705078 C141.07641602 18.25705078 141.07641602 15.28705078 141.07641602 12.22705078 C140.74641602 12.22705078 140.41641602 12.22705078 140.07641602 12.22705078 Z M53.07641602 20.22705078 C52.74641602 22.20705078 52.41641602 24.18705078 52.07641602 26.22705078 C53.39641602 25.56705078 54.71641602 24.90705078 56.07641602 24.22705078 C55.41641602 22.90705078 54.75641602 21.58705078 54.07641602 20.22705078 C53.74641602 20.22705078 53.41641602 20.22705078 53.07641602 20.22705078 Z " fill="#000000" transform="translate(95.923583984375,281.77294921875)"/>
<path d="M0 0 C0.76642822 0.01047363 1.53285645 0.02094727 2.32250977 0.03173828 C3.57837891 0.04140625 3.57837891 0.04140625 4.85961914 0.05126953 C5.73553711 0.06802734 6.61145508 0.08478516 7.51391602 0.10205078 C8.3859668 0.11107422 9.25801758 0.12009766 10.15649414 0.12939453 C11.77886346 0.14685277 13.40119733 0.16840855 15.0234375 0.1953125 C17.58708131 0.23494548 20.14221509 0.22529092 22.70532227 0.15673828 C23.6734082 0.13869141 24.64149414 0.12064453 25.63891602 0.10205078 C27.09491211 0.06724609 27.09491211 0.06724609 28.58032227 0.03173828 C31.07641602 0.22705078 31.07641602 0.22705078 33.07641602 2.22705078 C33.39526367 4.93261719 33.39526367 4.93261719 33.49047852 8.32861328 C33.54848633 10.14619141 33.54848633 10.14619141 33.60766602 12.00048828 C33.63860352 13.27150391 33.66954102 14.54251953 33.70141602 15.85205078 C33.75942383 17.77017578 33.75942383 17.77017578 33.81860352 19.72705078 C33.91312651 22.89357095 33.99867958 26.06008118 34.07641602 29.22705078 C36.22542954 28.4422201 36.22542954 28.4422201 36.68383789 26.5012207 C37.12805036 23.92793766 37.27320475 21.45076907 37.35766602 18.84033203 C37.39504883 17.82003906 37.43243164 16.79974609 37.47094727 15.74853516 C37.54164451 13.5975061 37.61195285 11.44646423 37.68188477 9.29541016 C37.71926758 8.27898437 37.75665039 7.26255859 37.79516602 6.21533203 C37.82545898 5.28245361 37.85575195 4.3495752 37.88696289 3.38842773 C38.07641602 1.22705078 38.07641602 1.22705078 39.07641602 0.22705078 C41.02944003 0.04923815 42.99082297 -0.04078343 44.95141602 -0.08544922 C46.02133789 -0.12283203 47.09125977 -0.16021484 48.19360352 -0.19873047 C51.07641602 0.22705078 51.07641602 0.22705078 52.95922852 2.24658203 C53.32790039 2.90013672 53.69657227 3.55369141 54.07641602 4.22705078 C55.22110352 3.23705078 55.22110352 3.23705078 56.38891602 2.22705078 C60.93466923 -0.78195844 65.83235404 -0.53585654 71.07641602 0.22705078 C74.33198702 1.38308953 77.59168229 2.74231706 80.07641602 5.22705078 C80.44573242 4.41502197 80.81504883 3.60299316 81.19555664 2.76635742 C83.07641602 0.22705078 83.07641602 0.22705078 85.84790039 -0.40405273 C86.94424805 -0.40332764 88.0405957 -0.40260254 89.17016602 -0.40185547 C90.36512695 -0.40378906 91.56008789 -0.40572266 92.79125977 -0.40771484 C94.66491211 -0.37194336 94.66491211 -0.37194336 96.57641602 -0.33544922 C97.82551758 -0.34640625 99.07461914 -0.35736328 100.36157227 -0.36865234 C107.27195844 -0.31274307 107.27195844 -0.31274307 110.07641602 0.22705078 C111.95727539 2.26245117 111.95727539 2.26245117 113.07641602 4.22705078 C114.22110352 3.23705078 114.22110352 3.23705078 115.38891602 2.22705078 C119.94400043 -0.78813512 124.82254811 -0.51607056 130.07641602 0.22705078 C134.0147397 1.47408058 137.20088754 2.68431893 139.29125977 6.36767578 C139.55036133 6.98126953 139.80946289 7.59486328 140.07641602 8.22705078 C137.60141602 10.20705078 137.60141602 10.20705078 135.07641602 12.22705078 C134.21016602 11.42267578 133.34391602 10.61830078 132.45141602 9.78955078 C129.44765508 7.25780942 127.0443834 6.51047702 123.07641602 6.22705078 C124.56084158 10.68032748 128.3195093 11.92438179 132.24047852 14.09033203 C136.0623102 16.30251839 138.22234973 18.20126351 140.07641602 22.22705078 C140.59933241 25.29918461 140.70818984 27.22089247 139.02172852 29.90673828 C137.23659957 32.11438296 135.63769012 33.94641373 133.07641602 35.22705078 C125.5922354 35.91982016 120.1911766 35.74665643 114.07641602 31.22705078 C113.08641602 30.23705078 113.08641602 30.23705078 112.07641602 29.22705078 C112.45141602 27.35205078 112.45141602 27.35205078 113.07641602 25.22705078 C113.48453148 21.34581876 113.48453148 21.34581876 111.57641602 19.28955078 C109.7341775 16.75647282 109.82129538 15.28849841 110.07641602 12.22705078 C108.42641602 12.55705078 106.77641602 12.88705078 105.07641602 13.22705078 C105.06707031 13.93837158 105.05772461 14.64969238 105.0480957 15.38256836 C104.99444714 18.60227138 104.91078967 21.82051261 104.82641602 25.03955078 C104.81223633 26.15910156 104.79805664 27.27865234 104.78344727 28.43212891 C104.7512207 29.50527344 104.71899414 30.57841797 104.68579102 31.68408203 C104.66484375 32.67384033 104.64389648 33.66359863 104.62231445 34.68334961 C104.07641602 37.22705078 104.07641602 37.22705078 102.25708008 39.05395508 C99.08813487 40.75870001 96.61703741 40.54317769 93.07641602 40.22705078 C91.75641602 39.56705078 90.43641602 38.90705078 89.07641602 38.22705078 C88.58141602 25.85205078 88.58141602 25.85205078 88.07641602 13.22705078 C81.84875682 12.93766286 81.84875682 12.93766286 77.07641602 15.22705078 C77.88079102 16.23767578 78.68516602 17.24830078 79.51391602 18.28955078 C82.08345439 21.93829528 83.15792762 24.66240106 83.07641602 29.22705078 C81.31622589 34.20910937 78.86552278 36.91083983 74.07641602 39.22705078 C66.80460546 40.34435842 60.620838 39.93217395 54.56469727 35.61376953 C53.07641602 34.22705078 53.07641602 34.22705078 51.07641602 31.22705078 C50.51954102 31.99017578 49.96266602 32.75330078 49.38891602 33.53955078 C46.26693741 37.16779619 43.75384008 38.9940169 38.95532227 39.66064453 C27.77022688 39.67381897 27.77022688 39.67381897 23.07641602 35.22705078 C20.07641602 31.82705078 20.07641602 31.82705078 20.07641602 29.22705078 C19.41641602 29.22705078 18.75641602 29.22705078 18.07641602 29.22705078 C17.98360352 30.34080078 17.98360352 30.34080078 17.88891602 31.47705078 C16.82560663 35.0759441 15.12419134 36.14564324 12.07641602 38.22705078 C7.8920856 40.31921599 2.63305377 39.65479253 -1.92358398 39.22705078 C-4.75848948 38.25205525 -5.73500634 37.41562843 -7.92358398 35.22705078 C-8.79858398 32.47705078 -8.79858398 32.47705078 -8.92358398 30.22705078 C-7.27358398 28.90705078 -5.62358398 27.58705078 -3.92358398 26.22705078 C-3.32545898 26.53642578 -2.72733398 26.84580078 -2.11108398 27.16455078 C0.16598373 28.32914782 0.16598373 28.32914782 3.07641602 29.22705078 C3.40641602 22.95705078 3.73641602 16.68705078 4.07641602 10.22705078 C1.76641602 10.22705078 -0.54358398 10.22705078 -2.92358398 10.22705078 C-3.58358398 9.56705078 -4.24358398 8.90705078 -4.92358398 8.22705078 C-4.28009662 0.50520242 -4.28009662 0.50520242 0 0 Z M53.07641602 20.22705078 C52.74641602 22.20705078 52.41641602 24.18705078 52.07641602 26.22705078 C53.39641602 25.56705078 54.71641602 24.90705078 56.07641602 24.22705078 C55.41641602 22.90705078 54.75641602 21.58705078 54.07641602 20.22705078 C53.74641602 20.22705078 53.41641602 20.22705078 53.07641602 20.22705078 Z " fill="#F78C4A" transform="translate(95.923583984375,281.77294921875)"/>
<path d="M0 0 C0.76642822 0.01047363 1.53285645 0.02094727 2.32250977 0.03173828 C3.57837891 0.04140625 3.57837891 0.04140625 4.85961914 0.05126953 C5.73553711 0.06802734 6.61145508 0.08478516 7.51391602 0.10205078 C8.3859668 0.11107422 9.25801758 0.12009766 10.15649414 0.12939453 C11.77886346 0.14685277 13.40119733 0.16840855 15.0234375 0.1953125 C17.58708131 0.23494548 20.14221509 0.22529092 22.70532227 0.15673828 C23.6734082 0.13869141 24.64149414 0.12064453 25.63891602 0.10205078 C27.09491211 0.06724609 27.09491211 0.06724609 28.58032227 0.03173828 C31.07641602 0.22705078 31.07641602 0.22705078 33.07641602 2.22705078 C33.39526367 4.93261719 33.39526367 4.93261719 33.49047852 8.32861328 C33.54848633 10.14619141 33.54848633 10.14619141 33.60766602 12.00048828 C33.63860352 13.27150391 33.66954102 14.54251953 33.70141602 15.85205078 C33.75942383 17.77017578 33.75942383 17.77017578 33.81860352 19.72705078 C33.91312651 22.89357095 33.99867958 26.06008118 34.07641602 29.22705078 C36.22542954 28.4422201 36.22542954 28.4422201 36.68383789 26.5012207 C37.12805036 23.92793766 37.27320475 21.45076907 37.35766602 18.84033203 C37.39504883 17.82003906 37.43243164 16.79974609 37.47094727 15.74853516 C37.54164451 13.5975061 37.61195285 11.44646423 37.68188477 9.29541016 C37.71926758 8.27898437 37.75665039 7.26255859 37.79516602 6.21533203 C37.82545898 5.28245361 37.85575195 4.3495752 37.88696289 3.38842773 C38.07641602 1.22705078 38.07641602 1.22705078 39.07641602 0.22705078 C41.096058 0.15461025 43.11808725 0.1432789 45.13891602 0.16455078 C46.79600586 0.17808594 46.79600586 0.17808594 48.48657227 0.19189453 C49.3412207 0.20349609 50.19586914 0.21509766 51.07641602 0.22705078 C53.86674551 4.76133621 54.3518593 8.01099545 54.08422852 13.17626953 C53.96632179 15.42983389 53.96632179 15.42983389 55.07641602 18.22705078 C56.8851174 19.33000957 56.8851174 19.33000957 59.07641602 20.22705078 C60.62439613 21.02745688 62.16597654 21.8403433 63.70141602 22.66455078 C64.47743164 23.07576172 65.25344727 23.48697266 66.05297852 23.91064453 C68.07641602 25.22705078 68.07641602 25.22705078 70.07641602 28.22705078 C66.81453354 29.2823657 65.33375405 29.32355254 62.07641602 28.10205078 C58.92293502 26.13112516 56.58615926 23.95824196 54.07641602 21.22705078 C53.098932 24.26811217 52.7786218 26.260664 54.07641602 29.22705078 C58.49291028 33.19057127 61.00907287 34.3900494 66.88891602 34.47705078 C67.92661133 34.50283203 68.96430664 34.52861328 70.03344727 34.55517578 C74.08882965 34.11788166 76.86303604 32.71619893 79.45141602 29.53955078 C80.42269828 25.9458064 79.68572095 22.88288041 79.07641602 19.22705078 C81.61729414 21.10509114 82.12173136 22.38414397 83.01391602 25.47705078 C83.08945671 30.00949223 82.08228856 32.83494881 79.07641602 36.22705078 C73.50461962 40.36002974 67.75231735 40.10376554 61.07641602 39.22705078 C56.54600369 37.41904219 53.77667365 35.27743723 51.07641602 31.22705078 C50.51954102 31.99017578 49.96266602 32.75330078 49.38891602 33.53955078 C46.26693741 37.16779619 43.75384008 38.9940169 38.95532227 39.66064453 C27.77022688 39.67381897 27.77022688 39.67381897 23.07641602 35.22705078 C20.07641602 31.82705078 20.07641602 31.82705078 20.07641602 29.22705078 C19.41641602 29.22705078 18.75641602 29.22705078 18.07641602 29.22705078 C17.98360352 30.34080078 17.98360352 30.34080078 17.88891602 31.47705078 C16.82560663 35.0759441 15.12419134 36.14564324 12.07641602 38.22705078 C7.8920856 40.31921599 2.63305377 39.65479253 -1.92358398 39.22705078 C-4.75848948 38.25205525 -5.73500634 37.41562843 -7.92358398 35.22705078 C-8.79858398 32.47705078 -8.79858398 32.47705078 -8.92358398 30.22705078 C-7.27358398 28.90705078 -5.62358398 27.58705078 -3.92358398 26.22705078 C-3.32545898 26.53642578 -2.72733398 26.84580078 -2.11108398 27.16455078 C0.16598373 28.32914782 0.16598373 28.32914782 3.07641602 29.22705078 C3.40641602 22.95705078 3.73641602 16.68705078 4.07641602 10.22705078 C1.76641602 10.22705078 -0.54358398 10.22705078 -2.92358398 10.22705078 C-3.58358398 9.56705078 -4.24358398 8.90705078 -4.92358398 8.22705078 C-4.28009662 0.50520242 -4.28009662 0.50520242 0 0 Z " fill="#020100" transform="translate(95.923583984375,281.77294921875)"/>
<path d="M0 0 C16.19407227 -0.56272838 16.19407227 -0.56272838 22 3 C22.45325653 3.52121429 22.90651306 4.04242859 23.37350464 4.57943726 C25.56098527 6.48995822 26.89469571 6.38921085 29.77392578 6.41650391 C31.23710487 6.44144424 31.23710487 6.44144424 32.72984314 6.46688843 C33.79094803 6.47008087 34.85205292 6.47327332 35.9453125 6.4765625 C37.05173599 6.49159821 38.15815948 6.50663391 39.29811096 6.52212524 C41.67412074 6.55287037 44.05022282 6.57704218 46.42636108 6.59533691 C50.12419234 6.62499352 53.82126757 6.67423552 57.51879883 6.72949219 C66.59055664 6.86245614 75.66247949 6.97190623 84.73486328 7.05175781 C88.6914692 7.0872441 92.64715628 7.14327176 96.60321045 7.21795654 C98.64935205 7.24941352 100.69437331 7.25314582 102.74072266 7.25634766 C103.94390137 7.28003418 105.14708008 7.3037207 106.38671875 7.328125 C107.92138794 7.34214355 107.92138794 7.34214355 109.48706055 7.35644531 C112 8 112 8 113.92871094 10.02099609 C115.3848437 14.07016017 114.67182663 17.2634181 113.75390625 21.3359375 C113.58632309 22.13351471 113.41873993 22.93109192 113.24607849 23.75283813 C112.88635718 25.43757705 112.51673924 27.12022915 112.13793945 28.80078125 C111.56722355 31.35386927 111.04053278 33.91332035 110.51757812 36.4765625 C110.16148392 38.11776029 109.80284008 39.75840736 109.44140625 41.3984375 C109.28797256 42.15595306 109.13453888 42.91346863 108.97645569 43.69393921 C107.46993886 50.13370416 104.40154733 54.83281021 98.76635742 58.4230957 C94.42790939 59.32784839 90.15769239 59.26381724 85.73828125 59.23046875 C84.75127731 59.23001053 83.76427338 59.22955231 82.74736023 59.2290802 C80.66709181 59.22606569 78.58682549 59.21820343 76.5065918 59.20581055 C73.31355856 59.18750607 70.12081471 59.18530131 66.92773438 59.18554688 C64.90624748 59.18063319 62.88476256 59.17480552 60.86328125 59.16796875 C59.90496902 59.16685593 58.9466568 59.1657431 57.95930481 59.16459656 C57.07466049 59.15821671 56.19001617 59.15183685 55.27856445 59.14526367 C54.10871758 59.13954597 54.10871758 59.13954597 52.91523743 59.13371277 C51 59 51 59 49 58 C49.66 59.32 50.32 60.64 51 62 C65.85 62.33 80.7 62.66 96 63 C96 64.32 96 65.64 96 67 C89.68300117 67.10152782 83.36621321 67.17151879 77.04858398 67.21972656 C74.9000665 67.23982586 72.7516036 67.26710993 70.60327148 67.30175781 C67.51272095 67.35034913 64.42289445 67.37298579 61.33203125 67.390625 C60.37351761 67.41127014 59.41500397 67.43191528 58.42744446 67.45318604 C54.17696061 67.45461201 51.67963741 67.3984025 47.95385742 65.21435547 C46.11537052 63.13075229 45.18864701 61.80659215 44.40625 59.1796875 C43.11543546 55.2693848 41.42044601 51.77872991 39.5 48.125 C35.11207599 39.61998556 31.47063305 30.81835401 27.85742188 21.96142578 C24.44252424 12.88672966 24.44252424 12.88672966 18.265625 5.6640625 C14.80849987 4.6507672 11.32652433 4.52665474 7.75 4.375 C7.00492188 4.33632812 6.25984375 4.29765625 5.4921875 4.2578125 C3.6618476 4.16394892 1.83095857 4.08090282 0 4 C0 2.68 0 1.36 0 0 Z M28 10 C28.69413843 14.60140267 30.37773781 18.70636597 32.16796875 22.96875 C32.64391228 24.1056427 32.64391228 24.1056427 33.12947083 25.26550293 C33.80171344 26.86355869 34.47679821 28.46042147 35.15454102 30.05615234 C36.18148608 32.48577184 37.18547489 34.92409903 38.18945312 37.36328125 C38.84755538 38.91986473 39.50701679 40.47587441 40.16796875 42.03125 C40.46197067 42.75534058 40.7559726 43.47943115 41.05888367 44.22546387 C43.16459939 49.08252565 45.31823116 52.21274072 50 55 C53.57604585 55.68577174 57.05890163 55.67797879 60.69140625 55.62890625 C61.71427231 55.63131821 62.73713837 55.63373016 63.79100037 55.63621521 C65.94688811 55.63523837 68.10280145 55.62188388 70.25854492 55.59692383 C73.55539185 55.56257406 76.84956313 55.57628489 80.14648438 55.59570312 C82.24480305 55.58880547 84.34311483 55.57913382 86.44140625 55.56640625 C87.91656456 55.57384605 87.91656456 55.57384605 89.42152405 55.58143616 C93.70338173 55.50782933 96.31150099 55.40397803 100.05908203 53.20507812 C101.90903674 51.10334342 102.84088537 49.80654144 103.61328125 47.15234375 C103.95673584 45.97260986 103.95673584 45.97260986 104.30712891 44.76904297 C105.73540846 39.06095745 106.9857365 33.32206284 108.1875 27.5625 C108.46013672 26.28439453 108.73277344 25.00628906 109.01367188 23.68945312 C110.41364759 17.89454323 110.41364759 17.89454323 111 12 C97.54380148 11.26819686 84.0973237 10.7466458 70.625 10.4375 C69.73966583 10.41632111 68.85433167 10.39514221 67.94216919 10.37332153 C54.62596144 10.05617963 41.32038162 9.86108524 28 10 Z " fill="#000000" transform="translate(179,180)"/>
<path d="M0 0 C1.79133978 -0.05391993 3.58313899 -0.09275571 5.375 -0.125 C6.37273437 -0.14820313 7.37046875 -0.17140625 8.3984375 -0.1953125 C11 0 11 0 13 2 C13.31884766 4.70556641 13.31884766 4.70556641 13.4140625 8.1015625 C13.45273438 9.31328125 13.49140625 10.525 13.53125 11.7734375 C13.5621875 13.04445313 13.593125 14.31546875 13.625 15.625 C13.66367188 16.90375 13.70234375 18.1825 13.7421875 19.5 C13.83671049 22.66652017 13.92226357 25.8330304 14 29 C16.14901352 28.21516932 16.14901352 28.21516932 16.60742188 26.27416992 C17.05163434 23.70088688 17.19678874 21.22371829 17.28125 18.61328125 C17.31863281 17.59298828 17.35601562 16.57269531 17.39453125 15.52148438 C17.46522849 13.37045532 17.53553683 11.21941345 17.60546875 9.06835938 C17.64285156 8.05193359 17.68023437 7.03550781 17.71875 5.98828125 C17.76418945 4.58896362 17.76418945 4.58896362 17.81054688 3.16137695 C18 1 18 1 19 0 C21.01964199 -0.07244053 23.04167124 -0.08377188 25.0625 -0.0625 C26.16722656 -0.05347656 27.27195313 -0.04445313 28.41015625 -0.03515625 C29.26480469 -0.02355469 30.11945313 -0.01195312 31 0 C31.66439034 23.40698274 31.66439034 23.40698274 28 30 C24.02055369 33.97944631 21.21494018 35.16024454 15.6875 35.25 C11.27005476 35.20957893 8.48182471 34.9377896 5 32 C4.1646875 31.3503125 4.1646875 31.3503125 3.3125 30.6875 C-1.08043841 25.03943633 -0.2331258 17.87870389 -0.125 11.125 C-0.11597656 10.05507813 -0.10695313 8.98515625 -0.09765625 7.8828125 C-0.07419342 5.25497561 -0.04136459 2.62760594 0 0 Z " fill="#DB7C42" transform="translate(116,282)"/>
<path d="M0 0 C8 0 16 0 24 0 C22.89188575 3.13965703 21.88830686 5.12980554 19.6875 7.6875 C17.81616045 11.36087022 17.83869224 11.77015809 18.9375 15.5 C19.60210892 17.34175523 20.2929015 19.17413607 21 21 C21.6709911 22.89851011 22.34188413 24.79705936 23.00805664 26.69726562 C23.98599461 29.47189668 24.99238695 32.23603377 26 35 C22.37 35 18.74 35 15 35 C14.01 33.02 13.02 31.04 12 29 C11.67 30.98 11.34 32.96 11 35 C7.37 35 3.74 35 0 35 C0 23.45 0 11.9 0 0 Z " fill="#F78C4A" transform="translate(239,282)"/>
<path d="M0 0 C2.9654455 1.05941813 5.28494718 2.36072282 8 4 C8 4.99 8 5.98 8 7 C8.66 7.33 9.32 7.66 10 8 C8.71034824 9.37562854 7.37310707 10.70766393 6 12 C5.34 12 4.68 12 4 12 C3.2575 11.175 2.515 10.35 1.75 9.5 C-0.79364102 6.68515712 -0.79364102 6.68515712 -4.3125 6.6875 C-5.199375 6.790625 -6.08625 6.89375 -7 7 C-4.21197933 10.01442606 -1.54944606 11.94644961 2.0625 13.875 C6.27000364 16.34489152 8.67179304 18.09585121 10 23 C10 27.18311184 9.32253281 28.62784675 6.5625 31.8125 C2.12344933 35.6019335 -1.307969 35.33297212 -7.01171875 35.28515625 C-12.07100791 34.80237441 -14.71806175 32.5383259 -17.875 28.75 C-18.24625 28.1725 -18.6175 27.595 -19 27 C-18.34 27 -17.68 27 -17 27 C-16.34 25.68 -15.68 24.36 -15 23 C-14.01 23.33 -13.02 23.66 -12 24 C-12 24.66 -12 25.32 -12 26 C-8.49223216 27.60355101 -5.85645121 28.22036864 -2 28 C-5.51715623 24.21292247 -9.28248975 21.96810292 -13.7578125 19.46484375 C-16 18 -16 18 -18 15 C-18.54531842 11.93473649 -18.54325893 9.06591671 -18 6 C-12.8295641 -0.53107692 -7.94137054 -0.82078595 0 0 Z " fill="#F88D4A" transform="translate(167,282)"/>
<path d="M0 0 C3.17625 -0.0825 6.3525 -0.165 9.625 -0.25 C10.6145166 -0.28641602 11.6040332 -0.32283203 12.62353516 -0.36035156 C18.38972311 -0.43261832 21.65687128 0.0925897 26 4 C27.20190901 7.60572704 27.32670315 10.2102435 27 14 C25.43877123 16.92730395 24.22254987 18.51899677 21.09375 19.75 C17.58131213 20.69364002 14.6745168 21 11 21 C11 25.62 11 30.24 11 35 C7.37 35 3.74 35 0 35 C0 23.45 0 11.9 0 0 Z " fill="#FB8F4B" transform="translate(283,282)"/>
<path d="M0 0 C3.92659868 1.1779796 5.46313411 2.85533949 8.125 5.9375 C8.888125 6.80375 9.65125 7.67 10.4375 8.5625 C12.125 10.9375 12.125 10.9375 12.125 13.9375 C8.495 13.9375 4.865 13.9375 1.125 13.9375 C1.125 14.5975 1.125 15.2575 1.125 15.9375 C5.59927924 16.02698558 9.73063789 15.79493651 14.125 14.9375 C16.41879749 18.37819624 17.125 19.66040301 17.125 23.9375 C13.70943314 25.64528343 9.89620917 25.56037908 6.125 25.9375 C10.415 25.9375 14.705 25.9375 19.125 25.9375 C19.785 28.9075 20.445 31.8775 21.125 34.9375 C17.35431168 35.024485 13.58388068 35.07788579 9.8125 35.125 C8.74064453 35.15013672 7.66878906 35.17527344 6.56445312 35.20117188 C5.53642578 35.21083984 4.50839844 35.22050781 3.44921875 35.23046875 C2.50135498 35.2461792 1.55349121 35.26188965 0.5769043 35.27807617 C-1.875 34.9375 -1.875 34.9375 -3.6484375 33.57299805 C-8.81662487 26.68173865 -8.72068368 15.11976422 -7.875 6.9375 C-6.5117435 2.42531301 -5.15383632 -0.11203992 0 0 Z " fill="#FF914D" transform="translate(229.875,151.0625)"/>
<path d="M0 0 C0.78552246 0.01047363 1.57104492 0.02094727 2.38037109 0.03173828 C3.23115234 0.03818359 4.08193359 0.04462891 4.95849609 0.05126953 C6.29267578 0.07640625 6.29267578 0.07640625 7.65380859 0.10205078 C8.99958984 0.11558594 8.99958984 0.11558594 10.37255859 0.12939453 C12.59157445 0.15300108 14.81005937 0.18592768 17.02880859 0.22705078 C17.14532585 4.60182552 17.21616859 8.97619905 17.27880859 13.35205078 C17.31232422 14.58955078 17.34583984 15.82705078 17.38037109 17.10205078 C17.49092422 27.38349139 17.49092422 27.38349139 15.26318359 30.96923828 C11.71314284 34.55651723 9.17429229 35.5238501 4.15380859 35.60205078 C-0.79130736 35.52889818 -3.22724694 34.37984612 -6.97119141 31.22705078 C-6.64119141 29.90705078 -6.31119141 28.58705078 -5.97119141 27.22705078 C-4.28369141 26.53955078 -4.28369141 26.53955078 -1.97119141 26.22705078 C-0.32119141 27.21705078 1.32880859 28.20705078 3.02880859 29.22705078 C3.35880859 22.95705078 3.68880859 16.68705078 4.02880859 10.22705078 C1.71880859 10.22705078 -0.59119141 10.22705078 -2.97119141 10.22705078 C-3.63119141 9.56705078 -4.29119141 8.90705078 -4.97119141 8.22705078 C-4.3271388 0.49841951 -4.3271388 0.49841951 0 0 Z " fill="#F78C4A" transform="translate(95.97119140625,281.77294921875)"/>
<path d="M0 0 C8.58 0 17.16 0 26 0 C27.35439668 2.70879335 27.06501451 5.00933268 27 8 C24.36 8 21.72 8 19 8 C19 16.91 19 25.82 19 35 C15.37 35 11.74 35 8 35 C8 26.09 8 17.18 8 8 C5.03 8 2.06 8 -1 8 C-0.67 5.36 -0.34 2.72 0 0 Z " fill="#FD8F4C" transform="translate(179,282)"/>
<path d="M0 0 C2.53435666 2.2037884 3.53691481 3.66578661 4 7 C3.9071875 8.7015625 3.9071875 8.7015625 3.8125 10.4375 C4.0429191 14.81546298 5.01917228 15.86254422 8 19 C11.09555607 20.96479595 14.27541741 22.63843839 17.515625 24.3515625 C18.33546875 24.89554687 19.1553125 25.43953125 20 26 C20 26.99 20 27.98 20 29 C12.74563965 29.13434001 9.18520893 26.38524974 4.01171875 21.43359375 C1.27930329 18.1281669 0.82034918 16.22179437 1 12 C-0.65 12.33 -2.3 12.66 -4 13 C-4.0093457 13.7113208 -4.01869141 14.4226416 -4.02832031 15.15551758 C-4.08196888 18.3752206 -4.16562635 21.59346183 -4.25 24.8125 C-4.26417969 25.93205078 -4.27835938 27.05160156 -4.29296875 28.20507812 C-4.32519531 29.27822266 -4.35742188 30.35136719 -4.390625 31.45703125 C-4.41157227 32.44678955 -4.43251953 33.43654785 -4.45410156 34.45629883 C-5 37 -5 37 -6.81933594 38.8269043 C-9.98828115 40.53164923 -12.4593786 40.31612691 -16 40 C-17.32 39.34 -18.64 38.68 -20 38 C-20.495 25.625 -20.495 25.625 -21 13 C-27.20858402 12.66081778 -27.20858402 12.66081778 -32 15 C-32.33 15.66 -32.66 16.32 -33 17 C-42.59453303 10.84965831 -42.59453303 10.84965831 -46 7 C-45 6 -45 6 -42.25 5.6875 C-38.29576668 6.06771474 -36.77530674 7.22469326 -34 10 C-34 10.66 -34 11.32 -34 12 C-31.4390706 10.20142332 -31.4390706 10.20142332 -29 8 C-29 7.01 -29 6.02 -29 5 C-28 2.8125 -28 2.8125 -27 1 C-26.67 1 -26.34 1 -26 1 C-26.33 3.31 -26.66 5.62 -27 8 C-24.03 8 -21.06 8 -18 8 C-18 16.91 -18 25.82 -18 35 C-14.37 35 -10.74 35 -7 35 C-7 26.09 -7 17.18 -7 8 C-4.36 8 -1.72 8 1 8 C0.505 4.04 0.505 4.04 0 0 Z " fill="#020100" transform="translate(205,282)"/>
<path d="M0 0 C3.63 0 7.26 0 11 0 C11 11.55 11 23.1 11 35 C7.37 35 3.74 35 0 35 C0 23.45 0 11.9 0 0 Z " fill="#FB8E4B" transform="translate(268,282)"/>
<path d="M0 0 C3.54289821 3.27906536 4.47294378 5.97269115 4.70703125 10.77148438 C4.72121094 11.44501953 4.73539062 12.11855469 4.75 12.8125 C4.77964844 13.50537109 4.80929687 14.19824219 4.83984375 14.91210938 C4.90999628 16.60746213 4.95732662 18.30373312 5 20 C0.21114714 22.06545306 -2.81116672 22.65889946 -8 22 C-12 17.4 -12 17.4 -12 14 C-10.02 13.67 -8.04 13.34 -6 13 C-7.32 13 -8.64 13 -10 13 C-11.32 13 -12.64 13 -14 13 C-14.89577032 9.49835238 -15.26716699 7.61870251 -13.8125 4.25 C-10.36795875 -0.02598224 -5.36699321 -1.49898443 0 0 Z " fill="#FF914D" transform="translate(269,164)"/>
<path d="M0 0 C2.375 1.5625 2.375 1.5625 4 4 C4.42213381 7.43737531 4.60856522 9.82090489 3 12.9375 C-0.24021772 14.65886567 -3.41957756 14.52960415 -7 14 C-9 12.9375 -9 12.9375 -10 11 C-10.50030235 7.06905293 -10.5996142 4.8994213 -8.375 1.5625 C-5.28314769 -0.47161336 -3.63632575 -0.60605429 0 0 Z " fill="#FF914D" transform="translate(240,248)"/>
<path d="M0 0 C2.3125 1.5625 2.3125 1.5625 4 4 C4.42519574 7.46230815 4.63902633 9.8347167 2.9375 12.9375 C-0.1652833 14.63902633 -2.53769185 14.42519574 -6 14 C-8.5 12.4375 -8.5 12.4375 -10 10 C-10 6.17610254 -9.85254277 3.94388664 -7.25 1.0625 C-4.50508782 -0.23370853 -2.99925788 -0.52487013 0 0 Z " fill="#FF914D" transform="translate(271,248)"/>
<path d="M0 0 C4.2927698 0 7.72459653 0.14491931 12 1 C11.01 4.3 10.02 7.6 9 11 C6.07406105 11.85637238 3.91825712 12.38673104 1.04296875 11.17578125 C-0.67511732 10.17852152 -2.34201387 9.09427085 -4 8 C-3.34 6.68 -2.68 5.36 -2 4 C-1.34 4 -0.68 4 0 4 C0 2.68 0 1.36 0 0 Z " fill="#FF914D" transform="translate(255,152)"/>
<path d="M0 0 C0.99 0.33 1.98 0.66 3 1 C1.77048326 8.47835477 0.11170763 15.7216477 -2 23 C-3.32 23 -4.64 23 -6 23 C-5.38027718 20.10294624 -4.75443301 17.20744545 -4.125 14.3125 C-3.95097656 13.49587891 -3.77695312 12.67925781 -3.59765625 11.83789062 C-2.69778037 7.72179169 -1.74492704 3.85927556 0 0 Z " fill="#000000" transform="translate(268,201)"/>
<path d="M0 0 C0.66 0 1.32 0 2 0 C2.84357963 3.059771 3.6730202 6.1232046 4.5 9.1875 C4.73847656 10.05181641 4.97695312 10.91613281 5.22265625 11.80664062 C5.44824219 12.64775391 5.67382812 13.48886719 5.90625 14.35546875 C6.11572266 15.12528076 6.32519531 15.89509277 6.54101562 16.68823242 C7.03538729 19.17823523 7.07833519 21.46781499 7 24 C6.01 24 5.02 24 4 24 C3.15862957 21.1062867 2.3266964 18.21040603 1.5 15.3125 C1.26152344 14.49587891 1.02304688 13.67925781 0.77734375 12.83789062 C-1.44240527 5.00534767 -1.44240527 5.00534767 -1 1 C-0.67 0.67 -0.34 0.34 0 0 Z " fill="#000000" transform="translate(229,201)"/>
<path d="M0 0 C0.99 0.33 1.98 0.66 3 1 C3 8.59 3 16.18 3 24 C2.01 24 1.02 24 0 24 C-0.96619534 16.3567047 -1.39500885 8.70267259 -1 1 C-0.67 0.67 -0.34 0.34 0 0 Z " fill="#000000" transform="translate(248,200)"/>
<path d="M0 0 C0.33 0.66 0.66 1.32 1 2 C4.3 2 7.6 2 11 2 C11.08081043 5.27132607 11.14040709 8.54066421 11.1875 11.8125 C11.22520508 13.2056543 11.22520508 13.2056543 11.26367188 14.62695312 C11.27817383 15.9659668 11.27817383 15.9659668 11.29296875 17.33203125 C11.31653442 18.56530151 11.31653442 18.56530151 11.34057617 19.82348633 C11 22 11 22 8 25 C8.33 18.73 8.66 12.46 9 6 C6.69 6 4.38 6 2 6 C1.34 5.34 0.68 4.68 0 4 C0 2.68 0 1.36 0 0 Z " fill="#000000" transform="translate(91,286)"/>
<path d="M0 0 C1.32 0.33 2.64 0.66 4 1 C4.625 3.375 4.625 3.375 5 6 C4.34 6.66 3.68 7.32 3 8 C2.01 8 1.02 8 0 8 C0 5.36 0 2.72 0 0 Z " fill="#000000" transform="translate(294,288)"/>
</svg>
