<svg width="304" height="320" viewBox="0 0 304 320" fill="none" xmlns="http://www.w3.org/2000/svg">
<path fill-rule="evenodd" clip-rule="evenodd" d="M101.425 3.82242C97.5227 7.30973 97.0255 8.71146 95.7437 19.86L94.3392 32.0751L82.2562 44.361C70.1909 56.6265 70.1719 56.6579 70.1719 63.6965C70.1719 72.8957 73.884 77.5531 82.0941 78.6552C85.2763 79.0815 87.8809 79.8349 87.8809 80.3293C87.8809 80.8238 86.93 88.4768 85.768 97.3354C84.6061 106.195 83.9794 113.767 84.3745 114.162C85.5514 115.339 86.2612 111.917 88.359 94.9556C89.9923 81.761 90.89 78.3282 93.2943 76.0874C94.9113 74.5821 96.4152 73.5645 96.6373 73.8261C96.8593 74.089 95.4399 86.9144 93.4823 102.325L89.9242 130.348L86.7965 126.555C84.8172 124.155 81.8176 122.463 78.6232 121.945C70.4947 120.628 67.5809 118.913 66.6124 114.877C66.1124 112.791 64.7243 109.245 63.5283 106.998C62.3309 104.75 61.3446 100.229 61.3351 96.9499C61.3133 89.4277 58.1624 86.7264 53.9055 90.5788C52.3621 91.9751 51.1006 93.874 51.1006 94.8017C51.1006 95.728 49.4142 96.9036 47.3545 97.4158C37.8965 99.7629 33.7554 109.583 38.6935 117.951C43.7242 126.478 42.7052 130.447 32.9857 140.202C21.6179 151.608 21.2106 151.786 15.9606 147.678C11.2023 143.954 10.3781 141.735 13.7524 141.735C16.2208 141.735 16.2984 141.999 11.0388 132.526C7.83758 126.76 6.39499 125.388 3.53022 125.388C0.190034 125.388 -0.0143053 125.775 0.000679258 132.079C0.017026 138.98 3.57107 146.203 13.7033 159.935C18.7436 166.766 21.3196 167.417 28.143 163.582C31.0296 161.96 33.3917 161.249 33.3917 162.003C33.3917 162.758 31.7583 167.779 29.7627 173.164C27.1227 180.286 26.5083 183.546 27.5068 185.127C28.5462 186.775 27.7547 189.058 24.2375 194.558C17.6892 204.794 10.2337 220.76 10.2337 224.547C10.2337 227.679 17.6484 235.387 35.5494 250.857L42.475 256.843L43.4912 279.317C44.4107 299.688 44.2895 301.921 42.1889 303.156C29.1265 310.846 23.7144 315.038 24.1189 317.153C24.5058 319.176 26.5941 319.56 38.9945 319.89C56.852 320.367 57.6857 319.771 55.2895 308.248C53.7761 300.971 53.8905 299.967 56.9596 293.623C58.7714 289.877 61.0163 284.465 61.9494 281.596L63.6441 276.379L67.0605 281.408C69.7319 285.338 70.3054 287.501 69.6883 291.306C69.2455 294.036 69.5507 296.961 70.383 297.965C72.5081 300.524 219.006 300.609 221.032 298.05C221.774 297.115 223.713 285.647 225.341 272.567C226.967 259.488 228.473 248.614 228.685 248.403C228.898 248.19 230.215 248.854 231.613 249.875C234.09 251.687 234.081 252.334 231.221 275.403C228.497 297.394 228.039 299.29 224.758 302.137L221.227 305.202H144.548C71.9932 305.202 67.7485 305.069 65.6152 302.711C64.3756 301.34 63.3607 298.275 63.3607 295.9C63.3607 293.524 62.7477 291.58 61.9985 291.58C60.1785 291.58 60.2657 297.45 62.1483 301.583C62.9806 303.408 65.1548 305.582 66.9802 306.415C70.8353 308.171 213.171 308.41 225.352 306.68C235.316 305.265 238.429 301.585 239.7 289.719C240.224 284.814 241.069 279.258 241.574 277.375L242.494 273.95L244.814 277.997C246.755 281.381 246.811 282.044 245.154 282.044C243.55 282.044 243.175 284.743 243.175 296.326C243.175 309.995 243.337 310.789 246.935 314.815C250.137 318.399 251.925 319.135 258.996 319.777C268.943 320.678 276.122 318.62 279.934 313.775C282.286 310.785 282.68 308.258 282.68 296.164C282.68 284.75 282.302 282.044 280.709 282.044C279.222 282.044 279.807 279.779 283.086 272.849C288.938 260.475 289.555 246.419 285.102 226.874C281.202 209.753 279.201 209.095 274.743 223.468C273.001 229.088 271.24 234.605 270.83 235.728C270.334 237.085 269.115 235.711 267.202 231.642C264.874 226.687 264.318 222.896 264.306 211.868C264.291 199.935 264.788 196.983 268.269 188.33C273.485 175.359 271.763 173.074 263.438 181.92C260.161 185.404 256.056 190.507 254.32 193.261L251.16 198.267L251.96 192.818C254.882 172.887 274.506 14.2135 274.506 10.5137C274.506 7.58762 273.471 4.99666 271.64 3.33883C268.898 0.856843 265.221 0.727434 187.238 0.371892L105.703 0L101.425 3.82242ZM259.58 2.81845C261.012 3.58539 262.793 5.34811 263.535 6.73623C264.501 8.54254 260.835 41.4227 250.665 122.154C242.843 184.246 236.09 237.04 235.661 239.475C235.092 242.692 234.152 243.902 232.216 243.902C230.614 243.902 229.553 242.976 229.553 241.578C229.553 240.3 235.683 190.682 243.175 131.315C250.667 71.9489 256.797 23.0353 256.797 22.6171C256.797 22.2003 222.652 21.8583 180.918 21.8583H105.038L100.789 25.9777L96.5392 30.0957L97.7216 20.1937C98.9967 9.52199 101.295 4.69969 106.009 2.80074C110.336 1.05709 256.323 1.0748 259.58 2.81845ZM178.635 7.26477C175.701 9.41165 176.107 13.4438 179.472 15.5635C182.917 17.7335 188.648 12.0026 186.478 8.55753C184.526 5.45846 181.736 4.99802 178.635 7.26477ZM79.416 11.6375C59.5056 18.5985 41.7816 30.9907 31.2284 45.3241C27.9236 49.8154 25.2183 54.0356 25.2183 54.7017C25.2183 57.4371 27.4878 55.6021 30.0174 50.8207C34.1 43.1023 48.1814 29.7089 58.721 23.5189C63.8947 20.4811 72.88 16.3331 78.6858 14.3007C84.4916 12.2696 89.2431 10.0737 89.2431 9.42118C89.2431 8.77004 89.0891 8.281 88.9025 8.33685C88.7159 8.3927 84.4467 9.87753 79.416 11.6375ZM184.343 10.605C183.659 14.1549 179.15 14.5513 179.15 11.0599C179.15 9.11059 180.025 8.23604 181.974 8.23604C183.924 8.23604 184.658 8.97028 184.343 10.605ZM66.7663 25.6345C57.3328 30.6393 38.3134 47.6971 34.901 54.2113C32.3169 59.1453 35.5998 57.7531 38.8133 52.5521C43.5757 44.846 58.4799 32.1895 68.6707 27.1956C73.8976 24.6346 78.2131 22.079 78.2594 21.5178C78.4066 19.7687 76.6057 20.4144 66.7663 25.6345ZM136.921 40.2485L119.934 57.2763H109.036H98.1384L115.125 40.2485L132.112 23.2206H143.01H153.908L136.921 40.2485ZM186.643 40.2934L168.934 57.2327L158.056 57.2545L147.179 57.2763L164.166 40.2485L181.153 23.2206L192.752 23.2873L204.352 23.3541L186.643 40.2934ZM236.364 40.2485L219.377 57.2763H208.479H197.581L214.568 40.2485L231.555 23.2206H242.453H253.351L236.364 40.2485ZM237.774 157.556C228.763 229.395 221.054 290.166 220.642 292.602L219.893 297.029H145.571H71.248L72.0518 291.239C72.4945 288.056 73.4617 279.933 74.2027 273.19C77.6342 241.977 89.2744 154.173 90.5454 149.918C91.3273 147.299 91.9675 142.143 91.9675 138.458C91.9675 131.694 98.4831 77.5518 99.4081 76.6268C99.6832 76.3516 101.146 76.7889 102.66 77.5994C107.658 80.2749 114.967 79.384 118.398 75.6814C121.513 72.3194 121.562 72.314 123.969 74.9731C128.776 80.2858 142.182 79.6292 144.351 73.9759C145.037 72.1887 145.717 72.3698 148.646 75.1215C153.493 79.6755 164.622 79.8076 168.228 75.3531C170.356 72.7267 170.914 72.5864 172.354 74.3219C173.27 75.4253 176.473 76.9892 179.474 77.797C185.489 79.4167 191.875 77.7098 193.999 73.916C195.003 72.1205 195.567 72.2186 198.171 74.6461C203.677 79.7749 214.091 79.8035 218.328 74.6992C219.209 73.6353 220.262 69.4383 220.667 65.3707C221.397 58.0446 221.555 57.8226 237.33 42.0057C246.09 33.2234 253.46 26.2393 253.707 26.4872C253.954 26.7338 246.784 85.7156 237.774 157.556ZM169.237 66.4932C168.405 73.8724 165.745 76.3475 158.641 76.3475C151.039 76.3475 146.458 72.0851 146.454 65.0097L146.45 59.3197L158.198 59.7651L169.946 60.2106L169.237 66.4932ZM119.192 65.7903C119.166 72.7499 118.263 74.3778 113.397 76.2277C105.113 79.3772 96.1237 72.8997 96.0747 63.7469L96.0542 60.0008H107.633H119.212L119.192 65.7903ZM218.655 65.4497C218.655 69.0828 217.746 71.8072 215.93 73.6231C209.384 80.17 195.497 74.0699 195.497 64.6474V60.0008H207.076H218.655V65.4497ZM19.7898 63.7469C19.8021 65.0587 20.3769 67.0258 21.0689 68.1197C22.1465 69.8225 22.7322 69.7435 25.1352 67.568C29.2055 63.8845 28.6851 61.363 23.856 61.363C20.8646 61.363 19.7748 62.0019 19.7898 63.7469ZM25.2183 64.0071C25.2183 66.2902 22.8017 66.8569 21.9979 64.7604C21.5239 63.5249 22.0021 62.7252 23.2172 62.7252C24.3178 62.7252 25.2183 63.3015 25.2183 64.0071ZM284.78 71.9203C284.167 73.5168 284.794 74.9213 286.678 76.1732C288.225 77.2017 289.491 79.4807 289.491 81.2379C289.491 83.1274 290.744 85.1476 292.556 86.1801C294.241 87.1405 295.688 88.5395 295.769 89.2887C296.117 92.4872 298.074 96.781 299.186 96.781C300.834 96.781 300.709 93.0539 299.027 92.0132C298.277 91.55 297.664 89.9235 297.664 88.3992C297.664 86.7741 296.538 85.3342 294.94 84.916C292.985 84.4038 292.215 83.0579 292.215 80.1482C292.215 77.1853 291.451 75.8926 289.381 75.3518C287.427 74.8409 286.753 73.822 287.211 72.0729C288.051 68.8594 286.005 68.73 284.78 71.9203ZM73.0543 83.2268C72.8895 85.4282 75.3715 88.6076 77.2555 88.6076C77.8549 88.6076 78.3452 87.9946 78.3452 87.2454C78.3452 86.4962 77.4707 85.8832 76.4013 85.8832C75.3334 85.8832 74.1782 84.8111 73.8349 83.4993C73.3568 81.6684 73.1756 81.6058 73.0543 83.2268ZM67.4474 87.2454C67.4474 87.9946 68.3669 88.6076 69.4908 88.6076C70.6146 88.6076 71.5341 87.9946 71.5341 87.2454C71.5341 86.4962 70.6146 85.8832 69.4908 85.8832C68.3669 85.8832 67.4474 86.4962 67.4474 87.2454ZM290.964 97.725C293.903 103.574 297.284 112.038 298.476 116.533C301.804 129.079 302.489 156.248 299.858 171.363C297.374 185.632 297.19 188.345 298.912 185.326C304.218 176.025 305.192 134.196 300.513 116.593C297.483 105.195 289.782 88.4782 287.16 87.6037C286.312 87.3203 288.022 91.8756 290.964 97.725ZM73.004 90.764C73.0693 92.351 73.3922 92.6739 73.8268 91.5882C74.2204 90.6046 74.1714 89.4291 73.7191 88.9768C73.2669 88.5245 72.9454 89.3282 73.004 90.764ZM286.096 105.295C293.563 121.643 296.327 142.579 293.698 162.849C292.284 173.739 288.619 189.861 286.032 196.564C285.527 197.876 285.703 198.948 286.422 198.948C287.933 198.948 292.786 182.967 294.877 171.112C297.252 157.648 296.66 132.67 293.692 121.065C290.884 110.091 285.816 98.1432 283.967 98.1432C283.342 98.1432 284.301 101.362 286.096 105.295ZM119.965 107.195C119.468 109.176 119.594 111.33 120.245 111.981C120.894 112.631 143.106 113.002 169.602 112.805L217.779 112.447L218.757 108.786C219.295 106.774 219.391 104.781 218.968 104.359C218.546 103.937 196.301 103.592 169.536 103.592H120.87L119.965 107.195ZM217.293 108.36C217.293 110.138 211.086 110.403 169.615 110.403C128.143 110.403 121.937 110.138 121.937 108.36C121.937 106.582 128.143 106.317 169.615 106.317C211.086 106.317 217.293 106.582 217.293 108.36ZM47.7754 109.619C50.0899 111.316 50.7424 111.274 53.0119 109.278C55.5061 107.084 55.5715 107.161 54.7637 111.346C53.7393 116.655 57.1571 128.894 59.966 129.972C63.1836 131.206 62.3499 134.385 57.8069 138.208C53.2503 142.042 49.842 142.655 47.2864 140.1C44.9502 137.764 45.2635 134.846 48.2018 131.605C49.6036 130.059 51.0843 126.14 51.4916 122.898C52.2095 117.178 52.155 117.071 49.6485 119.34C46.435 122.247 43.5266 120.322 42.2325 114.429C40.8253 108.022 43.0117 106.125 47.7754 109.619ZM118.553 123.004C118.238 123.941 117.797 125.933 117.575 127.431C117.176 130.108 118.042 130.162 166.397 130.513L215.627 130.871L216.501 127.385C216.982 125.468 217.015 123.316 216.573 122.601C215.268 120.491 119.267 120.886 118.553 123.004ZM214.568 126.069C214.568 127.847 208.362 128.112 166.89 128.112C125.418 128.112 119.212 127.847 119.212 126.069C119.212 124.291 125.418 124.026 166.89 124.026C208.362 124.026 214.568 124.291 214.568 126.069ZM12.5577 146.843C15.7358 150.028 19.5214 152.632 20.9708 152.632C22.4202 152.632 27.4074 148.802 32.0526 144.118L40.4998 135.605L37.5206 141.333C35.8832 144.484 34.6585 148.468 34.7988 150.187C35.3219 156.571 34.6 157.733 27.8024 161.432C21.0199 165.123 20.7883 165.154 18.369 162.671C14.4185 158.615 2.06036 137.687 2.06036 135.05C2.06036 130.231 4.13913 130.692 5.44278 135.803C6.24922 138.971 9.07311 143.35 12.5577 146.843ZM44.5783 134.936C43.8209 140.094 46.2443 143.097 51.1633 143.097C55.4448 143.097 62.7559 137.614 64.0936 133.399C64.5758 131.876 65.34 131 65.7896 131.45C66.6437 132.304 68.4732 163.534 67.6681 163.532C67.4161 163.53 63.3716 161.385 58.6815 158.761C50.4767 154.173 49.955 154.063 44.8385 155.834C38.1091 158.163 37.9456 160.98 44.5034 161.569C48.4607 161.923 50.8364 163.458 56.0401 169.021C59.6446 172.875 64.2993 176.91 66.3835 177.988C68.9404 179.31 70.1719 181.017 70.1719 183.238C70.1719 187.811 68.8451 188.219 61.9072 185.784C57.3124 184.171 52.7026 183.848 42.6303 184.435C35.3492 184.86 29.0925 184.721 28.726 184.129C28.3596 183.536 29.9439 178.199 32.2474 172.269C34.5509 166.339 36.7673 157.823 37.1732 153.344C37.7603 146.889 43.2242 130.837 44.8344 130.837C45.0251 130.837 44.9093 132.681 44.5783 134.936ZM75.9055 138.753C78.0115 143.839 78.1382 175.161 76.0608 177.249C73.2015 180.124 67.0701 177.195 59.3026 169.243C55.0307 164.869 49.7221 160.9 47.014 160.051L42.2461 158.559L46.6611 157.534C50.3623 156.674 52.4002 157.312 59.2481 161.471C63.7408 164.201 68.1108 166.005 68.9595 165.481C70.0561 164.803 70.2209 159.839 69.5289 148.249L68.5563 131.967L71.4728 133.529C73.0761 134.387 75.0718 136.738 75.9055 138.753ZM270.42 138.638C270.42 140.251 269.364 141.811 268.036 142.158C266.025 142.684 265.998 142.805 267.87 142.939C271.158 143.173 273.993 139.314 271.997 137.318C270.803 136.124 270.42 136.444 270.42 138.638ZM274.252 142.665C275.234 143.059 276.409 143.01 276.862 142.557C277.314 142.105 276.51 141.784 275.074 141.842C273.487 141.908 273.165 142.23 274.252 142.665ZM270.42 146.583C270.42 147.75 271.033 148.328 271.782 147.865C272.531 147.401 273.144 146.447 273.144 145.741C273.144 145.035 272.531 144.459 271.782 144.459C271.033 144.459 270.42 145.415 270.42 146.583ZM117.414 148.074C116.905 148.583 116.488 150.793 116.488 152.987C116.488 155.821 117.271 157.18 119.197 157.682C120.687 158.072 121.595 158.896 121.213 159.512C120.502 160.661 122.804 190.369 124.032 195.883L124.713 198.948L157.721 198.928C175.875 198.916 191.451 198.448 192.333 197.887C193.214 197.326 196.585 188.181 199.825 177.564C204.225 163.142 206.34 158.092 208.192 157.592C210.081 157.084 210.566 155.849 210.235 152.395L209.8 147.865L164.07 147.506C138.918 147.309 117.923 147.565 117.414 148.074ZM208.874 152.973C208.634 154.659 207.979 155.884 207.417 155.697C206.854 155.511 186.779 155.357 162.804 155.357C120.121 155.357 119.212 155.3 119.212 152.632C119.212 149.962 120.121 149.908 164.261 149.908H209.309L208.874 152.973ZM80.3328 206.498C76.9926 232.689 74.2586 254.347 74.2586 254.625C74.2586 254.905 73.3976 254.418 72.346 253.545C71.2562 252.642 68.9105 252.339 66.8971 252.845L63.3607 253.733V241.996C63.3607 226.666 68.401 190.76 70.947 187.946C72.0191 186.762 72.8963 185.103 72.8963 184.259C72.8963 183.416 74.3798 181.242 76.1929 179.429C78.3153 177.307 79.8341 173.766 80.4567 169.491C80.9893 165.838 82.4183 161.856 83.6321 160.641C84.8445 159.426 85.9656 158.532 86.1222 158.655C86.2775 158.777 83.673 180.306 80.3328 206.498ZM202.263 161.864C202.239 163.154 199.909 171.261 197.085 179.877L191.951 195.543L159.504 196.224C127.985 196.886 127.026 196.827 126.033 194.18C125.47 192.682 124.578 184.406 124.051 175.79L123.09 160.125L162.7 159.821C199.413 159.538 202.305 159.687 202.263 161.864ZM134.371 165.928C133.665 167.246 132.897 173.837 132.666 180.572C132.242 192.798 132.247 192.818 135.603 192.818C138.902 192.818 138.977 192.57 139.646 179.463C140.274 167.148 139.603 163.53 136.696 163.53C136.124 163.53 135.077 164.609 134.371 165.928ZM146.019 164.497C145.165 165.88 142.37 185.634 142.37 190.287C142.37 193.027 142.961 193.604 145.402 193.254C148.807 192.765 149.929 188.542 150.753 173.109C151.147 165.762 150.85 164.221 148.967 163.838C147.726 163.586 146.4 163.883 146.019 164.497ZM155.182 165.421C153.535 169.712 150.898 191.543 151.897 192.606C152.491 193.238 154.117 193.537 155.507 193.273C157.612 192.871 158.314 190.622 159.692 179.863C160.604 172.753 161.082 166.17 160.756 165.233C159.958 162.936 156.085 163.067 155.182 165.421ZM166.339 164.683C165.256 166.436 161.441 186.563 161.441 190.53C161.441 193.027 162.083 193.597 164.506 193.254C167.07 192.889 167.84 191.482 169.213 184.645C171.952 171.01 172.012 164.379 169.401 163.842C168.16 163.587 166.781 163.966 166.339 164.683ZM175.645 165.055C174.276 167.27 169.79 191.271 170.521 192.478C171.909 194.776 176.403 193.378 177.091 190.434C179.415 180.489 181.707 165.722 181.082 164.713C180.048 163.038 176.762 163.246 175.645 165.055ZM186.643 165.233C184.802 170.502 180.513 188.422 180.513 190.844C180.513 192.997 181.24 193.582 183.499 193.254C186.05 192.882 186.953 190.952 189.695 180.009C191.461 172.965 192.587 166.375 192.2 165.365C191.314 163.055 187.437 162.962 186.643 165.233ZM137.654 178.855C136.683 191.333 136.256 193.288 134.816 191.848C133.531 190.564 135.883 166.255 137.292 166.255C138.149 166.255 138.279 170.824 137.654 178.855ZM148.587 176.131C147.454 187.969 146.498 192.322 145.205 191.524C144.676 191.197 144.787 186.145 145.45 180.295C146.784 168.543 147.301 166.255 148.634 166.255C149.128 166.255 149.108 170.698 148.587 176.131ZM158.092 175.45C157.573 180.508 156.822 186.023 156.423 187.71C155.37 192.156 152.78 191.515 153.675 187.029C154.085 184.969 154.855 179.452 155.383 174.769C155.912 170.087 156.95 166.255 157.69 166.255C158.534 166.255 158.684 169.67 158.092 175.45ZM169.532 168.639C169.305 175.055 166.01 189.933 164.719 190.363C163.734 190.692 163.914 186.835 165.273 178.553C166.382 171.789 167.814 166.255 168.453 166.255C169.092 166.255 169.577 167.327 169.532 168.639ZM178.57 171.363C176.119 185.548 174.742 190.775 173.457 190.775C172.677 190.775 172.38 189.402 172.794 187.71C173.207 186.023 174.299 180.508 175.22 175.45C176.142 170.392 177.472 166.255 178.175 166.255C178.901 166.255 179.073 168.462 178.57 171.363ZM188.127 178.082C186.493 184.586 184.471 190.136 183.635 190.415C182.658 190.741 183.065 187.123 184.774 180.291C188.149 166.796 188.345 166.255 189.851 166.255C190.538 166.255 189.763 171.577 188.127 178.082ZM266.336 187.362C259.285 203.811 259.555 218.383 267.255 237.091C271.219 246.718 272.132 259.162 269.981 274.211C269.082 280.505 268.368 282.044 266.353 282.044C264.493 282.044 262.884 279.498 260.112 272.168C258.056 266.736 254.691 259.1 252.634 255.2C241.422 233.947 245.408 205.731 262.428 185.879C265.7 182.063 268.549 179.362 268.759 179.877C268.97 180.393 267.881 183.761 266.336 187.362ZM259.417 193.977C252.817 208.082 252.504 219.804 258.195 239.754C261.366 250.871 262.688 258.411 262.787 265.971C262.865 271.809 263.387 276.587 263.949 276.59C266.073 276.601 264.901 256.403 262.205 246.534C256.12 224.25 255.261 218.319 256.846 209.575C257.668 205.048 259.839 197.952 261.673 193.807C266.45 183.005 264.482 183.153 259.417 193.977ZM113.247 210.941C112.875 211.543 111.251 220.209 109.638 230.196C107.218 245.192 107.026 248.559 108.532 249.514C110.957 251.051 195.125 251.054 196.076 249.517C197.418 247.346 202.477 213.614 201.747 211.711C201.163 210.187 193.078 209.846 157.477 209.846C133.524 209.846 113.619 210.339 113.247 210.941ZM42.6684 228.133L42.2461 232.798L38.3924 229.468L34.5387 226.138L38.3924 220.018L42.2461 213.897L42.6684 218.683C42.9014 221.315 42.9014 225.568 42.6684 228.133ZM283.113 227.555C286.919 244.661 287.292 252 284.84 261.57C282.196 271.89 277.375 281.167 274.351 281.749C272.434 282.118 272.231 279.564 272.557 259.208C272.861 240.197 273.449 234.443 275.983 225.724C277.665 219.935 279.446 215.679 279.94 216.268C280.435 216.857 281.862 221.936 283.113 227.555ZM278.585 232.436C278.581 238.368 278.274 248.431 277.904 254.8C277.398 263.48 277.565 265.357 278.565 262.3C280.139 257.483 280.987 224.045 279.568 222.628C279.032 222.091 278.589 226.505 278.585 232.436ZM131.129 226.193C131.572 227.837 131.427 227.877 130.391 226.4C129.682 225.389 127.949 224.782 126.541 225.049C123.481 225.63 122.3 232.203 124.729 235.129C126.939 237.792 125.387 237.622 122.668 234.904C120.439 232.674 120.859 228.635 123.687 225.106C125.512 222.827 130.414 223.543 131.129 226.193ZM135.878 229.939C135.545 233.124 134.713 235.728 134.028 235.728C133.343 235.728 133.157 234.042 133.616 231.982C135.902 221.71 136.826 220.876 135.878 229.939ZM152.994 228.306C153.467 233.137 149.501 237.651 145.973 236.297C143.287 235.265 142.907 227.563 145.419 225.051C148.473 221.997 152.547 223.748 152.994 228.306ZM164.726 224.634C165.122 225.275 163.931 225.51 162.082 225.156C157.912 224.359 157.316 228.233 161.441 229.312C164.645 230.15 165.129 235.068 162.122 236.222C159.595 237.19 155.992 235.916 155.992 234.054C155.992 233.274 156.908 233.43 158.093 234.414C159.738 235.78 160.552 235.799 161.839 234.508C163.125 233.217 162.769 232.316 160.207 230.38C158.097 228.787 157.232 227.114 157.781 225.686C158.673 223.361 163.487 222.631 164.726 224.634ZM174.494 224.651C169.542 225.723 168.188 228.848 172.567 229.103L175.745 229.288L172.68 229.879C170.763 230.248 169.615 231.455 169.615 233.099C169.615 234.545 168.989 235.728 168.227 235.728C166.96 235.728 167.217 232.99 169.151 225.852C169.609 224.167 171.071 223.516 174.133 223.629L178.469 223.791L174.494 224.651ZM187.431 225.641C188.934 227.452 188.905 228.401 187.258 231.322C186.17 233.251 184.361 235.102 183.237 235.436C181.567 235.93 181.594 235.701 183.387 234.182C187.884 230.371 187.347 223.485 182.693 225.271C180.864 225.972 179.707 230.631 180.352 234.707C180.44 235.268 179.915 235.728 179.184 235.728C178.011 235.728 178.394 230.117 179.906 225.171C180.642 222.765 185.286 223.056 187.431 225.641ZM145.921 226.986C143.691 232.796 146.205 237.401 149.922 234.317C152.957 231.797 152.521 224.831 149.327 224.831C147.909 224.831 146.376 225.801 145.921 226.986ZM249.229 230.988C251.407 236.203 255.435 242.474 255.435 240.652C255.435 238.529 249.324 226.193 248.273 226.193C247.696 226.193 248.127 228.351 249.229 230.988ZM246.278 252.18C249.655 254.964 252.502 259.568 255.972 267.857C258.673 274.311 260.884 280.144 260.884 280.818C260.884 281.493 258.474 282.044 255.528 282.044C248.916 282.044 245.157 277.511 243.196 267.17C241.57 258.599 238.813 253.128 234.348 249.615C232.46 248.13 230.915 246.609 230.915 246.234C230.915 244.398 242.076 248.717 246.278 252.18ZM247.677 248.066C248.275 250.356 248.059 250.577 246.488 249.274C245.432 248.397 244.904 247.136 245.314 246.472C246.425 244.674 246.868 244.973 247.677 248.066ZM239.336 252.073C245.227 256.929 251.348 268.521 251.348 274.819C251.348 277.294 252.04 279.32 252.885 279.32C254.904 279.32 253.371 269.546 250.355 263.188C247.632 257.449 238.861 247.989 236.264 247.989C235.229 247.989 236.611 249.826 239.336 252.073ZM72.6103 268.299C72.8269 275.35 72.5149 281.608 71.9169 282.206C71.3189 282.804 69.3055 281.07 67.4433 278.353C65.0799 274.903 64.569 273.242 65.7528 272.846C66.6846 272.536 67.4474 271.683 67.4474 270.953C67.4474 270.221 66.9338 269.941 66.3058 270.329C65.6792 270.716 65.0676 268.553 64.9491 265.519C64.8305 262.487 64.3878 259.446 63.9669 258.764C62.5747 256.512 64.9218 254.636 68.5971 255.063C72.1948 255.478 72.2179 255.554 72.6103 268.299ZM69.7182 257.071C68.2647 258.524 68.6707 279.073 70.1719 280.001C71.0423 280.539 71.5341 276.383 71.5341 268.502C71.5341 256.15 71.4115 255.377 69.7182 257.071ZM52.4629 299.642C52.4629 302.393 50.7097 305.202 48.9919 305.202C46.5467 305.202 45.461 303.198 46.4745 300.557C47.3491 298.277 52.4629 297.495 52.4629 299.642ZM46.2961 306.504C46.7388 307.221 48.0629 307.439 49.2385 306.988C51.8812 305.973 53.776 308.766 53.8047 313.716L53.8251 317.462H39.3555C27.9277 317.462 25.1842 317.104 26.3094 315.759C28.6416 312.971 36.1161 309.019 36.1161 310.573C36.1161 311.366 36.71 312.013 37.4361 312.013C38.1608 312.013 38.4183 310.94 38.0055 309.629C37.2917 307.359 37.3489 307.359 39.2206 309.629C41.8184 312.783 43.3795 312.681 41.6604 309.467C40.9112 308.068 40.6864 306.536 41.1591 306.062C42.4478 304.773 45.382 305.026 46.2961 306.504ZM33.7322 315.739C37.2917 316.02 43.1139 316.02 46.6734 315.739C50.2329 315.458 47.3205 315.228 40.2028 315.228C33.0852 315.228 30.1727 315.458 33.7322 315.739Z" fill="black"/>
</svg>
