<svg width="349" height="277" viewBox="0 0 349 277" fill="none" xmlns="http://www.w3.org/2000/svg">
<g clip-path="url(#clip0_1_74)">
<path d="M91.1713 176.072C91.1713 176.072 54.4145 143.376 44.8449 107.642C35.2754 71.8676 60.5807 70.0689 85.8059 92.6526C111.071 115.236 131.331 147.653 133.414 156.407C135.496 165.2 123.323 203.213 91.1713 176.072Z" fill="#FFFEFD" stroke="black" stroke-width="1.39899" stroke-miterlimit="10"/>
<path d="M115.636 232.392C102.663 246.542 68.5085 236.789 39.3994 210.648C10.2502 184.467 -2.88294 151.81 10.09 137.661C23.063 123.551 57.2172 133.264 86.3663 159.445C115.475 185.586 128.609 218.243 115.636 232.392Z" fill="#FFFEFD" stroke="black" stroke-width="1.39899" stroke-miterlimit="10"/>
<path d="M21.4214 131.745C21.4214 131.745 21.8618 156.567 41.2412 160.085C60.6206 163.642 66.4664 161.164 70.1501 180.99C73.8338 200.815 84.2042 204.812 104.144 203.533C124.084 202.294 131.892 219.762 131.892 219.762" stroke="black" stroke-width="1.39899" stroke-miterlimit="10"/>
<path d="M49.0491 135.782C49.0491 135.782 47.6077 150.452 58.4986 151.851C69.3895 153.25 81.0812 157.686 84.6848 172.236C88.2884 186.785 99.1392 189.583 109.389 188.624" stroke="black" stroke-width="1.39899" stroke-miterlimit="10"/>
<path d="M5.12512 152.77C5.12512 152.77 23.1031 156.887 27.988 172.835C32.8729 188.784 36.4765 191.422 44.4445 191.582C52.4124 191.781 63.1031 200.935 67.4274 213.646C71.7518 226.316 79.5996 234.151 95.2553 236.309" stroke="black" stroke-width="1.39899" stroke-miterlimit="10"/>
<path d="M278.398 190.463C253.814 219.202 223.343 233.551 210.41 222.479C197.437 211.447 206.887 179.191 231.472 150.452C256.096 121.712 286.527 107.363 299.5 118.395C312.433 129.467 303.023 161.723 278.398 190.463Z" fill="#FFFEFD" stroke="black" stroke-width="1.39899" stroke-miterlimit="10"/>
<path d="M214.735 225.037C214.735 225.037 205.806 188.264 224.665 176.712C243.524 165.16 271.712 165.36 282.122 156.287C292.533 147.213 286.807 126.348 297.538 117.635" stroke="black" stroke-width="1.39899" stroke-miterlimit="10"/>
<path d="M236.837 222.12C236.837 222.12 233.113 195.419 250.731 191.342C268.308 187.265 281.201 187.784 285.005 173.475C289.69 155.807 302.182 150.531 302.182 150.531" stroke="black" stroke-width="1.39899" stroke-miterlimit="10"/>
<path d="M218.899 167.439C218.899 167.439 237.638 166.56 244.244 152.57C250.851 138.62 258.779 135.622 266.987 133.784C278.038 131.306 283.283 115.117 283.283 115.117" stroke="black" stroke-width="1.39899" stroke-miterlimit="10"/>
<path d="M174.735 136.342C174.735 136.342 183.904 83.38 211.692 53.8413C239.52 24.3426 255.776 46.7664 249.289 83.2601C242.843 119.714 224.344 157.207 217.377 164.202C210.41 171.197 167.968 181.829 174.735 136.342Z" fill="#FFFEFD" stroke="black" stroke-width="1.39899" stroke-miterlimit="10"/>
<path d="M223.864 85.658C220.661 91.1741 216.216 94.5716 213.854 93.2126C211.532 91.8536 212.212 86.2976 215.415 80.8215C218.579 75.3055 223.063 71.9479 225.385 73.267C227.748 74.626 227.027 80.182 223.864 85.658Z" fill="#FFFEFD" stroke="black" stroke-width="1.39899" stroke-miterlimit="10"/>
<path d="M227.588 112.279C225.145 116.516 221.742 119.074 219.94 118.035C218.138 117.036 218.699 112.759 221.141 108.562C223.544 104.325 226.987 101.767 228.789 102.766C230.551 103.805 230.03 108.082 227.588 112.279Z" fill="#FFFEFD" stroke="black" stroke-width="1.39899" stroke-miterlimit="10"/>
<path d="M226.747 57.9185C224.224 62.2753 220.701 64.9134 218.859 63.8742C217.017 62.795 217.578 58.4381 220.1 54.0813C222.623 49.7244 226.146 47.0863 227.988 48.1256C229.79 49.2048 229.269 53.5616 226.747 57.9185Z" fill="#FFFEFD" stroke="black" stroke-width="1.39899" stroke-miterlimit="10"/>
<path d="M240.441 78.303C238.198 82.1802 235.035 84.5784 233.393 83.6191C231.752 82.6598 232.232 78.7427 234.515 74.8655C236.757 70.9883 239.88 68.59 241.522 69.5493C243.163 70.5086 242.683 74.4258 240.441 78.303Z" fill="#FFFEFD" stroke="black" stroke-width="1.39899" stroke-miterlimit="10"/>
<path d="M198.599 99.0485C196.116 103.365 192.553 106.043 190.711 105.004C188.869 103.925 189.429 99.5282 191.952 95.1713C194.475 90.8145 197.998 88.1364 199.84 89.2156C201.682 90.2948 201.121 94.6917 198.599 99.0485Z" fill="#FFFEFD" stroke="black" stroke-width="1.39899" stroke-miterlimit="10"/>
<path d="M314.675 179.71C317.838 184.426 312.753 193.38 303.263 199.735C293.814 206.091 283.564 207.45 280.4 202.733C277.197 198.017 282.322 189.023 291.772 182.668C301.261 176.312 311.512 174.993 314.675 179.71Z" fill="#FFFEFD" stroke="black" stroke-width="1.39899" stroke-miterlimit="10"/>
<path d="M203.924 212.446L316.036 107.242" stroke="#1C191B" stroke-width="1.39899" stroke-miterlimit="10"/>
<path d="M335.896 103.005C328.449 105.723 321.682 105.963 320.761 103.525C319.88 101.087 325.205 96.8897 332.653 94.1717C340.1 91.4536 346.867 91.2138 347.748 93.652C348.629 96.0903 343.303 100.287 335.896 103.005Z" fill="black" stroke="#1C191B" stroke-width="1.39899" stroke-miterlimit="10"/>
<path d="M328.569 90.575C326.006 98.0496 321.922 103.446 319.48 102.606C317.037 101.767 317.117 95.0118 319.68 87.4973C322.242 80.0226 326.326 74.6265 328.769 75.4659C331.251 76.3053 331.131 83.0605 328.569 90.575Z" fill="black" stroke="#1C191B" stroke-width="1.39899" stroke-miterlimit="10"/>
<path d="M333.734 96.0104C328.569 102.046 322.803 105.563 320.841 103.845C318.839 102.166 321.442 95.9304 326.567 89.9348C331.732 83.8991 337.498 80.3817 339.5 82.0604C341.462 83.7392 338.899 89.9747 333.734 96.0104Z" fill="black" stroke="#1C191B" stroke-width="1.39899" stroke-miterlimit="10"/>
<path d="M321.081 108.362C319.039 110.401 315.956 110.64 314.194 108.882C312.473 107.123 312.673 104.045 314.715 102.007C316.797 99.9681 319.88 99.7282 321.602 101.487C323.363 103.246 323.123 106.323 321.081 108.362Z" fill="black" stroke="#1C191B" stroke-width="1.39899" stroke-miterlimit="10"/>
<path d="M308.348 106.443C308.348 112.359 306.827 117.155 304.945 117.155C303.063 117.155 301.502 112.359 301.502 106.443C301.502 100.527 303.063 95.7705 304.945 95.7705C306.827 95.7705 308.348 100.527 308.348 106.443Z" fill="black" stroke="#1C191B" stroke-width="1.39899" stroke-miterlimit="10"/>
<path d="M294.375 147.214C286.246 147.214 279.64 145.135 279.64 142.537C279.64 139.939 286.246 137.82 294.375 137.82C302.503 137.82 309.109 139.939 309.109 142.537C309.109 145.135 302.503 147.214 294.375 147.214Z" fill="black" stroke="#1C191B" stroke-width="1.39899" stroke-miterlimit="10"/>
<path d="M275.115 133.024C274.555 143.376 271.391 151.65 268.068 151.451C264.745 151.251 262.543 142.697 263.103 132.344C263.704 121.952 266.867 113.718 270.15 113.918C273.473 114.078 275.716 122.631 275.115 133.024Z" fill="black" stroke="#1C191B" stroke-width="1.39899" stroke-miterlimit="10"/>
<path d="M134.134 208.89L79.9199 65.1533" stroke="#1C191B" stroke-width="1.39899" stroke-miterlimit="10"/>
<path d="M83.6437 45.2075C83.2833 53.1218 80.8809 59.4372 78.3183 59.3573C75.7157 59.2374 73.8739 52.7221 74.2343 44.8078C74.5946 36.8935 76.957 30.5781 79.5596 30.698C82.1622 30.8179 83.964 37.2932 83.6437 45.2075Z" fill="black" stroke="#1C191B" stroke-width="1.39899" stroke-miterlimit="10"/>
<path d="M69.3093 47.166C75.2352 52.4023 78.6787 58.238 76.9569 60.1966C75.2352 62.1152 69.029 59.4372 63.1031 54.201C57.1371 48.9647 53.7337 43.1289 55.4554 41.1704C57.1772 39.2517 63.3834 41.9298 69.3093 47.166Z" fill="black" stroke="#1C191B" stroke-width="1.39899" stroke-miterlimit="10"/>
<path d="M76.3564 44.5278C79.92 51.5628 80.961 58.2379 78.6387 59.4371C76.3164 60.5962 71.5516 55.7997 67.948 48.7648C64.3844 41.6899 63.3434 35.0147 65.6657 33.8555C67.988 32.6964 72.7528 37.4529 76.3564 44.5278Z" fill="black" stroke="#1C191B" stroke-width="1.39899" stroke-miterlimit="10"/>
<path d="M82.923 60.9163C84.004 63.5944 83.0431 66.5123 80.7608 67.4716C78.4385 68.3909 75.6757 66.9919 74.5946 64.3138C73.4735 61.6757 74.4745 58.7179 76.7568 57.7985C79.0391 56.8392 81.8018 58.2382 82.923 60.9163Z" fill="black" stroke="#1C191B" stroke-width="1.39899" stroke-miterlimit="10"/>
<path d="M76.2363 71.9079C81.7218 74.1863 85.5256 77.4239 84.8049 79.1827C84.0842 80.9014 79.0791 80.4617 73.6337 78.2234C68.1482 75.945 64.3044 72.7073 65.0651 70.9486C65.7858 69.1899 70.7909 69.6296 76.2363 71.9079Z" fill="black" stroke="#1C191B" stroke-width="1.39899" stroke-miterlimit="10"/>
<path d="M94.2142 81.6214C92.5726 85.5386 90.2102 88.3366 88.969 87.8169C87.6877 87.2573 88.008 83.6599 89.6497 79.7428C91.2913 75.7856 93.6537 73.0276 94.8949 73.5472C96.1762 74.0669 95.8559 77.7042 94.2142 81.6214Z" fill="black" stroke="#1C191B" stroke-width="1.39899" stroke-miterlimit="10"/>
<path d="M149.71 198.137L33.5135 97.4893" stroke="#1C191B" stroke-width="1.39899" stroke-miterlimit="10"/>
<path d="M27.2673 78.1835C30.7107 85.3384 31.6316 92.0136 29.3093 93.1327C26.987 94.2919 22.2623 89.4154 18.8188 82.3006C15.3353 75.1857 14.4144 68.5105 16.7367 67.3514C19.0991 66.2322 23.7838 71.0687 27.2673 78.1835Z" fill="black" stroke="#1C191B" stroke-width="1.39899" stroke-miterlimit="10"/>
<path d="M15.6156 86.6975C23.3033 88.4962 29.1091 92.0137 28.5085 94.5319C27.9479 97.0501 21.1812 97.6496 13.4534 95.8509C5.72572 94.0522 -0.0400534 90.5747 0.560547 88.0566C1.12111 85.4984 7.88788 84.9388 15.6156 86.6975Z" fill="black" stroke="#1C191B" stroke-width="1.39899" stroke-miterlimit="10"/>
<path d="M20.5005 81.0213C27.027 85.5381 31.1111 90.9342 29.6296 93.0527C28.1481 95.1711 21.7017 93.2525 15.1751 88.7758C8.64861 84.259 4.56452 78.8629 6.046 76.7444C7.52749 74.626 13.9739 76.5446 20.5005 81.0213Z" fill="black" stroke="#1C191B" stroke-width="1.39899" stroke-miterlimit="10"/>
<path d="M34.1142 92.3338C36.3564 94.1725 36.8769 97.2103 35.3154 99.1289C33.7538 101.047 30.6707 101.127 28.4285 99.2888C26.1862 97.4901 25.6257 94.4523 27.1872 92.5336C28.7888 90.5751 31.8719 90.4951 34.1142 92.3338Z" fill="black" stroke="#1C191B" stroke-width="1.39899" stroke-miterlimit="10"/>
<path d="M33.4735 105.164C39.3593 104.564 44.2843 105.604 44.4845 107.482C44.6847 109.361 40.0801 111.359 34.1942 111.959C28.3083 112.559 23.3834 111.519 23.1832 109.641C22.983 107.762 27.5876 105.763 33.4735 105.164Z" fill="black" stroke="#1C191B" stroke-width="1.39899" stroke-miterlimit="10"/>
<path d="M70.2703 133.904C73.7938 133.544 76.7968 134.343 76.9169 135.702C77.0771 137.061 74.3143 138.46 70.7508 138.82C67.2272 139.18 64.2643 138.38 64.1041 137.021C63.984 135.662 66.7468 134.263 70.2703 133.904Z" fill="black" stroke="#1C191B" stroke-width="1.39899" stroke-miterlimit="10"/>
<path d="M66.0261 111.32C66.6267 117.396 65.5856 122.472 63.6237 122.672C61.6617 122.872 59.5796 118.115 58.979 112.039C58.3384 105.964 59.4195 100.847 61.3814 100.648C63.3034 100.448 65.3854 105.244 66.0261 111.32Z" fill="black" stroke="#1C191B" stroke-width="1.39899" stroke-miterlimit="10"/>
<path d="M117.277 256.615C117.277 256.615 140.541 270.405 178.859 267.007C217.177 263.61 215.375 257.174 215.375 257.174L209.49 207.53L122.042 208.49L117.277 256.615Z" fill="#FFFEFD" stroke="#1C191B" stroke-width="1.39899" stroke-miterlimit="10"/>
<path d="M109.43 208.49C94.6548 217.204 75.6357 209.409 72.7528 189.384C69.91 169.318 94.0542 99.3287 157.598 93.333C157.598 93.333 204.164 90.4951 218.379 106.084C232.593 121.673 229.229 155.968 227.147 157.846C225.025 159.685 193.994 181.349 183.303 187.185C172.613 193.021 119.8 210.688 109.189 208.09" fill="#FFFEFD"/>
<path d="M109.43 208.49C94.6548 217.204 75.6357 209.409 72.7528 189.384C69.91 169.318 94.0542 99.3287 157.598 93.333C157.598 93.333 204.164 90.4951 218.379 106.084C232.593 121.673 229.229 155.968 227.147 157.846C225.025 159.685 193.994 181.349 183.303 187.185C172.613 193.021 119.8 210.688 109.189 208.09" stroke="#1C191B" stroke-width="1.39899" stroke-miterlimit="10"/>
<path d="M209.449 143.257C209.449 143.257 211.892 209.089 211.211 215.445C210.531 221.84 204.004 225.797 187.347 229.435C170.691 233.032 144.825 230.434 129.53 225.757C114.274 221.121 119.64 176.713 119.64 176.713" fill="#FFFEFD"/>
<path d="M209.449 143.257C209.449 143.257 211.892 209.089 211.211 215.445C210.531 221.84 204.004 225.797 187.347 229.435C170.691 233.032 144.825 230.434 129.53 225.757C114.274 221.121 119.64 176.713 119.64 176.713" stroke="#1C191B" stroke-width="1.39899" stroke-miterlimit="10"/>
<path d="M120.4 212.007C120.4 212.007 148.028 223.159 179.98 219.202C213.133 215.085 211.411 213.486 211.411 213.486" stroke="#1C191B" stroke-width="1.39899" stroke-miterlimit="10"/>
<path d="M186.026 97.0903C186.026 102.047 178.699 106.084 169.69 106.084C160.681 106.084 153.353 102.047 153.353 97.0903C153.353 92.1338 160.681 88.1367 169.69 88.1367C178.699 88.1367 186.026 92.1338 186.026 97.0903Z" fill="#FFFEFD" stroke="#1C191B" stroke-width="1.39899" stroke-miterlimit="10"/>
<path d="M138.458 45.567C138.458 45.567 128.368 55.9995 124.845 71.0686C123.483 76.7845 127.247 87.9764 150.35 88.0963C173.453 88.2562 197.718 86.9771 204.885 83.2598C212.052 79.5425 214.254 71.0686 210.09 62.9945C207.808 58.5577 195.355 37.4929 193.674 36.4536C191.992 35.4144 141.742 39.2116 138.458 45.567Z" fill="#1C191B"/>
<path d="M205.886 54.0013C205.806 58.0784 202.402 61.316 198.278 61.2361C194.154 61.1561 190.871 57.7986 190.951 53.7215C191.031 49.6045 194.435 46.3668 198.559 46.4468C202.683 46.5667 205.966 49.9243 205.886 54.0013Z" fill="#FFFEFD" stroke="#1C191B" stroke-width="1.39899" stroke-miterlimit="10"/>
<path d="M194.755 54.7609C194.715 54.0415 194.875 53.282 195.155 52.6425C195.916 50.9637 197.598 50.564 199.279 50.7638C199.8 50.8038 199.76 50.0443 199.279 50.0044C197.438 49.8045 195.596 50.2842 194.635 52.0029C194.194 52.8023 193.954 53.8016 193.994 54.7609C193.994 55.2406 194.755 55.2406 194.755 54.7609Z" fill="#020202"/>
<path d="M131.692 53.7215C131.612 57.7986 134.895 61.1561 139.019 61.2361C143.143 61.316 146.547 58.0784 146.627 54.0013C146.707 49.9243 143.464 46.5667 139.339 46.4468C135.215 46.3668 131.772 49.6045 131.692 53.7215Z" fill="#FFFEFD" stroke="#1C191B" stroke-width="1.39899" stroke-miterlimit="10"/>
<path d="M143.584 54.9202C143.664 54.0009 143.464 52.9616 143.023 52.1622C142.142 50.4035 140.3 49.8439 138.459 49.9638C137.978 50.0037 137.938 50.7632 138.459 50.7232C140.18 50.6033 141.822 51.083 142.503 52.8017C142.743 53.4812 142.863 54.2007 142.823 54.9202C142.783 55.3998 143.544 55.3998 143.584 54.9202Z" fill="#020202"/>
<path d="M178.779 90.9744C178.859 95.1714 175.456 98.6888 171.251 98.7688L167.968 98.8487C163.724 98.9287 160.2 95.5311 160.12 91.3342L159.8 75.5056C159.72 71.3086 163.123 67.7911 167.367 67.7112L170.651 67.6313C174.855 67.5513 178.378 70.9489 178.459 75.1458L178.779 90.9744Z" fill="#FFFEFD" stroke="#1C191B" stroke-width="1.39899" stroke-miterlimit="10"/>
<path d="M191.952 58.5176C191.952 68.1906 184.024 76.1049 174.334 76.1049H162.403C152.713 76.1049 144.785 68.1906 144.785 58.5176V31.2973C144.785 21.6242 152.713 13.71 162.403 13.71H174.334C184.024 13.71 191.952 21.6242 191.952 31.2973V58.5176Z" fill="#FFFEFD"/>
<path d="M191.952 58.5176C191.952 68.1906 184.024 76.1049 174.334 76.1049H162.403C152.713 76.1049 144.785 68.1906 144.785 58.5176V31.2973C144.785 21.6242 152.713 13.71 162.403 13.71H174.334C184.024 13.71 191.952 21.6242 191.952 31.2973V58.5176Z" stroke="#1C191B" stroke-width="1.39899" stroke-miterlimit="10"/>
<path d="M168.128 40.0908L165.566 50.883L171.211 50.7631L168.128 40.0908Z" fill="black"/>
<path d="M155.836 45.6066C155.756 47.1255 154.515 48.3246 152.993 48.2447C151.471 48.2047 150.31 46.9656 150.35 45.4467C150.39 43.9278 151.672 42.7686 153.193 42.8086C154.675 42.8486 155.876 44.1277 155.836 45.6066Z" fill="#0C0C0C"/>
<path d="M184.745 42.9289C184.665 44.4478 183.423 45.6469 181.902 45.567C180.38 45.527 179.219 44.2879 179.259 42.769C179.299 41.2501 180.581 40.0909 182.102 40.1309C183.584 40.1709 184.785 41.4499 184.745 42.9289Z" fill="#0C0C0C"/>
<path d="M165.446 60.4362C167.207 63.9536 174.214 63.6738 175.135 59.6368C175.255 59.0772 174.414 58.8773 174.334 59.3969C173.574 62.7545 167.608 62.9144 166.166 60.0365C165.926 59.5568 165.205 59.9565 165.446 60.4362Z" fill="#0C0C0C"/>
<path d="M136.096 47.366C136.096 47.366 127.688 39.3718 129.089 26.1014C130.451 12.831 141.822 1.1594 152.352 0.320001C167.688 -0.879133 172.292 5.59619 172.292 5.59619C172.292 5.59619 182.783 -3.07755 196.797 8.99374C209.69 20.1057 196.356 41.1305 196.356 41.1305L191.952 41.5702C191.952 41.5702 191.952 25.0621 180.621 23.7831C169.249 22.504 167.848 37.8929 151.632 25.222C151.632 25.222 152.352 39.3718 143.544 45.8072L136.096 47.366Z" fill="#1C191B"/>
<path d="M189.47 24.6223C186.747 26.421 183.944 26.9806 183.143 25.8215C182.382 24.6223 183.944 22.2241 186.627 20.3854C189.349 18.5867 192.192 18.0671 192.953 19.2262C193.754 20.3854 192.192 22.7837 189.47 24.6223Z" fill="black" stroke="#1C191B" stroke-width="1.39899" stroke-miterlimit="10"/>
<path d="M193.434 30.8576C190.591 32.4964 187.748 32.8162 187.027 31.6171C186.346 30.4179 188.068 28.0996 190.911 26.4608C193.714 24.822 196.597 24.5022 197.277 25.7013C197.998 26.9404 196.276 29.2188 193.434 30.8576Z" fill="black" stroke="#1C191B" stroke-width="1.39899" stroke-miterlimit="10"/>
<path d="M186.026 265.888C186.026 265.888 190.991 205.612 194.274 199.496C197.558 193.421 257.778 196.898 258.739 201.095C259.7 205.252 271.432 253.897 269.63 259.373C267.788 264.849 249.129 272.643 233.434 275.521C217.738 278.399 187.147 274.202 186.026 265.888Z" fill="#FFFEFD" stroke="#1C191B" stroke-width="1.39899" stroke-miterlimit="10"/>
<path d="M228.028 209.529C228.028 209.529 227.387 213.007 226.507 212.047C225.586 211.088 223.824 167.04 224.745 162.123C226.026 155.368 236.276 151.531 236.797 167.44C237.357 183.348 228.028 209.529 228.028 209.529Z" fill="black" stroke="#1C191B" stroke-width="1.39899" stroke-miterlimit="10"/>
<path d="M226.787 211.047C226.787 211.047 226.467 211.927 227.147 212.286C227.828 212.606 228.549 212.406 230.03 210.008C230.03 210.008 248.689 177.232 250.651 168.798C252.453 160.963 237.357 151.89 232.633 174.873C227.908 197.817 226.787 211.047 226.787 211.047Z" fill="black" stroke="#1C191B" stroke-width="1.39899" stroke-miterlimit="10"/>
<path d="M216.256 246.102C216.256 246.102 216.577 218.482 219.46 212.526C222.302 206.531 229.91 206.73 232.473 211.567C234.875 216.084 225.025 237.908 223.103 242.704C221.181 247.501 216.457 257.134 216.256 246.102Z" fill="#FFFEFD" stroke="#1C191B" stroke-width="1.39899" stroke-miterlimit="10"/>
<path d="M217.377 226.717L221.862 227.436L217.377 226.717Z" fill="#FFFEFD"/>
<path d="M217.377 226.717L221.862 227.436" stroke="#1C191B" stroke-width="1.39899" stroke-miterlimit="10"/>
<path d="M222.222 220.761L227.147 221.56L222.222 220.761Z" fill="#FFFEFD"/>
<path d="M222.222 220.761L227.147 221.56" stroke="#1C191B" stroke-width="1.39899" stroke-miterlimit="10"/>
<path d="M220.541 213.846L225.386 214.605L220.541 213.846Z" fill="#FFFEFD"/>
<path d="M220.541 213.846L225.386 214.605" stroke="#1C191B" stroke-width="1.39899" stroke-miterlimit="10"/>
<path d="M227.828 217.323L232.112 218.482L227.828 217.323Z" fill="#FFFEFD"/>
<path d="M227.828 217.323L232.112 218.482" stroke="#1C191B" stroke-width="1.39899" stroke-miterlimit="10"/>
<path d="M220.981 232.872L226.306 233.751L220.981 232.872Z" fill="#FFFEFD"/>
<path d="M220.981 232.872L226.306 233.751" stroke="#1C191B" stroke-width="1.39899" stroke-miterlimit="10"/>
<path d="M216.777 239.787L219.74 240.267L216.777 239.787Z" fill="#FFFEFD"/>
<path d="M216.777 239.787L219.74 240.267" stroke="#1C191B" stroke-width="1.39899" stroke-miterlimit="10"/>
<path d="M218.899 244.063L222.222 244.863L218.899 244.063Z" fill="#FFFEFD"/>
<path d="M218.899 244.063L222.222 244.863" stroke="#1C191B" stroke-width="1.39899" stroke-miterlimit="10"/>
<path d="M239.44 211.688C239.44 211.688 254.775 174.395 269.71 166.081C281.962 159.285 279.96 172.276 268.549 182.948C263.143 187.985 239.56 215.125 239.44 211.688Z" fill="black" stroke="#1C191B" stroke-width="1.39899" stroke-miterlimit="10"/>
<path d="M238.839 211.807C238.839 211.807 240.12 193.62 246.847 173.635C253.574 153.649 262.262 154.568 264.545 156.127C266.827 157.646 266.146 168.438 256.136 186.585C246.126 204.732 239.319 214.405 238.839 211.807Z" fill="black" stroke="#1C191B" stroke-width="1.39899" stroke-miterlimit="10"/>
<path d="M214.254 252.297C214.254 252.297 225.866 218.082 232.432 211.607C238.999 205.171 245.446 209.768 244.645 215.204C243.884 220.64 230.35 243.384 225.065 249.979C219.78 256.614 211.892 261.051 214.254 252.297Z" fill="#FFFEFD" stroke="#1C191B" stroke-width="1.39899" stroke-miterlimit="10"/>
<path d="M227.428 227.116L224.465 225.757L227.428 227.116Z" fill="#FFFEFD"/>
<path d="M227.428 227.116L224.465 225.757" stroke="#1C191B" stroke-width="1.39899" stroke-miterlimit="10"/>
<path d="M231.672 222.359L235.395 223.958L231.672 222.359Z" fill="#FFFEFD"/>
<path d="M231.672 222.359L235.395 223.958" stroke="#1C191B" stroke-width="1.39899" stroke-miterlimit="10"/>
<path d="M231.432 232.433L235.436 234.071L231.432 232.433Z" fill="#FFFEFD"/>
<path d="M231.432 232.433L235.436 234.071" stroke="#1C191B" stroke-width="1.39899" stroke-miterlimit="10"/>
<path d="M222.863 236.789L226.467 238.308L222.863 236.789Z" fill="#FFFEFD"/>
<path d="M222.863 236.789L226.467 238.308" stroke="#1C191B" stroke-width="1.39899" stroke-miterlimit="10"/>
<path d="M222.663 244.903L225.866 246.262L222.663 244.903Z" fill="#FFFEFD"/>
<path d="M222.663 244.903L225.866 246.262" stroke="#1C191B" stroke-width="1.39899" stroke-miterlimit="10"/>
<path d="M217.337 248.9L219.62 250.02L217.337 248.9Z" fill="#FFFEFD"/>
<path d="M217.337 248.9L219.62 250.02" stroke="#1C191B" stroke-width="1.39899" stroke-miterlimit="10"/>
<path d="M238.278 217.283L243.083 219.202L238.278 217.283Z" fill="#FFFEFD"/>
<path d="M238.278 217.283L243.083 219.202" stroke="#1C191B" stroke-width="1.39899" stroke-miterlimit="10"/>
<path d="M230.431 216.563L234.194 218.242L230.431 216.563Z" fill="#FFFEFD"/>
<path d="M230.431 216.563L234.194 218.242" stroke="#1C191B" stroke-width="1.39899" stroke-miterlimit="10"/>
<path d="M248.048 221.8C248.048 221.8 243.564 211.807 248.048 211.367C251.051 211.048 250.41 217.323 250.41 217.323C250.41 217.323 256.056 211.887 259.94 213.446C263.784 215.005 250.491 223.838 248.048 221.8Z" fill="black" stroke="#1C191B" stroke-width="1.39899" stroke-miterlimit="10"/>
<path d="M221.502 255.455C221.502 255.455 218.659 247.941 223.343 241.425C228.028 234.91 232.713 235.829 235.195 231.513C237.678 227.236 239.52 221 248.969 221.52C258.418 222.039 255.215 233.151 254.495 237.268C254.254 238.707 254.214 240.266 256.056 242.984C259.379 247.861 258.298 258.333 248.969 263.929C239.64 269.525 226.066 269.645 221.502 255.455Z" fill="#FFFEFD" stroke="#1C191B" stroke-width="1.39899" stroke-miterlimit="10"/>
<path d="M254.374 252.418C252.733 255.696 250.17 257.694 248.569 256.935C246.967 256.135 247.007 252.858 248.609 249.58C250.21 246.302 252.813 244.304 254.415 245.063C256.016 245.863 255.976 249.14 254.374 252.418Z" fill="#FFFEFD" stroke="#1C191B" stroke-width="1.39899" stroke-miterlimit="10"/>
<path d="M221.221 263.57C216.056 266.408 204.284 270.685 195.876 262.291C187.468 253.897 192.112 242.225 200.801 239.467C204.244 238.348 205.966 239.347 209.77 235.63C213.574 231.913 222.663 231.473 227.588 236.949C235.436 245.623 229.47 259.013 221.221 263.57Z" fill="black" stroke="#1C191B" stroke-width="1.39899" stroke-miterlimit="10"/>
<path d="M204.565 232.193C204.565 232.193 204.805 221.76 209.53 219.961C214.214 218.123 215.576 223.079 214.735 225.038C212.533 230.114 204.565 232.193 204.565 232.193Z" fill="black" stroke="#1C191B" stroke-width="1.39899" stroke-miterlimit="10"/>
<path d="M206.927 241.426L202.202 224.358" stroke="#1C191B" stroke-width="1.39899" stroke-miterlimit="10"/>
<path d="M236.837 139.819C236.837 139.819 250.771 151.091 258.739 201.095H250.811C250.811 201.095 246.807 154.569 236.837 139.819Z" fill="black"/>
<path d="M259.58 204.572C259.179 202.814 258.859 201.615 258.739 201.095C257.778 196.898 197.558 193.421 194.274 199.496C193.794 200.376 193.273 202.374 192.753 205.172C204.885 204.453 235.556 203.014 259.58 204.572Z" fill="black"/>
<path d="M225.706 196.378L267.187 262.45C267.428 262.237 267.654 262.037 267.868 261.851L226.787 196.418C226.44 196.418 226.08 196.405 225.706 196.378Z" fill="#1C191B"/>
<path d="M244.244 197.657L265.666 231.793C265.479 230.94 265.292 230.087 265.105 229.234L245.366 197.777C244.992 197.75 244.618 197.711 244.244 197.657Z" fill="#1C191B"/>
<path d="M187.908 245.103L258.058 200.375C257.791 200.242 257.458 200.095 257.057 199.936L187.988 243.984C187.961 244.357 187.935 244.73 187.908 245.103Z" fill="#1C191B"/>
<path d="M190.591 220.041L226.066 196.378C225.559 196.378 225.052 196.365 224.545 196.338L190.751 218.842C190.697 219.241 190.644 219.641 190.591 220.041Z" fill="#1C191B"/>
<path d="M189.87 270.364L263.424 221.36C263.344 221.04 263.263 220.734 263.183 220.44L189.069 269.845C189.309 270.005 189.576 270.178 189.87 270.364Z" fill="#1C191B"/>
<path d="M210.811 275.801L266.987 238.388C266.934 238.068 266.867 237.748 266.787 237.429L209.409 275.641C209.863 275.694 210.33 275.748 210.811 275.801Z" fill="#1C191B"/>
<path d="M240.881 273.843L269.63 254.696C269.603 254.377 269.576 254.03 269.55 253.657L238.278 274.482C239.133 274.296 240 274.082 240.881 273.843Z" fill="#1C191B"/>
<path d="M207.728 196.458L253.694 269.685C253.961 269.578 254.241 269.472 254.535 269.365L208.729 196.418C208.382 196.418 208.048 196.431 207.728 196.458Z" fill="#1C191B"/>
<path d="M194.515 199.176L241.321 273.722C241.615 273.642 241.922 273.562 242.242 273.482L195.235 198.616C194.942 198.803 194.701 198.989 194.515 199.176Z" fill="#1C191B"/>
<path d="M190.831 218.083L227.347 276.241C227.694 276.214 228.028 276.187 228.348 276.161L191.031 216.684C190.951 217.137 190.884 217.603 190.831 218.083Z" fill="#1C191B"/>
<path d="M188.108 242.905L208.609 275.561C208.982 275.614 209.369 275.654 209.77 275.681L188.268 241.426C188.215 241.932 188.162 242.425 188.108 242.905Z" fill="#1C191B"/>
<path d="M196.837 198.457C196.837 198.457 202.082 149.252 226.587 133.783C226.587 133.783 208.088 166.44 203.644 199.496L196.837 198.457Z" fill="black"/>
<path d="M149.75 256.814C149.63 259.453 147.387 261.531 144.745 261.411L81.6817 258.773C79.0791 258.653 76.997 256.415 77.1171 253.777L80.3604 176.313C80.4805 173.674 82.7227 171.596 85.3654 171.716L148.428 174.354C151.071 174.474 153.113 176.712 153.033 179.35L149.75 256.814Z" fill="#FFFEFD"/>
<path d="M149.75 256.814C149.63 259.453 147.387 261.531 144.745 261.411L81.6817 258.773C79.0791 258.653 76.997 256.415 77.1171 253.777L80.3604 176.313C80.4805 173.674 82.7227 171.596 85.3654 171.716L148.428 174.354C151.071 174.474 153.113 176.712 153.033 179.35L149.75 256.814Z" stroke="#1C191B" stroke-width="1.39899" stroke-miterlimit="10"/>
<path d="M113.554 232.432C110.751 232.952 98.1382 217.763 98.1782 203.813C98.2583 192.061 111.992 191.702 114.995 201.415C116.276 205.492 117.117 210.168 117.117 210.168C117.117 210.168 122.683 198.217 129.93 197.697C137.177 197.178 138.338 204.612 133.373 214.205C128.448 223.838 115.876 231.992 113.554 232.432Z" fill="black" stroke="#1C191B" stroke-width="1.39899" stroke-miterlimit="10"/>
<path d="M99.4996 225.836C99.4996 225.836 89.5296 223.398 89.1692 228.634C88.8089 233.871 100.781 229.514 101.702 228.634C102.623 227.755 101.702 225.637 99.4996 225.836Z" fill="#FFFEFD" stroke="#1C191B" stroke-width="1.39899" stroke-miterlimit="10"/>
<path d="M101.782 229.594C101.782 229.594 94.6947 227.276 93.5736 223.199C92.4925 219.162 96.8168 219.242 99.6997 222.04C102.543 224.878 105.866 231.513 101.782 229.594Z" fill="#FFFEFD" stroke="#1C191B" stroke-width="1.39899" stroke-miterlimit="10"/>
<path d="M103.744 236.789C103.744 236.789 100.661 242.585 102.543 244.143C104.424 245.702 105.866 241.745 106.346 238.667C106.787 235.63 105.385 234.111 103.744 236.789Z" fill="#FFFEFD" stroke="#1C191B" stroke-width="1.39899" stroke-miterlimit="10"/>
<path d="M108.669 234.791C108.669 234.791 103.584 238.828 99.8999 240.786C96.1762 242.705 93.4134 242.385 94.2943 239.747C95.1352 237.069 104.625 233.671 106.907 233.072C109.189 232.512 110.23 233.592 108.669 234.791Z" fill="#FFFEFD" stroke="#1C191B" stroke-width="1.39899" stroke-miterlimit="10"/>
<path d="M125.005 229.674C125.005 229.674 126.286 227.236 131.772 224.358C137.217 221.52 137.538 224.837 134.214 227.036C132.132 228.355 126.086 232.752 125.005 229.674Z" fill="#FFFEFD" stroke="#1C191B" stroke-width="1.39899" stroke-miterlimit="10"/>
<path d="M130.09 234.591C130.09 234.591 123.924 231.393 123.443 229.674C122.963 227.955 128.529 228.275 132.252 229.674C135.976 231.073 135.455 237.229 130.09 234.591Z" fill="#FFFEFD" stroke="#1C191B" stroke-width="1.39899" stroke-miterlimit="10"/>
<path d="M145.145 192.941C145.145 193.82 144.424 194.54 143.544 194.54H135.215C134.334 194.54 133.614 193.82 133.614 192.941V94.9319C133.614 94.0525 134.334 93.333 135.215 93.333H143.544C144.424 93.333 145.145 94.0525 145.145 94.9319V192.941Z" fill="#FFFEFD"/>
<path d="M145.145 192.941C145.145 193.82 144.424 194.54 143.544 194.54H135.215C134.334 194.54 133.614 193.82 133.614 192.941V94.9319C133.614 94.0525 134.334 93.333 135.215 93.333H143.544C144.424 93.333 145.145 94.0525 145.145 94.9319V192.941Z" stroke="#1C191B" stroke-width="1.39899" stroke-miterlimit="10"/>
<path d="M143.103 180.429C143.103 182.468 141.422 184.107 139.379 184.107C137.337 184.107 135.656 182.468 135.656 180.429C135.656 178.351 137.337 176.712 139.379 176.712C141.422 176.712 143.103 178.351 143.103 180.429Z" fill="#FFFEFD" stroke="#1C191B" stroke-width="1.39899" stroke-miterlimit="10"/>
<path d="M115.075 165.081C115.075 165.081 97.7378 96.5705 94.2943 75.106C90.8909 53.6415 104.705 47.2061 112.833 71.7884C121.001 96.3706 134.895 147.454 135.656 156.287C136.457 165.081 128.769 200.056 115.075 165.88" fill="#FFFEFD"/>
<path d="M115.075 165.081C115.075 165.081 97.7378 96.5705 94.2943 75.106C90.8909 53.6415 104.705 47.2061 112.833 71.7884C121.001 96.3706 134.895 147.454 135.656 156.287C136.457 165.081 128.769 200.056 115.075 165.88" stroke="#1C191B" stroke-width="1.39899" stroke-miterlimit="10"/>
<path d="M111.912 72.7875C112.072 74.1065 108.829 75.5055 104.665 75.9852C100.501 76.4248 97.017 75.7453 96.8569 74.4662C96.7367 73.1872 99.98 71.7482 104.144 71.3085C108.308 70.8289 111.792 71.5084 111.912 72.7875Z" fill="#FFFEFD" stroke="#1C191B" stroke-width="1.39899" stroke-miterlimit="10"/>
<path d="M115.115 84.8187C115.235 86.0978 111.832 87.5367 107.508 88.0164C103.183 88.4961 99.5396 87.8565 99.4195 86.5375C99.2593 85.2584 102.663 83.8194 106.987 83.3398C111.311 82.8601 114.955 83.5396 115.115 84.8187Z" fill="#FFFEFD" stroke="#1C191B" stroke-width="1.39899" stroke-miterlimit="10"/>
<path d="M119.039 97.929C119.199 99.2081 115.516 100.687 110.871 101.167C106.186 101.686 102.302 101.087 102.142 99.7677C102.022 98.4886 105.666 97.0097 110.35 96.53C115.035 96.0104 118.919 96.61 119.039 97.929Z" fill="#FFFEFD" stroke="#1C191B" stroke-width="1.39899" stroke-miterlimit="10"/>
<path d="M122.923 112.759C123.083 114.038 119.399 115.517 114.715 116.036C110.07 116.556 106.186 115.916 106.026 114.637C105.866 113.358 109.55 111.879 114.234 111.36C118.879 110.84 122.763 111.48 122.923 112.759Z" fill="#FFFEFD" stroke="#1C191B" stroke-width="1.39899" stroke-miterlimit="10"/>
<path d="M126.206 127.708C126.326 128.987 122.683 130.466 117.998 130.986C113.353 131.505 109.429 130.866 109.309 129.587C109.149 128.308 112.833 126.829 117.478 126.309C122.162 125.789 126.046 126.429 126.206 127.708Z" fill="#FFFEFD" stroke="#1C191B" stroke-width="1.39899" stroke-miterlimit="10"/>
<path d="M129.369 139.939C129.53 141.258 125.846 142.697 121.201 143.217C116.517 143.737 112.633 143.097 112.472 141.818C112.352 140.539 115.996 139.06 120.681 138.54C125.325 138.021 129.249 138.66 129.369 139.939Z" fill="#FFFEFD" stroke="#1C191B" stroke-width="1.39899" stroke-miterlimit="10"/>
<path d="M85.4454 96.1709L125.806 186.386" stroke="#1C191B" stroke-width="1.39899" stroke-miterlimit="10"/>
<path d="M80 119.833L99.2192 126.948" stroke="#1C191B" stroke-width="1.39899" stroke-miterlimit="10"/>
<path d="M79.9199 138.38L108.709 148.133" stroke="#1C191B" stroke-width="1.39899" stroke-miterlimit="10"/>
<path d="M89.1692 161.963L117.678 168.158" stroke="#1C191B" stroke-width="1.39899" stroke-miterlimit="10"/>
<path d="M255.776 117.635C255.776 117.635 258.258 110.76 265.586 109.201C272.873 107.642 281.281 106.083 283.283 102.966C285.245 99.8079 291.131 80.8216 289.409 79.6625C287.728 78.5033 282.242 88.8558 282.242 88.8558C282.242 88.8558 285.125 77.3042 284.084 76.2649C283.043 75.2257 280.961 77.0644 277.958 83.1799C274.955 89.2955 268.429 99.0485 263.223 99.2883C258.018 99.5681 250.17 100.927 247.087 105.524C244.004 110.12 242.242 115.437 242.242 115.437C242.242 115.437 253.894 120.953 255.776 117.635Z" fill="#FFFEFD" stroke="#1C191B" stroke-width="1.39899" stroke-miterlimit="10"/>
<path d="M208.128 178.671C208.128 178.671 209.89 194.06 226.587 190.942C243.283 187.784 245.165 173.754 249.289 160.724C253.454 147.733 258.138 115.956 258.138 115.956L243.003 109.721C243.003 109.721 223.464 137.221 216.416 150.531C209.369 163.842 208.128 178.671 208.128 178.671Z" fill="#FFFEFD" stroke="#1C191B" stroke-width="1.39899" stroke-miterlimit="10"/>
<path d="M237.478 117.635L256.697 125.069" stroke="#1C191B" stroke-width="1.39899" stroke-miterlimit="10"/>
<path d="M262.262 77.9841C262.262 77.9841 249.009 71.3089 243.924 84.8592C238.839 98.4094 256.056 107.523 266.747 105.164C277.438 102.806 281.562 95.9711 283.123 87.5772C284.725 78.8635 274.114 66.9121 262.262 77.9841Z" fill="black" stroke="#1C191B" stroke-width="1.39899" stroke-miterlimit="10"/>
<path d="M261.542 73.147C261.141 73.147 264.144 55.3599 271.552 58.5576C280.32 62.3548 270.671 72.7473 261.542 73.147Z" fill="black" stroke="#1C191B" stroke-width="1.39899" stroke-miterlimit="10"/>
<path d="M259.82 62.9941L263.223 83.8191" stroke="#1C191B" stroke-width="1.39899" stroke-miterlimit="10"/>
<path d="M251.812 85.4579C251.572 87.7363 250.21 89.455 248.809 89.2951C247.408 89.1353 246.527 87.1367 246.767 84.8983C247.047 82.62 248.368 80.9012 249.77 81.0611C251.171 81.221 252.092 83.2195 251.812 85.4579Z" fill="#FFFEFD" stroke="#1C191B" stroke-width="1.39899" stroke-miterlimit="10"/>
<path d="M250.891 93.532C250.731 94.6912 249.81 95.4906 248.809 95.3707C247.808 95.2508 247.127 94.2515 247.247 93.1323C247.367 92.0131 248.288 91.1737 249.289 91.2936C250.29 91.4136 251.011 92.4128 250.891 93.532Z" fill="#FFFEFD" stroke="#1C191B" stroke-width="1.39899" stroke-miterlimit="10"/>
<path d="M129.089 150.531C129.089 150.531 138.579 136.901 140.701 133.024C142.783 129.107 144.344 118.315 146.026 118.714C147.708 119.074 146.026 126.629 146.026 126.629C146.026 126.629 153.193 111.56 155.155 111.679C157.117 111.799 150.991 126.389 150.991 126.389C150.991 126.389 156.997 112.839 159.079 112.719C161.161 112.599 155.275 126.629 155.275 126.629C155.275 126.629 161.562 114.397 163.764 114.397C165.966 114.397 158.679 128.707 158.679 128.707C158.679 128.707 165.205 118.315 167.007 118.714C168.849 119.074 155.035 147.014 141.982 160.244C128.969 173.475 125.445 155.808 129.089 150.531Z" fill="#FFFEFD" stroke="#1C191B" stroke-width="1.39899" stroke-miterlimit="10"/>
<path d="M129.049 147.214L108.549 163.642C108.469 163.642 108.348 163.642 108.268 163.642L98.1782 171.796C98.1782 171.796 87.6877 167.04 81.4815 172.516C77.3574 176.153 76.8369 181.509 76.8769 186.705L72.8729 190.063C75.7558 210.088 94.6547 217.203 109.429 208.49C124.164 199.736 143.103 161.963 143.103 161.963L129.049 147.214Z" fill="#FFFEFD"/>
<path d="M96.7368 212.447C93.2133 212.447 89.7298 211.687 86.5266 210.168C78.8389 206.491 73.6737 198.936 72.3124 189.423L73.1933 189.303C74.5146 198.497 79.5196 205.811 86.927 209.329C93.894 212.686 102.222 212.207 109.189 208.09C123.003 199.936 140.781 165.521 142.543 162.043L129.009 147.813L92.6127 177.072L92.0521 176.353L129.089 146.574L143.624 161.883L143.504 162.163C142.743 163.722 124.364 200.176 109.67 208.849C105.626 211.248 101.141 212.447 96.7368 212.447Z" fill="#1C191B"/>
<path d="M120.921 154.009L137.578 172.236" stroke="#1C191B" stroke-width="1.39899" stroke-miterlimit="10"/>
</g>
<defs>
<clipPath id="clip0_1_74">
<rect width="348.348" height="277" fill="white"/>
</clipPath>
</defs>
</svg>
