<svg width="343" height="302" viewBox="0 0 343 302" fill="none" xmlns="http://www.w3.org/2000/svg">
<g clip-path="url(#clip0_1_269)">
<path d="M174.043 152.761H18.4164" stroke="black" stroke-width="1.23182" stroke-linecap="round" stroke-linejoin="round"/>
<path d="M176.675 153.606L266.236 233.065" stroke="black" stroke-width="1.23182" stroke-linecap="round" stroke-linejoin="round"/>
<path d="M177.004 152.996L301.665 173.248" stroke="black" stroke-width="1.23182" stroke-linecap="round" stroke-linejoin="round"/>
<path d="M174.372 152.949L49.1941 170.382" stroke="black" stroke-width="1.23182" stroke-linecap="round" stroke-linejoin="round"/>
<path d="M177.051 152.572L302.229 135.187" stroke="black" stroke-width="1.23182" stroke-linecap="round" stroke-linejoin="round"/>
<path d="M174.748 153.606L85.1405 233.065" stroke="black" stroke-width="1.23182" stroke-linecap="round" stroke-linejoin="round"/>
<path d="M176.675 151.915L251.152 87.54" stroke="black" stroke-width="1.23182" stroke-linecap="round" stroke-linejoin="round"/>
<path d="M177.286 153.606L324.972 234.944" stroke="black" stroke-width="1.23182" stroke-linecap="round" stroke-linejoin="round"/>
<path d="M177.286 153.277L324.643 203.508" stroke="black" stroke-width="1.23182" stroke-linecap="round" stroke-linejoin="round"/>
<path d="M175.453 153.889L153.932 259.614" stroke="black" stroke-width="1.23182" stroke-linecap="round" stroke-linejoin="round"/>
<path d="M175.876 153.889L193.732 260.177" stroke="black" stroke-width="1.23182" stroke-linecap="round" stroke-linejoin="round"/>
<path d="M174.278 153.56L39.5144 226.439" stroke="black" stroke-width="1.23182" stroke-linecap="round" stroke-linejoin="round"/>
<path d="M177.145 152.009L291.187 94.6826" stroke="black" stroke-width="1.23182" stroke-linecap="round" stroke-linejoin="round"/>
<path d="M173.902 153.277L4.3667 203.039" stroke="black" stroke-width="1.23182" stroke-linecap="round" stroke-linejoin="round"/>
<path d="M177.521 152.244L347.056 102.529" stroke="black" stroke-width="1.23182" stroke-linecap="round" stroke-linejoin="round"/>
<path d="M234.424 249.886H161.967L167.23 207.268H227.799L234.424 249.886Z" fill="#FEFEFE"/>
<path d="M234.424 249.886H161.967L167.23 207.268H227.799L234.424 249.886Z" stroke="black" stroke-width="0.76458" stroke-linecap="round" stroke-linejoin="round"/>
<path d="M243.916 261.634H151.442L162.202 246.691H234.048L243.916 261.634Z" fill="#FEFEFE"/>
<path d="M243.916 261.634H151.442L162.202 246.691H234.048L243.916 261.634Z" stroke="black" stroke-width="0.76458" stroke-linecap="round" stroke-linejoin="round"/>
<path d="M243.916 265.158H151.442V261.634H243.916V265.158Z" fill="#FEFEFE"/>
<path d="M243.916 265.158H151.442V261.634H243.916V265.158Z" stroke="black" stroke-width="0.76458" stroke-linecap="round" stroke-linejoin="round"/>
<path d="M301.759 208.255C301.759 209.523 300.772 210.51 299.551 210.51H95.3841C94.1624 210.51 93.1757 209.523 93.1757 208.255V76.7799C93.1757 75.5112 94.1624 74.5244 95.3841 74.5244H299.551C300.772 74.5244 301.759 75.5112 301.759 76.7799V208.255Z" fill="#FEFEFE"/>
<path d="M301.759 208.255C301.759 209.523 300.772 210.51 299.551 210.51H95.3841C94.1624 210.51 93.1757 209.523 93.1757 208.255V76.7799C93.1757 75.5112 94.1624 74.5244 95.3841 74.5244H299.551C300.772 74.5244 301.759 75.5112 301.759 76.7799V208.255Z" stroke="black" stroke-width="0.76458" stroke-linecap="round" stroke-linejoin="round"/>
<path d="M286.3 195.333C286.3 196.319 285.501 197.118 284.467 197.118H110.468C109.434 197.118 108.635 196.319 108.635 195.333V90.0307C108.635 89.0439 109.434 88.2451 110.468 88.2451H284.467C285.501 88.2451 286.3 89.0439 286.3 90.0307V195.333Z" fill="#FEFEFE" stroke="black" stroke-width="0.76458" stroke-linecap="round" stroke-linejoin="round"/>
<path d="M93.2697 195.756V226.252C93.2697 227.285 94.2564 228.131 95.4311 228.131H299.598C300.772 228.131 301.759 227.285 301.759 226.252V195.756H93.2697Z" fill="#FEFEFE"/>
<path d="M93.2697 195.756V226.252C93.2697 227.285 94.2564 228.131 95.4311 228.131H299.598C300.772 228.131 301.759 227.285 301.759 226.252V195.756H93.2697Z" stroke="black" stroke-width="0.76458" stroke-linecap="round" stroke-linejoin="round"/>
<path d="M204.586 211.402C204.586 215.162 201.485 218.263 197.679 218.263C193.873 218.263 190.818 215.162 190.818 211.402C190.818 207.596 193.873 204.495 197.679 204.495C201.485 204.495 204.586 207.596 204.586 211.402Z" fill="black" stroke="black" stroke-width="0.76458" stroke-linecap="round" stroke-linejoin="round"/>
<path d="M332.443 104.409H62.4919L102.385 66.8652H292.549L332.443 104.409Z" fill="#FEFEFE" stroke="black" stroke-width="0.76458" stroke-linecap="round" stroke-linejoin="round"/>
<path d="M82.1803 104.409H62.4919L102.385 66.8652H116.247L82.1803 104.409Z" fill="#FEFEFE"/>
<path d="M82.1803 104.409H62.4919L102.385 66.8652H116.247L82.1803 104.409Z" fill="black" stroke="black" stroke-width="0.76458" stroke-linecap="round" stroke-linejoin="round"/>
<path d="M132.223 104.409H112.535L137.627 66.8652H151.536L132.223 104.409Z" fill="#FEFEFE"/>
<path d="M132.223 104.409H112.535L137.627 66.8652H151.536L132.223 104.409Z" fill="black" stroke="black" stroke-width="0.76458" stroke-linecap="round" stroke-linejoin="round"/>
<path d="M182.266 104.409H162.578L172.916 66.8652H186.777L182.266 104.409Z" fill="black"/>
<path d="M182.266 104.409H162.578L172.916 66.8652H186.777L182.266 104.409Z" stroke="black" stroke-width="0.76458" stroke-linecap="round" stroke-linejoin="round"/>
<path d="M232.357 104.409H212.668L208.157 66.8652H222.019L232.357 104.409Z" fill="black"/>
<path d="M232.357 104.409H212.668L208.157 66.8652H222.019L232.357 104.409Z" stroke="black" stroke-width="0.76458" stroke-linecap="round" stroke-linejoin="round"/>
<path d="M282.4 104.409H262.711L243.399 66.8652H257.308L282.4 104.409Z" fill="black"/>
<path d="M282.4 104.409H262.711L243.399 66.8652H257.308L282.4 104.409Z" stroke="black" stroke-width="0.76458" stroke-linecap="round" stroke-linejoin="round"/>
<path d="M332.443 104.409H312.755L278.688 66.8652H292.549L332.443 104.409Z" fill="black"/>
<path d="M332.443 104.409H312.755L278.688 66.8652H292.549L332.443 104.409Z" stroke="black" stroke-width="0.76458" stroke-linecap="round" stroke-linejoin="round"/>
<path d="M62.4919 104.409C62.6329 110.753 67.0029 115.827 72.4066 115.827C77.7633 115.827 82.1333 110.753 82.2742 104.409H62.4919Z" fill="#FEFEFE" stroke="black" stroke-width="0.76458" stroke-linecap="round" stroke-linejoin="round"/>
<path d="M82.2742 104.409C83.3549 111.974 89.7454 117.754 97.4516 117.754C105.158 117.754 111.548 111.974 112.629 104.409H82.2742Z" fill="#FEFEFE" stroke="black" stroke-width="0.76458" stroke-linecap="round" stroke-linejoin="round"/>
<path d="M112.535 104.409C112.723 110.753 117.093 115.827 122.45 115.827C127.806 115.827 132.176 110.753 132.317 104.409H112.535Z" fill="#FEFEFE" stroke="black" stroke-width="0.76458" stroke-linecap="round" stroke-linejoin="round"/>
<path d="M132.317 104.409C133.445 111.974 139.789 117.754 147.495 117.754C155.201 117.754 161.591 111.974 162.672 104.409H132.317Z" fill="#FEFEFE" stroke="black" stroke-width="0.76458" stroke-linecap="round" stroke-linejoin="round"/>
<path d="M162.578 104.409C162.766 110.753 167.089 115.827 172.446 115.827C177.803 115.827 182.125 110.753 182.313 104.409H162.578Z" fill="#FEFEFE" stroke="black" stroke-width="0.76458" stroke-linecap="round" stroke-linejoin="round"/>
<path d="M182.313 104.409C183.394 111.974 189.738 117.754 197.444 117.754C205.15 117.754 211.541 111.974 212.621 104.409H182.313Z" fill="#FEFEFE" stroke="black" stroke-width="0.76458" stroke-linecap="round" stroke-linejoin="round"/>
<path d="M212.574 104.409C212.715 110.753 217.085 115.827 222.442 115.827C227.846 115.827 232.169 110.753 232.357 104.409H212.574Z" fill="#FEFEFE" stroke="black" stroke-width="0.76458" stroke-linecap="round" stroke-linejoin="round"/>
<path d="M232.357 104.409C233.437 111.974 239.781 117.754 247.487 117.754C255.193 117.754 261.584 111.974 262.664 104.409H232.357Z" fill="#FEFEFE" stroke="black" stroke-width="0.76458" stroke-linecap="round" stroke-linejoin="round"/>
<path d="M262.664 104.409C262.805 110.753 267.175 115.827 272.532 115.827C277.889 115.827 282.259 110.753 282.4 104.409H262.664Z" fill="#FEFEFE" stroke="black" stroke-width="0.76458" stroke-linecap="round" stroke-linejoin="round"/>
<path d="M282.4 104.409C283.481 111.974 289.824 117.754 297.577 117.754C305.283 117.754 311.627 111.974 312.708 104.409H282.4Z" fill="#FEFEFE" stroke="black" stroke-width="0.76458" stroke-linecap="round" stroke-linejoin="round"/>
<path d="M312.661 104.409C312.802 110.753 317.172 115.827 322.528 115.827C327.932 115.827 332.302 110.753 332.443 104.409H312.661Z" fill="#FEFEFE" stroke="black" stroke-width="0.76458" stroke-linecap="round" stroke-linejoin="round"/>
<path d="M165.632 177.43L156.282 124.38H139.319V128.515H152.805L162.155 181.565H211.87V177.43H165.632Z" fill="#FEFEFE" stroke="black" stroke-width="0.76458" stroke-linecap="round" stroke-linejoin="round"/>
<path d="M215.582 174.846H160.182L152.335 133.214H223.429L215.582 174.846Z" fill="#FEFEFE"/>
<path d="M215.582 174.846H160.182L152.335 133.214H223.429L215.582 174.846Z" stroke="black" stroke-width="0.76458" stroke-linecap="round" stroke-linejoin="round"/>
<path d="M181.28 185.7C181.28 189.318 178.366 192.232 174.795 192.232C171.177 192.232 168.264 189.318 168.264 185.7C168.264 182.129 171.177 179.216 174.795 179.216C178.366 179.216 181.28 182.129 181.28 185.7Z" fill="#FEFEFE" stroke="black" stroke-width="0.76458" stroke-linecap="round" stroke-linejoin="round"/>
<path d="M177.896 185.7C177.896 187.438 176.487 188.801 174.795 188.801C173.057 188.801 171.694 187.438 171.694 185.7C171.694 184.008 173.057 182.599 174.795 182.599C176.487 182.599 177.896 184.008 177.896 185.7Z" fill="#FEFEFE"/>
<path d="M177.896 185.7C177.896 187.438 176.487 188.801 174.795 188.801C173.057 188.801 171.694 187.438 171.694 185.7C171.694 184.008 173.057 182.599 174.795 182.599C176.487 182.599 177.896 184.008 177.896 185.7Z" stroke="black" stroke-width="0.76458" stroke-linecap="round" stroke-linejoin="round"/>
<path d="M202.989 185.7C202.989 189.318 200.075 192.232 196.504 192.232C192.886 192.232 189.973 189.318 189.973 185.7C189.973 182.129 192.886 179.216 196.504 179.216C200.075 179.216 202.989 182.129 202.989 185.7Z" fill="#FEFEFE" stroke="black" stroke-width="0.76458" stroke-linecap="round" stroke-linejoin="round"/>
<path d="M199.605 185.7C199.605 187.438 198.196 188.801 196.504 188.801C194.766 188.801 193.403 187.438 193.403 185.7C193.403 184.008 194.766 182.599 196.504 182.599C198.196 182.599 199.605 184.008 199.605 185.7Z" fill="#FEFEFE"/>
<path d="M199.605 185.7C199.605 187.438 198.196 188.801 196.504 188.801C194.766 188.801 193.403 187.438 193.403 185.7C193.403 184.008 194.766 182.599 196.504 182.599C198.196 182.599 199.605 184.008 199.605 185.7Z" stroke="black" stroke-width="0.76458" stroke-linecap="round" stroke-linejoin="round"/>
<path d="M239.264 191.057H207.547V156.05H239.264V191.057Z" fill="#FEFEFE"/>
<path d="M239.264 191.057H207.547V156.05H239.264V191.057Z" fill="black" stroke="black" stroke-width="0.76458" stroke-linecap="round" stroke-linejoin="round"/>
<path d="M239.311 170.804H227.517V156.05H219.247V170.804H207.453V179.074H219.247V191.057H227.517V179.074H239.311V170.804Z" fill="#FEFEFE"/>
<path d="M239.311 170.804H227.517V156.05H219.247V170.804H207.453V179.074H219.247V191.057H227.517V179.074H239.311V170.804Z" stroke="black" stroke-width="0.76458" stroke-linecap="round" stroke-linejoin="round"/>
<path d="M233.296 147.639C229.349 142.517 225.12 152.62 224.509 154.311C224.509 154.311 223.476 154.499 223.523 154.264C223.758 148.015 230.853 134.2 238.794 143.598C244.856 150.787 230.571 155.204 225.308 154.452L225.026 154.029C228.269 154.311 236.539 151.868 233.296 147.639Z" fill="#FEFEFE"/>
<path d="M233.296 147.639C229.349 142.517 225.12 152.62 224.509 154.311C224.509 154.311 223.476 154.499 223.523 154.264C223.758 148.015 230.853 134.2 238.794 143.598C244.856 150.787 230.571 155.204 225.308 154.452L225.026 154.029C228.269 154.311 236.539 151.868 233.296 147.639Z" stroke="black" stroke-width="0.76458" stroke-linecap="round" stroke-linejoin="round"/>
<path d="M214.078 147.639C218.025 142.517 222.254 152.62 222.912 154.311C222.912 154.311 223.899 154.499 223.899 154.264C223.617 148.015 216.568 134.2 208.627 143.598C202.566 150.787 216.803 155.204 222.066 154.452L222.348 154.029C219.106 154.311 210.836 151.868 214.078 147.639Z" fill="#FEFEFE"/>
<path d="M214.078 147.639C218.025 142.517 222.254 152.62 222.912 154.311C222.912 154.311 223.899 154.499 223.899 154.264C223.617 148.015 216.568 134.2 208.627 143.598C202.566 150.787 216.803 155.204 222.066 154.452L222.348 154.029C219.106 154.311 210.836 151.868 214.078 147.639Z" stroke="black" stroke-width="0.76458" stroke-linecap="round" stroke-linejoin="round"/>
<path d="M242.318 161.078H204.539V153.137H242.318V161.078Z" fill="#FEFEFE"/>
<path d="M242.318 161.078H204.539V153.137H242.318V161.078Z" stroke="black" stroke-width="0.76458" stroke-linecap="round" stroke-linejoin="round"/>
<path d="M227.564 153.137H219.247V161.078H227.564V153.137Z" fill="#FEFEFE"/>
<path d="M227.564 153.137H219.247V161.078H227.564V153.137Z" stroke="black" stroke-width="0.76458" stroke-linecap="round" stroke-linejoin="round"/>
<path d="M147.589 250.262C147.589 252.941 145.427 255.149 142.702 255.149H5.54138C2.81603 255.149 0.654541 252.941 0.654541 250.262V161.829C0.654541 159.104 2.81603 156.942 5.54138 156.942H142.702C145.427 156.942 147.589 159.104 147.589 161.829V250.262Z" fill="#FEFEFE"/>
<path d="M147.589 250.262C147.589 252.941 145.427 255.149 142.702 255.149H5.54138C2.81603 255.149 0.654541 252.941 0.654541 250.262V161.829C0.654541 159.104 2.81603 156.942 5.54138 156.942H142.702C145.427 156.942 147.589 159.104 147.589 161.829V250.262Z" stroke="black" stroke-width="0.76458" stroke-linecap="round" stroke-linejoin="round"/>
<path d="M136.17 241.805C136.17 244.014 134.338 245.752 132.035 245.752H16.2079C13.9054 245.752 12.0729 244.014 12.0729 241.805V170.241C12.0729 168.08 13.9054 166.294 16.2079 166.294H132.035C134.338 166.294 136.17 168.08 136.17 170.241V241.805Z" fill="#FEFEFE" stroke="black" stroke-width="0.76458" stroke-linecap="round" stroke-linejoin="round"/>
<path d="M159.336 262.902C159.336 265.581 157.174 267.789 154.449 267.789H-6.20581C-8.93116 267.789 -11.0927 265.581 -11.0927 262.902V258.532C-11.0927 255.854 -8.93116 253.692 -6.20581 253.692H154.449C157.174 253.692 159.336 255.854 159.336 258.532V262.902Z" fill="#FEFEFE"/>
<path d="M159.336 262.902C159.336 265.581 157.174 267.789 154.449 267.789H-6.20581C-8.93116 267.789 -11.0927 265.581 -11.0927 262.902V258.532C-11.0927 255.854 -8.93116 253.692 -6.20581 253.692H154.449C157.174 253.692 159.336 255.854 159.336 258.532V262.902Z" stroke="black" stroke-width="0.76458" stroke-linecap="round" stroke-linejoin="round"/>
<path d="M100.083 256.794C100.083 258.532 98.5793 259.942 96.6998 259.942H49.382C47.5024 259.942 45.9988 258.532 45.9988 256.794C45.9988 255.055 47.5024 253.692 49.382 253.692H96.6998C98.5793 253.692 100.083 255.055 100.083 256.794Z" fill="#FEFEFE" stroke="black" stroke-width="0.76458" stroke-linecap="round" stroke-linejoin="round"/>
<path d="M165.82 175.785H-17.5771L9.53542 150.271H138.708L165.82 175.785Z" fill="#FEFEFE" stroke="black" stroke-width="0.76458" stroke-linecap="round" stroke-linejoin="round"/>
<path d="M-4.18532 175.785H-17.5771L9.53542 150.271H18.9332L-4.18532 175.785Z" fill="black"/>
<path d="M-4.18533 175.785H-17.5771L9.53542 150.271H18.9332L-4.18533 175.785Z" stroke="black" stroke-width="0.76458" stroke-linecap="round" stroke-linejoin="round"/>
<path d="M29.7877 175.785H16.4429L33.4998 150.271H42.8976L29.7877 175.785Z" fill="black"/>
<path d="M29.7877 175.785H16.4429L33.4998 150.271H42.8976L29.7877 175.785Z" stroke="black" stroke-width="0.76458" stroke-linecap="round" stroke-linejoin="round"/>
<path d="M63.8076 175.785H50.4158L57.4171 150.271H66.8619L63.8076 175.785Z" fill="black"/>
<path d="M63.8076 175.785H50.4158L57.4171 150.271H66.8619L63.8076 175.785Z" stroke="black" stroke-width="0.76458" stroke-linecap="round" stroke-linejoin="round"/>
<path d="M97.8276 175.785H84.4357L81.3815 150.271H90.8262L97.8276 175.785Z" fill="black"/>
<path d="M97.8276 175.785H84.4357L81.3815 150.271H90.8262L97.8276 175.785Z" stroke="black" stroke-width="0.76458" stroke-linecap="round" stroke-linejoin="round"/>
<path d="M131.8 175.785H118.456L105.346 150.271H114.743L131.8 175.785Z" fill="black"/>
<path d="M131.8 175.785H118.456L105.346 150.271H114.743L131.8 175.785Z" stroke="black" stroke-width="0.76458" stroke-linecap="round" stroke-linejoin="round"/>
<path d="M165.82 175.785H152.429L129.31 150.271H138.708L165.82 175.785Z" fill="#FEFEFE"/>
<path d="M165.82 175.785H152.429L129.31 150.271H138.708L165.82 175.785Z" fill="black" stroke="black" stroke-width="0.76458" stroke-linecap="round" stroke-linejoin="round"/>
<path d="M-4.13831 175.785C-3.38648 180.907 0.936491 184.854 6.15225 184.854C11.415 184.854 15.738 180.907 16.4898 175.785H-4.13831Z" fill="#FEFEFE" stroke="black" stroke-width="0.76458" stroke-linecap="round" stroke-linejoin="round"/>
<path d="M16.4429 175.785C16.5368 180.108 19.4971 183.538 23.1623 183.538C26.7804 183.538 29.7877 180.108 29.8817 175.785H16.4429Z" fill="#FEFEFE" stroke="black" stroke-width="0.76458" stroke-linecap="round" stroke-linejoin="round"/>
<path d="M29.8816 175.785C30.5864 180.907 34.9564 184.854 40.1722 184.854C45.4349 184.854 49.7579 180.907 50.4627 175.785H29.8816Z" fill="#FEFEFE" stroke="black" stroke-width="0.76458" stroke-linecap="round" stroke-linejoin="round"/>
<path d="M50.4158 175.785C50.5097 180.108 53.47 183.538 57.1352 183.538C60.7533 183.538 63.7136 180.108 63.8076 175.785H50.4158Z" fill="#FEFEFE" stroke="black" stroke-width="0.76458" stroke-linecap="round" stroke-linejoin="round"/>
<path d="M63.8076 175.785C64.5594 180.907 68.8824 184.854 74.0982 184.854C79.3609 184.854 83.6839 180.907 84.4357 175.785H63.8076Z" fill="#FEFEFE" stroke="black" stroke-width="0.76458" stroke-linecap="round" stroke-linejoin="round"/>
<path d="M84.3887 175.785C84.4826 180.108 87.4429 183.538 91.1081 183.538C94.7262 183.538 97.7335 180.108 97.8275 175.785H84.3887Z" fill="#FEFEFE" stroke="black" stroke-width="0.76458" stroke-linecap="round" stroke-linejoin="round"/>
<path d="M97.8275 175.785C98.5323 180.907 102.855 184.854 108.118 184.854C113.334 184.854 117.704 180.907 118.409 175.785H97.8275Z" fill="#FEFEFE" stroke="black" stroke-width="0.76458" stroke-linecap="round" stroke-linejoin="round"/>
<path d="M118.409 175.785C118.503 180.108 121.463 183.538 125.128 183.538C128.746 183.538 131.707 180.108 131.801 175.785H118.409Z" fill="#FEFEFE" stroke="black" stroke-width="0.76458" stroke-linecap="round" stroke-linejoin="round"/>
<path d="M131.801 175.785C132.552 180.907 136.875 184.854 142.138 184.854C147.354 184.854 151.677 180.907 152.429 175.785H131.801Z" fill="#FEFEFE" stroke="black" stroke-width="0.76458" stroke-linecap="round" stroke-linejoin="round"/>
<path d="M152.382 175.785C152.476 180.108 155.436 183.538 159.101 183.538C162.766 183.538 165.726 180.108 165.82 175.785H152.382Z" fill="#FEFEFE" stroke="black" stroke-width="0.76458" stroke-linecap="round" stroke-linejoin="round"/>
<path d="M90.3093 207.597C90.8731 208.584 90.4972 209.852 89.5104 210.369L88.5237 210.933C87.5369 211.45 86.3152 211.121 85.7513 210.134L75.3668 191.245C74.8029 190.258 75.1788 188.989 76.1656 188.472L77.1524 187.909C78.1391 187.392 79.4078 187.721 79.9247 188.707L90.3093 207.597Z" fill="#FEFEFE"/>
<path d="M90.3093 207.597C90.8731 208.584 90.4972 209.852 89.5104 210.369L88.5237 210.933C87.5369 211.45 86.3152 211.121 85.7513 210.134L75.3668 191.245C74.8029 190.258 75.1788 188.989 76.1656 188.472L77.1524 187.909C78.1391 187.392 79.4078 187.721 79.9247 188.707L90.3093 207.597Z" stroke="black" stroke-width="0.76458" stroke-linecap="round" stroke-linejoin="round"/>
<path d="M50.8856 207.597C50.3217 208.584 50.6976 209.852 51.6844 210.369L52.6712 210.933C53.6579 211.45 54.8796 211.121 55.4435 210.134L65.828 191.245C66.3919 190.258 66.016 188.989 65.0292 188.472L64.0425 187.909C63.0557 187.392 61.787 187.721 61.2701 188.707L50.8856 207.597Z" fill="#FEFEFE"/>
<path d="M50.8856 207.597C50.3217 208.584 50.6976 209.852 51.6844 210.369L52.6712 210.933C53.6579 211.45 54.8796 211.121 55.4435 210.134L65.828 191.245C66.3919 190.258 66.016 188.989 65.0292 188.472L64.0425 187.909C63.0557 187.392 61.787 187.721 61.2701 188.707L50.8856 207.597Z" stroke="black" stroke-width="0.76458" stroke-linecap="round" stroke-linejoin="round"/>
<path d="M92.7527 238.092C92.7527 239.22 91.813 240.113 90.6852 240.113H51.2616C50.1338 240.113 49.1941 239.22 49.1941 238.092L44.8711 209.758C44.8711 208.63 45.8109 207.69 46.9386 207.69H95.0082C96.1359 207.69 97.0757 208.63 97.0757 209.758L92.7527 238.092Z" fill="#FEFEFE"/>
<path d="M92.7527 238.092C92.7527 239.22 91.813 240.113 90.6852 240.113H51.2616C50.1338 240.113 49.1941 239.22 49.1941 238.092L44.8711 209.758C44.8711 208.63 45.8109 207.69 46.9386 207.69H95.0082C96.1359 207.69 97.0757 208.63 97.0757 209.758L92.7527 238.092Z" fill="black" stroke="black" stroke-width="0.76458" stroke-linecap="round" stroke-linejoin="round"/>
<path d="M89.6044 218.075C89.6044 219.203 88.5237 220.095 87.208 220.095H54.4097C53.141 220.095 52.0603 219.203 52.0603 218.075V217.464C52.0603 216.336 53.141 215.396 54.4097 215.396H87.208C88.5237 215.396 89.6044 216.336 89.6044 217.464V218.075Z" fill="#FEFEFE"/>
<path d="M89.6044 218.075C89.6044 219.203 88.5236 220.095 87.208 220.095H54.4097C53.141 220.095 52.0603 219.203 52.0603 218.075V217.464C52.0603 216.336 53.141 215.396 54.4097 215.396H87.208C88.5236 215.396 89.6044 216.336 89.6044 217.464V218.075Z" stroke="black" stroke-width="0.76458" stroke-linecap="round" stroke-linejoin="round"/>
<path d="M87.8189 225.17C87.8189 226.298 86.8791 227.191 85.7044 227.191H55.9604C54.7857 227.191 53.799 226.298 53.799 225.17V224.56C53.799 223.432 54.7857 222.539 55.9604 222.539H85.7044C86.8791 222.539 87.8189 223.432 87.8189 224.56V225.17Z" fill="#FEFEFE"/>
<path d="M87.8189 225.17C87.8189 226.298 86.8791 227.191 85.7044 227.191H55.9604C54.7857 227.191 53.799 226.298 53.799 225.17V224.56C53.799 223.432 54.7857 222.539 55.9604 222.539H85.7044C86.8791 222.539 87.8189 223.432 87.8189 224.56V225.17Z" stroke="black" stroke-width="0.76458" stroke-linecap="round" stroke-linejoin="round"/>
<path d="M85.2345 232.266C85.2345 233.394 84.3887 234.334 83.4019 234.334H58.2159C57.2291 234.334 56.4303 233.394 56.4303 232.266V231.655C56.4303 230.528 57.2291 229.635 58.2159 229.635H83.4019C84.3887 229.635 85.2345 230.528 85.2345 231.655V232.266Z" fill="#FEFEFE"/>
<path d="M85.2345 232.266C85.2345 233.394 84.3887 234.334 83.4019 234.334H58.2159C57.2291 234.334 56.4303 233.394 56.4303 232.266V231.655C56.4303 230.528 57.2291 229.635 58.2159 229.635H83.4019C84.3887 229.635 85.2345 230.528 85.2345 231.655V232.266Z" stroke="black" stroke-width="0.76458" stroke-linecap="round" stroke-linejoin="round"/>
<path d="M100.365 207.925C100.365 209.053 99.4722 209.946 98.3444 209.946H42.8506C41.7229 209.946 40.8301 209.053 40.8301 207.925V207.032C40.8301 205.905 41.7229 204.965 42.8506 204.965H98.3444C99.4722 204.965 100.365 205.905 100.365 207.032V207.925Z" fill="#FEFEFE"/>
<path d="M100.365 207.925C100.365 209.053 99.4722 209.946 98.3444 209.946H42.8506C41.7229 209.946 40.8301 209.053 40.8301 207.925V207.032C40.8301 205.905 41.7229 204.965 42.8506 204.965H98.3444C99.4722 204.965 100.365 205.905 100.365 207.032V207.925Z" stroke="black" stroke-width="0.76458" stroke-linecap="round" stroke-linejoin="round"/>
<path d="M105.299 238.798C105.299 239.643 104.547 240.395 103.654 240.395H82.9791C82.0863 240.395 81.3345 239.643 81.3345 238.798V218.733C81.3345 217.841 82.0863 217.136 82.9791 217.136H103.654C104.547 217.136 105.299 217.841 105.299 218.733V238.798Z" fill="#FEFEFE" stroke="black" stroke-width="0.76458" stroke-linecap="round" stroke-linejoin="round"/>
<path fill-rule="evenodd" clip-rule="evenodd" d="M85.5165 226.204C85.5165 225.484 85.5948 224.841 85.7514 224.278C85.9081 223.745 86.1273 223.291 86.4093 222.915C86.6912 222.57 87.0201 222.304 87.396 222.116C87.8033 221.959 88.2418 221.881 88.7117 221.881C89.1816 221.881 89.6202 221.959 90.0274 222.116C90.4033 222.304 90.7322 222.57 91.0142 222.915C91.2961 223.291 91.5154 223.745 91.672 224.278C91.8286 224.841 91.907 225.484 91.907 226.204C91.907 226.925 91.8286 227.567 91.672 228.131C91.5154 228.663 91.2961 229.102 91.0142 229.446C90.7322 229.822 90.4033 230.104 90.0274 230.292C89.6202 230.449 89.1816 230.527 88.7117 230.527C88.2418 230.527 87.8033 230.449 87.396 230.292C87.0201 230.104 86.6912 229.822 86.4093 229.446C86.1273 229.102 85.9081 228.663 85.7514 228.131C85.5948 227.567 85.5165 226.925 85.5165 226.204ZM89.7455 226.204C89.7455 225.828 89.7298 225.484 89.6985 225.17C89.6672 224.857 89.6045 224.591 89.5105 224.371C89.4479 224.152 89.3539 223.964 89.2286 223.808C89.072 223.682 88.8997 223.62 88.7117 223.62C88.5238 223.62 88.3515 223.682 88.1948 223.808C88.0695 223.964 87.9756 224.152 87.9129 224.371C87.8189 224.591 87.7563 224.857 87.725 225.17C87.6936 225.484 87.678 225.828 87.678 226.204C87.678 226.58 87.6936 226.925 87.725 227.238C87.7563 227.551 87.8189 227.817 87.9129 228.037C87.9756 228.256 88.0695 228.444 88.1948 228.6C88.3515 228.726 88.5238 228.788 88.7117 228.788C88.8997 228.788 89.072 228.726 89.2286 228.6C89.3539 228.444 89.4479 228.256 89.5105 228.037C89.6045 227.817 89.6672 227.551 89.6985 227.238C89.7298 226.925 89.7455 226.58 89.7455 226.204ZM99.0493 222.774L89.2756 235.837L87.9599 234.85L97.7336 221.787L99.0493 222.774ZM95.1492 231.279C95.1492 230.558 95.2275 229.916 95.3841 229.352C95.5408 228.82 95.76 228.381 96.042 228.037C96.3239 227.661 96.6528 227.394 97.0287 227.238C97.436 227.05 97.8745 226.956 98.3444 226.956C98.8143 226.956 99.2529 227.05 99.6601 227.238C100.036 227.394 100.365 227.661 100.647 228.037C100.929 228.381 101.148 228.82 101.305 229.352C101.461 229.916 101.54 230.558 101.54 231.279C101.54 231.999 101.461 232.642 101.305 233.205C101.148 233.738 100.929 234.192 100.647 234.568C100.365 234.913 100.036 235.179 99.6601 235.367C99.2529 235.555 98.8143 235.649 98.3444 235.649C97.8745 235.649 97.436 235.555 97.0287 235.367C96.6528 235.179 96.3239 234.913 96.042 234.568C95.76 234.192 95.5408 233.738 95.3841 233.205C95.2275 232.642 95.1492 231.999 95.1492 231.279ZM99.3782 231.279C99.3782 230.903 99.3625 230.558 99.3312 230.245C99.2999 229.932 99.2372 229.666 99.1432 229.446C99.0806 229.227 98.971 229.055 98.8143 228.929C98.689 228.804 98.5324 228.741 98.3444 228.741C98.1565 228.741 97.9842 228.804 97.8276 228.929C97.7023 229.055 97.6083 229.227 97.5456 229.446C97.4516 229.666 97.389 229.932 97.3577 230.245C97.3263 230.558 97.3107 230.903 97.3107 231.279C97.3107 231.655 97.3263 231.999 97.3577 232.313C97.389 232.626 97.4516 232.892 97.5456 233.111C97.6083 233.362 97.7023 233.55 97.8276 233.675C97.9842 233.801 98.1565 233.863 98.3444 233.863C98.5324 233.863 98.689 233.801 98.8143 233.675C98.971 233.55 99.0806 233.362 99.1432 233.111C99.2372 232.892 99.2999 232.626 99.3312 232.313C99.3625 231.999 99.3782 231.655 99.3782 231.279Z" fill="black"/>
<path d="M348.09 265.628C351.003 265.628 353.353 263.231 353.353 260.318V199.749C353.353 196.836 351.003 194.439 348.09 194.439H258.2C255.24 194.439 252.891 196.836 252.891 199.749V260.318C252.891 263.231 255.24 265.628 258.2 265.628H348.09Z" fill="#FEFEFE" stroke="black" stroke-width="0.76458" stroke-linecap="round" stroke-linejoin="round"/>
<path d="M342.874 256.653C345.459 256.653 347.526 254.774 347.526 252.424V204.12C347.526 201.817 345.459 199.938 342.874 199.938H263.369C260.785 199.938 258.717 201.817 258.717 204.12V252.424C258.717 254.774 260.785 256.653 263.369 256.653H342.874Z" fill="#FEFEFE" stroke="black" stroke-width="0.76458" stroke-linecap="round" stroke-linejoin="round"/>
<path d="M300.255 261.07C300.255 262.668 301.571 263.937 303.122 263.937C304.719 263.937 305.988 262.668 305.988 261.07C305.988 259.52 304.719 258.204 303.122 258.204C301.571 258.204 300.255 259.52 300.255 261.07Z" fill="#FEFEFE" stroke="black" stroke-width="0.76458" stroke-linecap="round" stroke-linejoin="round"/>
<path d="M361.2 204.824H245.044L262.195 188.66H344.049L361.2 204.824Z" fill="#FEFEFE" stroke="black" stroke-width="0.76458" stroke-linecap="round" stroke-linejoin="round"/>
<path d="M253.502 204.824H245.044L262.195 188.66H268.162L253.502 204.824Z" fill="#FEFEFE"/>
<path d="M253.502 204.824H245.044L262.195 188.66H268.162L253.502 204.824Z" stroke="black" stroke-width="0.76458" stroke-linecap="round" stroke-linejoin="round"/>
<path d="M275.069 204.824H266.564L277.372 188.66H283.339L275.069 204.824Z" fill="#FEFEFE"/>
<path d="M275.069 204.824H266.564L277.372 188.66H283.339L275.069 204.824Z" fill="black" stroke="black" stroke-width="0.76458" stroke-linecap="round" stroke-linejoin="round"/>
<path d="M296.59 204.824H288.132L292.549 188.66H298.517L296.59 204.824Z" fill="#FEFEFE"/>
<path d="M296.59 204.824H288.132L292.549 188.66H298.517L296.59 204.824Z" fill="black" stroke="black" stroke-width="0.76458" stroke-linecap="round" stroke-linejoin="round"/>
<path d="M318.111 204.824H309.653L307.727 188.66H313.694L318.111 204.824Z" fill="black"/>
<path d="M318.111 204.824H309.653L307.727 188.66H313.694L318.111 204.824Z" stroke="black" stroke-width="0.76458" stroke-linecap="round" stroke-linejoin="round"/>
<path d="M339.679 204.824H331.174L322.904 188.66H328.872L339.679 204.824Z" fill="#FEFEFE"/>
<path d="M339.679 204.824H331.174L322.904 188.66H328.872L339.679 204.824Z" fill="black" stroke="black" stroke-width="0.76458" stroke-linecap="round" stroke-linejoin="round"/>
<path d="M361.2 204.824H352.742L338.082 188.66H344.049L361.2 204.824Z" fill="#FEFEFE"/>
<path d="M361.2 204.824H352.742L338.082 188.66H344.049L361.2 204.824Z" stroke="black" stroke-width="0.76458" stroke-linecap="round" stroke-linejoin="round"/>
<path d="M245.044 204.824C245.138 207.55 247.017 209.711 249.32 209.711C251.622 209.711 253.502 207.55 253.549 204.824H245.044Z" fill="#FEFEFE" stroke="black" stroke-width="0.76458" stroke-linecap="round" stroke-linejoin="round"/>
<path d="M253.549 204.824C254.018 208.066 256.791 210.557 260.08 210.557C263.416 210.557 266.142 208.066 266.611 204.824H253.549Z" fill="#FEFEFE" stroke="black" stroke-width="0.76458" stroke-linecap="round" stroke-linejoin="round"/>
<path d="M266.564 204.824C266.658 207.55 268.538 209.711 270.84 209.711C273.143 209.711 275.022 207.55 275.116 204.824H266.564Z" fill="#FEFEFE" stroke="black" stroke-width="0.76458" stroke-linecap="round" stroke-linejoin="round"/>
<path d="M275.116 204.824C275.586 208.066 278.312 210.557 281.648 210.557C284.937 210.557 287.709 208.066 288.132 204.824H275.116Z" fill="#FEFEFE" stroke="black" stroke-width="0.76458" stroke-linecap="round" stroke-linejoin="round"/>
<path d="M288.132 204.824C288.179 207.55 290.059 209.711 292.361 209.711C294.664 209.711 296.543 207.55 296.59 204.824H288.132Z" fill="#FEFEFE" stroke="black" stroke-width="0.76458" stroke-linecap="round" stroke-linejoin="round"/>
<path d="M296.59 204.824C297.06 208.066 299.786 210.557 303.122 210.557C306.458 210.557 309.183 208.066 309.653 204.824H296.59Z" fill="#FEFEFE" stroke="black" stroke-width="0.76458" stroke-linecap="round" stroke-linejoin="round"/>
<path d="M309.653 204.824C309.7 207.55 311.58 209.711 313.882 209.711C316.185 209.711 318.064 207.55 318.111 204.824H309.653Z" fill="#FEFEFE" stroke="black" stroke-width="0.76458" stroke-linecap="round" stroke-linejoin="round"/>
<path d="M318.111 204.824C318.581 208.066 321.353 210.557 324.643 210.557C327.979 210.557 330.704 208.066 331.174 204.824H318.111Z" fill="#FEFEFE" stroke="black" stroke-width="0.76458" stroke-linecap="round" stroke-linejoin="round"/>
<path d="M331.174 204.824C331.221 207.55 333.101 209.711 335.403 209.711C337.706 209.711 339.585 207.55 339.679 204.824H331.174Z" fill="#FEFEFE" stroke="black" stroke-width="0.76458" stroke-linecap="round" stroke-linejoin="round"/>
<path d="M339.679 204.824C340.149 208.066 342.874 210.557 346.211 210.557C349.5 210.557 352.272 208.066 352.742 204.824H339.679Z" fill="#FEFEFE" stroke="black" stroke-width="0.76458" stroke-linecap="round" stroke-linejoin="round"/>
<path d="M314.305 227.473C314.728 228.224 314.446 229.164 313.694 229.587L312.943 229.963C312.191 230.386 311.251 230.104 310.828 229.352L302.981 215.068C302.558 214.316 302.84 213.376 303.592 212.953L304.344 212.53C305.095 212.107 306.035 212.389 306.411 213.141L314.305 227.473Z" fill="#FEFEFE"/>
<path d="M314.305 227.473C314.728 228.224 314.446 229.164 313.694 229.587L312.943 229.963C312.191 230.386 311.251 230.104 310.828 229.352L302.981 215.068C302.558 214.316 302.84 213.376 303.592 212.953L304.344 212.53C305.095 212.107 306.035 212.389 306.411 213.141L314.305 227.473Z" stroke="black" stroke-width="0.76458" stroke-linecap="round" stroke-linejoin="round"/>
<path d="M284.373 227.473C283.95 228.224 284.232 229.164 284.984 229.587L285.736 229.963C286.488 230.386 287.427 230.104 287.85 229.352L295.745 215.068C296.12 214.316 295.885 213.376 295.134 212.953L294.382 212.53C293.63 212.107 292.69 212.389 292.267 213.141L284.373 227.473Z" fill="#FEFEFE"/>
<path d="M284.373 227.473C283.95 228.224 284.232 229.164 284.984 229.587L285.736 229.963C286.488 230.386 287.427 230.104 287.85 229.352L295.745 215.068C296.12 214.316 295.885 213.376 295.134 212.953L294.382 212.53C293.63 212.107 292.69 212.389 292.267 213.141L284.373 227.473Z" stroke="black" stroke-width="0.76458" stroke-linecap="round" stroke-linejoin="round"/>
<path d="M316.138 250.591C316.138 251.437 315.48 252.142 314.587 252.142H284.655C283.809 252.142 283.105 251.437 283.105 250.591L279.862 229.07C279.862 228.224 280.52 227.52 281.413 227.52H317.876C318.722 227.52 319.427 228.224 319.427 229.07L316.138 250.591Z" fill="black"/>
<path d="M316.138 250.591C316.138 251.437 315.48 252.142 314.587 252.142H284.655C283.809 252.142 283.105 251.437 283.105 250.591L279.862 229.07C279.862 228.224 280.52 227.52 281.413 227.52H317.876C318.722 227.52 319.427 228.224 319.427 229.07L316.138 250.591Z" stroke="black" stroke-width="0.76458" stroke-linecap="round" stroke-linejoin="round"/>
<path d="M313.741 235.414C313.741 236.26 312.943 236.965 311.956 236.965H287.052C286.065 236.965 285.266 236.26 285.266 235.414V234.944C285.266 234.098 286.065 233.394 287.052 233.394H311.956C312.943 233.394 313.741 234.098 313.741 234.944V235.414Z" fill="#FEFEFE"/>
<path d="M313.741 235.414C313.741 236.26 312.943 236.965 311.956 236.965H287.052C286.065 236.965 285.266 236.26 285.266 235.414V234.944C285.266 234.098 286.065 233.394 287.052 233.394H311.956C312.943 233.394 313.741 234.098 313.741 234.944V235.414Z" stroke="black" stroke-width="0.76458" stroke-linecap="round" stroke-linejoin="round"/>
<path d="M312.426 240.77C312.426 241.663 311.721 242.321 310.781 242.321H288.226C287.334 242.321 286.629 241.663 286.629 240.77V240.348C286.629 239.455 287.334 238.797 288.226 238.797H310.781C311.721 238.797 312.426 239.455 312.426 240.348V240.77Z" fill="#FEFEFE"/>
<path d="M312.426 240.77C312.426 241.663 311.721 242.321 310.781 242.321H288.226C287.334 242.321 286.629 241.663 286.629 240.77V240.348C286.629 239.455 287.334 238.797 288.226 238.797H310.781C311.721 238.797 312.426 239.455 312.426 240.348V240.77Z" stroke="black" stroke-width="0.76458" stroke-linecap="round" stroke-linejoin="round"/>
<path d="M310.452 246.175C310.452 247.021 309.841 247.725 309.089 247.725H289.965C289.213 247.725 288.602 247.021 288.602 246.175V245.705C288.602 244.859 289.213 244.154 289.965 244.154H309.089C309.841 244.154 310.452 244.859 310.452 245.705V246.175Z" fill="#FEFEFE"/>
<path d="M310.452 246.175C310.452 247.021 309.841 247.725 309.089 247.725H289.965C289.213 247.725 288.602 247.021 288.602 246.175V245.705C288.602 244.859 289.213 244.154 289.965 244.154H309.089C309.841 244.154 310.452 244.859 310.452 245.705V246.175Z" stroke="black" stroke-width="0.76458" stroke-linecap="round" stroke-linejoin="round"/>
<path d="M321.964 227.708C321.964 228.553 321.26 229.258 320.414 229.258H278.312C277.419 229.258 276.761 228.553 276.761 227.708V227.003C276.761 226.157 277.419 225.452 278.312 225.452H320.414C321.26 225.452 321.964 226.157 321.964 227.003V227.708Z" fill="#FEFEFE"/>
<path d="M321.964 227.708C321.964 228.553 321.26 229.258 320.414 229.258H278.312C277.419 229.258 276.761 228.553 276.761 227.708V227.003C276.761 226.157 277.419 225.452 278.312 225.452H320.414C321.26 225.452 321.964 226.157 321.964 227.003V227.708Z" stroke="black" stroke-width="0.76458" stroke-linecap="round" stroke-linejoin="round"/>
<path d="M333.712 232.924C333.712 235.555 331.55 237.717 328.919 237.717H305.706C303.075 237.717 300.913 235.555 300.913 232.924V231.561C300.913 228.93 303.075 226.769 305.706 226.769H328.919C331.55 226.769 333.712 228.93 333.712 231.561V232.924Z" fill="#FEFEFE" stroke="black" stroke-width="0.76458" stroke-linecap="round" stroke-linejoin="round"/>
<path fill-rule="evenodd" clip-rule="evenodd" d="M314.352 231.326C314.352 231.514 314.321 231.702 314.258 231.89C314.164 232.047 314.007 232.172 313.788 232.266V232.313C313.913 232.344 314.023 232.391 314.117 232.454C314.211 232.517 314.289 232.595 314.352 232.689C314.415 232.752 314.462 232.845 314.493 232.971C314.556 233.065 314.587 233.174 314.587 233.3C314.587 233.425 314.556 233.55 314.493 233.676C314.462 233.801 314.399 233.926 314.305 234.052C314.242 234.177 314.133 234.286 313.976 234.38C313.82 234.474 313.632 234.553 313.412 234.615C313.35 234.615 313.287 234.631 313.224 234.662C313.162 234.662 313.083 234.662 312.989 234.662C312.895 234.694 312.801 234.709 312.707 234.709C312.613 234.709 312.504 234.709 312.379 234.709H311.016V230.104H312.613C312.958 230.104 313.24 230.136 313.459 230.198C313.616 230.261 313.757 230.324 313.882 230.386C313.976 230.48 314.07 230.574 314.164 230.668C314.227 230.762 314.274 230.872 314.305 230.997C314.336 231.091 314.352 231.201 314.352 231.326ZM312.66 231.984C312.88 231.984 313.036 231.968 313.13 231.937C313.287 231.874 313.381 231.796 313.412 231.702C313.475 231.608 313.506 231.498 313.506 231.373C313.506 231.248 313.475 231.138 313.412 231.044C313.35 230.95 313.24 230.888 313.083 230.856C313.021 230.825 312.958 230.809 312.895 230.809C312.801 230.809 312.692 230.809 312.566 230.809H311.862V231.984H312.66ZM311.909 232.689V234.005H312.473C312.629 234.005 312.754 234.005 312.848 234.005C312.942 233.973 313.036 233.958 313.13 233.958C313.224 233.926 313.318 233.895 313.412 233.864C313.475 233.801 313.538 233.738 313.6 233.676C313.663 233.644 313.694 233.597 313.694 233.535C313.726 233.472 313.741 233.394 313.741 233.3C313.741 233.174 313.71 233.065 313.647 232.971C313.553 232.877 313.428 232.799 313.271 232.736C313.209 232.736 313.13 232.72 313.036 232.689C312.974 232.689 312.864 232.689 312.707 232.689H311.909Z" fill="black"/>
<path d="M317.359 234.803C317.109 234.803 316.89 234.772 316.702 234.709C316.514 234.678 316.341 234.615 316.185 234.521C316.028 234.427 315.903 234.318 315.809 234.193C315.715 234.067 315.637 233.926 315.574 233.77C315.511 233.644 315.464 233.503 315.433 233.347C315.433 233.19 315.433 233.018 315.433 232.83V230.104H316.279V232.736C316.279 233.049 316.31 233.3 316.373 233.488C316.467 233.707 316.592 233.864 316.749 233.958C316.905 234.052 317.109 234.099 317.359 234.099C317.579 234.099 317.767 234.052 317.923 233.958C318.111 233.864 318.237 233.707 318.299 233.488C318.393 233.3 318.44 233.049 318.44 232.736V230.104H319.286V232.83C319.286 233.018 319.27 233.19 319.239 233.347C319.239 233.503 319.208 233.644 319.145 233.77C319.082 233.926 319.004 234.067 318.91 234.193C318.785 234.318 318.644 234.427 318.487 234.521C318.362 234.615 318.19 234.678 317.97 234.709C317.782 234.772 317.579 234.803 317.359 234.803Z" fill="black"/>
<path d="M322.058 232.078L323.28 230.104H324.22L322.481 232.83V234.709H321.635V232.83L319.897 230.104H320.837L322.058 232.078Z" fill="black"/>
<path d="M332.443 228.507L331.879 230.527L332.443 228.507Z" fill="#FEFEFE"/>
<path d="M332.443 228.507L331.879 230.527" stroke="black" stroke-width="0.76458" stroke-linecap="round" stroke-linejoin="round"/>
<path d="M324.173 236.495L326.146 235.79L324.173 236.495Z" fill="#FEFEFE"/>
<path d="M324.173 236.495L326.146 235.79" stroke="black" stroke-width="0.76458" stroke-linecap="round" stroke-linejoin="round"/>
<path d="M324.126 233.064H326.193" stroke="black" stroke-width="0.76458" stroke-linecap="round" stroke-linejoin="round"/>
<path d="M329.107 227.849V229.963" stroke="black" stroke-width="0.76458" stroke-linecap="round" stroke-linejoin="round"/>
<path d="M325.16 229.306L326.757 230.668L325.16 229.306Z" fill="#FEFEFE"/>
<path d="M325.16 229.306L326.757 230.668" stroke="black" stroke-width="0.76458" stroke-linecap="round" stroke-linejoin="round"/>
<path d="M334.322 241.523L337.283 238.798L332.631 233.676L334.604 231.843L327.65 231.232V238.234L329.624 236.401L334.322 241.523Z" fill="#FEFEFE"/>
<path d="M334.322 241.523L337.283 238.798L332.631 233.676L334.604 231.843L327.65 231.232V238.234L329.624 236.401L334.322 241.523Z" stroke="black" stroke-width="0.76458" stroke-linecap="round" stroke-linejoin="round"/>
<path d="M273.378 261.352C273.378 263.702 271.451 265.628 269.102 265.628H220.422C218.072 265.628 216.193 263.702 216.193 261.352V189.083C216.193 186.734 218.072 184.854 220.422 184.854H269.102C271.451 184.854 273.378 186.734 273.378 189.083V261.352Z" fill="#FEFEFE" stroke="black" stroke-width="0.76458" stroke-linecap="round" stroke-linejoin="round"/>
<path d="M268.068 251.156C268.068 253.035 266.518 254.539 264.638 254.539H224.932C223.006 254.539 221.455 253.035 221.455 251.156V193.454C221.455 191.574 223.006 190.07 224.932 190.07H264.638C266.518 190.07 268.068 191.574 268.068 193.454V251.156Z" fill="#FEFEFE" stroke="black" stroke-width="0.76458" stroke-linecap="round" stroke-linejoin="round"/>
<path d="M248.145 259.66C248.145 261.54 246.641 263.044 244.762 263.044C242.929 263.044 241.425 261.54 241.425 259.66C241.425 257.828 242.929 256.324 244.762 256.324C246.641 256.324 248.145 257.828 248.145 259.66Z" fill="#FEFEFE" stroke="black" stroke-width="0.76458" stroke-linecap="round" stroke-linejoin="round"/>
<path d="M282.494 196.789H207.03L218.166 184.619H271.357L282.494 196.789Z" fill="#FEFEFE" stroke="black" stroke-width="0.76458" stroke-linecap="round" stroke-linejoin="round"/>
<path d="M212.527 196.789H207.03L218.166 184.619H222.066L212.527 196.789Z" fill="#FEFEFE"/>
<path d="M212.527 196.789H207.03L218.166 184.619H222.066L212.527 196.789Z" stroke="black" stroke-width="0.76458" stroke-linecap="round" stroke-linejoin="round"/>
<path d="M226.53 196.789H221.032L228.034 184.619H231.934L226.53 196.789Z" fill="#FEFEFE"/>
<path d="M226.53 196.789H221.032L228.034 184.619H231.934L226.53 196.789Z" stroke="black" stroke-width="0.76458" stroke-linecap="round" stroke-linejoin="round"/>
<path d="M240.533 196.789H235.035L237.901 184.619H241.801L240.533 196.789Z" fill="#FEFEFE"/>
<path d="M240.533 196.789H235.035L237.901 184.619H241.801L240.533 196.789Z" stroke="black" stroke-width="0.76458" stroke-linecap="round" stroke-linejoin="round"/>
<path d="M254.535 196.789H249.038L247.769 184.619H251.622L254.535 196.789Z" fill="#FEFEFE"/>
<path d="M254.535 196.789H249.038L247.769 184.619H251.622L254.535 196.789Z" stroke="black" stroke-width="0.76458" stroke-linecap="round" stroke-linejoin="round"/>
<path d="M268.538 196.789H262.993L257.637 184.619H261.49L268.538 196.789Z" fill="#FEFEFE"/>
<path d="M268.538 196.789H262.993L257.637 184.619H261.49L268.538 196.789Z" stroke="black" stroke-width="0.76458" stroke-linecap="round" stroke-linejoin="round"/>
<path d="M282.494 196.789H276.996L267.457 184.619H271.357L282.494 196.789Z" fill="#FEFEFE"/>
<path d="M282.494 196.789H276.996L267.457 184.619H271.357L282.494 196.789Z" stroke="black" stroke-width="0.76458" stroke-linecap="round" stroke-linejoin="round"/>
<path d="M207.03 196.789C207.077 198.857 208.298 200.501 209.802 200.501C211.306 200.501 212.527 198.857 212.574 196.789H207.03Z" fill="#FEFEFE" stroke="black" stroke-width="0.76458" stroke-linecap="round" stroke-linejoin="round"/>
<path d="M212.574 196.789C212.856 199.232 214.642 201.112 216.803 201.112C218.965 201.112 220.75 199.232 221.032 196.789H212.574Z" fill="#FEFEFE" stroke="black" stroke-width="0.76458" stroke-linecap="round" stroke-linejoin="round"/>
<path d="M221.032 196.789C221.079 198.857 222.301 200.501 223.805 200.501C225.308 200.501 226.53 198.857 226.577 196.789H221.032Z" fill="#FEFEFE" stroke="black" stroke-width="0.76458" stroke-linecap="round" stroke-linejoin="round"/>
<path d="M226.577 196.789C226.859 199.232 228.645 201.112 230.806 201.112C232.968 201.112 234.753 199.232 235.035 196.789H226.577Z" fill="#FEFEFE" stroke="black" stroke-width="0.76458" stroke-linecap="round" stroke-linejoin="round"/>
<path d="M235.035 196.789C235.082 198.857 236.304 200.501 237.76 200.501C239.264 200.501 240.486 198.857 240.533 196.789H235.035Z" fill="#FEFEFE" stroke="black" stroke-width="0.76458" stroke-linecap="round" stroke-linejoin="round"/>
<path d="M240.533 196.789C240.815 199.232 242.6 201.112 244.762 201.112C246.923 201.112 248.709 199.232 248.991 196.789H240.533Z" fill="#FEFEFE" stroke="black" stroke-width="0.76458" stroke-linecap="round" stroke-linejoin="round"/>
<path d="M248.991 196.789C249.038 198.857 250.259 200.501 251.763 200.501C253.267 200.501 254.488 198.857 254.535 196.789H248.991Z" fill="#FEFEFE" stroke="black" stroke-width="0.76458" stroke-linecap="round" stroke-linejoin="round"/>
<path d="M254.535 196.789C254.817 199.232 256.603 201.112 258.764 201.112C260.926 201.112 262.711 199.232 262.993 196.789H254.535Z" fill="#FEFEFE" stroke="black" stroke-width="0.76458" stroke-linecap="round" stroke-linejoin="round"/>
<path d="M262.993 196.789C263.04 198.857 264.262 200.501 265.766 200.501C267.269 200.501 268.491 198.857 268.538 196.789H262.993Z" fill="#FEFEFE" stroke="black" stroke-width="0.76458" stroke-linecap="round" stroke-linejoin="round"/>
<path d="M268.538 196.789C268.82 199.232 270.605 201.112 272.767 201.112C274.928 201.112 276.714 199.232 276.996 196.789H268.538Z" fill="#FEFEFE" stroke="black" stroke-width="0.76458" stroke-linecap="round" stroke-linejoin="round"/>
<path d="M276.996 196.789C277.043 198.857 278.265 200.501 279.768 200.501C281.225 200.501 282.494 198.857 282.494 196.789H276.996Z" fill="#FEFEFE" stroke="black" stroke-width="0.76458" stroke-linecap="round" stroke-linejoin="round"/>
<path d="M259.986 245.047L228.316 245.141L231.088 212.859H256.838L259.986 245.047Z" fill="#FEFEFE"/>
<path d="M259.986 245.047L228.316 245.141L231.088 212.859H256.838L259.986 245.047Z" stroke="#231F20" stroke-width="0.76458" stroke-linecap="round" stroke-linejoin="round"/>
<path d="M260.691 246.738H227.094L230.101 214.457H257.684L260.691 246.738Z" fill="black"/>
<path d="M260.691 246.738H227.094L230.101 214.457H257.684L260.691 246.738Z" stroke="#231F20" stroke-width="0.76458" stroke-linecap="round" stroke-linejoin="round"/>
<path d="M230.101 214.457L231.088 212.859V214.457H230.101Z" fill="#FEFEFE"/>
<path d="M230.101 214.457L231.088 212.859V214.457H230.101Z" stroke="#231F20" stroke-width="0.76458" stroke-linecap="round" stroke-linejoin="round"/>
<path d="M257.731 214.457L256.838 212.859L256.979 214.457H257.731Z" fill="#FEFEFE"/>
<path d="M257.731 214.457L256.838 212.859L256.979 214.457H257.731Z" stroke="#231F20" stroke-width="0.76458" stroke-linecap="round" stroke-linejoin="round"/>
<path d="M248.286 216.525C248.286 215.961 248.756 215.491 249.32 215.491C249.884 215.491 250.353 215.961 250.353 216.525C250.353 217.089 249.884 217.559 249.32 217.559C248.756 217.559 248.286 217.089 248.286 216.525Z" fill="#FEFEFE" stroke="#231F20" stroke-width="0.76458" stroke-linecap="round" stroke-linejoin="round"/>
<path d="M237.948 216.525C237.948 215.961 238.418 215.491 238.982 215.491C239.546 215.491 240.016 215.961 240.016 216.525C240.016 217.089 239.546 217.559 238.982 217.559C238.418 217.559 237.948 217.089 237.948 216.525Z" fill="#FEFEFE" stroke="#231F20" stroke-width="0.76458" stroke-linecap="round" stroke-linejoin="round"/>
<path d="M249.32 216.289C249.32 213.423 247.017 209.711 244.151 209.711C241.285 209.711 238.982 213.423 238.982 216.289" stroke="#231F20" stroke-width="0.76458" stroke-linecap="round" stroke-linejoin="round"/>
<path d="M239.264 246.081C239.264 246.504 238.888 246.88 238.465 246.88H227.188C226.765 246.88 226.389 246.504 226.389 246.081C226.389 246.081 226.389 232.924 226.389 227.708C226.389 227.708 226.342 227.097 226.624 226.721C227.658 225.5 231.182 222.022 232.451 221.271C232.639 221.177 232.967 221.13 233.202 221.271C234.518 222.163 238.277 225.876 239.123 226.909C239.264 227.097 239.264 227.426 239.264 227.426C239.264 232.407 239.264 246.081 239.264 246.081Z" fill="#FEFEFE"/>
<path d="M239.264 246.081C239.264 246.504 238.888 246.88 238.465 246.88H227.188C226.765 246.88 226.389 246.504 226.389 246.081C226.389 246.081 226.389 232.924 226.389 227.708C226.389 227.708 226.342 227.097 226.624 226.721C227.658 225.5 231.182 222.022 232.451 221.271C232.639 221.177 232.967 221.13 233.202 221.271C234.518 222.163 238.277 225.876 239.123 226.909C239.264 227.097 239.264 227.426 239.264 227.426C239.264 232.407 239.264 246.081 239.264 246.081Z" stroke="#231F20" stroke-width="0.76458" stroke-linecap="round" stroke-linejoin="round"/>
<path d="M238.559 245.141C238.559 245.563 238.23 245.892 237.854 245.892H227.799C227.376 245.892 227.094 245.563 227.094 245.141C227.094 245.141 227.094 233.017 227.094 228.178C227.094 228.178 227.047 227.614 227.329 227.285C228.222 226.157 231.37 222.915 232.498 222.257C232.639 222.163 232.921 222.116 233.155 222.257C234.33 223.103 237.713 226.486 238.465 227.426C238.606 227.614 238.559 227.943 238.559 227.943C238.559 232.501 238.559 245.141 238.559 245.141Z" stroke="#231F20" stroke-width="0.76458" stroke-linecap="round" stroke-linejoin="round" stroke-dasharray="0.27 0.27"/>
<path d="M233.719 224.231C233.719 224.701 233.343 225.123 232.826 225.123C232.31 225.123 231.934 224.701 231.934 224.231C231.934 223.714 232.31 223.338 232.826 223.338C233.343 223.338 233.719 223.714 233.719 224.231Z" fill="#FEFEFE" stroke="#231F20" stroke-width="0.76458" stroke-linecap="round" stroke-linejoin="round"/>
<path d="M232.826 224.277C232.826 224.277 229.678 218.075 232.498 217.605C233.813 217.323 234.612 218.169 233.719 221.552" stroke="#231F20" stroke-width="0.76458" stroke-linecap="round" stroke-linejoin="round"/>
<path fill-rule="evenodd" clip-rule="evenodd" d="M229.161 233.3V228.037H230.336C230.649 228.037 230.931 228.115 231.182 228.272C231.401 228.429 231.558 228.648 231.652 228.93C231.714 229.087 231.746 229.274 231.746 229.494C231.746 229.838 231.652 230.12 231.464 230.34C231.37 230.434 231.276 230.512 231.182 230.575C231.339 230.637 231.479 230.762 231.605 230.95C231.699 231.076 231.761 231.248 231.793 231.467C231.824 231.593 231.84 231.718 231.84 231.843C231.84 232.188 231.777 232.47 231.652 232.689C231.558 232.877 231.417 233.018 231.229 233.112C231.041 233.237 230.837 233.3 230.618 233.3H229.161ZM230.007 230.199H230.383C230.602 230.199 230.759 230.073 230.853 229.823C230.884 229.729 230.9 229.619 230.9 229.494C230.9 229.274 230.853 229.118 230.759 229.024C230.665 228.899 230.54 228.836 230.383 228.836H230.007V230.199ZM230.007 232.548H230.383C230.634 232.548 230.806 232.407 230.9 232.125C230.963 232.031 230.994 231.922 230.994 231.796C230.994 231.514 230.931 231.295 230.806 231.138C230.712 231.044 230.571 230.997 230.383 230.997H230.007V232.548Z" fill="#231F20"/>
<path d="M233.296 233.3H232.545V228.037H233.296V233.3Z" fill="#231F20"/>
<path d="M235.27 233.394C234.925 233.394 234.628 233.269 234.377 233.018C234.127 232.767 234.001 232.47 234.001 232.125V229.259C234.001 228.914 234.127 228.617 234.377 228.366C234.628 228.116 234.925 227.99 235.27 227.99C235.615 227.99 235.912 228.116 236.163 228.366C236.413 228.617 236.539 228.914 236.539 229.259V229.87H235.693V229.212C235.693 229.087 235.646 228.993 235.552 228.93C235.489 228.836 235.395 228.789 235.27 228.789C235.145 228.789 235.035 228.836 234.941 228.93C234.847 228.993 234.8 229.087 234.8 229.212V232.125C234.8 232.251 234.847 232.36 234.941 232.454C235.035 232.517 235.145 232.548 235.27 232.548C235.395 232.548 235.489 232.517 235.552 232.454C235.646 232.36 235.693 232.251 235.693 232.125V231.091H235.27V230.293H236.539V232.125C236.539 232.47 236.413 232.767 236.163 233.018C235.912 233.269 235.615 233.394 235.27 233.394Z" fill="#231F20"/>
<path d="M229.631 240.254V241.146C229.694 241.052 229.788 240.974 229.913 240.911C229.976 240.911 230.038 240.911 230.101 240.911C230.383 240.911 230.587 241.005 230.712 241.193C230.837 241.35 230.9 241.585 230.9 241.898V242.791C230.9 243.104 230.806 243.355 230.618 243.543C230.43 243.731 230.195 243.825 229.913 243.825C229.631 243.825 229.396 243.731 229.208 243.543C229.02 243.355 228.926 243.12 228.926 242.838V242.744L229.537 242.697L229.584 242.838C229.584 242.995 229.647 243.104 229.772 243.167C229.804 243.198 229.835 243.214 229.866 243.214C230.117 243.214 230.242 243.073 230.242 242.791V241.757C230.242 241.632 230.211 241.538 230.148 241.475C230.085 241.444 230.023 241.428 229.96 241.428C229.835 241.428 229.757 241.46 229.725 241.522C229.663 241.616 229.631 241.695 229.631 241.757V241.898H229.02V239.596H230.853V240.254H229.631Z" fill="#231F20"/>
<path fill-rule="evenodd" clip-rule="evenodd" d="M233.437 242.838C233.437 243.12 233.328 243.355 233.108 243.543C232.92 243.731 232.685 243.825 232.404 243.825C232.153 243.825 231.918 243.731 231.699 243.543C231.511 243.355 231.417 243.12 231.417 242.838V240.583C231.417 240.301 231.511 240.066 231.699 239.878C231.918 239.658 232.153 239.549 232.404 239.549C232.685 239.549 232.92 239.658 233.108 239.878C233.328 240.066 233.437 240.301 233.437 240.583V242.838ZM232.779 240.536C232.779 240.442 232.732 240.348 232.638 240.254C232.576 240.191 232.498 240.16 232.404 240.16C232.31 240.16 232.231 240.191 232.169 240.254C232.075 240.348 232.028 240.442 232.028 240.536V242.791C232.028 242.916 232.075 243.01 232.169 243.073C232.231 243.136 232.31 243.167 232.404 243.167C232.498 243.167 232.576 243.136 232.638 243.073C232.732 243.01 232.779 242.916 232.779 242.791V240.536Z" fill="#231F20"/>
<path fill-rule="evenodd" clip-rule="evenodd" d="M234.894 241.147C234.894 241.303 234.847 241.429 234.753 241.523C234.628 241.617 234.502 241.664 234.377 241.664C234.22 241.664 234.095 241.617 234.001 241.523C233.907 241.429 233.86 241.303 233.86 241.147V239.972C233.86 239.815 233.907 239.69 234.001 239.596C234.095 239.502 234.22 239.455 234.377 239.455C234.502 239.455 234.628 239.502 234.753 239.596C234.847 239.69 234.894 239.815 234.894 239.972V241.147ZM234.424 243.825H234.048L236.163 239.455H236.539L234.424 243.825ZM234.189 241.1C234.189 241.131 234.205 241.178 234.236 241.241C234.267 241.272 234.314 241.288 234.377 241.288C234.44 241.288 234.487 241.272 234.518 241.241C234.549 241.178 234.565 241.131 234.565 241.1V239.878C234.565 239.847 234.549 239.815 234.518 239.784C234.487 239.721 234.44 239.69 234.377 239.69C234.314 239.69 234.267 239.721 234.236 239.784C234.205 239.815 234.189 239.847 234.189 239.878V241.1ZM236.257 241.57C236.382 241.57 236.492 241.617 236.586 241.711C236.711 241.805 236.774 241.93 236.774 242.086V243.261C236.774 243.418 236.711 243.543 236.586 243.637C236.492 243.731 236.382 243.778 236.257 243.778C236.1 243.778 235.975 243.731 235.881 243.637C235.755 243.543 235.693 243.418 235.693 243.261V242.086C235.693 241.93 235.755 241.805 235.881 241.711C235.975 241.617 236.1 241.57 236.257 241.57ZM236.398 242.086C236.398 242.024 236.382 241.977 236.351 241.945C236.319 241.914 236.272 241.898 236.21 241.898C236.178 241.898 236.131 241.914 236.069 241.945C236.037 241.977 236.022 242.024 236.022 242.086V243.261C236.022 243.324 236.037 243.371 236.069 243.402C236.131 243.433 236.178 243.449 236.21 243.449C236.272 243.449 236.319 243.433 236.351 243.402C236.382 243.371 236.398 243.324 236.398 243.261V242.086Z" fill="#231F20"/>
<path d="M230.712 237.34C230.712 237.591 230.649 237.795 230.524 237.951C230.461 238.077 230.352 238.155 230.195 238.186C230.101 238.217 230.007 238.233 229.913 238.233C229.694 238.233 229.522 238.186 229.396 238.092C229.271 237.998 229.177 237.889 229.114 237.763C229.052 237.607 229.02 237.434 229.02 237.246H229.49C229.522 237.434 229.584 237.575 229.678 237.669C229.741 237.732 229.804 237.763 229.866 237.763C229.991 237.763 230.085 237.701 230.148 237.575C230.179 237.544 230.195 237.481 230.195 237.387C230.195 237.231 230.132 237.074 230.007 236.917C229.913 236.823 229.757 236.683 229.537 236.495C229.381 236.338 229.255 236.181 229.161 236.025C229.099 235.899 229.067 235.743 229.067 235.555C229.067 235.242 229.177 235.007 229.396 234.85C229.522 234.756 229.678 234.709 229.866 234.709C230.054 234.709 230.211 234.74 230.336 234.803C230.43 234.866 230.508 234.96 230.571 235.085C230.634 235.21 230.681 235.351 230.712 235.508L230.195 235.602C230.195 235.445 230.164 235.336 230.101 235.273C230.038 235.21 229.96 235.179 229.866 235.179C229.772 235.179 229.71 235.21 229.678 235.273C229.616 235.367 229.584 235.461 229.584 235.555C229.584 235.711 229.663 235.868 229.819 236.025C229.851 236.087 229.929 236.166 230.054 236.26C230.148 236.354 230.226 236.416 230.289 236.448C230.414 236.573 230.508 236.698 230.571 236.823C230.602 236.886 230.634 236.949 230.665 237.011C230.696 237.137 230.712 237.246 230.712 237.34Z" fill="#231F20"/>
<path fill-rule="evenodd" clip-rule="evenodd" d="M231.699 237.387L231.558 238.186H231.041L231.605 234.756H232.357L232.92 238.186H232.357L232.263 237.387H231.699ZM231.934 235.555L231.746 236.917H232.169L231.934 235.555Z" fill="#231F20"/>
<path d="M234.8 238.186H233.343V234.756H233.86V237.669H234.8V238.186Z" fill="#231F20"/>
<path d="M235.129 238.186V234.756H236.633V235.273H235.646V236.213H236.351V236.729H235.646V237.669H236.633V238.186H235.129Z" fill="#231F20"/>
<path d="M236.727 238.797H228.833V238.609H236.727V238.797Z" fill="#231F20"/>
<path d="M236.868 234.287H228.973V234.052H236.868V234.287Z" fill="#231F20"/>
</g>
<defs>
<clipPath id="clip0_1_269">
<rect width="343" height="302" fill="white"/>
</clipPath>
</defs>
</svg>
