<svg width="77" height="21" viewBox="0 0 77 21" fill="none" xmlns="http://www.w3.org/2000/svg">
<rect width="77" height="21" rx="5" fill="url(#paint0_linear_1229_752)" fill-opacity="0.2"/>
<path d="M13.84 13.635L13.835 14.5H9.385V7.32H13.835V8.185H10.455V10.46H13.175V11.295H10.455V13.635H13.84ZM19.2165 14.5H18.2765C18.1998 14.5 18.1382 14.48 18.0915 14.44C18.0482 14.3967 18.0132 14.3517 17.9865 14.305L16.7615 12.37C16.7448 12.42 16.7282 12.4683 16.7115 12.515C16.6948 12.5617 16.6732 12.605 16.6465 12.645L15.5215 14.305C15.4882 14.3517 15.4498 14.3967 15.4065 14.44C15.3632 14.48 15.3065 14.5 15.2365 14.5H14.3665L16.1365 11.885L14.4365 9.42H15.3765C15.4532 9.42 15.5082 9.43167 15.5415 9.455C15.5782 9.47833 15.6098 9.51333 15.6365 9.56L16.8415 11.415C16.8582 11.365 16.8765 11.3167 16.8965 11.27C16.9165 11.22 16.9432 11.1683 16.9765 11.115L18.0115 9.58C18.0715 9.47333 18.1515 9.42 18.2515 9.42H19.1465L17.4465 11.84L19.2165 14.5ZM21.5855 14.58C21.1755 14.58 20.8589 14.465 20.6355 14.235C20.4155 14.005 20.3055 13.6767 20.3055 13.25V10.21H19.7155C19.6589 10.21 19.6105 10.1933 19.5705 10.16C19.5339 10.1233 19.5155 10.07 19.5155 10V9.605L20.3405 9.49L20.5605 7.975C20.5739 7.91833 20.5989 7.875 20.6355 7.845C20.6755 7.81167 20.7255 7.795 20.7855 7.795H21.2805V9.5H22.7205V10.21H21.2805V13.185C21.2805 13.385 21.3289 13.535 21.4255 13.635C21.5255 13.7317 21.6522 13.78 21.8055 13.78C21.8955 13.78 21.9722 13.7683 22.0355 13.745C22.1022 13.7217 22.1589 13.6967 22.2055 13.67C22.2522 13.64 22.2922 13.6133 22.3255 13.59C22.3589 13.5667 22.3889 13.555 22.4155 13.555C22.4489 13.555 22.4739 13.5633 22.4905 13.58C22.5105 13.5933 22.5305 13.6167 22.5505 13.65L22.8405 14.12C22.6805 14.2667 22.4905 14.38 22.2705 14.46C22.0505 14.54 21.8222 14.58 21.5855 14.58ZM24.5386 10.395C24.7019 10.0617 24.8986 9.8 25.1286 9.61C25.3586 9.42 25.6353 9.325 25.9586 9.325C26.0686 9.325 26.1719 9.33833 26.2686 9.365C26.3686 9.38833 26.4553 9.425 26.5286 9.475L26.4636 10.21C26.4403 10.3 26.3853 10.345 26.2986 10.345C26.2519 10.345 26.1819 10.3367 26.0886 10.32C25.9953 10.3 25.8953 10.29 25.7886 10.29C25.6319 10.29 25.4936 10.3133 25.3736 10.36C25.2536 10.4033 25.1453 10.47 25.0486 10.56C24.9553 10.6467 24.8719 10.755 24.7986 10.885C24.7253 11.0117 24.6569 11.1567 24.5936 11.32V14.5H23.6186V9.42H24.1786C24.2853 9.42 24.3569 9.44 24.3936 9.48C24.4336 9.51667 24.4619 9.58333 24.4786 9.68L24.5386 10.395ZM29.9326 12.245C29.5359 12.2583 29.1992 12.29 28.9226 12.34C28.6459 12.3867 28.4209 12.45 28.2476 12.53C28.0742 12.61 27.9492 12.705 27.8726 12.815C27.7959 12.9217 27.7576 13.0417 27.7576 13.175C27.7576 13.3017 27.7776 13.4117 27.8176 13.505C27.8609 13.595 27.9176 13.67 27.9876 13.73C28.0609 13.7867 28.1459 13.8283 28.2426 13.855C28.3392 13.8817 28.4442 13.895 28.5576 13.895C28.7076 13.895 28.8442 13.88 28.9676 13.85C29.0942 13.82 29.2126 13.7783 29.3226 13.725C29.4326 13.6683 29.5376 13.6 29.6376 13.52C29.7376 13.44 29.8359 13.3483 29.9326 13.245V12.245ZM27.0726 10.13C27.3559 9.86 27.6626 9.65833 27.9926 9.525C28.3259 9.39167 28.6909 9.325 29.0876 9.325C29.3776 9.325 29.6342 9.37333 29.8576 9.47C30.0809 9.56333 30.2692 9.695 30.4226 9.865C30.5759 10.035 30.6909 10.2383 30.7676 10.475C30.8476 10.7117 30.8876 10.9733 30.8876 11.26V14.5H30.4526C30.3559 14.5 30.2826 14.485 30.2326 14.455C30.1826 14.4217 30.1426 14.3617 30.1126 14.275L30.0076 13.83C29.8776 13.95 29.7492 14.0567 29.6226 14.15C29.4959 14.24 29.3626 14.3183 29.2226 14.385C29.0859 14.4483 28.9392 14.4967 28.7826 14.53C28.6259 14.5633 28.4526 14.58 28.2626 14.58C28.0626 14.58 27.8742 14.5533 27.6976 14.5C27.5242 14.4433 27.3726 14.3583 27.2426 14.245C27.1126 14.1317 27.0092 13.99 26.9326 13.82C26.8592 13.65 26.8226 13.4517 26.8226 13.225C26.8226 13.025 26.8759 12.8333 26.9826 12.65C27.0926 12.4633 27.2692 12.2967 27.5126 12.15C27.7592 12.0033 28.0792 11.8833 28.4726 11.79C28.8692 11.6967 29.3559 11.6433 29.9326 11.63V11.26C29.9326 10.8767 29.8509 10.59 29.6876 10.4C29.5242 10.21 29.2842 10.115 28.9676 10.115C28.7542 10.115 28.5742 10.1417 28.4276 10.195C28.2842 10.2483 28.1592 10.3083 28.0526 10.375C27.9492 10.4383 27.8576 10.4967 27.7776 10.55C27.7009 10.6033 27.6209 10.63 27.5376 10.63C27.4709 10.63 27.4126 10.6117 27.3626 10.575C27.3159 10.5383 27.2776 10.495 27.2476 10.445L27.0726 10.13ZM39.1471 13.755V14.5H35.2671V13.755H36.7871V9.05C36.7871 8.9 36.7921 8.745 36.8021 8.585L35.5821 9.62C35.5354 9.65667 35.4888 9.68 35.4421 9.69C35.3954 9.7 35.3504 9.70167 35.3071 9.695C35.2671 9.68833 35.2304 9.675 35.1971 9.655C35.1671 9.63167 35.1421 9.60833 35.1221 9.585L34.8171 9.16L36.9671 7.305H37.7621V13.755H39.1471ZM45.3479 10.91C45.3479 11.5367 45.2796 12.08 45.1429 12.54C45.0096 13 44.8246 13.3817 44.5879 13.685C44.3546 13.985 44.0779 14.2083 43.7579 14.355C43.4412 14.5017 43.0996 14.575 42.7329 14.575C42.3662 14.575 42.0229 14.5017 41.7029 14.355C41.3862 14.2083 41.1112 13.985 40.8779 13.685C40.6446 13.3817 40.4612 13 40.3279 12.54C40.1946 12.08 40.1279 11.5367 40.1279 10.91C40.1279 10.2833 40.1946 9.74 40.3279 9.28C40.4612 8.81667 40.6446 8.435 40.8779 8.135C41.1112 7.83167 41.3862 7.60667 41.7029 7.46C42.0229 7.31333 42.3662 7.24 42.7329 7.24C43.0996 7.24 43.4412 7.31333 43.7579 7.46C44.0779 7.60667 44.3546 7.83167 44.5879 8.135C44.8246 8.435 45.0096 8.81667 45.1429 9.28C45.2796 9.74 45.3479 10.2833 45.3479 10.91ZM44.3379 10.91C44.3379 10.37 44.2929 9.91833 44.2029 9.555C44.1162 9.19167 43.9979 8.9 43.8479 8.68C43.7012 8.45667 43.5312 8.29833 43.3379 8.205C43.1446 8.11167 42.9429 8.065 42.7329 8.065C42.5229 8.065 42.3212 8.11167 42.1279 8.205C41.9346 8.29833 41.7629 8.45667 41.6129 8.68C41.4662 8.9 41.3496 9.19167 41.2629 9.555C41.1762 9.91833 41.1329 10.37 41.1329 10.91C41.1329 11.45 41.1762 11.9017 41.2629 12.265C41.3496 12.6283 41.4662 12.92 41.6129 13.14C41.7629 13.36 41.9346 13.5167 42.1279 13.61C42.3212 13.7033 42.5229 13.75 42.7329 13.75C42.9429 13.75 43.1446 13.7033 43.3379 13.61C43.5312 13.5167 43.7012 13.36 43.8479 13.14C43.9979 12.92 44.1162 12.6283 44.2029 12.265C44.2929 11.9017 44.3379 11.45 44.3379 10.91ZM49.2787 9.055C49.2787 9.335 49.2337 9.585 49.1437 9.805C49.057 10.025 48.9403 10.2117 48.7937 10.365C48.647 10.515 48.4753 10.6317 48.2787 10.715C48.0853 10.795 47.882 10.835 47.6687 10.835C47.4387 10.835 47.2253 10.795 47.0287 10.715C46.8353 10.6317 46.667 10.515 46.5237 10.365C46.3803 10.2117 46.267 10.025 46.1837 9.805C46.1037 9.585 46.0637 9.335 46.0637 9.055C46.0637 8.76833 46.1037 8.51333 46.1837 8.29C46.267 8.06667 46.3803 7.87833 46.5237 7.725C46.667 7.56833 46.8353 7.45 47.0287 7.37C47.2253 7.28667 47.4387 7.245 47.6687 7.245C47.8987 7.245 48.1103 7.28667 48.3037 7.37C48.5003 7.45 48.6703 7.56833 48.8137 7.725C48.9603 7.87833 49.0737 8.06667 49.1537 8.29C49.237 8.51333 49.2787 8.76833 49.2787 9.055ZM48.5187 9.055C48.5187 8.84167 48.4953 8.66167 48.4487 8.515C48.4053 8.365 48.3453 8.245 48.2687 8.155C48.192 8.06167 48.102 7.995 47.9987 7.955C47.8953 7.91167 47.7853 7.89 47.6687 7.89C47.552 7.89 47.442 7.91167 47.3387 7.955C47.2353 7.995 47.1453 8.06167 47.0687 8.155C46.9953 8.245 46.937 8.365 46.8937 8.515C46.8503 8.66167 46.8287 8.84167 46.8287 9.055C46.8287 9.26167 46.8503 9.43833 46.8937 9.585C46.937 9.72833 46.9953 9.845 47.0687 9.935C47.1453 10.025 47.2353 10.09 47.3387 10.13C47.442 10.17 47.552 10.19 47.6687 10.19C47.7853 10.19 47.8953 10.17 47.9987 10.13C48.102 10.09 48.192 10.025 48.2687 9.935C48.3453 9.845 48.4053 9.72833 48.4487 9.585C48.4953 9.43833 48.5187 9.26167 48.5187 9.055ZM51.7787 7.48C51.8153 7.43667 51.857 7.4 51.9037 7.37C51.9537 7.33667 52.022 7.32 52.1087 7.32H52.8137L47.5437 14.345C47.507 14.3917 47.4637 14.43 47.4137 14.46C47.3637 14.4867 47.3037 14.5 47.2337 14.5H46.5087L51.7787 7.48ZM53.2737 12.805C53.2737 13.085 53.2287 13.335 53.1387 13.555C53.052 13.775 52.9353 13.9617 52.7887 14.115C52.642 14.265 52.4703 14.3817 52.2737 14.465C52.0803 14.545 51.877 14.585 51.6637 14.585C51.4337 14.585 51.2203 14.545 51.0237 14.465C50.8303 14.3817 50.662 14.265 50.5187 14.115C50.3753 13.9617 50.262 13.775 50.1787 13.555C50.0987 13.335 50.0587 13.085 50.0587 12.805C50.0587 12.5183 50.0987 12.2633 50.1787 12.04C50.262 11.8167 50.3753 11.6283 50.5187 11.475C50.662 11.3183 50.8303 11.2 51.0237 11.12C51.2203 11.04 51.4337 11 51.6637 11C51.8937 11 52.1053 11.04 52.2987 11.12C52.4953 11.2 52.6653 11.3183 52.8087 11.475C52.9553 11.6283 53.0687 11.8167 53.1487 12.04C53.232 12.2633 53.2737 12.5183 53.2737 12.805ZM52.5137 12.805C52.5137 12.5917 52.4903 12.4117 52.4437 12.265C52.4003 12.1183 52.3403 12 52.2637 11.91C52.187 11.8167 52.097 11.75 51.9937 11.71C51.8903 11.6667 51.7803 11.645 51.6637 11.645C51.5437 11.645 51.432 11.6667 51.3287 11.71C51.2287 11.75 51.1403 11.8167 51.0637 11.91C50.9903 12 50.932 12.1183 50.8887 12.265C50.8453 12.4117 50.8237 12.5917 50.8237 12.805C50.8237 13.015 50.8453 13.1917 50.8887 13.335C50.932 13.4783 50.9903 13.595 51.0637 13.685C51.1403 13.775 51.2287 13.84 51.3287 13.88C51.432 13.92 51.5437 13.94 51.6637 13.94C51.7803 13.94 51.8903 13.92 51.9937 13.88C52.097 13.84 52.187 13.775 52.2637 13.685C52.3403 13.595 52.4003 13.4783 52.4437 13.335C52.4903 13.1917 52.5137 13.015 52.5137 12.805ZM59.0746 9.34C59.4479 9.34 59.7846 9.40167 60.0846 9.525C60.3879 9.645 60.6446 9.82 60.8546 10.05C61.0679 10.2767 61.2313 10.5517 61.3446 10.875C61.4579 11.195 61.5146 11.555 61.5146 11.955C61.5146 12.355 61.4579 12.7167 61.3446 13.04C61.2313 13.3633 61.0679 13.6383 60.8546 13.865C60.6446 14.0917 60.3879 14.2667 60.0846 14.39C59.7846 14.51 59.4479 14.57 59.0746 14.57C58.6979 14.57 58.3579 14.51 58.0546 14.39C57.7546 14.2667 57.4979 14.0917 57.2846 13.865C57.0713 13.6383 56.9063 13.3633 56.7896 13.04C56.6763 12.7167 56.6196 12.355 56.6196 11.955C56.6196 11.555 56.6763 11.195 56.7896 10.875C56.9063 10.5517 57.0713 10.2767 57.2846 10.05C57.4979 9.82 57.7546 9.645 58.0546 9.525C58.3579 9.40167 58.6979 9.34 59.0746 9.34ZM59.0746 13.81C59.5546 13.81 59.9129 13.6483 60.1496 13.325C60.3863 13.0017 60.5046 12.5467 60.5046 11.96C60.5046 11.3733 60.3863 10.9183 60.1496 10.595C59.9129 10.2683 59.5546 10.105 59.0746 10.105C58.5879 10.105 58.2246 10.2683 57.9846 10.595C57.7479 10.9183 57.6296 11.3733 57.6296 11.96C57.6296 12.5467 57.7479 13.0017 57.9846 13.325C58.2246 13.6483 58.5879 13.81 59.0746 13.81ZM62.8208 14.5V10.22L62.2908 10.155C62.2141 10.1383 62.1508 10.1117 62.1008 10.075C62.0541 10.035 62.0308 9.97833 62.0308 9.905V9.5H62.8208V9.12C62.8208 8.83 62.8624 8.57167 62.9458 8.345C63.0291 8.11833 63.1474 7.92667 63.3008 7.77C63.4574 7.61 63.6441 7.49 63.8608 7.41C64.0808 7.32667 64.3274 7.285 64.6008 7.285C64.8308 7.285 65.0424 7.31833 65.2358 7.385L65.2158 7.88C65.2124 7.92 65.1991 7.95167 65.1758 7.975C65.1524 7.995 65.1208 8.01 65.0808 8.02C65.0441 8.03 64.9974 8.03667 64.9408 8.04C64.8874 8.04 64.8291 8.04 64.7658 8.04C64.6158 8.04 64.4791 8.05833 64.3558 8.095C64.2324 8.13167 64.1274 8.19333 64.0408 8.28C63.9541 8.36667 63.8874 8.48167 63.8408 8.625C63.7941 8.765 63.7708 8.94 63.7708 9.15V9.5H65.9908V8.98C65.9908 8.69 66.0324 8.43167 66.1158 8.205C66.1991 7.97833 66.3174 7.78667 66.4708 7.63C66.6274 7.47 66.8158 7.35 67.0358 7.27C67.2558 7.18667 67.5024 7.145 67.7758 7.145C67.9991 7.145 68.2108 7.17833 68.4108 7.245L68.3858 7.735C68.3824 7.77833 68.3691 7.81167 68.3458 7.835C68.3258 7.855 68.2958 7.87 68.2558 7.88C68.2158 7.89 68.1691 7.89667 68.1158 7.9C68.0624 7.9 68.0024 7.9 67.9358 7.9C67.7858 7.9 67.6491 7.91833 67.5258 7.955C67.4024 7.99167 67.2974 8.05333 67.2108 8.14C67.1241 8.22667 67.0574 8.34167 67.0108 8.485C66.9641 8.625 66.9408 8.8 66.9408 9.01V9.5H68.3658V10.21H66.9708V14.5H65.9908V10.21H63.8008V14.5H62.8208Z" fill="url(#paint1_linear_1229_752)"/>
<defs>
<linearGradient id="paint0_linear_1229_752" x1="0" y1="10.5" x2="77" y2="10.5" gradientUnits="userSpaceOnUse">
<stop stop-color="#FF5858"/>
<stop offset="1" stop-color="#F09819"/>
</linearGradient>
<linearGradient id="paint1_linear_1229_752" x1="8.5" y1="10.5" x2="68.5" y2="10.5" gradientUnits="userSpaceOnUse">
<stop stop-color="#FF5858"/>
<stop offset="1" stop-color="#F09819"/>
</linearGradient>
</defs>
</svg>
