<svg width="85" height="20" viewBox="0 0 85 20" fill="none" xmlns="http://www.w3.org/2000/svg">
<path d="M81.8012 5.82556e-09C82.6046 -5.32772e-05 83.3778 0.365406 83.9623 1.0216C84.5469 1.6778 84.8988 2.57513 84.9459 3.53L84.9512 3.75V6.02125C84.9488 6.35886 84.8724 6.68986 84.7294 6.98147C84.5865 7.27308 84.3821 7.51517 84.1364 7.68375L84.024 7.75625C83.6843 7.95475 83.396 8.25884 83.1895 8.63637C82.983 9.0139 82.866 9.45084 82.851 9.90099C82.8359 10.3511 82.9233 10.7978 83.1039 11.1937C83.2845 11.5895 83.5516 11.92 83.877 12.15L84.024 12.2438C84.4787 12.5113 84.885 13.0638 84.9438 13.7938L84.9512 13.9788V16.25C84.9512 17.2065 84.6442 18.1269 84.093 18.8228C83.5418 19.5188 82.7881 19.9376 81.986 19.9938L81.8012 20H4.10117C3.2977 20.0001 2.52458 19.6346 1.94 18.9784C1.35541 18.3222 1.00356 17.4249 0.956422 16.47L0.951172 16.25V13.9788C0.951172 13.2212 1.32077 12.6312 1.76597 12.3162L1.87832 12.2438C2.21803 12.0452 2.50637 11.7412 2.71285 11.3636C2.91934 10.9861 3.0363 10.5492 3.05136 10.099C3.06642 9.64886 2.97902 9.20224 2.79841 8.80635C2.6178 8.41047 2.35069 8.08004 2.02532 7.85L1.87832 7.75625C1.42367 7.48875 1.01732 6.93625 0.958522 6.20625L0.951172 6.0225V3.75C0.951127 2.79349 1.25811 1.87311 1.80932 1.17717C2.36053 0.481241 3.11428 0.0623656 3.91637 0.00625015L4.10117 5.82556e-09H81.8012Z" fill="#4AB96A"/>
<path d="M17.4168 9.608C17.4168 10.2587 17.3111 10.8585 17.0996 11.4075C16.8881 11.9565 16.5892 12.4303 16.2029 12.8288C15.8206 13.2233 15.3591 13.5323 14.8182 13.756C14.2814 13.9797 13.6836 14.0915 13.0248 14.0915C12.3701 14.0915 11.7723 13.9797 11.2314 13.756C10.6946 13.5323 10.233 13.2233 9.84671 12.8288C9.46038 12.4303 9.16148 11.9565 8.95001 11.4075C8.73854 10.8585 8.63281 10.2587 8.63281 9.608C8.63281 8.95733 8.73854 8.3575 8.95001 7.8085C9.16148 7.2595 9.46038 6.78573 9.84671 6.3872C10.233 5.98867 10.6946 5.67757 11.2314 5.4539C11.7723 5.23023 12.3701 5.1184 13.0248 5.1184C13.6836 5.1184 14.2814 5.23023 14.8182 5.4539C15.3591 5.67757 15.8206 5.98867 16.2029 6.3872C16.5892 6.78573 16.8881 7.2595 17.0996 7.8085C17.3111 8.3575 17.4168 8.95733 17.4168 9.608ZM15.9589 9.608C15.9589 9.10373 15.8898 8.6503 15.7515 8.2477C15.6173 7.8451 15.4221 7.5035 15.1659 7.2229C14.9138 6.9423 14.6067 6.72677 14.2448 6.5763C13.8829 6.42583 13.4762 6.3506 13.0248 6.3506C12.5775 6.3506 12.1728 6.42583 11.8109 6.5763C11.449 6.72677 11.1399 6.9423 10.8837 7.2229C10.6275 7.5035 10.4303 7.8451 10.292 8.2477C10.1537 8.6503 10.0846 9.10373 10.0846 9.608C10.0846 10.1163 10.1537 10.5718 10.292 10.9744C10.4303 11.377 10.6275 11.7186 10.8837 11.9992C11.1399 12.2757 11.449 12.4892 11.8109 12.6397C12.1728 12.7861 12.5775 12.8593 13.0248 12.8593C13.4762 12.8593 13.8829 12.7861 14.2448 12.6397C14.6067 12.4892 14.9138 12.2757 15.1659 11.9992C15.4221 11.7186 15.6173 11.377 15.7515 10.9744C15.8898 10.5718 15.9589 10.1163 15.9589 9.608ZM19.098 14V8.8211L18.488 8.7357C18.3864 8.71537 18.303 8.67877 18.2379 8.6259C18.1769 8.57303 18.1464 8.4978 18.1464 8.4002V7.8634H19.098V7.4425C19.098 7.08463 19.1489 6.7654 19.2505 6.4848C19.3563 6.2042 19.5047 5.9663 19.6958 5.7711C19.891 5.5759 20.1269 5.42747 20.4034 5.3258C20.68 5.22413 20.9911 5.1733 21.3367 5.1733C21.4791 5.1733 21.6133 5.18347 21.7393 5.2038C21.8695 5.22413 21.9955 5.2526 22.1175 5.2892L22.0931 5.9541C22.085 6.05983 22.0301 6.1249 21.9284 6.1493C21.8308 6.16963 21.7068 6.1798 21.5563 6.1798C21.3733 6.1798 21.2086 6.20217 21.0622 6.2469C20.9158 6.28757 20.7898 6.35873 20.684 6.4604C20.5824 6.56207 20.5031 6.69627 20.4461 6.863C20.3933 7.02973 20.3668 7.2351 20.3668 7.4791V7.8634H23.002V7.2595C23.002 6.90163 23.0529 6.5824 23.1545 6.3018C23.2603 6.0212 23.4087 5.7833 23.5998 5.5881C23.795 5.3929 24.0309 5.24447 24.3074 5.1428C24.584 5.04113 24.893 4.9903 25.2346 4.9903C25.377 4.9903 25.5132 5.00047 25.6433 5.0208C25.7735 5.04113 25.8995 5.0696 26.0215 5.1062L25.991 5.7711C25.9829 5.87683 25.928 5.9419 25.8263 5.9663C25.7287 5.98663 25.6047 5.9968 25.4542 5.9968C25.2712 5.9968 25.1065 6.01917 24.9601 6.0639C24.8137 6.10457 24.6877 6.17573 24.5819 6.2774C24.4803 6.37907 24.401 6.51327 24.344 6.68C24.2912 6.84673 24.2647 7.0521 24.2647 7.2961V7.8634H25.9666V8.8089H24.3074V14H23.002V8.8089H20.4095V14H19.098ZM30.8119 10.1875C30.8119 9.9679 30.7794 9.76457 30.7143 9.5775C30.6533 9.38637 30.5618 9.22167 30.4398 9.0834C30.3178 8.94107 30.1653 8.83127 29.9823 8.754C29.8034 8.67267 29.596 8.632 29.3601 8.632C28.8843 8.632 28.5102 8.76823 28.2377 9.0407C27.9653 9.31317 27.7924 9.69543 27.7192 10.1875H30.8119ZM27.6826 10.9927C27.6989 11.3465 27.7538 11.6535 27.8473 11.9138C27.9409 12.17 28.0649 12.3835 28.2194 12.5543C28.378 12.7251 28.5651 12.8532 28.7806 12.9386C29.0002 13.0199 29.2442 13.0606 29.5126 13.0606C29.7688 13.0606 29.9905 13.0321 30.1775 12.9752C30.3646 12.9142 30.5273 12.8491 30.6655 12.78C30.8038 12.7068 30.9217 12.6417 31.0193 12.5848C31.1169 12.5238 31.2064 12.4933 31.2877 12.4933C31.3935 12.4933 31.4748 12.534 31.5317 12.6153L31.9038 13.0972C31.7493 13.2802 31.5744 13.4347 31.3792 13.5608C31.184 13.6869 30.9766 13.7906 30.757 13.8719C30.5374 13.9492 30.3117 14.0041 30.0799 14.0366C29.8481 14.0732 29.6224 14.0915 29.4028 14.0915C28.9718 14.0915 28.5712 14.0203 28.2011 13.878C27.8351 13.7316 27.5159 13.5181 27.2434 13.2375C26.975 12.9569 26.7636 12.6092 26.609 12.1944C26.4586 11.7796 26.3833 11.3018 26.3833 10.7609C26.3833 10.3298 26.4504 9.92723 26.5846 9.5531C26.7229 9.17897 26.9181 8.85363 27.1702 8.5771C27.4264 8.30057 27.7355 8.083 28.0974 7.9244C28.4634 7.76173 28.8762 7.6804 29.3357 7.6804C29.718 7.6804 30.0718 7.74343 30.3971 7.8695C30.7225 7.9915 31.0031 8.17247 31.2389 8.4124C31.4748 8.65233 31.6578 8.94717 31.7879 9.2969C31.9221 9.64257 31.9892 10.037 31.9892 10.4803C31.9892 10.6836 31.9669 10.8199 31.9221 10.889C31.8774 10.9581 31.7961 10.9927 31.6781 10.9927H27.6826ZM34.4506 8.9309C34.6458 8.53643 34.8817 8.22737 35.1582 8.0037C35.4347 7.77597 35.7662 7.6621 36.1525 7.6621C36.2867 7.6621 36.4128 7.67837 36.5307 7.7109C36.6486 7.73937 36.7544 7.7841 36.8479 7.8451L36.7564 8.8333C36.7401 8.90243 36.7137 8.95123 36.6771 8.9797C36.6446 9.0041 36.5998 9.0163 36.5429 9.0163C36.4819 9.0163 36.3945 9.00613 36.2806 8.9858C36.1667 8.9614 36.0468 8.9492 35.9207 8.9492C35.7377 8.9492 35.575 8.97563 35.4327 9.0285C35.2944 9.08137 35.1684 9.15863 35.0545 9.2603C34.9447 9.36197 34.8471 9.486 34.7617 9.6324C34.6763 9.7788 34.597 9.94553 34.5238 10.1326V14H33.2123V7.778H33.9748C34.1131 7.778 34.2086 7.80443 34.2615 7.8573C34.3144 7.9061 34.351 7.99353 34.3713 8.1196L34.4506 8.9309ZM40.9127 14V8.8211L40.3027 8.7357C40.201 8.71537 40.1176 8.67877 40.0526 8.6259C39.9916 8.57303 39.9611 8.4978 39.9611 8.4002V7.8634H40.9127V7.3388C40.9127 6.985 40.9635 6.6678 41.0652 6.3872C41.1709 6.1066 41.3193 5.8687 41.5105 5.6735C41.7057 5.4783 41.9415 5.32987 42.2181 5.2282C42.4946 5.12247 42.8057 5.0696 43.1514 5.0696C43.2937 5.0696 43.4279 5.07977 43.554 5.1001C43.6841 5.12043 43.8102 5.15093 43.9322 5.1916L43.9078 5.8504C43.8996 5.9602 43.8447 6.02527 43.7431 6.0456C43.6455 6.06593 43.5214 6.0761 43.371 6.0761C43.188 6.0761 43.0233 6.09847 42.8769 6.1432C42.7305 6.18387 42.6044 6.25503 42.4987 6.3567C42.397 6.45837 42.3177 6.59257 42.2608 6.7593C42.2079 6.92603 42.1815 7.13343 42.1815 7.3815V7.8634H43.8834V8.8089H42.2242V14H40.9127ZM47.328 7.6804C47.7875 7.6804 48.2023 7.75563 48.5724 7.9061C48.9465 8.05657 49.2637 8.27007 49.524 8.5466C49.7883 8.82313 49.9916 9.15863 50.134 9.5531C50.2763 9.94757 50.3475 10.3908 50.3475 10.8829C50.3475 11.375 50.2763 11.8182 50.134 12.2127C49.9916 12.6072 49.7883 12.9447 49.524 13.2253C49.2637 13.5018 48.9465 13.7153 48.5724 13.8658C48.2023 14.0163 47.7875 14.0915 47.328 14.0915C46.8644 14.0915 46.4455 14.0163 46.0714 13.8658C45.7013 13.7153 45.3841 13.5018 45.1198 13.2253C44.8554 12.9447 44.6521 12.6072 44.5098 12.2127C44.3674 11.8182 44.2963 11.375 44.2963 10.8829C44.2963 10.3908 44.3674 9.94757 44.5098 9.5531C44.6521 9.15863 44.8554 8.82313 45.1198 8.5466C45.3841 8.27007 45.7013 8.05657 46.0714 7.9061C46.4455 7.75563 46.8644 7.6804 47.328 7.6804ZM47.328 13.0667C47.8892 13.0667 48.306 12.8796 48.5785 12.5055C48.855 12.1273 48.9933 11.5885 48.9933 10.889C48.9933 10.1895 48.855 9.6507 48.5785 9.2725C48.306 8.89023 47.8892 8.6991 47.328 8.6991C46.7586 8.6991 46.3357 8.89023 46.0592 9.2725C45.7826 9.6507 45.6444 10.1895 45.6444 10.889C45.6444 11.5885 45.7826 12.1273 46.0592 12.5055C46.3357 12.8796 46.7586 13.0667 47.328 13.0667ZM52.8459 8.9309C53.0411 8.53643 53.277 8.22737 53.5535 8.0037C53.83 7.77597 54.1615 7.6621 54.5478 7.6621C54.682 7.6621 54.8081 7.67837 54.926 7.7109C55.0439 7.73937 55.1497 7.7841 55.2432 7.8451L55.1517 8.8333C55.1354 8.90243 55.109 8.95123 55.0724 8.9797C55.0399 9.0041 54.9951 9.0163 54.9382 9.0163C54.8772 9.0163 54.7898 9.00613 54.6759 8.9858C54.562 8.9614 54.4421 8.9492 54.316 8.9492C54.133 8.9492 53.9703 8.97563 53.828 9.0285C53.6897 9.08137 53.5637 9.15863 53.4498 9.2603C53.34 9.36197 53.2424 9.486 53.157 9.6324C53.0716 9.7788 52.9923 9.94553 52.9191 10.1326V14H51.6076V7.778H52.3701C52.5084 7.778 52.6039 7.80443 52.6568 7.8573C52.7097 7.9061 52.7463 7.99353 52.7666 8.1196L52.8459 8.9309ZM64.0978 7.778L60.6696 15.769C60.6249 15.8625 60.57 15.9357 60.5049 15.9886C60.4439 16.0415 60.3484 16.0679 60.2182 16.0679H59.2483L60.3951 13.5791L57.8575 7.778H58.9982C59.108 7.778 59.1914 7.80443 59.2483 7.8573C59.3093 7.9061 59.3541 7.96507 59.3825 8.0342L60.8648 11.5661C60.9014 11.6678 60.934 11.7694 60.9624 11.8711C60.995 11.9687 61.0255 12.0704 61.0539 12.1761C61.0865 12.0704 61.119 11.9667 61.1515 11.865C61.1841 11.7633 61.2207 11.6617 61.2613 11.56L62.6826 8.0342C62.7111 7.961 62.7579 7.9 62.8229 7.8512C62.8921 7.8024 62.9673 7.778 63.0486 7.778H64.0978ZM67.4627 7.6804C67.9223 7.6804 68.3371 7.75563 68.7071 7.9061C69.0813 8.05657 69.3985 8.27007 69.6587 8.5466C69.9231 8.82313 70.1264 9.15863 70.2687 9.5531C70.4111 9.94757 70.4822 10.3908 70.4822 10.8829C70.4822 11.375 70.4111 11.8182 70.2687 12.2127C70.1264 12.6072 69.9231 12.9447 69.6587 13.2253C69.3985 13.5018 69.0813 13.7153 68.7071 13.8658C68.3371 14.0163 67.9223 14.0915 67.4627 14.0915C66.9991 14.0915 66.5803 14.0163 66.2061 13.8658C65.8361 13.7153 65.5189 13.5018 65.2545 13.2253C64.9902 12.9447 64.7869 12.6072 64.6445 12.2127C64.5022 11.8182 64.431 11.375 64.431 10.8829C64.431 10.3908 64.5022 9.94757 64.6445 9.5531C64.7869 9.15863 64.9902 8.82313 65.2545 8.5466C65.5189 8.27007 65.8361 8.05657 66.2061 7.9061C66.5803 7.75563 66.9991 7.6804 67.4627 7.6804ZM67.4627 13.0667C68.0239 13.0667 68.4408 12.8796 68.7132 12.5055C68.9898 12.1273 69.128 11.5885 69.128 10.889C69.128 10.1895 68.9898 9.6507 68.7132 9.2725C68.4408 8.89023 68.0239 8.6991 67.4627 8.6991C66.8934 8.6991 66.4705 8.89023 66.1939 9.2725C65.9174 9.6507 65.7791 10.1895 65.7791 10.889C65.7791 11.5885 65.9174 12.1273 66.1939 12.5055C66.4705 12.8796 66.8934 13.0667 67.4627 13.0667ZM76.9884 7.778V14H76.1954C76.0205 14 75.9087 13.9166 75.8599 13.7499L75.7623 13.1704C75.6321 13.3087 75.4939 13.4347 75.3475 13.5486C75.2051 13.6625 75.0526 13.7601 74.89 13.8414C74.7273 13.9227 74.5524 13.9858 74.3654 14.0305C74.1824 14.0752 73.9851 14.0976 73.7737 14.0976C73.4321 14.0976 73.1311 14.0407 72.8709 13.9268C72.6106 13.8129 72.391 13.6523 72.2121 13.4449C72.0372 13.2375 71.905 12.9894 71.8156 12.7007C71.7261 12.4079 71.6814 12.0866 71.6814 11.7369V7.778H72.9929V11.7369C72.9929 12.1558 73.0884 12.4811 73.2796 12.7129C73.4748 12.9447 73.7696 13.0606 74.1641 13.0606C74.4528 13.0606 74.7212 12.9955 74.9693 12.8654C75.2214 12.7312 75.4573 12.5482 75.6769 12.3164V7.778H76.9884Z" fill="white"/>
</svg>
