<svg width="44" height="36" viewBox="0 0 44 36" fill="none" xmlns="http://www.w3.org/2000/svg">
<path fill-rule="evenodd" clip-rule="evenodd" d="M30.3275 15.2676L30.5262 13.4208C30.6321 12.4355 30.7021 11.7849 30.6472 11.375C30.1633 11.3693 29.7302 11.1522 29.4362 10.8118C29.0829 11.0298 28.6212 11.4899 27.926 12.1823C27.3906 12.7157 27.1228 12.9824 26.8241 13.0237C26.6585 13.0467 26.49 13.023 26.3371 12.9558C26.0613 12.8343 25.8774 12.5046 25.5096 11.8451L23.571 8.36921C23.3441 7.96236 23.1542 7.62192 22.983 7.3479C22.6879 7.49846 22.3537 7.58336 21.9997 7.58336C21.6456 7.58336 21.3114 7.49846 21.0163 7.34791C20.8452 7.62193 20.6553 7.96237 20.4283 8.36922L18.4897 11.8451C18.1219 12.5046 17.9381 12.8343 17.6622 12.9558C17.5094 13.023 17.3408 13.0467 17.1753 13.0237C16.8766 12.9824 16.6088 12.7157 16.0733 12.1823C15.3782 11.4899 14.9164 11.0298 14.5632 10.8118C14.2691 11.1522 13.836 11.3693 13.3522 11.375C13.2973 11.7849 13.3673 12.4355 13.4732 13.4208L13.6719 15.2676C13.7054 15.5793 13.7372 15.8865 13.7684 16.1877C14.0417 18.8265 14.2678 21.0093 15.1878 21.8326C16.2127 22.7501 17.7488 22.7501 20.8211 22.7501H23.1782C26.2506 22.7501 27.7866 22.7501 28.8116 21.8326C29.7315 21.0093 29.9576 18.8265 30.2309 16.1878C30.2621 15.8865 30.2939 15.5793 30.3275 15.2676Z" fill="url(#paint0_linear_1226_596)"/>
<path d="M30.667 11.375C31.5644 11.375 32.292 10.6475 32.292 9.75C32.292 8.85253 31.5644 8.125 30.667 8.125C29.7696 8.125 29.042 8.85253 29.042 9.75C29.042 10.1559 29.1908 10.527 29.4369 10.8118C29.7309 11.1523 30.164 11.3693 30.6478 11.3749L30.667 11.375Z" fill="url(#paint1_linear_1226_596)"/>
<path d="M21.9997 3.25C20.803 3.25 19.833 4.22005 19.833 5.41667C19.833 6.25926 20.314 6.98953 21.0163 7.34787C21.3114 7.49843 21.6456 7.58333 21.9997 7.58333C22.3537 7.58333 22.6879 7.49843 22.983 7.34787C23.6853 6.98953 24.1663 6.25926 24.1663 5.41667C24.1663 4.22005 23.1963 3.25 21.9997 3.25Z" fill="url(#paint2_linear_1226_596)"/>
<path d="M11.708 9.75C11.708 10.6475 12.4355 11.375 13.333 11.375L13.3522 11.3749C13.836 11.3693 14.2691 11.1523 14.5632 10.8118C14.8092 10.527 14.958 10.1559 14.958 9.75C14.958 8.85253 14.2305 8.125 13.333 8.125C12.4355 8.125 11.708 8.85253 11.708 9.75Z" fill="url(#paint3_linear_1226_596)"/>
<path d="M14.2529 19.7708C14.1468 19.2829 14.0619 18.7364 13.9863 18.1458H30.0134C29.9378 18.7364 29.853 19.2829 29.7468 19.7708H14.2529Z" fill="white"/>
<path d="M3.4045 30.117C3.6905 30.117 3.94167 30.0803 4.158 30.007C4.378 29.9337 4.5595 29.831 4.7025 29.699C4.84917 29.5633 4.95917 29.4002 5.0325 29.2095C5.10583 29.0188 5.1425 28.8062 5.1425 28.5715C5.1425 28.3405 5.10583 28.1333 5.0325 27.95C4.96283 27.7667 4.8565 27.6108 4.7135 27.4825C4.5705 27.3542 4.389 27.257 4.169 27.191C3.95267 27.1213 3.69783 27.0865 3.4045 27.0865H2.2275V30.117H3.4045ZM3.4045 26.08C3.9215 26.08 4.36883 26.1405 4.7465 26.2615C5.12783 26.3825 5.44133 26.553 5.687 26.773C5.93633 26.9893 6.1215 27.2515 6.2425 27.5595C6.3635 27.8638 6.424 28.2012 6.424 28.5715C6.424 28.9492 6.35983 29.2957 6.2315 29.611C6.10317 29.9227 5.9125 30.1922 5.6595 30.4195C5.4065 30.6432 5.09117 30.8192 4.7135 30.9475C4.3395 31.0722 3.90317 31.1345 3.4045 31.1345H2.2275V34H0.9405V26.08H3.4045ZM8.45419 29.4295C8.63019 29.0738 8.84285 28.7952 9.09219 28.5935C9.34152 28.3882 9.64035 28.2855 9.98869 28.2855C10.1097 28.2855 10.2234 28.3002 10.3297 28.3295C10.436 28.3552 10.5314 28.3955 10.6157 28.4505L10.5332 29.3415C10.5185 29.4038 10.4947 29.4478 10.4617 29.4735C10.4324 29.4955 10.392 29.5065 10.3407 29.5065C10.2857 29.5065 10.2069 29.4973 10.1042 29.479C10.0015 29.457 9.89335 29.446 9.77969 29.446C9.61469 29.446 9.46802 29.4698 9.33969 29.5175C9.21502 29.5652 9.10135 29.6348 8.99869 29.7265C8.89969 29.8182 8.81169 29.93 8.73469 30.062C8.65769 30.194 8.58619 30.3443 8.52019 30.513V34H7.33769V28.39H8.02519C8.14985 28.39 8.23602 28.4138 8.28369 28.4615C8.33135 28.5055 8.36435 28.5843 8.38269 28.698L8.45419 29.4295ZM14.8844 30.5625C14.8844 30.3645 14.855 30.1812 14.7964 30.0125C14.7414 29.8402 14.6589 29.6917 14.5489 29.567C14.4389 29.4387 14.3014 29.3397 14.1364 29.27C13.975 29.1967 13.788 29.16 13.5754 29.16C13.1464 29.16 12.809 29.2828 12.5634 29.5285C12.3177 29.7742 12.1619 30.1188 12.0959 30.5625H14.8844ZM12.0629 31.2885C12.0775 31.6075 12.127 31.8843 12.2114 32.119C12.2957 32.35 12.4075 32.5425 12.5469 32.6965C12.6899 32.8505 12.8585 32.966 13.0529 33.043C13.2509 33.1163 13.4709 33.153 13.7129 33.153C13.9439 33.153 14.1437 33.1273 14.3124 33.076C14.481 33.021 14.6277 32.9623 14.7524 32.9C14.877 32.834 14.9834 32.7753 15.0714 32.724C15.1594 32.669 15.24 32.6415 15.3134 32.6415C15.4087 32.6415 15.482 32.6782 15.5334 32.7515L15.8689 33.186C15.7295 33.351 15.5719 33.4903 15.3959 33.604C15.2199 33.7177 15.0329 33.8112 14.8349 33.8845C14.6369 33.9542 14.4334 34.0037 14.2244 34.033C14.0154 34.066 13.8119 34.0825 13.6139 34.0825C13.2252 34.0825 12.864 34.0183 12.5304 33.89C12.2004 33.758 11.9125 33.5655 11.6669 33.3125C11.4249 33.0595 11.2342 32.746 11.0949 32.372C10.9592 31.998 10.8914 31.5672 10.8914 31.0795C10.8914 30.6908 10.9519 30.3278 11.0729 29.9905C11.1975 29.6532 11.3735 29.3598 11.6009 29.1105C11.8319 28.8612 12.1105 28.665 12.4369 28.522C12.7669 28.3753 13.139 28.302 13.5534 28.302C13.898 28.302 14.217 28.3588 14.5104 28.4725C14.8037 28.5825 15.0567 28.7457 15.2694 28.962C15.482 29.1783 15.647 29.4442 15.7644 29.7595C15.8854 30.0712 15.9459 30.4268 15.9459 30.8265C15.9459 31.0098 15.9257 31.1327 15.8854 31.195C15.845 31.2573 15.7717 31.2885 15.6654 31.2885H12.0629ZM17.0486 34V28.39H17.7636C17.925 28.39 18.0276 28.4652 18.0716 28.6155L18.1486 29.105C18.2513 28.9877 18.3576 28.8813 18.4676 28.786C18.5776 28.687 18.695 28.6027 18.8196 28.533C18.948 28.4597 19.0836 28.4028 19.2266 28.3625C19.3733 28.3222 19.531 28.302 19.6996 28.302C19.8793 28.302 20.0443 28.3277 20.1946 28.379C20.345 28.4303 20.477 28.5037 20.5906 28.599C20.708 28.6943 20.8088 28.8098 20.8931 28.9455C20.9775 29.0812 21.0471 29.2333 21.1021 29.402C21.1865 29.2077 21.2928 29.0408 21.4211 28.9015C21.5495 28.7622 21.6925 28.6485 21.8501 28.5605C22.0078 28.4725 22.1746 28.4083 22.3506 28.368C22.5303 28.324 22.7118 28.302 22.8951 28.302C23.1958 28.302 23.4635 28.3497 23.6981 28.445C23.9365 28.5403 24.1363 28.6797 24.2976 28.863C24.4626 29.0427 24.5873 29.2645 24.6716 29.5285C24.756 29.7925 24.7981 30.0932 24.7981 30.4305V34H23.6156V30.4305C23.6156 30.0345 23.5295 29.7375 23.3571 29.5395C23.1885 29.3378 22.9373 29.237 22.6036 29.237C22.4533 29.237 22.3121 29.2627 22.1801 29.314C22.0481 29.3653 21.9326 29.4405 21.8336 29.5395C21.7346 29.6385 21.6558 29.7632 21.5971 29.9135C21.5421 30.0602 21.5146 30.2325 21.5146 30.4305V34H20.3321V30.4305C20.3321 30.0198 20.2496 29.7192 20.0846 29.5285C19.9196 29.3342 19.6776 29.237 19.3586 29.237C19.1386 29.237 18.9351 29.2938 18.7481 29.4075C18.5611 29.5175 18.3888 29.6697 18.2311 29.864V34H17.0486ZM27.4115 28.39V34H26.229V28.39H27.4115ZM27.6095 26.696C27.6095 26.8023 27.5875 26.9032 27.5435 26.9985C27.5032 27.0938 27.4463 27.1782 27.373 27.2515C27.2997 27.3212 27.2135 27.378 27.1145 27.422C27.0192 27.4623 26.9165 27.4825 26.8065 27.4825C26.7002 27.4825 26.5993 27.4623 26.504 27.422C26.4123 27.378 26.3317 27.3212 26.262 27.2515C26.1923 27.1782 26.1355 27.0938 26.0915 26.9985C26.0512 26.9032 26.031 26.8023 26.031 26.696C26.031 26.586 26.0512 26.4833 26.0915 26.388C26.1355 26.2927 26.1923 26.2102 26.262 26.1405C26.3317 26.0672 26.4123 26.0103 26.504 25.97C26.5993 25.926 26.7002 25.904 26.8065 25.904C26.9165 25.904 27.0192 25.926 27.1145 25.97C27.2135 26.0103 27.2997 26.0672 27.373 26.1405C27.4463 26.2102 27.5032 26.2927 27.5435 26.388C27.5875 26.4833 27.6095 26.586 27.6095 26.696ZM33.6273 28.39V34H32.9123C32.7546 34 32.6538 33.9248 32.6098 33.7745L32.5218 33.252C32.4044 33.3767 32.2798 33.4903 32.1478 33.593C32.0194 33.6957 31.8819 33.7837 31.7353 33.857C31.5886 33.9303 31.4309 33.9872 31.2623 34.0275C31.0973 34.0678 30.9194 34.088 30.7288 34.088C30.4208 34.088 30.1494 34.0367 29.9148 33.934C29.6801 33.8313 29.4821 33.6865 29.3208 33.4995C29.1631 33.3125 29.0439 33.0888 28.9633 32.8285C28.8826 32.5645 28.8423 32.2748 28.8423 31.9595V28.39H30.0248V31.9595C30.0248 32.3372 30.1109 32.6305 30.2833 32.8395C30.4593 33.0485 30.7251 33.153 31.0808 33.153C31.3411 33.153 31.5831 33.0943 31.8068 32.977C32.0341 32.856 32.2468 32.691 32.4448 32.482V28.39H33.6273ZM35.0633 34V28.39H35.7783C35.9396 28.39 36.0423 28.4652 36.0863 28.6155L36.1633 29.105C36.2659 28.9877 36.3723 28.8813 36.4823 28.786C36.5923 28.687 36.7096 28.6027 36.8343 28.533C36.9626 28.4597 37.0983 28.4028 37.2413 28.3625C37.3879 28.3222 37.5456 28.302 37.7143 28.302C37.8939 28.302 38.0589 28.3277 38.2093 28.379C38.3596 28.4303 38.4916 28.5037 38.6053 28.599C38.7226 28.6943 38.8234 28.8098 38.9078 28.9455C38.9921 29.0812 39.0618 29.2333 39.1168 29.402C39.2011 29.2077 39.3074 29.0408 39.4358 28.9015C39.5641 28.7622 39.7071 28.6485 39.8648 28.5605C40.0224 28.4725 40.1893 28.4083 40.3653 28.368C40.5449 28.324 40.7264 28.302 40.9098 28.302C41.2104 28.302 41.4781 28.3497 41.7128 28.445C41.9511 28.5403 42.1509 28.6797 42.3123 28.863C42.4773 29.0427 42.6019 29.2645 42.6863 29.5285C42.7706 29.7925 42.8128 30.0932 42.8128 30.4305V34H41.6303V30.4305C41.6303 30.0345 41.5441 29.7375 41.3718 29.5395C41.2031 29.3378 40.9519 29.237 40.6183 29.237C40.4679 29.237 40.3268 29.2627 40.1948 29.314C40.0628 29.3653 39.9473 29.4405 39.8483 29.5395C39.7493 29.6385 39.6704 29.7632 39.6118 29.9135C39.5568 30.0602 39.5293 30.2325 39.5293 30.4305V34H38.3468V30.4305C38.3468 30.0198 38.2643 29.7192 38.0993 29.5285C37.9343 29.3342 37.6923 29.237 37.3733 29.237C37.1533 29.237 36.9498 29.2938 36.7628 29.4075C36.5758 29.5175 36.4034 29.6697 36.2458 29.864V34H35.0633Z" fill="url(#paint4_linear_1226_596)"/>
<defs>
<linearGradient id="paint0_linear_1226_596" x1="13.333" y1="15.049" x2="30.6664" y2="15.049" gradientUnits="userSpaceOnUse">
<stop stop-color="#FF5858"/>
<stop offset="1" stop-color="#F09819"/>
</linearGradient>
<linearGradient id="paint1_linear_1226_596" x1="29.042" y1="9.75" x2="32.292" y2="9.75" gradientUnits="userSpaceOnUse">
<stop stop-color="#FF5858"/>
<stop offset="1" stop-color="#F09819"/>
</linearGradient>
<linearGradient id="paint2_linear_1226_596" x1="19.833" y1="5.41667" x2="24.1663" y2="5.41667" gradientUnits="userSpaceOnUse">
<stop stop-color="#FF5858"/>
<stop offset="1" stop-color="#F09819"/>
</linearGradient>
<linearGradient id="paint3_linear_1226_596" x1="11.708" y1="9.75" x2="14.958" y2="9.75" gradientUnits="userSpaceOnUse">
<stop stop-color="#FF5858"/>
<stop offset="1" stop-color="#F09819"/>
</linearGradient>
<linearGradient id="paint4_linear_1226_596" x1="0" y1="29.5" x2="44" y2="29.5" gradientUnits="userSpaceOnUse">
<stop stop-color="#FF5858"/>
<stop offset="1" stop-color="#F09819"/>
</linearGradient>
</defs>
</svg>
