<svg width="324" height="320" viewBox="0 0 324 320" fill="none" xmlns="http://www.w3.org/2000/svg">
<path fill-rule="evenodd" clip-rule="evenodd" d="M155.564 0.720293C143.149 2.79631 126.712 10.6964 118.248 18.6568C111.997 24.5356 114.021 24.967 120.987 19.2401C135.675 7.16608 148.998 2.52517 169.06 2.49368C178.094 2.47861 181.619 2.05273 180.214 1.14481C178.21 -0.150646 162.4 -0.421791 155.564 0.720293ZM160.357 7.57828C152.993 8.55466 141.291 12.2794 136.393 15.2059C129.038 19.6016 121.329 25.8639 121.329 27.4429C121.329 28.2248 123.949 26.7198 127.149 24.1015C138.677 14.6704 153.51 9.37767 168.519 9.3407C174.365 9.32564 176.188 8.92988 174.736 7.99184C172.691 6.67036 168.179 6.54027 160.357 7.57828ZM289.766 18.9471C289.766 19.7002 290.382 20.3165 291.135 20.3165C291.889 20.3165 292.505 19.7002 292.505 18.9471C292.505 18.1939 291.889 17.5777 291.135 17.5777C290.382 17.5777 289.766 18.1939 289.766 18.9471ZM286.771 22.6212C287.758 23.0169 288.94 22.9676 289.395 22.513C289.849 22.0584 289.042 21.7352 287.598 21.7941C286.003 21.8598 285.678 22.1843 286.771 22.6212ZM293.618 22.6212C294.605 23.0169 295.787 22.9676 296.242 22.513C296.697 22.0584 295.889 21.7352 294.445 21.7941C292.85 21.8598 292.525 22.1843 293.618 22.6212ZM184.986 25.827C182.999 29.0437 186.124 35.5511 191.948 40.3235C195.27 43.0459 197.704 45.7326 197.356 46.2955C196.523 47.6416 200.351 73.0632 202.31 79.2009C205.661 89.6988 210.072 90.9257 224.688 85.4248L233.62 82.063L233.596 91.9295C233.572 101.413 232.037 119.177 230.156 131.723C229.368 136.975 229.596 137.788 232.033 138.425C234.563 139.086 234.846 140.431 235.24 153.684C235.48 161.677 235.366 168.226 234.99 168.237C234.613 168.248 228.451 167.237 221.296 165.991L208.286 163.727L202.169 153.332C193.816 139.138 193.119 130.462 199.244 116.953C201.58 111.797 203.493 105.395 203.493 102.723C203.493 96.2377 198.913 87.1188 193.082 82C175.447 66.5147 136.703 95.427 137.231 123.678C137.357 130.378 138.447 134.091 143.051 143.49C146.167 149.853 148.717 156.103 148.717 157.38C148.717 160.734 144.92 161.764 143.939 158.676C143.494 157.272 138.072 151.529 131.887 145.911C125.704 140.294 119.263 133.232 117.574 130.219L114.504 124.74L119.802 121.235C126.616 116.725 132.284 105.722 132.284 97.0032C132.284 87.4502 126.767 77.5193 118.474 72.1457C113.463 68.8989 110.904 65.9861 108.521 60.8207C101.181 44.9014 83.0789 31.2717 69.2781 31.2717C57.7367 31.2717 47.0978 36.7658 41.7928 45.467C38.1187 51.4924 38.4692 54.3914 44.1632 65.0508C46.913 70.1971 49.2478 76.5552 49.3546 79.179C49.5326 83.6172 49.078 84.1677 42.8499 87.0531C34.4336 90.9531 33.6872 90.9299 33.6872 86.7641C33.6872 82.0753 39.2251 78.6148 45.0013 79.6939C49.1081 80.4607 49.2423 80.3745 46.8171 78.5217C42.5843 75.2871 35.2141 77.8972 32.0892 83.7364C30.6006 86.5176 32.993 97.0032 35.1155 97.0032C36.4712 97.0032 37.764 102.338 36.9341 104.502C36.563 105.467 33.0628 106.673 29.1531 107.179C13.6802 109.183 4.91742 117.225 2.87016 131.3C1.77464 138.832 5.50079 158.425 8.4368 160.574C10.1705 161.842 10.2417 164.53 8.94623 179.682C8.11774 189.38 7.79043 198.624 8.21769 200.223C8.64631 201.823 7.40288 216.381 5.45422 232.574C1.46788 265.696 1.58155 290.621 5.73221 293.73C7.62747 295.151 7.57269 295.872 5.20636 300.578C-2.86628 316.631 -1.83237 320.575 10.2841 319.935L17.9391 319.531L17.7679 311.315C17.4119 294.325 21.5105 258.278 24.7889 249.562C26.5143 244.971 29.249 236.398 30.8649 230.509C34.5719 216.993 35.8673 214.614 35.9057 221.253C35.9221 224.091 36.0974 245.948 36.2946 269.826L36.6534 313.24L44.4138 315.516C55.5087 318.77 61.6204 319.385 64.9864 317.583C69.9258 314.94 68.3469 311.4 58.3612 302.719C53.1027 298.15 49.3738 294.207 50.0749 293.961C52.9849 292.938 58.1078 259.306 59.0089 235.313C59.532 221.397 60.7275 208.517 61.8614 204.595C62.935 200.881 63.8758 192.562 63.9511 186.108C64.0264 179.655 64.4989 172.905 65.0014 171.11C65.8724 168.004 66.301 168.259 73.767 176.323L81.6164 184.801L81.637 237.788C81.6493 266.93 82.1108 291.449 82.664 292.273C83.9951 294.258 164.722 314.765 170.741 314.648C173.315 314.597 193.291 311.34 215.133 307.407L254.846 300.257L255.225 280.875C255.576 262.944 255.807 261.429 258.313 260.633C259.805 260.16 262.837 258.248 265.052 256.383C268.785 253.243 269.022 252.494 268.277 246.207C267.573 240.258 267.782 239.421 269.973 239.421C271.348 239.421 273.767 240.637 275.349 242.124C280.313 246.787 284.497 246.276 287.575 240.633C290.093 236.014 290.151 235.025 288.431 225.912C286.66 216.525 286.436 216.141 282.7 216.141C278.919 216.141 278.811 215.943 278.834 208.952C278.848 204.999 279.427 196.217 280.121 189.438C280.815 182.659 281.55 166.792 281.752 154.176C282.082 133.568 282.357 131.238 284.468 131.238C285.971 131.238 287.413 133.083 288.479 136.374C291.165 144.665 300.802 161.365 302.899 161.365C303.961 161.365 304.829 160.713 304.829 159.918C304.829 159.107 306.167 159.408 307.874 160.602C311.676 163.267 315.785 163.362 315.785 160.786C315.785 158.205 309.447 150.756 306.438 149.801C304.523 149.193 304.004 147.211 303.775 139.618C303.496 130.343 303.557 130.161 307.568 128.499C309.811 127.57 313.769 124.461 316.364 121.589C326.985 109.833 326.35 90.7299 314.951 79.0503C310.222 74.2053 303.822 70.8023 290.778 66.1998C282.911 63.424 281.695 61.4082 280.944 49.9066C280.053 36.2701 277.072 32.6411 266.761 32.6411C258.724 32.6411 254.678 36.5097 252.769 46.0202C249.818 60.7221 250.679 59.5924 241.815 60.3962C236.291 60.8974 231.161 62.5572 225.392 65.7123C217.115 70.2368 216.972 70.2628 214.977 67.561C213.865 66.0546 211.67 60.5085 210.101 55.2363C208.53 49.9641 206.71 45.0657 206.054 44.3495C205.4 43.6333 204.863 42.1968 204.863 41.1561C204.863 40.1153 202.625 36.533 199.891 33.1957C196.431 28.9739 194.434 27.5278 193.328 28.4453C192.249 29.3409 191.207 28.9095 190.073 27.0937C188.236 24.1508 186.317 23.6729 184.986 25.827ZM289.766 26.4788C289.766 27.6086 290.382 28.5329 291.135 28.5329C291.889 28.5329 292.505 27.6086 292.505 26.4788C292.505 25.349 291.889 24.4247 291.135 24.4247C290.382 24.4247 289.766 25.349 289.766 26.4788ZM195.522 35.3799C196.301 35.3799 196.585 34.4556 196.151 33.3258C194.837 29.9023 196.078 30.9882 200.088 36.774C204.694 43.4224 203.688 45.0616 197.156 41.5436C191.262 38.3693 187.055 33.2916 187.076 29.3751C187.089 26.8266 187.511 27.0129 190.599 30.9294C192.527 33.3765 194.743 35.3799 195.522 35.3799ZM82.4107 36.6562C92.3813 41.0671 105.291 55.1898 108.157 64.8221C108.899 67.3158 108.331 67.561 101.799 67.561C97.8535 67.561 93.2399 68.0649 91.546 68.6798C88.9592 69.6192 88.2197 69.181 86.9324 65.9409C86.0889 63.8197 85.1235 62.8201 84.788 63.7198C84.4525 64.6195 84.8208 66.5586 85.6082 68.0279C86.8106 70.2738 86.3066 71.2597 82.4573 74.1957C68.4975 84.8442 68.7426 109.002 82.9269 120.401C87.8212 124.334 88.0211 124.816 87.4063 131.211C87.053 134.892 87.4569 139.893 88.3046 142.325C89.1523 144.757 89.5384 147.052 89.1632 147.427C88.0923 148.5 77.0741 144.886 74.538 142.63C72.6824 140.983 72.5195 139.831 73.6698 136.53C74.794 133.303 74.6612 132.119 73.0261 130.822C71.8923 129.921 70.2778 127.027 69.4411 124.391C66.705 115.774 62.961 111.077 57.4149 109.303C54.5323 108.382 51.7538 107.239 51.2389 106.766C50.7254 106.292 51.3046 101.75 52.5261 96.6704C54.2023 89.7097 55.443 87.2064 57.5697 86.5012C60.2701 85.6042 60.251 85.5303 57.1096 84.7511C54.7542 84.1677 53.3725 82.4012 52.2112 78.4888C51.3211 75.4912 48.6398 69.3412 46.2515 64.8221C40.9067 54.7063 40.7136 49.3301 45.4901 43.6525C54.3009 33.1807 68.4797 30.4939 82.4107 36.6562ZM269.293 40.8576C269.962 40.8576 270.137 41.8257 269.682 43.0103C269.228 44.1948 270.108 46.8569 271.638 48.9261L274.419 52.6892L270.289 54.2476C266.768 55.5759 266.255 56.3715 266.813 59.6294C267.174 61.7328 267.929 64.5305 268.494 65.8492C269.31 67.7595 268.835 68.2457 266.152 68.2457C262.742 68.2457 254.161 65.6999 254.161 64.6879C254.161 64.3853 255.368 62.931 256.843 61.4561C259.047 59.2514 259.382 57.5794 258.726 52.0415C258.046 46.3023 258.374 44.8617 260.944 42.2913C262.626 40.6097 264.87 39.6265 266.019 40.0674C267.153 40.5015 268.626 40.8576 269.293 40.8576ZM207.663 54.894C212.844 72.5292 214.842 73.7246 227.677 66.8763C233.911 63.55 237.032 62.768 244.084 62.768C250.448 62.768 252.792 63.2624 252.792 64.6017C252.792 68.7277 269.632 71.8198 270.927 67.9321C271.335 66.7092 272.581 66.942 275.491 68.7879C280.339 71.8623 283.531 75.5446 286.978 82.0397C290.553 88.7771 300.48 125.518 301.552 135.982C302.423 144.494 302.404 144.557 298.625 145.506C296.442 146.054 294.451 145.865 293.955 145.064C293.48 144.294 289.417 132.862 284.924 119.659C280.432 106.455 276.409 95.6474 275.983 95.642C274.796 95.6296 270.594 105.01 270.598 107.663C270.601 108.955 272.758 114.291 275.391 119.52C281.633 131.912 281.718 137.188 275.73 140.406C269.593 143.705 255.779 143.345 245.388 139.618C240.94 138.022 235.921 136.716 234.235 136.716C231.396 136.716 231.257 136.335 232.345 131.581C233.963 124.52 237.066 80.8195 236.024 79.7788C235.561 79.3159 231.095 80.5717 226.1 82.5696C220.48 84.8182 215.092 86.0424 211.967 85.7836C207.221 85.3879 206.777 84.9442 204.603 78.3902C203.329 74.5545 201.534 66.0258 200.612 59.4376C199.194 49.2986 199.233 47.2705 200.872 46.2338C204.208 44.1222 204.674 44.7152 207.663 54.894ZM19.9932 63.4527C19.9932 64.5825 19.0689 65.5068 17.9391 65.5068C16.8093 65.5068 15.885 66.1231 15.885 66.8763C15.885 67.6294 16.8093 68.2457 17.9391 68.2457C19.0689 68.2457 19.9932 69.17 19.9932 70.2998C19.9932 71.4295 20.6094 72.3539 21.3626 72.3539C22.1158 72.3539 22.732 71.4295 22.732 70.2998C22.732 69.17 23.6564 68.2457 24.7861 68.2457C25.9159 68.2457 26.8402 67.6294 26.8402 66.8763C26.8402 66.1231 25.9159 65.5068 24.7861 65.5068C23.6564 65.5068 22.732 64.5825 22.732 63.4527C22.732 62.323 22.1158 61.3986 21.3626 61.3986C20.6094 61.3986 19.9932 62.323 19.9932 63.4527ZM22.732 66.8763C22.732 67.6294 22.1158 68.2457 21.3626 68.2457C20.6094 68.2457 19.9932 67.6294 19.9932 66.8763C19.9932 66.1231 20.6094 65.5068 21.3626 65.5068C22.1158 65.5068 22.732 66.1231 22.732 66.8763ZM113.499 71.4775C133.084 79.7541 135.537 108.962 117.602 120.336C110.186 125.038 102.863 126.425 95.672 124.488C76.7427 119.392 68.1689 98.8094 78.2162 82.5861C85.322 71.1118 100.974 66.1847 113.499 71.4775ZM189.939 82.2834C192.648 84.0787 196.195 88.5128 198.428 92.8963C202.833 101.545 202.613 105.752 197.191 116.45C190.631 129.399 191.395 139.331 200.062 153.724C202.728 158.151 204.619 162.066 204.263 162.421C203.684 163 188.429 160.679 182.784 159.152C181.561 158.822 177.556 153.484 173.883 147.292C167.466 136.472 167.206 135.629 167.245 125.761C167.273 118.559 168.019 114.122 169.742 110.912C171.093 108.394 171.853 105.988 171.43 105.566C171.007 105.143 169.293 107.819 167.621 111.512C161.781 124.415 163.634 135.874 174.039 151.206C175.929 153.991 177.475 156.646 177.476 157.106C177.476 157.565 173.624 157.942 168.917 157.942C164.209 157.942 158.362 158.387 155.923 158.932C151.887 159.831 151.408 159.586 150.591 156.193C150.095 154.142 147.553 148.182 144.94 142.948C135.423 123.878 137.989 109.05 153.49 93.5495C166.677 80.3621 180.561 76.0704 189.939 82.2834ZM106.95 91.5255C104.013 97.5509 101.27 102.474 100.857 102.466C100.442 102.457 97.8192 98.7601 95.027 94.2493C92.2348 89.7385 89.4617 86.0671 88.8647 86.0917C88.2676 86.115 86.6668 86.9791 85.307 88.0103C82.9886 89.7672 83.3748 90.7655 91.4693 103.96C96.2184 111.701 100.736 118.239 101.51 118.486C103.17 119.019 120.242 83.5049 119.164 81.7617C118.76 81.1057 117.048 80.5703 115.36 80.5703C112.883 80.5703 111.263 82.6805 106.95 91.5255ZM50.5652 90.7094C51.5169 93.1921 50.0995 98.7793 48.1988 100.027C47.3868 100.559 45.3299 100.083 43.6291 98.9669C41.927 97.8522 40.5343 97.54 40.5343 98.2726C40.5343 99.0066 41.3189 100.098 42.2789 100.701C43.2388 101.303 45.0615 103.43 46.331 105.428C48.585 108.974 48.5604 109.079 45.2711 109.904C43.4183 110.369 40.3809 110.367 38.5212 109.9C35.4373 109.126 35.3292 108.859 37.3011 106.888C38.8253 105.363 39.2785 103.066 38.8335 99.1148C38.172 93.2551 39.4675 90.9545 44.092 89.7713C48.7082 88.5895 49.8134 88.7497 50.5652 90.7094ZM240.467 114.836C240.467 116.925 251.498 138.466 252.206 137.759C252.917 137.047 242.198 113.436 241.163 113.436C240.781 113.436 240.467 114.066 240.467 114.836ZM239.098 123.171C239.098 124.308 240.054 126.433 241.223 127.896C243.265 130.45 243.313 130.421 242.438 127.13C241.316 122.905 239.098 120.276 239.098 123.171ZM116.09 131.431C117.585 133.961 124.406 141.425 131.248 148.018C138.089 154.611 143.379 160.312 143.004 160.687C142.629 161.063 135.415 162.614 126.972 164.134L111.624 166.898L106.386 162.5L101.148 158.103L105.419 155.968C107.947 154.704 109.867 152.576 110.127 150.752C110.52 147.983 109.99 147.671 104.911 147.671C101.463 147.671 99.5899 147.133 100.109 146.292C101.399 144.205 97.2591 143.156 94.1999 144.794C91.9472 145.999 91.3707 145.736 90.6874 143.188C90.2382 141.512 89.8616 137.058 89.8507 133.292L89.8315 126.445L101.602 126.638L113.372 126.832L116.09 131.431ZM66.553 131.092C66.553 132.575 63.1719 133.977 59.5937 133.977C56.963 133.977 56.1674 132.494 57.8805 130.782C59.2431 129.418 66.553 129.68 66.553 131.092ZM54.913 133.977C55.3786 134.73 58.4954 135.346 61.8408 135.346C65.1863 135.346 67.9224 134.73 67.9224 133.977C67.9224 133.224 68.8467 132.608 69.9765 132.608C72.6852 132.608 72.7098 132.45 67.6307 147.944L63.2322 161.365L58.3872 161.378C55.7237 161.383 50.294 161.779 46.3227 162.257C39.9797 163.018 39.2073 162.85 39.9673 160.867C40.4768 159.541 43.0937 158.25 46.3173 157.734C49.3341 157.251 53.4067 155.477 55.3677 153.79C58.3571 151.219 58.6488 150.383 57.1808 148.612C55.951 147.132 54.0215 146.729 50.7199 147.266C46.5706 147.938 46.0119 147.678 46.0119 145.068C46.0119 137.335 52.2126 129.609 54.913 133.977ZM17.2544 146.984C17.2544 151.414 17.516 151.651 23.3661 152.528C31.4853 153.746 39.4346 151.766 41.2779 148.067C42.7185 145.179 42.7664 145.175 44.4207 147.826C45.7777 149.998 47.0184 150.346 50.85 149.627C55.8483 148.689 57.0794 150.214 53.634 153.073C51.7442 154.641 35.8454 157.514 19.8905 159.171C10.0047 160.197 7.86163 158.614 6.78117 149.483L5.94175 142.393L10.5703 141.918C16.797 141.279 17.2544 141.625 17.2544 146.984ZM74.0628 144.897C74.5161 145.631 78.0327 147.164 81.878 148.307C88.4813 150.268 89.1153 150.231 93.3098 147.638C97.4125 145.102 97.737 145.077 97.5577 147.31C97.4015 149.258 98.456 149.725 103.012 149.725C109.277 149.725 109.838 152.379 104.04 154.583C101.196 155.664 70.8474 153.792 69.5081 152.452C69.2452 152.19 69.4465 150.083 69.9546 147.77C70.8817 143.551 72.5222 142.404 74.0628 144.897ZM302.091 148.745C302.091 149.336 303.935 150.908 306.189 152.241C310.165 154.588 313.91 159.588 312.645 160.854C312.301 161.197 310.085 159.849 307.72 157.86C305.355 155.868 302.616 154.55 301.633 154.926C300.572 155.333 299.241 154.002 298.349 151.641C297.021 148.122 297.148 147.671 299.471 147.671C300.912 147.671 302.091 148.155 302.091 148.745ZM88.5456 156.624C96.3841 157.319 98.2876 158.073 103.482 162.546L109.435 167.673L97.9534 169.43C83.2446 171.682 81.1714 172.779 81.9259 177.92C82.2477 180.112 82.3532 181.906 82.1615 181.906C81.1741 181.906 65.8107 165.001 65.4711 163.54C65.252 162.602 65.6957 160.197 66.4557 158.196C67.7169 154.88 68.3551 154.615 73.7013 155.195C76.9248 155.544 83.6048 156.187 88.5456 156.624ZM205.548 165.431C223.624 168.541 240.511 171.526 243.073 172.066C246.713 172.83 239.146 174.52 208.571 179.767C173.371 185.809 168.534 186.351 160.773 185.12C128.977 180.075 90.9612 172.963 93.2564 172.486C113.591 168.266 167.87 158.928 169.943 159.293C171.449 159.56 187.471 162.321 205.548 165.431ZM113.384 179.107C115.211 179.154 115.797 180.697 116.123 186.306L116.536 193.446L124.753 195.148C136.801 197.643 136.393 197.824 136.393 190.014C136.393 183.157 136.446 183.069 140.158 183.807C142.229 184.218 147.93 185.205 152.825 186.001C157.721 186.796 163.112 187.752 164.808 188.126L167.889 188.805V250.932V313.058L126.464 302.46L85.0399 291.863L84.6825 232.959L84.3265 174.057L97.6919 176.552C105.044 177.923 112.105 179.073 113.384 179.107ZM252.168 298.017C251.809 298.376 233.47 301.867 211.414 305.774L171.312 312.88L170.956 251.287C170.761 217.411 170.898 189.397 171.262 189.033C171.626 188.668 189.965 185.222 212.015 181.372L252.107 174.375L252.463 235.869C252.659 269.692 252.526 297.658 252.168 298.017ZM309.046 178.725C308.987 180.364 307.859 181.987 306.541 182.332C304.295 182.918 304.298 182.968 306.584 183.117C309.24 183.289 310.983 180.3 309.859 177.501C309.472 176.534 309.105 177.086 309.046 178.725ZM133.996 182.828C134.562 183.163 135.023 185.936 135.023 188.99V194.542L128.686 193.591C119.089 192.152 118.59 191.765 118.59 185.739V180.279L125.78 181.249C129.733 181.783 133.431 182.494 133.996 182.828ZM312.79 182.842C313.777 183.237 314.959 183.188 315.414 182.733C315.868 182.279 315.06 181.956 313.617 182.014C312.022 182.08 311.697 182.405 312.79 182.842ZM308.938 186.78C308.938 187.954 309.563 188.527 310.329 188.055C311.094 187.581 311.367 186.621 310.933 185.92C309.759 184.021 308.938 184.374 308.938 186.78ZM38.5075 202.895C41.5353 203.966 47.2361 205.286 51.1745 205.827C55.1143 206.369 58.3228 207.217 58.3064 207.711C57.2314 239.51 55.0554 265.758 52.4974 277.765L49.4354 292.143L43.6154 292.564L37.7955 292.986V250.374C37.7955 223.924 37.3038 208.067 36.5 208.564C35.7865 209.005 33.5448 214.742 31.5168 221.312C29.4887 227.883 25.82 239.421 23.3647 246.953C20.3903 256.077 18.6046 264.761 18.0158 272.972C16.6642 291.832 16.5286 292.226 11.2208 292.583C7.10298 292.86 6.56893 292.467 5.79248 288.58C4.13413 280.288 4.94482 256.329 7.73429 231.205C11.7028 195.467 9.95134 199.161 22.465 200.132C28.2603 200.581 35.4798 201.824 38.5075 202.895ZM14.0596 204.045C12.6778 205.552 11.9041 207.139 12.3396 207.574C13.2612 208.496 18.6238 203.941 18.6238 202.235C18.6238 200.364 16.7532 201.107 14.0596 204.045ZM282.818 226.405C284.135 233.971 284.039 235.932 282.174 239.538C280.068 243.612 279.88 243.683 277.347 241.39C275.341 239.573 275.078 238.565 276.244 237.159C277.087 236.144 278.779 235.264 280.005 235.205C281.648 235.125 281.744 234.902 280.368 234.354C278.792 233.727 278.792 233.408 280.368 232.304C281.817 231.288 281.851 230.841 280.522 230.302C278.567 229.508 278.114 217.511 280.039 217.511C280.716 217.511 281.966 221.514 282.818 226.405ZM256.535 234.25C256.246 237.471 256.005 235.176 256.001 229.151C255.995 223.125 256.232 220.491 256.526 223.295C256.821 226.1 256.825 231.03 256.535 234.25ZM286.084 239.891C284.985 242.033 283.736 243.434 283.308 243.005C282.879 242.576 283.312 241.282 284.269 240.129C285.5 238.646 285.78 235.127 285.225 228.114L284.44 218.195L286.26 227.097C287.82 234.724 287.794 236.555 286.084 239.891ZM318.578 239.079C308.817 263.186 289.493 287.412 268.198 302.24C265.749 303.945 263.747 305.952 263.747 306.7C263.747 308.58 274.672 300.576 284.965 291.155C299.704 277.663 313.889 256.983 321.151 238.394C322.697 234.441 323.467 231.205 322.863 231.205C322.261 231.205 320.331 234.749 318.578 239.079ZM263.183 240.469C266.734 242.868 266.271 247.576 262.141 251.05C257.478 254.974 255.531 255.38 255.531 252.431C255.531 251.301 256.222 250.376 257.067 250.376C258.168 250.376 258.145 249.823 256.989 248.431C255.657 246.824 255.927 246.602 258.534 247.163C261.558 247.812 261.584 247.751 259.126 245.751C254.861 242.282 258.62 237.388 263.183 240.469ZM305.4 252.665C298.542 264.664 288.236 277.691 279.024 286.006C274.033 290.511 270.822 294.197 271.89 294.197C275.469 294.197 297.113 270.353 304.005 258.816C307.694 252.64 310.369 247.242 309.946 246.82C309.524 246.398 307.478 249.029 305.4 252.665ZM265.069 253.858C262.798 256.594 255.054 260.679 255.721 258.789C256.295 257.163 265.54 250.593 266.34 251.243C266.634 251.483 266.063 252.659 265.069 253.858ZM11.7768 254.467C11.7768 256.076 15.6768 257.297 16.5108 255.95C16.9025 255.316 15.9987 254.475 14.5005 254.083C13.0024 253.692 11.7768 253.864 11.7768 254.467ZM47.6607 267.152C45.2478 271.86 43.295 276.943 43.3224 278.449C43.3484 279.956 45.6298 276.566 48.3892 270.918C51.1485 265.269 53.6422 260.184 53.9311 259.62C54.2201 259.056 53.9147 258.593 53.2533 258.593C52.5919 258.593 50.0749 262.445 47.6607 267.152ZM14.5156 294.722C14.5156 295.011 13.2831 295.57 11.7768 295.964C10.2704 296.357 9.03796 296.121 9.03796 295.438C9.03796 294.756 10.2704 294.197 11.7768 294.197C13.2831 294.197 14.5156 294.434 14.5156 294.722ZM45.7517 297.783C44.5329 299.001 42.8609 299.582 42.0352 299.071C39.3155 297.391 40.4699 295.567 44.2508 295.567C47.6757 295.567 47.7935 295.741 45.7517 297.783ZM51.9729 304.005C49.5463 306.686 51.2553 307.578 53.849 304.984C55.6456 303.188 62.8925 307.72 65.2411 312.108C66.4215 314.314 66.1134 314.973 63.4225 315.997C61.6395 316.675 58.0723 316.731 55.4937 316.124C51.1266 315.095 51.3046 315.01 58.075 314.878C62.0736 314.802 65.0151 314.204 64.6125 313.553C64.2099 312.901 62.4461 312.641 60.6946 312.976C58.9432 313.31 53.7559 312.612 49.167 311.423C39.1142 308.817 38.7431 308.799 39.9701 310.973C40.6931 312.253 40.5165 312.298 39.2703 311.151C38.1857 310.152 37.9283 307.894 38.5308 304.676C39.3169 300.486 39.8263 299.932 41.8776 301.031C43.677 301.993 44.926 301.632 46.7459 299.62C49.0424 297.083 49.3533 297.057 51.7223 299.201C54.0846 301.339 54.101 301.654 51.9729 304.005ZM14.024 299.353C14.8826 299.907 15.8069 303.596 16.0781 307.551L16.5697 314.74H9.35428C2.17722 314.739 2.14301 314.718 3.04134 310.973C4.32858 305.607 7.31662 300.041 9.35156 299.222C11.8452 298.219 12.2807 298.232 14.024 299.353ZM6.98385 309.261C7.44945 310.014 9.02562 310.63 10.4881 310.63C11.9507 310.63 13.1462 310.014 13.1462 309.261C13.1462 308.508 11.5686 307.892 9.64188 307.892C7.65487 307.892 6.50319 308.484 6.98385 309.261ZM48.066 313.369C49.7928 314.111 50.0448 314.545 48.7507 314.545C47.6209 314.545 45.4641 314.017 43.9578 313.369C42.231 312.627 41.979 312.193 43.2731 312.193C44.4028 312.193 46.5597 312.721 48.066 313.369ZM10.7497 318.384C9.80894 318.765 8.26836 318.765 7.3262 318.384C6.38542 318.005 7.15503 317.694 9.03796 317.694C10.9209 317.694 11.6919 318.005 10.7497 318.384Z" fill="black"/>
</svg>
