<svg width="215" height="221" viewBox="0 0 215 221" fill="none" xmlns="http://www.w3.org/2000/svg">
<g clip-path="url(#clip0_1212_57)">
<path d="M20.4226 85.2877C20.1778 85.2877 19.9707 85.0798 19.9707 84.8342V37.2158C19.9707 36.9513 20.1778 36.7434 20.4226 36.7434C20.6862 36.7434 20.8745 36.9513 20.8745 37.2158V84.8342C20.8745 85.0798 20.6862 85.2877 20.4226 85.2877Z" fill="black"/>
<path d="M-15.241 148.722C-15.4105 148.722 -15.5799 148.628 -15.6553 148.458C-15.7682 148.231 -15.6741 147.966 -15.4481 147.853C-13.584 146.927 -11.7764 145.963 -10.0253 145.037C-2.32406 140.956 4.94407 137.101 18.4259 134.739C18.6707 134.701 18.9155 134.852 18.9531 135.117C19.0096 135.362 18.8401 135.589 18.5765 135.646C5.24535 137.97 -1.9663 141.806 -9.5922 145.85C-11.3433 146.776 -13.1509 147.739 -15.0339 148.665C-15.1092 148.703 -15.1782 148.722 -15.241 148.722Z" fill="white"/>
<path d="M137.8 185.9H131.3V96.2H137.8V185.9Z" fill="white"/>
<path fill-rule="evenodd" clip-rule="evenodd" d="M138.503 187.2H130.573C130.263 187.2 130 186.951 130 186.656V96.7669C130 96.4494 130.263 96.2 130.573 96.2H138.503C138.837 96.2 139.1 96.4494 139.1 96.7669V186.656C139.1 186.951 138.837 187.2 138.503 187.2ZM131.17 186.111H137.93V97.3111H131.17V186.111Z" fill="black"/>
<path d="M100.1 189.532L133.333 185.9H136.365L170.3 189.532V192.4H100.1V189.532Z" fill="white"/>
<path fill-rule="evenodd" clip-rule="evenodd" d="M169.755 192.4H99.3444C99.0267 192.4 98.7998 192.15 98.7998 191.854V189.468C98.7998 189.173 99.004 188.923 99.299 188.9L132.61 185.9H135.718L169.801 188.9C170.073 188.923 170.3 189.173 170.3 189.468V191.854C170.3 192.15 170.05 192.4 169.755 192.4ZM99.889 191.286H169.188V189.968L135.673 187.014H132.678L99.889 189.968V191.286Z" fill="black"/>
<path d="M128.879 39.0449V58.4076C128.879 77.3179 114.857 92.6769 97.5783 92.6769C80.2994 92.6769 66.2998 108.013 66.2998 126.946C66.2998 128.62 67.5663 130 69.1495 130H151.993C177.889 130 198.9 106.995 198.9 78.6073V37.3258C198.9 26.0384 190.532 16.8999 180.241 16.8999H149.098C137.926 16.8999 128.879 26.8075 128.879 39.0449Z" fill="white"/>
<path fill-rule="evenodd" clip-rule="evenodd" d="M151.844 131.3H69.6866C67.825 131.3 66.2998 129.669 66.2998 127.697C66.2998 108.461 80.4749 92.804 97.8798 92.804C114.702 92.804 128.361 77.6685 128.361 59.0437V39.6485C128.361 27.1186 137.624 16.8999 148.973 16.8999H179.858C190.354 16.8999 198.9 26.3256 198.9 37.9265V79.2773C198.9 107.962 177.794 131.3 151.844 131.3ZM148.973 18.0101C138.229 18.0101 129.46 27.7078 129.46 39.6485V59.0437C129.46 78.2576 115.307 93.9143 97.8798 93.9143C81.0805 93.9143 67.3988 109.072 67.3988 127.697C67.3988 129.079 68.4306 130.19 69.6866 130.19H151.844C177.189 130.19 197.801 107.35 197.801 79.2773V37.9265C197.801 26.9374 189.749 18.0101 179.858 18.0101H148.973Z" fill="black"/>
<path d="M111.8 174.726C111.016 173.947 106.472 159.9 106.472 159.9L97.5 166.27L107.349 179.4L111.8 174.726Z" fill="white"/>
<path fill-rule="evenodd" clip-rule="evenodd" d="M108.022 179.4C108.007 179.4 107.991 179.4 107.976 179.4C107.813 179.4 107.649 179.308 107.556 179.169L97.6225 165.911C97.5293 165.795 97.4826 165.633 97.5059 165.494C97.5293 165.356 97.6225 165.217 97.7391 165.124L106.81 158.715C106.95 158.599 107.16 158.576 107.323 158.622C107.486 158.692 107.626 158.808 107.673 158.993C109.841 165.656 112.43 173.084 112.943 173.731C113.152 173.963 113.152 174.287 112.943 174.518L108.419 179.238C108.326 179.331 108.162 179.4 108.022 179.4ZM98.8817 165.703L108.069 177.966L111.823 174.032C110.727 171.88 107.999 163.666 106.833 160.08L98.8817 165.703Z" fill="black"/>
<path d="M96.7376 192.4L102.476 192.354C106.264 192.331 109.786 190.344 111.847 187.017L117.518 177.66C119.091 175.073 118.205 171.653 115.613 170.221C113.265 168.904 110.783 167.633 110.207 167.703C109.033 167.818 108.546 173.617 108.546 173.617L103.45 173.825C103.45 173.825 100.925 184.776 98.7093 186C97.0921 186.901 95.9622 188.241 95.1868 189.466C94.4114 190.737 95.2976 192.4 96.7376 192.4Z" fill="black"/>
<path d="M96.7567 189.8C96.4812 189.8 96.2515 189.62 96.2056 189.35C96.1597 189.035 96.3663 188.765 96.6878 188.72L104.794 187.529C106.471 187.281 107.917 186.314 108.79 184.92L115.955 173.158C116.116 172.911 116.46 172.821 116.736 172.978C116.988 173.136 117.08 173.473 116.919 173.72L109.731 185.482C108.698 187.169 106.976 188.316 104.978 188.608L96.8486 189.8C96.8179 189.8 96.7874 189.8 96.7567 189.8Z" fill="white"/>
<path d="M107.264 180.7C107.211 180.7 107.158 180.696 107.105 180.687L101.867 180.004C101.523 179.966 101.338 179.788 101.418 179.624C101.523 179.459 101.867 179.371 102.211 179.409L107.422 180.092C107.766 180.13 107.978 180.307 107.872 180.472C107.819 180.611 107.555 180.7 107.264 180.7Z" fill="white"/>
<path d="M104.769 183.3C104.726 183.3 104.691 183.295 104.662 183.284L101.8 182.771C101.521 182.722 101.348 182.514 101.413 182.289C101.499 182.081 101.779 181.952 102.058 182.017L104.899 182.53C105.178 182.578 105.35 182.787 105.286 182.995C105.221 183.172 105.006 183.3 104.769 183.3Z" fill="white"/>
<path d="M81.8998 171.398L71.718 182L66.2998 179.945L75.714 166.4L81.8998 171.398Z" fill="white"/>
<path fill-rule="evenodd" clip-rule="evenodd" d="M72.3285 182C72.2524 182 72.1838 181.993 72.1229 181.978L66.6644 180.064C66.5046 179.999 66.3675 179.868 66.3219 179.716C66.2762 179.564 66.299 179.39 66.4132 179.259L75.9142 166.623C76.0055 166.514 76.1426 166.427 76.2796 166.405C76.4395 166.384 76.5765 166.427 76.7136 166.514L82.9714 171.19C83.1084 171.277 83.177 171.43 83.1998 171.582C83.1998 171.734 83.1313 171.865 83.0171 171.973L72.7167 181.848C72.6026 181.956 72.4655 182 72.3285 182ZM67.7379 179.303L72.1686 180.869L81.8066 171.647L76.4852 167.689L67.7379 179.303Z" fill="black"/>
<path d="M75.2497 180.844C75.2497 180.844 75.7571 185.149 74.9037 188.942C74.4425 190.972 72.5744 192.4 70.4295 192.4H44.8754C43.0303 192.4 42.2001 190.191 43.6069 189.054C48.1504 185.373 56.5223 179.751 66.7855 178.1L69.6453 181.982L75.2497 180.844Z" fill="black"/>
<path d="M60.5208 184.6C60.2828 184.6 60.0686 184.441 59.9734 184.201L58.5454 180.297C58.4264 179.952 58.5454 179.58 58.8548 179.447C59.1404 179.314 59.4974 179.473 59.6164 179.792L61.0444 183.723C61.1872 184.042 61.0444 184.414 60.735 184.547C60.6715 184.582 60.6002 184.6 60.5208 184.6Z" fill="white"/>
<path d="M56.5176 185.9C56.2361 185.9 55.9546 185.7 55.8701 185.415L54.6314 181.617C54.5188 181.246 54.7159 180.875 55.0537 180.732C55.4197 180.618 55.8138 180.818 55.9264 181.189L57.1651 184.986C57.2777 185.357 57.1088 185.729 56.7428 185.871C56.6678 185.89 56.5927 185.9 56.5176 185.9Z" fill="white"/>
<path d="M136.606 100.024C136.606 100.024 89.8973 94.5939 75.9958 106.608C62.1169 118.623 97.9349 170.3 97.9349 170.3L109.255 161.906L98.5009 125.388L141.7 113.124L136.606 100.024Z" fill="black"/>
<path d="M161.244 123.293C154.528 125.452 142.53 128.247 125.741 128.02C120.973 127.952 116.563 130.634 114.414 134.929C109.444 144.838 98.6771 162.655 81.1495 174.2L72.7998 169.632L94.1553 120.816C96.1028 116.362 99.7516 112.885 104.251 111.203L146.581 95.4536C146.581 95.4536 159.722 91.7265 166.146 103.612C167.288 105.749 169.437 101.953 169.929 103.658C171.675 109.544 166.997 121.43 161.244 123.293Z" fill="black"/>
<path d="M83.7642 143C83.6887 143 83.6132 142.985 83.5378 142.955C83.2434 142.818 83.1302 142.5 83.2434 142.205L93.0029 120.172C95.0409 115.607 98.8677 111.995 103.555 110.269L124.048 102.728C124.342 102.637 124.659 102.773 124.772 103.068C124.863 103.341 124.727 103.659 124.433 103.773L103.94 111.314C99.5244 112.926 95.924 116.334 94.0219 120.627L84.2624 142.659C84.1718 142.864 83.968 143 83.7642 143Z" fill="white"/>
<path d="M95.4297 162.5C95.3005 162.5 95.1714 162.453 95.0637 162.337C94.8484 162.128 94.8484 161.757 95.0422 161.547C96.8939 159.457 98.7241 157.226 100.468 154.903C100.64 154.671 100.985 154.624 101.2 154.833C101.437 155.019 101.459 155.391 101.286 155.623C99.5208 157.97 97.669 160.223 95.8173 162.337C95.7097 162.453 95.5589 162.5 95.4297 162.5Z" fill="white"/>
<path d="M101.784 156C101.691 156 101.613 155.948 101.535 155.871C101.38 155.638 101.349 155.249 101.489 154.965C102.11 153.696 102.716 152.376 103.322 151.055C103.447 150.771 103.68 150.719 103.851 150.926C104.006 151.133 104.053 151.521 103.928 151.806C103.322 153.152 102.701 154.473 102.079 155.767C102.001 155.922 101.893 156 101.784 156Z" fill="white"/>
<path d="M164.85 38.7241C159.47 37.4721 157.245 37.4721 137.721 38.1652C132.954 38.3217 127.278 44.2241 126.733 48.8968C128.232 53.3683 135.247 75.4576 123.033 92.74C121.285 95.177 118.947 97.8599 115.7 100.453C117.516 101.884 120.354 103.785 124.145 104.88C130.434 106.713 133.589 104.724 138.675 104.88C152.092 105.283 156.995 119.994 165.667 118.138C167.983 117.646 171.048 115.88 173.931 109.911C175.565 104.97 179.493 98.4188 180.31 91.868C182.49 74.0714 182.853 56.2748 179.652 46.974C178.698 44.0452 171.161 40.1773 164.85 38.7241Z" fill="white"/>
<path fill-rule="evenodd" clip-rule="evenodd" d="M163.892 119.6C160.319 119.6 157.371 116.936 154.044 113.885C150.046 110.265 145.513 106.121 138.813 105.939C137.049 105.87 135.508 106.098 134.012 106.326C131.288 106.713 128.452 107.145 124.387 105.916C121.372 104.982 118.514 103.434 115.901 101.294C115.767 101.18 115.7 101.021 115.7 100.861C115.7 100.679 115.767 100.52 115.901 100.429C118.648 98.1517 121.037 95.556 123.003 92.6871C133.99 76.5896 129.144 56.4391 126.576 48.5156C126.546 48.4397 126.531 48.3638 126.531 48.2879C127.112 43.4609 132.695 37.0628 137.876 36.8579C157.416 36.1521 159.426 36.1976 164.696 37.4499C170.949 38.9526 178.631 42.9372 179.658 46.2387C182.539 54.8453 182.762 71.6032 180.328 92.1862C179.792 96.6717 177.894 101.157 176.219 105.096C175.37 107.1 174.566 108.99 174.03 110.675C174.03 110.69 174.023 110.712 174.008 110.743C171.663 115.775 168.805 118.689 165.5 119.418C164.949 119.539 164.413 119.6 163.892 119.6ZM138.277 104.8C138.471 104.8 138.657 104.808 138.836 104.823C145.96 105.028 150.627 109.308 154.758 113.065C158.376 116.344 161.48 119.167 165.276 118.348C168.224 117.687 170.815 114.978 173.003 110.287C173.562 108.58 174.365 106.667 175.214 104.664C176.867 100.793 178.72 96.3984 179.234 92.0496C181.668 71.6259 181.445 55.0502 178.631 46.5802C177.827 43.9846 170.926 40.0911 164.45 38.5428C159.314 37.2905 157.326 37.2677 137.92 37.9736C133.7 38.133 128.273 43.5975 127.648 48.2879C130.283 56.4391 135.106 76.8856 123.896 93.3247C121.998 96.0797 119.72 98.607 117.107 100.838C119.452 102.683 122.02 104.026 124.678 104.846C128.541 106.007 131.109 105.62 133.856 105.233C135.24 105.028 136.67 104.8 138.277 104.8Z" fill="black"/>
<path d="M122.199 66.4965C122.199 66.4965 125.211 41.1606 133.899 39C130.844 48.8478 129.826 59.5598 130.259 70.886C130.281 71.3636 129.783 71.6592 129.414 71.409L122.199 66.4965Z" fill="white"/>
<path fill-rule="evenodd" clip-rule="evenodd" d="M129.928 71.5C129.685 71.5 129.466 71.4542 129.271 71.317L121.172 66.3764C120.977 66.2621 120.88 66.0562 120.904 65.8503C121.05 64.7982 124.455 39.9583 134.477 37.7168C134.671 37.671 134.89 37.7168 135.036 37.8769C135.182 38.0141 135.231 38.2429 135.182 38.4258C131.923 47.8037 130.609 58.2337 131.144 70.3105C131.144 70.7451 130.925 71.1569 130.512 71.3627C130.342 71.4542 130.123 71.5 129.928 71.5ZM122.12 65.6445L129.904 70.402C129.442 58.5997 130.658 48.3755 133.698 39.1349C125.817 42.5201 122.558 62.7397 122.12 65.6445Z" fill="black"/>
<path d="M112.812 58.1756C109.905 58.8562 106.435 59.9224 102.266 58.9923C96.2952 57.6765 91.1352 52.7765 91 47.5815C91 46.9463 90.9549 42.2957 94.6729 40.4582C96.6332 39.4827 97.7373 40.2087 99.6301 39.392C103.686 37.6452 101.388 33.0854 104.677 29.7279C108.666 25.6445 118.513 25.826 123.92 26.7108C132.325 28.0719 133.7 31.7016 138.634 31.0891C144.628 30.3178 144.921 24.6464 151.951 19.2926C158.576 14.2791 177.819 11.9652 187.238 17.5231C201.343 25.8714 201.185 40.2994 199.293 49.3736C197.4 58.4025 188.432 62.1683 178.134 66.0475C173.65 67.7262 169.437 60.5122 154.182 59.809C126.94 58.5159 123.718 55.6348 112.812 58.1756Z" fill="black"/>
<path d="M191.818 29.8999C191.649 29.8999 191.48 29.835 191.359 29.7051C188.242 26.3707 184.884 24.3787 184.86 24.3571C184.594 24.2055 184.521 23.8807 184.691 23.6426C184.86 23.4044 185.246 23.3178 185.512 23.491C185.657 23.5776 189.039 25.5696 192.253 29.0338C192.47 29.2504 192.446 29.5968 192.18 29.77C192.084 29.8566 191.939 29.8999 191.818 29.8999Z" fill="white"/>
<path d="M123.251 60.0873C124.875 60.6323 126.521 61.0864 128.235 61.2C128.934 61.2454 129.723 61.2908 130.58 61.2908C133.917 61.2908 135.947 59.3833 138.021 59.9056C140.096 60.4279 153.4 64.311 153.4 64.311C153.4 64.311 152.273 65.9006 148.507 64.9696C144.741 64.0385 140.75 63.7433 139.6 64.7425C138.427 65.7417 133.083 65.946 131.527 65.2648C129.994 64.5835 97.4093 67.9216 87.3522 65.2421C77.3176 62.5852 87.1943 54.2058 98.7172 54.6145C107.647 54.9325 117.817 58.2479 123.251 60.0873Z" fill="white"/>
<path fill-rule="evenodd" clip-rule="evenodd" d="M100.063 66.3C94.478 66.3 89.5037 66.0238 86.4739 65.218C82.1326 64.0439 81.7709 61.9258 81.9291 60.7747C82.4492 57.1601 89.7524 53.0161 98.0279 53.3154C106.371 53.6147 115.642 56.4695 122.764 58.8868C124.188 59.3933 125.884 59.8998 127.648 60.0149C128.417 60.061 129.185 60.084 129.977 60.084C131.492 60.13 132.803 59.6466 133.933 59.2552C135.154 58.8177 136.33 58.4033 137.551 58.7026C139.609 59.2321 152.452 63.0309 152.994 63.192C153.175 63.2381 153.311 63.3762 153.379 63.5374C153.424 63.7215 153.401 63.9057 153.288 64.0669C153.243 64.1359 151.886 65.9547 147.794 64.9417C143.882 63.9517 140.264 63.8136 139.36 64.5964C137.936 65.8166 132.306 65.9087 130.7 65.195C130.135 65.0338 125.839 65.2871 121.294 65.5173C115.076 65.8626 107.095 66.3 100.063 66.3ZM97.1461 54.4205C89.4359 54.4205 83.4215 58.2192 83.0145 60.9358C82.7657 62.7776 85.2529 63.7215 86.7678 64.1359C93.4379 65.9317 110.17 65.0108 121.226 64.4122C128.236 64.0208 130.542 63.9287 131.13 64.182C132.599 64.8266 137.732 64.5273 138.636 63.7446C140.129 62.4553 144.651 62.9848 148.065 63.8597C149.738 64.2741 150.846 64.136 151.525 63.9288C148.201 62.9388 138.976 60.2221 137.28 59.8077C136.375 59.5775 135.448 59.8998 134.295 60.3142C133.074 60.7286 131.718 61.2121 129.999 61.2121C129.984 61.2121 129.969 61.2121 129.954 61.2121C129.163 61.2121 128.349 61.1891 127.58 61.12C125.681 61.0049 123.917 60.4754 122.425 59.9689C115.37 57.5515 106.19 54.7428 97.9827 54.4435C97.6962 54.4281 97.4174 54.4205 97.1461 54.4205Z" fill="black"/>
<path d="M129.512 44.2482C129.512 44.2482 130.573 49.667 133.801 49.9174C137.028 50.1679 140.007 40.9469 151.834 45.4322C164.632 50.259 180.815 53.1049 183.05 59.4799C187.225 71.2964 137.615 64.2383 137.57 63.9196L122.199 59.7759L129.512 44.2482Z" fill="white"/>
<path fill-rule="evenodd" clip-rule="evenodd" d="M164.604 66.2999C152.061 66.2999 137.638 64.3055 136.732 64.0237C136.717 64.0237 136.695 64.0165 136.665 64.002L121.291 60.0782C121.132 60.0348 121.019 59.9264 120.951 59.7963C120.883 59.6446 120.883 59.4712 120.951 59.3411L128.287 44.5345C128.378 44.3394 128.604 44.2093 128.853 44.231C129.08 44.2744 129.283 44.4478 129.329 44.6646C129.329 44.708 130.348 49.4339 133.132 49.6507C133.925 49.7157 134.831 48.957 135.985 48.0248C138.748 45.7702 142.936 42.3667 151.382 45.4017C154.936 46.6807 158.785 47.8297 162.499 48.9136C172.597 51.9053 181.291 54.4851 183.012 59.1026C183.578 60.5985 183.306 61.8992 182.242 62.9831C179.683 65.5195 172.529 66.2999 164.604 66.2999ZM137.117 63.0265C138.974 63.5034 175.495 68.1426 181.45 62.246C182.219 61.4873 182.4 60.5768 181.97 59.4712C180.453 55.3305 171.578 52.7074 162.182 49.9325C158.446 48.8269 154.597 47.6779 150.997 46.3989C143.14 43.5807 139.427 46.6157 136.687 48.8269C135.351 49.9325 134.287 50.7997 133.042 50.6913C130.551 50.5179 129.238 47.9381 128.649 46.2688L122.219 59.211L137.004 63.0048C137.034 63.0048 137.072 63.012 137.117 63.0265Z" fill="black"/>
<path d="M109.2 50.6833C109.2 50.6833 116.162 61.0999 123.631 61.0999C133.127 61.1226 127.905 49.072 127.905 49.072C127.905 49.072 131.761 48.0961 131.254 44.4424C130.726 40.8794 128.214 42.1049 127.266 43.6254C127.266 43.6254 123.918 49.9797 120.855 38.2468C120.15 35.5462 122.618 43.6254 117.484 45.5544C112.924 47.2564 109.332 44.4424 109.2 50.6833Z" fill="white"/>
<path fill-rule="evenodd" clip-rule="evenodd" d="M123.886 62.4C123.87 62.4 123.862 62.4 123.862 62.4C115.693 62.3771 108.323 52.093 107.994 51.6359C107.947 51.5445 107.9 51.4303 107.9 51.316C108.018 46.5853 110.295 46.4482 112.947 46.3111C114.191 46.2654 115.623 46.1739 117.125 45.6483C120.787 44.3456 120.412 39.775 120.2 38.4037C120.106 37.8324 120.576 37.7181 120.646 37.7181C120.811 37.6724 121.186 37.6724 121.327 38.2209C121.358 38.3123 121.397 38.4571 121.444 38.6551C123.017 44.3228 124.496 45.3055 125.247 45.3969C126.303 45.5112 127.219 43.98 127.219 43.98C127.946 42.883 129.308 41.946 130.552 42.2203C131.303 42.3574 132.242 42.9744 132.547 44.9855C132.97 47.8651 130.787 49.4649 129.167 50.059C129.871 51.7731 131.608 56.8694 129.543 59.9775C128.463 61.5772 126.562 62.4 123.886 62.4ZM109.051 51.156C109.99 52.4129 116.797 61.2573 123.862 61.2801C123.862 61.2801 123.87 61.2801 123.886 61.2801C126.139 61.2801 127.712 60.6402 128.58 59.3604C130.693 56.1609 127.923 49.9905 127.876 49.9448C127.806 49.7848 127.829 49.6248 127.9 49.4649C127.97 49.3277 128.111 49.2135 128.275 49.1678C128.416 49.122 131.89 48.2536 131.397 45.1455C131.303 44.5285 131.045 43.4544 130.317 43.2944C129.613 43.1573 128.674 43.82 128.205 44.5285C128.181 44.597 126.984 46.6996 125.13 46.4939C123.674 46.3339 122.43 44.8256 121.304 41.9003C120.975 43.7972 119.989 45.8083 117.524 46.6996C115.858 47.2937 114.285 47.3623 113.018 47.4309C110.482 47.568 109.191 47.6366 109.051 51.156Z" fill="black"/>
<path d="M140.671 61.3811C139.048 61.9255 137.379 62.4019 135.665 62.5153C134.966 62.5606 134.177 62.5833 133.32 62.5833C130.005 62.606 127.976 60.7006 125.901 61.2223C123.804 61.7213 110.5 65.6229 110.5 65.6229C110.5 65.6229 111.65 67.2108 115.393 66.2808C119.159 65.3507 123.15 65.0558 124.323 66.0539C125.473 67.052 130.84 67.2562 132.373 66.5757C133.929 65.8952 166.513 69.207 176.548 66.553C186.583 63.899 176.706 55.506 165.183 55.9143C156.276 56.2319 146.106 59.5437 140.671 61.3811Z" fill="white"/>
<path fill-rule="evenodd" clip-rule="evenodd" d="M163.852 67.6001C156.82 67.6001 148.838 67.1627 142.619 66.8173C138.052 66.5641 133.755 66.3339 133.19 66.495C131.607 67.2087 125.977 67.1166 124.552 65.8734C123.648 65.0907 120.007 65.2518 116.095 66.2188C112.025 67.2548 110.668 65.436 110.6 65.3439C110.51 65.2058 110.465 64.9986 110.533 64.8374C110.601 64.6532 110.736 64.5381 110.894 64.4691C111.437 64.3079 124.281 60.5322 126.361 60.0027C127.56 59.7034 128.735 60.0948 129.979 60.5322C131.11 60.9466 132.376 61.3841 133.891 61.3841C133.906 61.3841 133.921 61.3841 133.936 61.3841C134.705 61.3841 135.496 61.361 136.265 61.292C138.029 61.1769 139.702 60.6704 141.127 60.1869C148.25 57.7465 157.521 54.9148 165.887 54.6155C174.163 54.3162 181.444 58.4372 181.964 62.0517C182.145 63.2259 181.783 65.3439 177.419 66.495C174.389 67.3238 169.415 67.6001 163.852 67.6001ZM134.298 65.3209C135.723 65.3209 138.278 65.459 142.664 65.6892C153.744 66.3108 170.455 67.2087 177.148 65.413C178.663 65.0216 181.15 64.0547 180.879 62.2129C180.472 59.4041 174.005 55.4673 165.91 55.7436C157.702 56.0429 148.544 58.8286 141.489 61.2459C139.996 61.7524 138.232 62.305 136.333 62.4201C135.542 62.4661 134.728 62.5122 133.936 62.5122C133.921 62.5122 133.906 62.5122 133.891 62.5122C132.195 62.5122 130.816 62.0287 129.617 61.5913C128.441 61.1999 127.514 60.8545 126.61 61.0848C124.937 61.5222 115.688 64.2388 112.387 65.2058C113.043 65.436 114.151 65.5741 115.847 65.1367C119.261 64.2849 123.783 63.7323 125.276 65.0216C126.18 65.8274 131.291 66.1267 132.783 65.459C132.986 65.3669 133.439 65.3209 134.298 65.3209Z" fill="black"/>
<path d="M139.265 60.634C138.959 60.1575 139.086 59.5223 139.597 59.182C140.312 58.7055 141.36 58.2291 142.381 58.6828C143.71 59.3181 145.881 63.901 146.826 66.011C147.081 66.5328 146.647 66.9638 146.034 67.168C145.447 67.3949 144.425 67.5991 144.425 67.5991C144.042 67.6218 143.454 67.2134 143.275 66.9185L139.265 60.634Z" fill="black"/>
<path d="M191.569 192.4L166.389 86.6924L141.231 192.4H135.2L162.856 75.3999H169.944L197.6 192.4H191.569Z" fill="white"/>
<path fill-rule="evenodd" clip-rule="evenodd" d="M197.041 192.4H190.993C190.745 192.4 190.519 192.219 190.474 191.971L165.739 89.4751L141.027 191.971C140.982 192.219 140.756 192.4 140.508 192.4H134.46C134.279 192.4 134.121 192.332 134.008 192.197C133.918 192.062 133.873 191.881 133.918 191.723L161.654 75.8285C161.722 75.5804 161.925 75.3999 162.196 75.3999H169.305C169.553 75.3999 169.779 75.5578 169.847 75.8059L197.583 191.723C197.628 191.881 197.583 192.062 197.47 192.197C197.38 192.332 197.222 192.4 197.041 192.4ZM191.422 191.295H196.342L168.876 76.4826L162.625 76.5052L135.137 191.295H140.079L165.22 87.0164C165.265 86.7683 165.491 86.5879 165.739 86.5879C166.01 86.5879 166.236 86.7683 166.281 87.0164L191.422 191.295Z" fill="black"/>
<path d="M65.7186 191.1L41.6104 86.5894L17.4798 191.1H11.6992L38.2048 75.4224L44.9936 75.3999L71.4992 191.1H65.7186Z" fill="white"/>
<path fill-rule="evenodd" clip-rule="evenodd" d="M72.2318 192.4H66.3089C66.0564 192.4 65.8268 192.218 65.7579 191.967L41.6071 88.4429L17.4333 191.967C17.3644 192.218 17.1348 192.4 16.8823 192.4H10.9594C10.7987 192.4 10.638 192.309 10.5232 192.195C10.4084 192.058 10.3854 191.876 10.4084 191.716L37.5666 74.5333C37.6355 74.2825 37.8651 74.1001 38.1176 74.1001H45.0736C45.3491 74.1001 45.5557 74.2825 45.6246 74.5333L72.7828 191.716C72.8287 191.876 72.7828 192.058 72.668 192.195C72.5762 192.309 72.4155 192.4 72.2318 192.4ZM66.7681 191.283H71.5431L44.6374 75.2174H38.5538L11.671 191.283H16.4461L41.0561 85.8434C41.102 85.5926 41.3316 85.4102 41.6071 85.4102C41.8596 85.4102 42.0892 85.5926 42.1351 85.8434L66.7681 191.283Z" fill="black"/>
<path d="M11.6992 76.6999H202.799V67.5999H11.6992V76.6999Z" fill="white"/>
<path fill-rule="evenodd" clip-rule="evenodd" d="M203.556 76.7H10.9447C10.6499 76.7 10.4004 76.4556 10.4004 76.1667V66.8334C10.4004 66.5445 10.6499 66.3 10.9447 66.3H203.556C203.851 66.3 204.1 66.5445 204.1 66.8334V76.1667C204.1 76.4556 203.851 76.7 203.556 76.7ZM11.5118 75.6334H202.989V67.3889H11.5118V75.6334Z" fill="black"/>
<path d="M17.842 20.8H53.1803C54.6744 20.8 56.0553 21.5339 56.8703 22.7723L70.1136 62.3326H101.4V62.9288C101.4 64.7864 99.9055 66.3 98.0718 66.3H31.674C29.8177 66.3 28.3235 64.7864 28.3235 62.9288V62.4014L16.3479 25.4097C16.1668 24.8593 15.9404 24.3088 15.7367 23.7584C15.216 22.3595 16.2347 20.8 17.842 20.8Z" fill="white"/>
<path fill-rule="evenodd" clip-rule="evenodd" d="M97.5563 67.6H32.0184C29.8957 67.6 28.1751 65.8275 28.1751 63.6636V63.2262L16.377 26.1867C16.2429 25.7954 16.1088 25.4041 15.9524 25.0357L15.7736 24.5523C15.4608 23.7236 15.5725 22.7798 16.0865 22.0201C16.6004 21.2604 17.4271 20.8 18.3656 20.8H53.2462C54.922 20.8 56.4415 21.6518 57.3353 23.056C57.3651 23.102 57.3874 23.1481 57.4023 23.1941L70.3624 62.4896H100.841C101.154 62.4896 101.4 62.7428 101.4 63.0651V63.6636C101.4 65.8275 99.679 67.6 97.5563 67.6ZM18.3656 21.928C17.807 21.928 17.2931 22.2043 16.9803 22.6647C16.6898 23.1021 16.6004 23.6546 16.8015 24.138L16.9579 24.6214C17.1143 25.0127 17.2707 25.4271 17.4048 25.8414L29.2253 62.95C29.2551 63.0114 29.27 63.0727 29.27 63.1341V63.6406C29.27 65.206 30.499 66.4951 32.0184 66.4951H97.5563C99.0757 66.4951 100.305 65.206 100.305 63.6636V63.6176H69.9602C69.7368 63.6176 69.5357 63.4564 69.4463 63.2492L56.3745 23.6085C55.6818 22.5496 54.5198 21.928 53.2462 21.928H18.3656Z" fill="black"/>
<path d="M44.0569 41.4166C44.5267 43.1548 43.8006 44.9407 42.4553 45.3931C41.0886 45.8455 39.6151 44.8216 39.1453 43.0834C38.6755 41.3452 39.3802 39.5593 40.7469 39.1069C42.0923 38.6545 43.5871 39.6784 44.0569 41.4166Z" fill="black"/>
<path d="M63.1439 63.6999H39.5561C39.2549 63.6999 39 63.4081 39 63.0632C39 62.6917 39.2549 62.3999 39.5561 62.3999H63.1439C63.4451 62.3999 63.7 62.6917 63.7 63.0632C63.7 63.4081 63.4451 63.6999 63.1439 63.6999Z" fill="black"/>
<path d="M31.9548 63.6999H27.8448C27.5496 63.6999 27.2998 63.4081 27.2998 63.0632C27.2998 62.6917 27.5496 62.3999 27.8448 62.3999H31.9548C32.25 62.3999 32.4998 62.6917 32.4998 63.0632C32.4998 63.4081 32.25 63.6999 31.9548 63.6999Z" fill="black"/>
</g>
<defs>
<clipPath id="clip0_1212_57">
<rect width="214.5" height="221" fill="white"/>
</clipPath>
</defs>
</svg>
