<svg width="28" height="18" viewBox="0 0 28 18" fill="none" xmlns="http://www.w3.org/2000/svg">
<path fill-rule="evenodd" clip-rule="evenodd" d="M24.7929 13.644C21.7899 15.846 17.4365 17.0168 13.6873 17.0168C8.43302 17.0168 3.70158 15.0869 0.121446 11.875C-0.1596 11.6227 0.0907738 11.2783 0.428886 11.4739C4.2915 13.7071 9.06858 15.0522 14.0026 15.0522C17.3309 15.0522 20.9895 14.3662 24.3564 12.9473C24.8636 12.7326 25.2894 13.279 24.7929 13.644ZM26.042 12.2266C26.4264 12.7156 25.6147 14.729 25.2523 15.6284C25.1425 15.9005 25.3779 16.0104 25.6261 15.8042C27.2368 14.4654 27.6533 11.6596 27.3238 11.2542C26.9964 10.8524 24.1802 10.5065 22.4611 11.7057C22.1965 11.8899 22.2421 12.1451 22.5353 12.1096C23.5033 11.9948 25.6582 11.7376 26.042 12.2266Z" fill="#FF9900"/>
<path fill-rule="evenodd" clip-rule="evenodd" d="M21.695 8.62143L24.8207 0.717133C24.8864 0.556963 24.9199 0.444278 24.9199 0.378367C24.9199 0.265682 24.8535 0.208984 24.7209 0.208984H23.9255C23.7736 0.208984 23.6702 0.233081 23.6124 0.279856C23.5553 0.32734 23.499 0.430812 23.4419 0.590982L21.5238 6.06722L19.5351 0.590982C19.478 0.430812 19.4216 0.32734 19.3646 0.279856C19.3075 0.233081 19.2034 0.208984 19.0514 0.208984H18.199C18.0663 0.208984 18 0.265682 18 0.378367C18 0.444278 18.0328 0.556963 18.0992 0.717133L20.8411 7.43575L20.5715 8.1558C20.4103 8.60796 20.2305 8.91838 20.0315 9.08777C19.8325 9.25715 19.5529 9.34149 19.1934 9.34149C19.0322 9.34149 18.9045 9.33156 18.8103 9.31314C18.7155 9.29471 18.6441 9.28479 18.597 9.28479C18.4551 9.28479 18.3838 9.37409 18.3838 9.55268V9.9198C18.3838 10.0516 18.4073 10.148 18.4551 10.209C18.5022 10.2699 18.5778 10.3153 18.6826 10.3429C18.9188 10.4081 19.1891 10.4421 19.4923 10.4421C20.0322 10.4421 20.4702 10.3011 20.8062 10.0183C21.1436 9.73695 21.4396 9.27061 21.695 8.62143Z" fill="#232F3E"/>
<path fill-rule="evenodd" clip-rule="evenodd" d="M10.0259 2.15237C9.88823 1.69596 9.69207 1.30758 9.43599 0.987949C9.18062 0.668318 8.86819 0.423103 8.49869 0.25372C8.1299 0.0843371 7.71761 0 7.26251 0C6.83666 0 6.41937 0.0793761 6.01278 0.239546C5.60547 0.399715 5.22171 0.635009 4.86148 0.945426L4.79087 0.493266C4.76233 0.305456 4.6532 0.211197 4.46345 0.211197H3.83859C3.64956 0.211197 3.55469 0.305456 3.55469 0.493266V9.99288C3.55469 10.1814 3.64956 10.2749 3.83859 10.2749H4.67674C4.86648 10.2749 4.96064 10.1807 4.96064 9.99288V6.69027C5.57623 7.24519 6.31023 7.52301 7.16264 7.52301C7.6263 7.52301 8.04787 7.43088 8.42664 7.24803C8.80541 7.06447 9.12712 6.80792 9.39247 6.47836C9.65783 6.14952 9.86398 5.7498 10.0102 5.27851C10.1571 4.80792 10.2306 4.28064 10.2306 3.69737C10.232 3.12402 10.1629 2.60878 10.0259 2.15237ZM6.83666 6.39332C6.19182 6.39332 5.56695 6.16795 4.96135 5.71579V1.77817C5.55768 1.34514 6.19253 1.12898 6.86519 1.12898C8.15344 1.12898 8.79757 2.00921 8.79757 3.76824C8.79685 5.51876 8.14346 6.39332 6.83666 6.39332Z" fill="#232F3E"/>
<path fill-rule="evenodd" clip-rule="evenodd" d="M16.4331 0.553869C16.0065 0.187463 15.3439 0.00390625 14.4444 0.00390625C13.9993 0.00390625 13.5541 0.044303 13.109 0.123679C12.6632 0.203764 12.2894 0.309362 11.9863 0.441183C11.8729 0.488667 11.7965 0.537569 11.7587 0.589305C11.7209 0.641041 11.7017 0.733174 11.7017 0.864286V1.24487C11.7017 1.41425 11.763 1.49929 11.8864 1.49929C11.9242 1.49929 11.9649 1.49221 12.0077 1.47803C12.0505 1.46386 12.0861 1.45252 12.114 1.4426C12.8437 1.22644 13.5392 1.11801 14.2026 1.11801C14.7704 1.11801 15.1684 1.22148 15.3959 1.42913C15.6235 1.63608 15.7369 1.99327 15.7369 2.50142V3.43267C15.0742 3.2725 14.4772 3.19312 13.9465 3.19312C13.1133 3.19312 12.4506 3.39794 11.9577 3.80687C11.4656 4.2158 11.2188 4.76434 11.2188 5.45109C11.2188 6.09177 11.4178 6.60133 11.8158 6.98262C12.2131 7.36391 12.7531 7.55385 13.435 7.55385C13.8423 7.55385 14.2518 7.47376 14.6641 7.3143C15.0764 7.15484 15.4523 6.92805 15.7933 6.63677L15.8646 7.10239C15.8931 7.28099 15.9973 7.37029 16.1777 7.37029H16.7883C16.9774 7.37029 17.0729 7.27603 17.0729 7.08822V2.26187C17.0722 1.49008 16.8589 0.920983 16.4331 0.553869ZM15.7369 5.7771C15.4245 6.01239 15.0978 6.19099 14.7568 6.3136C14.4158 6.4362 14.0891 6.49715 13.7767 6.49715C13.4072 6.49715 13.1233 6.40077 12.9243 6.208C12.7253 6.01523 12.6261 5.74024 12.6261 5.38234C12.6261 4.56378 13.1611 4.15414 14.2311 4.15414C14.4772 4.15414 14.7304 4.17115 14.9908 4.20375C15.2511 4.23706 15.5001 4.28171 15.7369 4.3377V5.7771Z" fill="#232F3E"/>
</svg>
