<svg width="48" height="48" viewBox="0 0 48 48" fill="none" xmlns="http://www.w3.org/2000/svg">
<rect x="1" y="1" width="46" height="46" rx="23" fill="white" stroke="black" stroke-width="2"/>
<path fill-rule="evenodd" clip-rule="evenodd" d="M13.983 18.7909C13.5993 19.2601 12.9854 19.6301 12.3714 19.5773C12.2947 18.9429 12.5953 18.2688 12.947 17.8525C13.3307 17.3701 14.0022 17.0264 14.5458 17C14.6097 17.6608 14.3603 18.3085 13.983 18.7909ZM14.5385 19.7028C13.9976 19.6707 13.5041 19.8709 13.1055 20.0327C12.8489 20.1368 12.6317 20.2249 12.4664 20.2249C12.281 20.2249 12.0548 20.132 11.8008 20.0278L11.8008 20.0278L11.8008 20.0278C11.468 19.8912 11.0876 19.735 10.6886 19.7425C9.77409 19.7557 8.92354 20.291 8.4567 21.1435C7.49743 22.8484 8.20729 25.3728 9.13458 26.7606C9.58863 27.4479 10.1322 28.2012 10.8485 28.1748C11.1636 28.1625 11.3902 28.0631 11.6248 27.9603C11.8949 27.8418 12.1755 27.7188 12.6135 27.7188C13.0364 27.7188 13.3047 27.8386 13.5622 27.9536C13.8071 28.063 14.0423 28.168 14.3914 28.1616C15.1332 28.1484 15.6 27.4743 16.0541 26.787C16.5441 26.0494 16.7594 25.3295 16.7921 25.2203L16.7959 25.2076C16.7951 25.2068 16.7891 25.204 16.7784 25.1989C16.6146 25.1214 15.3626 24.5291 15.3506 22.9409C15.3386 21.6079 16.3437 20.9325 16.5019 20.8262C16.5115 20.8197 16.518 20.8153 16.5209 20.813C15.8814 19.835 14.8838 19.7293 14.5385 19.7028ZM19.6738 28.0889V17.7864H23.415C25.3463 17.7864 26.6957 19.1609 26.6957 21.1699C26.6957 23.1788 25.3207 24.5666 23.3638 24.5666H21.2214V28.0889H19.6738ZM21.2207 19.1345H23.0049C24.3479 19.1345 25.1153 19.8746 25.1153 21.1765C25.1153 22.4784 24.3479 23.2251 22.9985 23.2251H21.2207V19.1345ZM31.8041 26.8531C31.3948 27.6593 30.4931 28.1682 29.5211 28.1682C28.0822 28.1682 27.0781 27.2827 27.0781 25.9478C27.0781 24.6261 28.0502 23.8661 29.8472 23.7538L31.7785 23.6348V23.0665C31.7785 22.2272 31.2477 21.7713 30.3013 21.7713C29.5211 21.7713 28.9519 22.1876 28.8368 22.822H27.4426C27.4874 21.4871 28.7025 20.5157 30.346 20.5157C32.1175 20.5157 33.2686 21.4739 33.2686 22.9608V28.0889H31.8361V26.8531H31.8041ZM29.9373 26.9456C29.1123 26.9456 28.5879 26.5359 28.5879 25.9081C28.5879 25.2605 29.0931 24.8838 30.0588 24.8243L31.7791 24.712V25.2935C31.7791 26.2584 30.9861 26.9456 29.9373 26.9456ZM38.0235 28.492C37.4032 30.2961 36.6933 30.8909 35.184 30.8909C35.0689 30.8909 34.6852 30.8776 34.5957 30.8512V29.6154C34.6916 29.6286 34.9282 29.6419 35.0497 29.6419C35.734 29.6419 36.1177 29.3445 36.3544 28.5713L36.495 28.1153L33.873 20.6148H35.491L37.3136 26.7011H37.3456L39.1682 20.6148H40.7414L38.0235 28.492Z" fill="black"/>
</svg>
