<svg width="33" height="14" viewBox="0 0 33 14" fill="none" xmlns="http://www.w3.org/2000/svg">
<path fill-rule="evenodd" clip-rule="evenodd" d="M15.0598 10.4295V6.51664H17.0962C17.9307 6.51664 18.6351 6.23935 19.2093 5.69248L19.3471 5.55383C20.3959 4.42157 20.327 2.6577 19.2093 1.61016C18.6504 1.05558 17.8848 0.755179 17.0962 0.770584H13.8271V10.4295H15.0598ZM15.0586 5.33038V1.95669H17.126C17.5701 1.95669 17.9913 2.12614 18.3052 2.43424C18.9714 3.08125 18.9867 4.1596 18.3435 4.82972C18.0296 5.16093 17.5854 5.34579 17.126 5.33038H15.0586ZM25.0952 4.33679C24.5669 3.85154 23.8473 3.60506 22.9362 3.60506C21.7648 3.60506 20.8844 4.0364 20.3026 4.89137L21.3897 5.5769C21.7878 4.99151 22.3314 4.69881 23.0204 4.69881C23.4568 4.69881 23.8779 4.86056 24.2071 5.15326C24.5286 5.43055 24.7124 5.83108 24.7124 6.25472V6.53971C24.2377 6.27782 23.6405 6.13918 22.9056 6.13918C22.0481 6.13918 21.3591 6.33944 20.8461 6.74768C20.3332 7.15591 20.0729 7.69508 20.0729 8.38061C20.0576 9.00451 20.3255 9.5976 20.8002 9.99813C21.2825 10.4295 21.895 10.6451 22.6147 10.6451C23.4645 10.6451 24.1382 10.2677 24.6511 9.51287H24.7047V10.4295H25.8837V6.35485C25.8837 5.49987 25.6234 4.82205 25.0952 4.33679ZM21.7486 9.2125C21.4959 9.02764 21.3428 8.72724 21.3428 8.40374C21.3428 8.04172 21.5112 7.74132 21.8405 7.50254C22.1774 7.26377 22.5985 7.14053 23.0963 7.14053C23.7854 7.13282 24.3214 7.28687 24.7043 7.59497C24.7043 8.11874 24.4975 8.57319 24.0917 8.95831C23.7241 9.32803 23.2264 9.536 22.7057 9.536C22.3612 9.5437 22.0243 9.42817 21.7486 9.2125ZM28.536 13.3333L32.6549 3.82072H31.3151L29.4088 8.56546H29.3858L27.4335 3.82072H26.0938L28.7963 10.0058L27.2651 13.3333H28.536Z" fill="#3C4043"/>
<path d="M10.8029 5.66936C10.8029 5.29194 10.7723 4.91452 10.7111 4.5448H5.5127V6.67839H8.49085C8.36835 7.36391 7.97024 7.98011 7.38839 8.36524V9.75169H9.16457C10.2058 8.78887 10.8029 7.36391 10.8029 5.66936Z" fill="#4285F4"/>
<path d="M5.51357 11.0919C6.99882 11.0919 8.25439 10.599 9.16544 9.75169L7.38927 8.36524C6.89164 8.70415 6.2562 8.89671 5.51357 8.89671C4.07426 8.89671 2.85697 7.91849 2.42058 6.60907H0.59082V8.04173C1.52484 9.91344 3.43116 11.0919 5.51357 11.0919Z" fill="#25D366"/>
<path d="M2.42157 6.60908C2.19185 5.92356 2.19185 5.17641 2.42157 4.48319V3.05823H0.591513C-0.197171 4.62183 -0.197171 6.47043 0.591513 8.03404L2.42157 6.60908Z" fill="#FBBC04"/>
<path d="M5.51357 2.19555C6.30213 2.18014 7.06007 2.48054 7.6266 3.02742L9.20372 1.4407C8.2008 0.500997 6.88398 -0.0150698 5.51357 0.00033522C3.43116 0.00033522 1.52484 1.18652 0.59082 3.05823L2.42058 4.49089C2.85697 3.17376 4.07426 2.19555 5.51357 2.19555Z" fill="#EA4335"/>
</svg>
