<svg width="48" height="48" viewBox="0 0 48 48" fill="none" xmlns="http://www.w3.org/2000/svg">
<rect x="1" y="1" width="46" height="46" rx="23" fill="white" stroke="black" stroke-width="2"/>
<path fill-rule="evenodd" clip-rule="evenodd" d="M24.031 30.7323C22.4389 32.0632 20.3737 32.8667 18.1169 32.8667C13.0818 32.8667 9 28.8671 9 23.9333C9 18.9996 13.0818 15 18.1169 15C20.3737 15 22.4389 15.8035 24.031 17.1344C25.623 15.8035 27.6883 15 29.945 15C34.9801 15 39.0619 18.9996 39.0619 23.9333C39.0619 28.8671 34.9801 32.8667 29.945 32.8667C27.6883 32.8667 25.623 32.0632 24.031 30.7323Z" fill="#ED0006"/>
<path fill-rule="evenodd" clip-rule="evenodd" d="M24.0293 30.7323C25.9893 29.0937 27.2321 26.6557 27.2321 23.9333C27.2321 21.2109 25.9893 18.7729 24.0293 17.1344C25.6214 15.8035 27.6866 15 29.9434 15C34.9785 15 39.0603 18.9996 39.0603 23.9333C39.0603 28.8671 34.9785 32.8667 29.9434 32.8667C27.6866 32.8667 25.6214 32.0632 24.0293 30.7323Z" fill="#F9A000"/>
<path fill-rule="evenodd" clip-rule="evenodd" d="M24.031 30.7327C25.991 29.0941 27.2338 26.6561 27.2338 23.9337C27.2338 21.2113 25.991 18.7733 24.031 17.1348C22.0709 18.7733 20.8281 21.2113 20.8281 23.9337C20.8281 26.6561 22.0709 29.0941 24.031 30.7327Z" fill="#FF5E00"/>
</svg>
