<svg width="48" height="48" viewBox="0 0 48 48" fill="none" xmlns="http://www.w3.org/2000/svg">
<rect x="1" y="1" width="46" height="46" rx="23" fill="white" stroke="black" stroke-width="2"/>
<path fill-rule="evenodd" clip-rule="evenodd" d="M21.1228 31.9577L21.4196 30.0256L20.7585 30.0098H17.6016L19.7955 15.7516C19.8023 15.7084 19.8244 15.6684 19.8567 15.6399C19.8891 15.6113 19.9304 15.5957 19.9737 15.5957H25.2967C27.064 15.5957 28.2835 15.9726 28.9201 16.7165C29.2186 17.0655 29.4087 17.4303 29.5008 17.8315C29.5973 18.2527 29.5989 18.7558 29.5047 19.3696L29.4979 19.4142V19.8075L29.7964 19.9809C30.0477 20.1176 30.2476 20.274 30.4008 20.453C30.6561 20.7515 30.8212 21.1308 30.891 21.5803C30.9632 22.0427 30.9393 22.5931 30.8212 23.2161C30.685 23.9326 30.4648 24.5568 30.1674 25.0674C29.894 25.538 29.5456 25.9283 29.1318 26.2307C28.7368 26.5181 28.2676 26.7363 27.737 26.8759C27.2228 27.0131 26.6365 27.0823 25.9935 27.0823H25.5793C25.2832 27.0823 24.9955 27.1917 24.7696 27.3877C24.5431 27.5877 24.3933 27.8611 24.3474 28.1601L24.3161 28.3341L23.7917 31.7397L23.768 31.8647C23.7616 31.9043 23.7508 31.924 23.7349 31.9374C23.7208 31.9496 23.7004 31.9577 23.6806 31.9577H21.1228Z" fill="#28356A"/>
<path fill-rule="evenodd" clip-rule="evenodd" d="M30.0774 19.459C30.0616 19.5631 30.0434 19.6695 30.023 19.7788C29.3211 23.473 26.9194 24.7492 23.8521 24.7492H22.2904C21.9152 24.7492 21.5991 25.0283 21.5407 25.4076L20.5147 32.0786C20.4767 32.3277 20.6639 32.5521 20.909 32.5521H23.679C24.007 32.5521 24.2856 32.3078 24.3373 31.9763L24.3645 31.8321L24.886 28.4398L24.9195 28.2537C24.9706 27.921 25.2499 27.6767 25.5778 27.6767H25.992C28.6757 27.6767 30.7766 26.56 31.3907 23.3282C31.6471 21.9781 31.5144 20.8509 30.8356 20.0581C30.6302 19.8191 30.3754 19.6206 30.0774 19.459Z" fill="#298FC2"/>
<path fill-rule="evenodd" clip-rule="evenodd" d="M29.3434 19.1586C29.2361 19.1265 29.1255 19.0975 29.012 19.0713C28.8979 19.0457 28.781 19.0231 28.6607 19.0032C28.2396 18.9335 27.7782 18.9004 27.284 18.9004H23.1118C23.009 18.9004 22.9114 18.9242 22.8241 18.9672C22.6316 19.062 22.4887 19.2487 22.4541 19.4773L21.5664 25.2394L21.541 25.4073C21.5994 25.028 21.9155 24.749 22.2907 24.749H23.8524C26.9197 24.749 29.3213 23.4721 30.0233 19.7786C30.0443 19.6692 30.0619 19.5628 30.0777 19.4587C29.9001 19.3621 29.7078 19.2795 29.5006 19.2091C29.4495 19.1917 29.3967 19.1749 29.3434 19.1586Z" fill="#22284F"/>
<path fill-rule="evenodd" clip-rule="evenodd" d="M22.4558 19.4782C22.4905 19.2496 22.6334 19.0629 22.8259 18.9687C22.9138 18.9255 23.0108 18.9018 23.1136 18.9018H27.2858C27.78 18.9018 28.2414 18.935 28.6625 19.0047C28.7828 19.0244 28.8996 19.0472 29.0138 19.0728C29.1273 19.0989 29.2379 19.1281 29.3452 19.16C29.3985 19.1763 29.4512 19.1932 29.5029 19.21C29.71 19.2804 29.9025 19.3637 30.0801 19.4596C30.2889 18.0945 30.0783 17.165 29.3582 16.3233C28.5642 15.3966 27.1314 15 25.2978 15H19.9747C19.6002 15 19.2807 15.2791 19.2228 15.659L17.0057 30.0638C16.962 30.3488 17.1764 30.6059 17.4568 30.6059H20.7431L22.4558 19.4782Z" fill="#28356A"/>
</svg>
