<svg width="48" height="48" viewBox="0 0 48 48" fill="none" xmlns="http://www.w3.org/2000/svg">
<rect x="1" y="1" width="46" height="46" rx="23" fill="white" stroke="#FF4C3B" stroke-width="2"/>
<path fill-rule="evenodd" clip-rule="evenodd" d="M16.0003 29.3443H13.2309L11.1542 21.2565C11.0557 20.8845 10.8464 20.5555 10.5385 20.4005C9.7702 20.011 8.92358 19.7009 8 19.5446V19.2332H12.4613C13.077 19.2332 13.5388 19.7009 13.6158 20.2442L14.6933 26.0782L17.4613 19.2332H20.1538L16.0003 29.3443ZM21.6916 29.3443H19.0762L21.2298 19.2332H23.8453L21.6916 29.3443ZM27.2303 22.0343C27.3073 21.4897 27.7691 21.1783 28.3078 21.1783C29.1545 21.1001 30.0767 21.2565 30.8463 21.6447L31.3081 19.4677C30.5385 19.1564 29.6919 19 28.9236 19C26.3851 19 24.5379 20.4005 24.5379 22.3443C24.5379 23.823 25.8463 24.5995 26.7699 25.0672C27.7691 25.5336 28.1539 25.845 28.0769 26.3114C28.0769 27.011 27.3073 27.3224 26.539 27.3224C25.6154 27.3224 24.6918 27.0892 23.8466 26.6996L23.3848 28.8779C24.3083 29.2662 25.3075 29.4225 26.2311 29.4225C29.0775 29.4994 30.8463 28.1002 30.8463 26C30.8463 23.3553 27.2303 23.2003 27.2303 22.0343ZM39.998 29.3443L37.9213 19.2332H35.6907C35.2289 19.2332 34.7671 19.5446 34.6131 20.011L30.7676 29.3443H33.46L33.9974 27.8669H37.3056L37.6134 29.3443H39.998ZM36.0787 21.9561L36.847 25.7668H34.6934L36.0787 21.9561Z" fill="#172B85"/>
</svg>
