<svg width="32" height="11" viewBox="0 0 32 11" fill="none" xmlns="http://www.w3.org/2000/svg">
<path fill-rule="evenodd" clip-rule="evenodd" d="M8.00034 10.3443H5.23094L3.15423 2.25649C3.05566 1.88445 2.84636 1.55554 2.5385 1.40053C1.7702 1.01096 0.923583 0.700931 0 0.544566V0.233185H4.46129C5.07701 0.233185 5.5388 0.700931 5.61576 1.24416L6.69328 7.07818L9.46133 0.233185H12.1538L8.00034 10.3443ZM13.6916 10.3443H11.0762L13.2298 0.233185H15.8453L13.6916 10.3443ZM19.2303 3.03429C19.3073 2.4897 19.7691 2.17832 20.3078 2.17832C21.1545 2.10014 22.0767 2.25651 22.8463 2.64472L23.3081 0.467746C22.5385 0.156365 21.6919 0 20.9236 0C18.3851 0 16.5379 1.40054 16.5379 3.34432C16.5379 4.82304 17.8463 5.59948 18.7699 6.06722C19.7691 6.53362 20.1539 6.845 20.0769 7.3114C20.0769 8.011 19.3073 8.32238 18.539 8.32238C17.6154 8.32238 16.6918 8.08918 15.8466 7.69962L15.3848 9.87794C16.3083 10.2662 17.3075 10.4225 18.2311 10.4225C21.0775 10.4994 22.8463 9.10016 22.8463 7.00002C22.8463 4.3553 19.2303 4.20028 19.2303 3.03429ZM31.998 10.3443L29.9213 0.233185H27.6907C27.2289 0.233185 26.7671 0.544566 26.6131 1.01096L22.7676 10.3443H25.46L25.9974 8.86694H29.3056L29.6134 10.3443H31.998ZM28.0787 2.95611L28.847 6.76683H26.6934L28.0787 2.95611Z" fill="#172B85"/>
</svg>
